<svg width="61" height="58" viewBox="0 0 61 58" fill="none" xmlns="http://www.w3.org/2000/svg">
<rect width="60.3718" height="58" fill="white"/>
<path d="M36.9777 15.225C36.5168 15.6767 36.2587 16.2841 36.2587 16.9167C36.2587 17.5492 36.5168 18.1566 36.9777 18.6083L41.0025 22.475C41.4727 22.9178 42.1049 23.1658 42.7634 23.1658C43.4218 23.1658 44.054 22.9178 44.5242 22.475L54.0076 13.3642C55.2725 16.0495 55.6555 19.0415 55.1055 21.9413C54.5556 24.841 53.0988 27.5109 50.9294 29.5952C48.7599 31.6794 45.9808 33.0789 42.9625 33.6073C39.9441 34.1356 36.8298 33.7677 34.0346 32.5525L16.6526 49.2517C15.6518 50.2131 14.2946 50.7532 12.8793 50.7532C11.4641 50.7532 10.1068 50.2131 9.10608 49.2517C8.10535 48.2902 7.54315 46.9863 7.54315 45.6267C7.54315 44.267 8.10535 42.9631 9.10608 42.0017L26.4881 25.3025C25.2233 22.6171 24.8403 19.6252 25.3902 16.7254C25.9402 13.8256 27.3969 11.1557 29.5664 9.07149C31.7358 6.98727 34.5149 5.58773 37.5333 5.05939C40.5517 4.53104 43.666 4.89897 46.4611 6.11416L37.0029 15.2008L36.9777 15.225Z" stroke="#458FF6" stroke-width="3" stroke-linecap="round" stroke-linejoin="round"/>
</svg>
