<svg width="36" height="46" viewBox="0 0 36 46" fill="none" xmlns="http://www.w3.org/2000/svg">
<path d="M5.19355 46H30.4194C33.2877 46 35.6129 43.6748 35.6129 40.8064V13.4265C35.6129 11.9632 34.9956 10.5679 33.9129 9.58359L24.8567 1.35063C23.9007 0.481555 22.6551 0 21.3631 0H5.19355C2.32523 0 0 2.32523 0 5.19355V40.8065C0 43.6748 2.32523 46 5.19355 46Z" fill="#8E8CFB"/>
<path d="M32.0116 12.7206L22.8911 3.60008C22.6574 3.36638 22.2578 3.5319 22.2578 3.86239V12.9829C22.2578 13.1878 22.4239 13.3539 22.6288 13.3539H31.7493C32.0798 13.3539 32.2453 12.9543 32.0116 12.7206Z" fill="white"/>
<path d="M7.05551 22.6123H10.7236C11.6337 22.6123 12.342 22.8339 12.8485 23.2771C13.355 23.7124 13.6083 24.3099 13.6083 25.0696C13.6083 25.8294 13.3511 26.4308 12.8367 26.874C12.3302 27.3172 11.6258 27.5388 10.7236 27.5388H8.58686V31.0645H7.05551V22.6123ZM10.5456 26.3517C11.0758 26.3517 11.4755 26.2448 11.7445 26.0312C12.0215 25.8096 12.16 25.493 12.16 25.0815C12.16 24.662 12.0255 24.3455 11.7564 24.1318C11.4873 23.9102 11.0837 23.7994 10.5456 23.7994H8.58686V26.3517H10.5456ZM17.8227 31.1713C17.1737 31.1713 16.5643 31.0842 15.9945 30.9101C15.4326 30.736 14.9538 30.4867 14.5581 30.1623L15.0805 29.0464C15.492 29.355 15.9194 29.5845 16.3625 29.7349C16.8136 29.8774 17.3043 29.9486 17.8345 29.9486C18.4202 29.9486 18.8713 29.8457 19.1878 29.6399C19.5123 29.4342 19.6745 29.1453 19.6745 28.7734C19.6745 28.4568 19.5242 28.2154 19.2234 28.0492C18.9306 27.8751 18.4439 27.7129 17.7633 27.5625C16.7028 27.333 15.9312 27.0362 15.4485 26.6722C14.9657 26.3082 14.7243 25.7779 14.7243 25.0815C14.7243 24.5829 14.8589 24.1397 15.128 23.7519C15.397 23.3642 15.7769 23.0595 16.2676 22.8379C16.7661 22.6163 17.3399 22.5055 17.9889 22.5055C18.5824 22.5055 19.1443 22.5965 19.6745 22.7785C20.2127 22.9526 20.6519 23.198 20.9922 23.5145L20.4818 24.6304C19.7299 24.0289 18.899 23.7282 17.9889 23.7282C17.4428 23.7282 17.0115 23.8429 16.6949 24.0725C16.3784 24.294 16.2201 24.5987 16.2201 24.9865C16.2201 25.3189 16.3586 25.5722 16.6356 25.7463C16.9205 25.9204 17.4032 26.0826 18.0838 26.233C18.7882 26.3992 19.3619 26.5812 19.8051 26.779C20.2483 26.969 20.5886 27.2183 20.826 27.5269C21.0634 27.8276 21.1821 28.2075 21.1821 28.6665C21.1821 29.173 21.0476 29.6162 20.7785 29.9961C20.5095 30.368 20.1217 30.6569 19.6152 30.8626C19.1087 31.0684 18.5112 31.1713 17.8227 31.1713ZM22.6014 22.6123H25.7116C27.0965 22.6123 28.1689 22.9803 28.9286 23.7163C29.6963 24.4523 30.0801 25.4891 30.0801 26.8265C30.0801 28.1719 29.6963 29.2165 28.9286 29.9605C28.1689 30.6965 27.0965 31.0645 25.7116 31.0645H22.6014V22.6123ZM25.6166 29.818C27.5634 29.818 28.5369 28.8208 28.5369 26.8265C28.5369 24.848 27.5634 23.8588 25.6166 23.8588H24.1327V29.818H25.6166Z" fill="white"/>
</svg>
