<svg width="14" height="14" viewBox="0 0 14 14" fill="none" xmlns="http://www.w3.org/2000/svg">
<circle cx="7" cy="7" r="7" fill="#FF5722"/>
<path d="M7.00819 8.93342C6.71171 8.93342 6.47152 8.70665 6.47152 8.42694C6.47152 8.42694 6.14106 4.78315 6.14063 3.56413C6.14048 3.20348 6.52912 2.95557 7.00833 2.95557C7.45546 2.95557 7.8584 3.1819 7.8584 3.55363C7.8584 4.79234 7.545 8.42694 7.545 8.42694C7.54486 8.70665 7.30452 8.93342 7.00819 8.93342Z" fill="white"/>
<path d="M6.26758 10.3151C6.26758 10.5085 6.3444 10.694 6.48115 10.8307C6.61789 10.9674 6.80336 11.0443 6.99675 11.0443C7.19013 11.0443 7.3756 10.9674 7.51234 10.8307C7.64909 10.694 7.72591 10.5085 7.72591 10.3151C7.72591 10.1217 7.64909 9.93625 7.51234 9.79951C7.3756 9.66276 7.19013 9.58594 6.99675 9.58594C6.80336 9.58594 6.61789 9.66276 6.48115 9.79951C6.3444 9.93625 6.26758 10.1217 6.26758 10.3151Z" fill="white"/>
</svg>
