<svg width="58" height="58" viewBox="0 0 58 58" fill="none" xmlns="http://www.w3.org/2000/svg">
<path d="M48.3333 16.9167H9.66665C6.99727 16.9167 4.83331 19.0806 4.83331 21.75V45.9167C4.83331 48.5861 6.99727 50.75 9.66665 50.75H48.3333C51.0027 50.75 53.1666 48.5861 53.1666 45.9167V21.75C53.1666 19.0806 51.0027 16.9167 48.3333 16.9167Z" stroke="#458FF6" stroke-width="3" stroke-linecap="round" stroke-linejoin="round"/>
<path d="M38.6666 50.75V12.0833C38.6666 10.8015 38.1574 9.57208 37.251 8.66565C36.3446 7.75922 35.1152 7.25 33.8333 7.25H24.1666C22.8848 7.25 21.6554 7.75922 20.749 8.66565C19.8425 9.57208 19.3333 10.8015 19.3333 12.0833V50.75" stroke="#458FF6" stroke-width="3" stroke-linecap="round" stroke-linejoin="round"/>
</svg>
