<svg width="1006" height="571" viewBox="0 0 1006 571" xmlns="http://www.w3.org/2000/svg"><g fill-rule="nonzero" fill="none"><path d="M14.07 76.054c49.9-106.132 227.157-91.17 295.563-16.516 68.407 74.653 90.649 122.487 152.351 94.633 61.701-27.854 140.389-20.427 144.823 68.154 4.434 88.58-67.71 193.266-182.513 224.245C309.49 477.549 309.58 587.198 157.712 565.075c-82.8-12.07-84.677-101.525-72.983-175.517 11.693-73.993-128.553-190.392-70.66-313.504h.001z" fill="#458FF6"/><path d="M14.07 76.054c49.9-106.132 227.157-91.17 295.563-16.516 68.407 74.653 90.649 122.487 152.351 94.633 61.701-27.854 140.389-20.427 144.823 68.154 4.434 88.58-67.71 193.266-182.513 224.245C309.49 477.549 309.58 587.198 157.712 565.075c-82.8-12.07-84.677-101.525-72.983-175.517 11.693-73.993-128.553-190.392-70.66-313.504h.001z" fill="#FFF" opacity=".9"/><path d="M1006 497.393H198v.404h808v-.404zm-80.962 26.002h-53.522v.404h53.522v-.404zm-191.786 4.395h-14.044v.404h14.044v-.404zm136.649-19.392h-31.012v.404h31.012v-.404zm-517.331 2.715h-69.795v.404h69.795v-.404zm24.628 0h-10.229v.404h10.229v-.404zm184.644 6.819H410.456v.404h151.386v-.404z" fill="#EBEBEB"/><path d="M885.188 468.677c.388-4.622-.243-10.601-5.624-12.379-9.146-3.022-14.544-10.084-14.253-18.083.291-7.999-9.308-15.788-16.515-8.29-7.208 7.498-6.254-5.769-15.87-9.001-9.615-3.232-17.776 4.605-15.125 11.748 2.65 7.143-6.852 11.619-18.213 5.543-11.36-6.076-23.868 4.977-21.46 13.623 2.408 8.645.436 9.696-6.755 6.739-5.801-2.344-15.304 2.553-16.37 10.1h130.185zm-485.64 0c.436-3.669.242-9.001-4.283-10.488-7.094-2.343-11.312-7.838-11.069-14.043.242-6.206-7.224-12.266-12.815-6.464-5.592 5.801-4.848-4.476-12.314-6.981s-13.801 3.571-11.749 9.114c2.053 5.543-5.332 9.017-14.14 4.299-8.807-4.719-18.519 3.894-16.661 10.617 1.859 6.722.34 7.449-5.235 5.219-4.735-1.89-12.589 2.376-12.767 8.727h101.033zm11.764 0h165.963c2.343-7.789-3.7-17.13-10.278-18.455-8.08-1.616-16.16-15.837-16.58-24.886-.42-9.05-14.932-36.894-37.556-19.699-22.624 17.194-15.739 2.537-32.109-2.295-16.371-4.832-26.697 9.066-19.506 19.489 0 0-16.45-4.121-23.222 11.231-6.771 15.352 0 24.886 0 24.886s-20.781-.598-26.712 9.729z" fill="#E0E0E0"/><path d="M672.361 33.052a7.82 7.82 0 0 1 10.051-7.483 16.5 16.5 0 0 1 16.354-18.923c1.024 0 2.046.092 3.054.275a14.448 14.448 0 0 1 26.777 7.304h.243c7.354 0 13.316 5.962 13.316 13.316 0 7.354-5.962 13.316-13.316 13.316h-48.884a7.792 7.792 0 0 1-7.595-7.805zM397.285 79.075a7.823 7.823 0 0 1 7.805-7.821 7.954 7.954 0 0 1 2.247.339c-.125-.79-.185-1.59-.178-2.391a16.531 16.531 0 0 1 16.532-16.532c1.018.001 2.035.093 3.038.275a14.447 14.447 0 0 1 26.793 7.304h.242c7.354 0 13.316 5.962 13.316 13.316 0 7.354-5.962 13.316-13.316 13.316h-48.916a7.79 7.79 0 0 1-7.563-7.806zm177.146-22.64a4.864 4.864 0 0 1 .512-2.179 4.857 4.857 0 0 1 5.726-2.475 11.2 11.2 0 0 1-.113-1.487c.001-5.675 4.602-10.276 10.277-10.277.635.001 1.268.061 1.891.177a8.99 8.99 0 0 1 10.04-4 8.983 8.983 0 0 1 6.621 8.541h.146a8.298 8.298 0 0 1 7.989 5.026 8.29 8.29 0 0 1-7.989 11.538h-30.397a4.844 4.844 0 0 1-3.34-1.476 4.843 4.843 0 0 1-1.363-3.388zm-268.078-9.486a4.855 4.855 0 0 1 1.953-3.904 4.86 4.86 0 0 1 4.301-.75 11.2 11.2 0 0 1-.113-1.487 10.275 10.275 0 0 1 12.168-10.1 8.99 8.99 0 0 1 10.04-4 8.983 8.983 0 0 1 6.621 8.541h.145a8.274 8.274 0 0 1 0 16.548H311.12a4.847 4.847 0 0 1-4.767-4.848zm541.085 29.33a4.851 4.851 0 0 1 4.848-4.848c.47-.003.938.063 1.39.194-.065-.493-.098-.99-.097-1.486a10.281 10.281 0 0 1 10.278-10.278c.634.001 1.267.061 1.89.178a8.974 8.974 0 0 1 10.037-4.015 8.964 8.964 0 0 1 6.608 8.556h.162a8.27 8.27 0 0 1 8.274 8.274 8.273 8.273 0 0 1-8.274 8.273h-30.397a4.847 4.847 0 0 1-4.719-4.848z" fill="#F5F5F5"/><path d="M427.569 214.658a14.934 14.934 0 0 1-.453-3.038c-.371-6.287-6.383-5.285-11.489-6.141-3.992-.663 6.577-10.763-1.471-14.011a7.156 7.156 0 0 1-3.894-2.715 4.57 4.57 0 0 1 1.761-5.575 10.776 10.776 0 0 1 6.109-1.616c1.308-1.616.242-3.991-1.019-5.624-1.26-1.632-2.828-3.49-2.343-5.494.727-3.038 4.961-3.151 8.08-2.569 1.131-1.827 1.099-4.121 1.616-6.206.517-2.085 2.214-4.266 4.347-4.008 2.133.259 3.232 2.521 5.236 2.99 2.295.533 4.283-1.487 6.076-3.022 1.794-1.535 4.961-2.472 6.19-.469.743 1.212.307 2.877 1.082 4.057 1.325 2.052 4.509.791 6.464-.663 1.956-1.454 5.107-2.779 6.464-.759.346.663.602 1.369.76 2.1.937 2.699 3.846 4.04 6.108 5.753 2.263 1.713 4.056 5.155 2.15 7.256-.954 1.051-2.618 1.471-3.087 2.78-.582 1.616 1.099 3.135 2.44 4.282 2.23 1.891 2.634 7.547-.307 9.098-1.244.647-3.054.857-3.361 2.214-.307 1.357.969 2.165 1.794 3.103a5.843 5.843 0 0 1 1.109 4.768 5.84 5.84 0 0 1-2.903 3.942c-.695.339-1.616.614-1.826 1.341a2.769 2.769 0 0 0 .161 1.616c.3 1.05.399 2.146.291 3.232.006.367-.133.722-.388.986a1.453 1.453 0 0 1-.937.275c-4.25.178-6.286-1.325-8.888 2.375-.217.379-.522.7-.889.938-.36.186-.758.286-1.163.29-2.925.243-4.848-1.616-7.498-1.923-3.701-.468-4.493 1.439-7.741 2.974-5.123 2.44-7.611.953-8.581-2.537z" fill="#EBEBEB"/><path d="M476.501 209.373a13.755 13.755 0 0 1-.468-3.038c-.372-6.286-6.464-5.284-11.49-6.141-3.992-.678 6.577-10.762-1.471-14.01a7.161 7.161 0 0 1-3.894-2.715 4.575 4.575 0 0 1 1.761-5.575 10.775 10.775 0 0 1 6.109-1.536c1.325-1.616.242-4.007-1.018-5.623-1.261-1.616-2.828-3.491-2.343-5.511.727-3.022 4.961-3.135 8.08-2.553 1.131-1.826 1.115-4.121 1.616-6.206.5-2.084 2.197-4.266 4.347-4.007 2.149.258 3.232 2.521 5.219 2.989 2.295.534 4.283-1.503 6.076-3.022 1.794-1.519 4.962-2.472 6.19-.468.743 1.212.307 2.876 1.082 4.056 1.326 2.052 4.509.776 6.464-.663 1.956-1.438 5.107-2.779 6.464-.759.352.662.613 1.369.776 2.101.921 2.698 3.83 4.023 6.092 5.753 2.263 1.729 4.057 5.155 2.15 7.255-.954 1.035-2.618 1.471-3.087 2.78-.582 1.616 1.099 3.135 2.44 4.282 2.23 1.891 2.634 7.547-.307 9.098-1.244.647-3.054.857-3.345 2.214-.291 1.358.954 2.166 1.778 3.103a5.836 5.836 0 0 1-1.794 8.71c-.695.323-1.616.614-1.826 1.342a2.77 2.77 0 0 0 .161 1.616 8.637 8.637 0 0 1 .291 3.151 1.163 1.163 0 0 1-1.325 1.26c-4.25.178-6.286-1.325-8.888 2.376a2.74 2.74 0 0 1-.889.937c-.36.187-.758.286-1.163.291-2.925.242-4.848-1.616-7.498-1.923-3.701-.469-4.493 1.438-7.741 2.973-5.107 2.44-7.595.954-8.549-2.537z" fill="#EBEBEB"/><path d="M481.204 178.217a14.833 14.833 0 0 1-.404-3.054c-.372-6.287-6.383-5.285-11.49-6.141-3.991-.663 6.577-10.763-1.47-14.011a7.078 7.078 0 0 1-3.895-2.715 4.572 4.572 0 0 1 1.762-5.575 10.906 10.906 0 0 1 6.108-1.535c1.309-1.616.242-3.992-1.018-5.624-1.261-1.632-2.828-3.49-2.359-5.494.727-3.038 4.977-3.232 8.08-2.554 1.131-1.842 1.098-4.137 1.616-6.221.517-2.085 2.213-4.266 4.347-4.008 2.133.259 3.232 2.521 5.235 2.99 2.295.533 4.283-1.487 6.077-3.022 1.793-1.535 4.945-2.473 6.189-.469.743 1.212.307 2.877 1.066 4.073 1.342 2.036 4.509.775 6.464-.679 1.956-1.455 5.107-2.78 6.464-.76.344.664.6 1.37.76 2.101.937 2.699 3.846 4.04 6.108 5.753 2.263 1.713 4.057 5.155 2.134 7.256-.938 1.05-2.602 1.47-3.071 2.796-.582 1.616 1.099 3.135 2.44 4.266 2.23 1.891 2.618 7.547-.323 9.098-1.228.646-3.038.856-3.345 2.214-.307 1.357.97 2.165 1.794 3.103a5.856 5.856 0 0 1 1.101 4.766 5.859 5.859 0 0 1-2.895 3.944c-.711.339-1.616.614-1.842 1.357a2.865 2.865 0 0 0 .178 1.616 8.32 8.32 0 0 1 .274 3.151c.01.365-.122.719-.371.986a1.49 1.49 0 0 1-.938.275c-4.25.178-6.302-1.325-8.888 2.375a2.906 2.906 0 0 1-.888.938c-.36.185-.759.284-1.164.291-2.925.242-4.848-1.616-7.498-1.923-3.701-.469-4.493 1.438-7.757 2.973-5.123 2.489-7.611.97-8.581-2.537z" fill="#EBEBEB"/><path d="M513.427 193.731a14.85 14.85 0 0 1-.452-3.022c-.372-6.303-6.384-5.301-11.49-6.157-3.992-.663 6.577-10.747-1.471-14.011a7.06 7.06 0 0 1-3.894-2.699 4.59 4.59 0 0 1 1.761-5.591 10.912 10.912 0 0 1 6.109-1.535c1.309-1.616.242-3.992-1.018-5.624-1.261-1.632-2.828-3.491-2.36-5.494.727-3.038 4.977-3.232 8.08-2.554 1.131-1.842 1.099-4.137 1.616-6.221.517-2.085 2.214-4.267 4.347-4.008 2.133.259 3.232 2.521 5.236 2.99 2.295.533 4.282-1.487 6.076-3.006 1.794-1.519 4.961-2.473 6.189-.469.744 1.196.308 2.877 1.067 4.056 1.341 2.053 4.525.776 6.464-.678 1.939-1.455 5.107-2.764 6.464-.76.344.67.6 1.381.76 2.117.937 2.683 3.846 4.024 6.108 5.753 2.262 1.729 4.056 5.139 2.133 7.256-.937 1.034-2.602 1.454-3.07 2.779-.582 1.616 1.099 3.135 2.44 4.267 2.23 1.89 2.634 7.563-.307 9.098-1.244.662-3.054.856-3.361 2.214-.307 1.357.969 2.165 1.793 3.102a5.871 5.871 0 0 1-1.793 8.711c-.711.339-1.616.614-1.826 1.357a2.729 2.729 0 0 0 .161 1.616 8.34 8.34 0 0 1 .275 3.151 1.45 1.45 0 0 1-.372 1.002c-.278.18-.605.271-.937.259-4.25.194-6.303-1.309-8.888 2.375a2.909 2.909 0 0 1-.889.938 2.84 2.84 0 0 1-1.163.307c-2.925.226-4.848-1.616-7.499-1.923-3.7-.485-4.492 1.438-7.756 2.957-5.075 2.44-7.563.953-8.533-2.553z" fill="#EBEBEB"/><path d="M546.006 186.572a13.757 13.757 0 0 1-.469-3.038c-.372-6.287-6.383-5.301-11.49-6.141-3.991-.679 6.577-10.763-1.47-14.011a7.065 7.065 0 0 1-3.879-2.715 4.544 4.544 0 0 1 1.746-5.575 10.645 10.645 0 0 1 6.108-1.616c1.325-1.616.259-4.008-1.018-5.64-1.277-1.632-2.828-3.474-2.343-5.494.727-3.022 4.961-3.135 8.08-2.554 1.131-1.826 1.115-4.12 1.616-6.205.501-2.085 2.197-4.282 4.347-4.008 2.149.275 3.232 2.521 5.219 2.99 2.295.533 4.283-1.503 6.077-3.022 1.793-1.519 4.961-2.472 6.205-.469.743 1.196.291 2.877 1.067 4.057 1.341 2.052 4.508.775 6.464-.679 1.955-1.455 5.106-2.764 6.464-.744.351.663.612 1.369.775 2.101.921 2.699 3.83 4.024 6.093 5.753 2.262 1.729 4.056 5.155 2.149 7.256-.954 1.034-2.618 1.454-3.087 2.78-.581 1.616 1.115 3.135 2.44 4.282 2.231 1.891 2.635 7.547-.307 9.098-1.244.646-3.054.84-3.345 2.214-.291 1.374.954 2.165 1.778 3.103a5.812 5.812 0 0 1-1.794 8.694c-.695.339-1.616.63-1.826 1.357a2.76 2.76 0 0 0 .162 1.616c.3 1.05.398 2.146.291 3.232a1.134 1.134 0 0 1-1.326 1.245c-4.233.193-6.286-1.309-8.888 2.391-.22.371-.518.691-.872.938-.366.185-.77.284-1.18.29-2.925.243-4.848-1.616-7.498-1.923-3.701-.468-4.476 1.439-7.741 2.974-5.106 2.44-7.595.953-8.548-2.537z" fill="#EBEBEB"/><path d="M546.426 221.413a11.453 11.453 0 0 1-.356-2.392c-.307-4.961-5.026-4.169-9.049-4.848-3.152-.517 5.171-8.468-1.164-11.021a5.608 5.608 0 0 1-3.054-2.133 3.57 3.57 0 0 1 1.373-4.396 8.532 8.532 0 0 1 4.848-1.212c1.035-1.26.194-3.151-.808-4.428-1.001-1.276-2.23-2.747-1.842-4.331.566-2.391 3.911-2.472 6.319-2.02a17.572 17.572 0 0 0 1.309-4.848c.436-1.616 1.745-3.361 3.426-3.232 1.68.13 2.553 1.988 4.104 2.36 1.81.42 3.378-1.18 4.848-2.376 1.471-1.196 3.895-1.939 4.848-.371.598.953.243 2.262.857 3.232 1.05 1.616 3.539.614 5.09-.534 1.552-1.147 4.024-2.181 5.123-.598.262.513.463 1.056.598 1.616.727 2.117 3.022 3.232 4.848 4.525 1.826 1.293 3.232 4.056 1.616 5.721-.744.808-2.052 1.147-2.408 2.181-.469 1.309.856 2.473 1.907 3.362 1.761 1.503 2.068 5.963-.243 7.175-.969.517-2.391.662-2.634 1.745-.242 1.083.76 1.616 1.406 2.44a4.593 4.593 0 0 1 .873 3.749 4.598 4.598 0 0 1-2.279 3.103c-.565.275-1.244.485-1.454 1.067-.088.435-.038.887.145 1.292.224.81.295 1.654.211 2.489.004.286-.1.563-.291.776-.221.144-.48.217-.744.21-3.345.145-4.961-1.035-6.997 1.874-.18.292-.416.545-.695.744a2.213 2.213 0 0 1-.921.226c-2.295.194-3.798-1.244-5.898-1.519-2.925-.372-3.539 1.131-6.109 2.343-4.088 1.875-6.044.776-6.803-1.971z" fill="#EBEBEB"/><path d="M564.67 209.373a14.843 14.843 0 0 1-.452-3.038c-.372-6.286-6.464-5.284-11.49-6.141-4.008-.678 6.577-10.762-1.47-14.01a7.114 7.114 0 0 1-3.895-2.715 4.575 4.575 0 0 1 1.761-5.575 10.743 10.743 0 0 1 6.109-1.536c1.309-1.616.242-4.007-1.034-5.623-1.277-1.616-2.828-3.491-2.344-5.511.728-3.022 4.978-3.135 8.08-2.553 1.148-1.826 1.116-4.121 1.616-6.206.501-2.084 2.214-4.266 4.348-4.007 2.133.258 3.232 2.521 5.235 2.989 2.295.534 4.283-1.503 6.077-3.022 1.793-1.519 4.944-2.472 6.189-.468.743 1.212.307 2.876 1.066 4.056 1.342 2.052 4.509.776 6.464-.663 1.956-1.438 5.107-2.779 6.464-.759.346.663.602 1.369.76 2.101.937 2.698 3.846 4.023 6.108 5.753 2.263 1.729 4.057 5.155 2.134 7.255-.938 1.035-2.602 1.471-3.071 2.78-.582 1.616 1.099 3.135 2.44 4.282 2.214 1.891 2.618 7.547-.323 9.098-1.228.647-3.038.857-3.345 2.214-.307 1.358.97 2.166 1.794 3.103a5.877 5.877 0 0 1 1.101 4.767 5.859 5.859 0 0 1-2.895 3.943c-.711.323-1.616.614-1.842 1.342a2.78 2.78 0 0 0 .177 1.616 8.298 8.298 0 0 1 .275 3.151c.009.364-.125.718-.372.986a1.484 1.484 0 0 1-.937.274c-4.25.178-6.302-1.325-8.888 2.376-.227.371-.53.691-.889.937a2.63 2.63 0 0 1-1.163.291c-2.925.242-4.848-1.616-7.498-1.923-3.701-.469-4.493 1.438-7.757 2.973-5.139 2.44-7.563.954-8.533-2.537zm-51.243-53.958a14.843 14.843 0 0 1-.452-3.038c-.372-6.286-6.384-5.284-11.49-6.141-3.992-.662 6.577-10.762-1.471-14.011a7.074 7.074 0 0 1-3.894-2.714 4.57 4.57 0 0 1 1.761-5.576 10.92 10.92 0 0 1 6.109-1.616c1.309-1.616.242-3.991-1.018-5.623-1.261-1.632-2.828-3.491-2.36-5.495.727-3.038 4.977-3.151 8.08-2.553 1.131-1.842 1.099-4.137 1.616-6.222.517-2.084 2.214-4.266 4.347-4.007 2.133.258 3.232 2.521 5.236 2.989 2.295.534 4.282-1.486 6.076-3.022 1.794-1.535 4.961-2.472 6.189-.468.744 1.212.308 2.876 1.067 4.056 1.341 2.052 4.525.792 6.464-.663 1.939-1.454 5.107-2.779 6.464-.759.344.664.599 1.37.76 2.101.937 2.698 3.846 4.04 6.108 5.753 2.262 1.713 4.056 5.155 2.133 7.255-.937 1.051-2.602 1.471-3.07 2.796-.582 1.616 1.099 3.119 2.44 4.266 2.23 1.891 2.634 7.547-.307 9.098-1.244.647-3.054.857-3.361 2.214-.307 1.358.969 2.166 1.793 3.103a5.858 5.858 0 0 1 1.101 4.767 5.871 5.871 0 0 1-2.894 3.943c-.711.34-1.616.614-1.826 1.342a2.762 2.762 0 0 0 .161 1.616 8.301 8.301 0 0 1 .275 3.232c.012.365-.122.72-.372.985a1.48 1.48 0 0 1-.937.275c-4.25.178-6.303-1.325-8.888 2.376a2.905 2.905 0 0 1-.889.937 2.59 2.59 0 0 1-1.163.291c-2.925.242-4.848-1.616-7.499-1.923-3.7-.469-4.492 1.438-7.756 2.973-5.075 2.44-7.563.954-8.533-2.537z" fill="#EBEBEB"/><path d="M471.589 157.564a15.207 15.207 0 0 1-.453-3.038c-.371-6.302-6.464-5.3-11.489-6.157-3.992-.662 6.577-10.746-1.471-14.01a7.07 7.07 0 0 1-3.895-2.699 4.604 4.604 0 0 1 1.762-5.592 10.917 10.917 0 0 1 6.108-1.616c1.309-1.616.243-3.991-1.018-5.623-1.26-1.632-2.828-3.491-2.359-5.495.727-3.038 4.977-3.151 8.08-2.553 1.131-1.842 1.099-4.137 1.616-6.221.517-2.085 2.214-4.267 4.347-4.008 2.133.258 3.232 2.521 5.236 2.989 2.295.55 4.282-1.486 6.076-3.005 1.794-1.519 4.961-2.473 6.189-.469.744 1.196.307 2.877 1.067 4.056 1.341 2.053 4.525.776 6.464-.679 1.939-1.454 5.106-2.763 6.464-.743.346.663.601 1.37.759 2.101.938 2.683 3.846 4.024 6.109 5.753 2.262 1.729 4.056 5.155 2.133 7.256-.937 1.034-2.602 1.454-3.07 2.779-.582 1.616 1.098 3.135 2.44 4.266 2.23 1.891 2.634 7.563-.307 9.115-1.245.646-3.055.84-3.362 2.197-.307 1.358.97 2.166 1.794 3.119a5.843 5.843 0 0 1 1.101 4.759 5.843 5.843 0 0 1-2.895 3.935c-.711.34-1.616.615-1.826 1.358a2.778 2.778 0 0 0 .162 1.616c.29 1.023.39 2.092.291 3.151a1.62 1.62 0 0 1-.388.986c-.279.18-.606.271-.937.258-4.25.194-6.303-1.309-8.888 2.376-.226.376-.53.701-.889.953-.363.18-.759.279-1.164.291-2.925.243-4.848-1.616-7.498-1.923-3.701-.468-4.492 1.438-7.757 2.974-5.074 2.521-7.563 1.034-8.532-2.457z" fill="#EBEBEB"/><path d="M446.185 174.678a16 16 0 0 1-.468-3.038c-.372-6.286-6.384-5.285-11.49-6.141-3.992-.679 6.577-10.763-1.471-14.011a7.123 7.123 0 0 1-3.878-2.715 4.538 4.538 0 0 1 1.745-5.575 10.782 10.782 0 0 1 6.109-1.535c1.325-1.616.258-3.992-1.018-5.624-1.277-1.632-2.828-3.49-2.344-5.494.728-3.038 4.962-3.151 8.08-2.57 1.132-1.826 1.115-4.12 1.616-6.205.501-2.085 2.198-4.266 4.347-4.008 2.15.259 3.232 2.521 5.22 2.99 2.295.533 4.283-1.503 6.092-3.022 1.81-1.519 4.945-2.472 6.19-.469.743 1.212.291 2.877 1.066 4.057 1.342 2.052 4.509.791 6.464-.663 1.956-1.454 5.107-2.78 6.464-.76.346.664.602 1.37.76 2.101.921 2.699 3.83 4.04 6.092 5.753 2.263 1.713 4.056 5.155 2.149 7.256-.953 1.05-2.601 1.471-3.086 2.78-.582 1.616 1.115 3.135 2.44 4.282 2.23 1.891 2.634 7.547-.307 9.098-1.228.646-3.054.857-3.345 2.214-.291 1.357.953 2.165 1.777 3.103a5.85 5.85 0 0 1-1.777 8.71c-.711.323-1.616.614-1.842 1.341a2.76 2.76 0 0 0 .161 1.616 8.64 8.64 0 0 1 .291 3.151 1.152 1.152 0 0 1-1.309 1.261c-4.25.178-6.302-1.325-8.904 2.375a2.86 2.86 0 0 1-.873.938 2.701 2.701 0 0 1-1.179.291c-2.925.242-4.848-1.616-7.499-1.923-3.7-.469-4.476 1.438-7.74 2.973-5.091 2.44-7.579.953-8.533-2.537z" fill="#EBEBEB"/><path d="M453.894 196.316s10.617 15.029 14.285 19.796c3.668 4.767 21.994 34.453 24.482 54.087.259 2.085.534 3.895.792 5.462-7.886 52.036-6.658 147.218-6.367 163.507h24.967c.227-18.374 2.344-186.341 3.135-191.463.825-5.43 11.312-26.099 27.392-34.583 16.079-8.484 30.057-36.586 30.057-36.586h-5.139s-9.534 17.21-23.092 26.745a52.129 52.129 0 0 1-6.093 3.62 86.425 86.425 0 0 0-5.397-30.365l-2.78 2.553c3.75 15.352 3.232 25.178 2.117 30.817a55.592 55.592 0 0 0-14.01 9.389c-14.076-18.293-21.978-60.131-21.978-60.131l-3.604 1.972a211.292 211.292 0 0 0 4.655 25.662c2.634 10.827 10.39 31.205 13.994 40.4a95.335 95.335 0 0 0-10.617 19.941 8.403 8.403 0 0 0-1.357-1.616c-9.163-8.29-26.39-47.413-26.39-47.413-4.169-9.098 2.198-32.983 2.198-32.983h-4.848l-2.149 20.879-12.088-13.187-2.198 1.826 12.815 16.5 6.593 20.895-17.21-19.069-2.165 3.345z" fill="#E6E6E6"/><path d="M881.81 270.7c.19-.763.303-1.542.34-2.327.291-4.848 4.848-4.072 8.823-4.718 3.071-.517-5.042-8.258 1.131-10.747a5.382 5.382 0 0 0 2.974-2.084 3.51 3.51 0 0 0-1.342-4.283 8.354 8.354 0 0 0-4.686-1.179c-1.002-1.212-.194-3.071.792-4.315.986-1.244 2.165-2.667 1.794-4.218-.55-2.327-3.814-2.408-6.157-1.955a16.751 16.751 0 0 1-1.277-4.767c-.42-1.616-1.697-3.232-3.345-3.087-1.648.145-2.489 1.939-4.008 2.295-1.519.355-3.232-1.131-4.67-2.311-1.438-1.18-3.798-1.891-4.735-.356-.582.921-.242 2.214-.824 3.119-1.034 1.616-3.458.598-4.977-.517-1.519-1.115-3.911-2.133-4.978-.582a6.008 6.008 0 0 0-.581 1.616c-.727 2.053-2.958 3.087-4.687 4.412-1.729 1.325-3.119 3.959-1.616 5.575.727.792 2.004 1.115 2.36 2.133.355 1.018-.841 2.392-1.859 3.232-1.713 1.455-2.02 5.802.226 6.998.954.484 2.344.646 2.57 1.616.226.969-.727 1.616-1.358 2.375a4.477 4.477 0 0 0 1.374 6.674c.533.259 1.196.469 1.406 1.034.086.429.041.874-.129 1.277a6.725 6.725 0 0 0-.227 2.408c0 .28.104.551.291.759.215.144.469.218.728.211 3.232.145 4.848-1.019 6.819 1.826.17.285.402.528.679.711.273.148.578.226.889.226 2.246.194 3.716-1.212 5.753-1.471 2.844-.355 3.442 1.099 5.946 2.279 3.911 1.955 5.818.824 6.561-1.859z" fill="#EBEBEB"/><path d="M844.271 266.644c.202-.76.322-1.54.355-2.327.291-4.848 4.848-4.072 8.824-4.718 3.054-.518-5.058-8.258 1.115-10.747a5.43 5.43 0 0 0 2.989-2.084 3.53 3.53 0 0 0 .1-2.383 3.53 3.53 0 0 0-1.441-1.9 8.405 8.405 0 0 0-4.703-1.18c-1.002-1.212-.177-3.054.792-4.314.97-1.261 2.166-2.667 1.794-4.218-.549-2.327-3.798-2.408-6.157-1.955a16.782 16.782 0 0 1-1.277-4.768c-.42-1.616-1.616-3.232-3.329-3.086-1.713.145-2.488 1.939-4.007 2.295-1.762.42-3.232-1.132-4.67-2.311-1.439-1.18-3.798-1.891-4.752-.356-.565.921-.226 2.214-.824 3.119-1.018 1.616-3.458.598-4.961-.517-1.503-1.115-3.927-2.133-4.993-.582a6.601 6.601 0 0 0-.582 1.616c-.711 2.069-2.941 3.087-4.686 4.412-1.746 1.325-3.103 3.959-1.616 5.575.727.792 1.987 1.115 2.359 2.133.452 1.261-.857 2.392-1.875 3.232-1.713 1.455-2.02 5.802.243 6.997.937.485 2.327.647 2.569 1.697.243 1.051-.743 1.616-1.373 2.376a4.474 4.474 0 0 0 1.373 6.674c.55.258 1.212.468 1.406 1.05a2.13 2.13 0 0 1-.129 1.261 6.698 6.698 0 0 0-.21 2.408c-.007.281.097.554.291.759.209.142.458.215.711.21 3.232.146 4.848-1.018 6.819 1.826.17.285.402.529.679.711.279.147.589.225.905.226 2.23.194 3.701-1.212 5.753-1.47 2.844-.356 3.442 1.099 5.947 2.278 3.91 1.924 5.817.744 6.561-1.939z" fill="#EBEBEB"/><path d="M840.651 242.744c.203-.761.322-1.541.355-2.327.291-4.848 4.848-4.073 8.824-4.719 3.054-.517-5.058-8.258 1.131-10.746a5.383 5.383 0 0 0 2.973-2.085 3.503 3.503 0 0 0-1.341-4.282 8.382 8.382 0 0 0-4.686-1.18c-1.018-1.228-.194-3.07.775-4.315.97-1.244 2.182-2.682 1.81-4.218-.565-2.327-3.813-2.407-6.173-1.955a16.763 16.763 0 0 1-1.276-4.848c-.421-1.616-1.616-3.232-3.329-3.086-1.713.145-2.489 1.939-4.008 2.294-1.762.42-3.232-1.147-4.67-2.311-1.439-1.163-3.798-1.89-4.751-.355-.566.921-.227 2.198-.825 3.119-1.018 1.616-3.458.598-4.961-.517-1.503-1.115-3.927-2.134-4.993-.582a6.628 6.628 0 0 0-.582 1.616c-.711 2.052-2.941 3.086-4.67 4.412-1.729 1.325-3.119 3.959-1.616 5.559.727.808 2.004 1.131 2.359 2.133.453 1.276-.84 2.408-1.874 3.232-1.616 1.454-2.02 5.801.242 6.981.954.501 2.343.662 2.57 1.616.226.953-.744 1.616-1.374 2.392a4.472 4.472 0 0 0 1.374 6.674c.549.258 1.212.468 1.406 1.034.085.423.04.863-.13 1.26a6.857 6.857 0 0 0-.21 2.424 1.07 1.07 0 0 0 .291.76c.21.141.458.215.711.21 3.232.129 4.848-1.018 6.82 1.826.178.278.409.52.678.711.282.139.591.216.905.226 2.247.194 3.701-1.212 5.753-1.47 2.844-.372 3.442 1.099 5.947 2.278 3.83 2.053 5.818.921 6.545-1.761z" fill="#EBEBEB"/><path d="M815.926 254.654c.202-.761.321-1.541.356-2.327.29-4.848 4.848-4.073 8.823-4.719 3.054-.517-5.058-8.258 1.131-10.763a5.37 5.37 0 0 0 2.974-2.068 3.51 3.51 0 0 0-1.342-4.283 8.26 8.26 0 0 0-4.686-1.179c-1.018-1.228-.194-3.071.776-4.315.969-1.244 2.181-2.683 1.81-4.218-.566-2.327-3.814-2.424-6.174-1.971a16.819 16.819 0 0 1-1.276-4.751c-.42-1.616-1.616-3.232-3.329-3.087-1.713.146-2.489 1.939-4.008 2.295-1.519.355-3.232-1.148-4.67-2.311-1.438-1.164-3.798-1.907-4.751-.356-.566.922-.226 2.198-.824 3.103-1.018 1.616-3.459.598-4.961-.517-1.503-1.115-3.927-2.117-4.994-.566a6.786 6.786 0 0 0-.582 1.616c-.711 2.069-2.941 3.103-4.67 4.428-1.729 1.325-3.119 3.943-1.616 5.559.727.792 2.004 1.115 2.36 2.133.452 1.277-.841 2.408-1.875 3.232-1.697 1.455-2.02 5.802.242 6.982.954.501 2.344.662 2.57 1.616.226.953-.744 1.616-1.374 2.391a4.476 4.476 0 0 0 1.374 6.674c.549.259 1.212.469 1.406 1.035a2 2 0 0 1-.13 1.26 6.857 6.857 0 0 0-.21 2.424 1.07 1.07 0 0 0 .291.76c.208.144.459.213.711.194 3.232.145 4.848-1.002 6.82 1.826.174.286.405.534.679.727.281.139.59.216.904.226 2.247.178 3.701-1.212 5.753-1.471 2.845-.371 3.442 1.099 5.947 2.279 3.895 1.955 5.818.824 6.545-1.858z" fill="#EBEBEB"/><path d="M790.943 249.143c.204-.76.323-1.541.355-2.327.291-4.848 4.848-4.056 8.807-4.719 3.071-.501-5.041-8.241 1.132-10.746a5.544 5.544 0 0 0 2.989-2.069 3.503 3.503 0 0 0-1.341-4.282 8.276 8.276 0 0 0-4.703-1.18c-1.002-1.228-.177-3.07.792-4.331.97-1.26 2.166-2.666 1.794-4.217-.549-2.327-3.814-2.408-6.157-1.956a16.764 16.764 0 0 1-1.277-4.848c-.42-1.616-1.616-3.232-3.329-3.07-1.713.162-2.504 1.923-4.007 2.295-1.762.404-3.232-1.148-4.67-2.311-1.439-1.164-3.798-1.907-4.752-.372-.565.921-.226 2.214-.824 3.119-1.018 1.616-3.458.598-4.977-.517-1.519-1.115-3.911-2.133-4.977-.582a7.14 7.14 0 0 0-.582 1.616c-.711 2.069-2.941 3.087-4.686 4.412-1.746 1.325-3.103 3.959-1.616 5.575.711.792 1.987 1.115 2.359 2.133.372 1.018-.857 2.408-1.875 3.232-1.713 1.455-2.02 5.785.243 6.981.937.501 2.327.647 2.569 1.616.243.97-.743 1.616-1.373 2.376a4.491 4.491 0 0 0 1.373 6.69c.534.259 1.212.469 1.406 1.034a2.13 2.13 0 0 1-.129 1.261 6.46 6.46 0 0 0-.21 2.424c-.008.277.097.545.291.743.205.152.456.226.711.21 3.232.146 4.848-1.002 6.819 1.826.174.287.405.534.679.727.285.132.592.209.905.227 2.23.177 3.701-1.228 5.753-1.487 2.828-.356 3.442 1.115 5.947 2.279 3.91 2.068 5.817.921 6.561-1.762z" fill="#EBEBEB"/><path d="M790.619 275.872c.15-.599.242-1.21.275-1.826.226-3.798 3.862-3.232 6.949-3.717 2.408-.404-3.975-6.464.889-8.468a4.233 4.233 0 0 0 2.343-1.616 2.777 2.777 0 0 0-1.067-3.378 6.562 6.562 0 0 0-3.684-.921c-.792-.969-.145-2.407.614-3.393.76-.986 1.713-2.117 1.422-3.329-.436-1.826-3.006-1.891-4.848-1.535a13.926 13.926 0 0 1-1.002-3.766c-.323-1.26-1.325-2.569-2.618-2.424-1.293.146-1.971 1.616-3.151 1.81-1.18.194-2.618-.921-3.749-1.89-1.131-.97-2.99-1.487-3.733-.275-.452.727-.178 1.729-.646 2.456-.808 1.228-2.731.469-3.927-.42-1.196-.889-3.071-1.616-3.911-.453-.213.403-.37.832-.469 1.277-.565 1.616-2.311 2.44-3.684 3.475-1.374 1.034-2.456 3.118-1.293 4.379.566.63 1.616.889 1.858 1.616.243.727-.662 1.907-1.47 2.585-1.341 1.148-1.616 4.558.194 5.495.743.404 1.842.517 2.02 1.341.178.824-.582 1.309-1.083 1.875a3.523 3.523 0 0 0 1.083 5.252c.42.21.953.371 1.115.824.07.337.03.688-.113 1.002a5.335 5.335 0 0 0-.162 1.891.676.676 0 0 0 .792.759c2.569.113 3.798-.792 5.365 1.438.139.222.32.414.533.566.221.113.464.174.711.178 1.762.145 2.925-.954 4.525-1.164 2.246-.275 2.715.873 4.687 1.794 3.151 1.584 4.654.679 5.235-1.438z" fill="#EBEBEB"/><path d="M776.609 266.644c.203-.76.322-1.54.355-2.327.291-4.848 4.848-4.072 8.824-4.718 3.054-.518-5.058-8.258 1.131-10.747a5.376 5.376 0 0 0 2.973-2.084 3.503 3.503 0 0 0-1.341-4.283 8.39 8.39 0 0 0-4.686-1.18c-1.018-1.212-.194-3.054.775-4.314.97-1.261 2.182-2.667 1.81-4.218-.565-2.327-3.813-2.408-6.173-1.955a17.874 17.874 0 0 1-1.276-4.768c-.421-1.616-1.616-3.232-3.329-3.086-1.713.145-2.489 1.939-4.008 2.295-1.762.42-3.232-1.132-4.67-2.311-1.439-1.18-3.798-1.891-4.751-.356-.566.921-.227 2.214-.825 3.119-1.018 1.616-3.458.598-4.961-.517-1.503-1.115-3.927-2.133-4.977-.582a6.07 6.07 0 0 0-.598 1.616c-.711 2.069-2.941 3.087-4.67 4.412-1.729 1.325-3.119 3.959-1.616 5.575.727.792 2.004 1.115 2.359 2.133.453 1.261-.84 2.392-1.874 3.232-1.616 1.455-2.02 5.802.242 6.997.954.485 2.343.647 2.57 1.697.226 1.051-.744 1.616-1.374 2.376a4.485 4.485 0 0 0-.845 3.652 4.484 4.484 0 0 0 2.219 3.022c.549.258 1.212.468 1.405 1.05.094.423.048.865-.129 1.261a6.72 6.72 0 0 0-.21 2.408c0 .28.103.551.291.759.21.142.458.215.711.21 3.232.146 4.848-1.018 6.836 1.826.164.289.397.533.678.711.273.149.579.227.889.226 2.246.194 3.701-1.212 5.753-1.47 2.844-.356 3.442 1.099 5.947 2.278 3.911 1.924 5.818.744 6.545-1.939zm39.317-41.385c.203-.761.322-1.541.356-2.327.29-4.848 4.848-4.057 8.823-4.719 3.054-.517-5.058-8.242 1.131-10.747a5.382 5.382 0 0 0 2.974-2.084 3.51 3.51 0 0 0-1.342-4.283 8.376 8.376 0 0 0-4.686-1.163c-1.018-1.228-.194-3.071.776-4.331.969-1.261 2.181-2.666 1.81-4.218-.566-2.327-3.814-2.408-6.174-1.955a16.773 16.773 0 0 1-1.276-4.767c-.42-1.616-1.616-3.232-3.329-3.071-1.713.162-2.489 1.923-4.008 2.279-1.519.355-3.232-1.131-4.67-2.311-1.438-1.18-3.798-1.891-4.751-.356-.566.922-.226 2.214-.824 3.119-1.018 1.616-3.459.598-4.961-.517-1.503-1.115-3.927-2.133-4.994-.582a6.658 6.658 0 0 0-.582 1.616c-.711 2.069-2.941 3.087-4.67 4.412-1.729 1.325-3.119 3.959-1.616 5.575.727.792 2.004 1.115 2.36 2.133.452 1.261-.841 2.408-1.875 3.232-1.697 1.439-2.02 5.786.242 6.982.954.501 2.344.646 2.57 1.616.226.969-.744 1.616-1.374 2.375a4.472 4.472 0 0 0-.854 3.654 4.481 4.481 0 0 0 2.228 3.02c.549.275 1.212.485 1.406 1.051.093.423.048.865-.13 1.26a6.72 6.72 0 0 0-.21 2.408c-.01.282.095.556.291.759.206.149.457.224.711.21 3.232.146 4.848-1.018 6.82 1.827.178.283.408.529.679.727.283.134.591.206.904.21 2.247.194 3.701-1.212 5.753-1.471 2.845-.355 3.442 1.099 5.947 2.279 3.895 1.971 5.818.824 6.545-1.842z" fill="#EBEBEB"/><path d="M848.036 226.875c.187-.764.306-1.543.356-2.327.274-4.848 4.848-4.073 8.807-4.719 3.07-.517-5.042-8.258 1.131-10.746a5.567 5.567 0 0 0 2.99-2.085 3.511 3.511 0 0 0-1.358-4.283 8.228 8.228 0 0 0-4.686-1.179c-1.002-1.228-.194-3.071.792-4.315.985-1.244 2.165-2.682 1.793-4.218-.549-2.327-3.813-2.408-6.157-1.955a16.763 16.763 0 0 1-1.276-4.848c-.42-1.616-1.697-3.232-3.345-3.087-1.649.146-2.489 1.94-4.008 2.295-1.762.42-3.232-1.147-4.67-2.311-1.439-1.163-3.798-1.89-4.735-.355-.582.921-.243 2.197-.824 3.119-1.035 1.616-3.459.581-4.978-.534-1.519-1.115-3.91-2.117-4.977-.565a6.032 6.032 0 0 0-.582 1.616c-.727 2.052-2.957 3.086-4.686 4.411-1.729 1.326-3.119 3.943-1.616 5.559.727.808 2.004 1.132 2.359 2.134.453 1.276-.84 2.407-1.858 3.232-1.713 1.454-2.02 5.801.226 6.981.954.501 2.343.662 2.57 1.616.226.953-.728 1.616-1.358 2.391a4.476 4.476 0 0 0 1.374 6.674c.533.259 1.196.469 1.406 1.035.085.423.04.863-.13 1.26a6.838 6.838 0 0 0-.226 2.424c-.001.284.109.557.307.76.206.148.459.217.711.194 3.232.145 4.848-1.002 6.82 1.842.174.282.405.524.678.711.277.139.58.216.889.226 2.246.178 3.717-1.212 5.753-1.47 2.844-.372 3.442 1.098 5.947 2.278 3.911 2.069 5.818.937 6.561-1.761z" fill="#EBEBEB"/><path d="M867.525 240.029c.201-.76.32-1.54.355-2.327.291-4.848 4.848-4.073 8.824-4.719 3.054-.517-5.058-8.258 1.131-10.746a5.461 5.461 0 0 0 2.973-2.085 3.503 3.503 0 0 0-1.341-4.282 8.252 8.252 0 0 0-4.686-1.18c-1.018-1.228-.194-3.071.775-4.315.97-1.244 2.182-2.682 1.81-4.218-.565-2.327-3.813-2.407-6.173-1.955a17.445 17.445 0 0 1-1.276-4.767c-.421-1.616-1.616-3.232-3.329-3.087-1.713.146-2.489 1.939-4.008 2.295-1.519.355-3.232-1.147-4.67-2.311-1.439-1.163-3.798-1.891-4.751-.355-.566.921-.227 2.197-.824 3.102-1.019 1.616-3.459.598-4.962-.517-1.502-1.115-3.926-2.117-4.977-.565a6.045 6.045 0 0 0-.598 1.616c-.711 2.052-2.941 3.086-4.67 4.411-1.729 1.325-3.119 3.943-1.616 5.559.727.808 2.004 1.131 2.359 2.133.453 1.277-.84 2.408-1.874 3.232-1.616 1.455-2.02 5.802.242 6.982.954.5 2.343.662 2.57 1.696.226 1.035-.744 1.616-1.374 2.392a4.49 4.49 0 0 0 1.374 6.674c.549.259 1.212.469 1.406 1.034.094.423.049.866-.13 1.261a6.857 6.857 0 0 0-.21 2.424c0 .28.103.551.291.759.208.145.459.213.711.194 3.232.146 4.848-1.002 6.82 1.826.174.287.405.534.678.728.282.139.591.216.905.226 2.247.178 3.701-1.212 5.753-1.471 2.844-.371 3.442 1.099 5.947 2.279 3.911 1.89 5.818.759 6.545-1.923z" fill="#EBEBEB"/><path d="M861.627 256.625s-8.161 11.538-10.973 15.191c-2.812 3.652-16.871 26.421-18.778 41.499-.21 1.616-.42 2.989-.614 4.201 6.044 39.915 5.106 112.942 4.848 125.45h-19.182c-.178-14.107-1.81-142.983-2.408-146.91-.63-4.17-8.645-20.023-21.008-26.535-12.362-6.513-23.012-28.102-23.012-28.102h3.943s7.321 13.202 17.776 20.523a42.86 42.86 0 0 0 4.671 2.779 66.464 66.464 0 0 1 4.088-23.302l2.133 1.955c-2.876 11.781-2.488 19.392-1.616 23.642a42.762 42.762 0 0 1 10.763 7.207c10.795-14.043 16.855-46.136 16.855-46.136l2.779 1.519a164.902 164.902 0 0 1-3.652 19.715c-2.02 8.306-7.983 23.949-10.746 31.043a73.934 73.934 0 0 1 8.08 15.304c.292-.46.645-.879 1.05-1.245 7.03-6.367 20.248-36.392 20.248-36.392 3.232-6.981-1.696-25.306-1.696-25.306h3.7l1.616 16.03 9.276-10.116 1.697 1.406-9.68 12.686-5.074 16.03 13.219-14.624 1.697 2.488z" fill="#E6E6E6"/><path d="M284.779 465.542h634.442c7.068 0 12.799 5.73 12.799 12.798v19.263H271.98v-19.279c.011-7.061 5.738-12.78 12.799-12.782z" fill="#E0E0E0"/><path d="M601.998 570.371c173.045 0 313.326-8.19 313.326-18.293s-140.281-18.293-313.326-18.293c-173.045 0-313.326 8.19-313.326 18.293s140.281 18.293 313.326 18.293z" fill="#F5F5F5"/><path fill="#263238" d="M377.213 94.427l-5.526 53.086h-27.666l-5.527-53.086h38.719z"/><path fill="#FFF" opacity=".3" d="M377.213 94.427l-5.526 53.086h-27.666l-5.527-53.086h38.719z"/><path fill="#263238" d="M363.009 136.104h-10.294v382.83h10.294z"/><path fill="#FFF" opacity=".3" d="M363.009 136.104h-10.294v382.83h10.294z"/><path fill="#176DE4" d="M368.778 144.281H346.93l-4.848-46.622h31.544l-4.848 46.622z"/><path fill="#FFF" opacity=".4" d="M368.778 144.281H346.93l-4.848-46.622h31.544l-4.848 46.622z"/><path fill="#263238" d="M354.977 145.008h-1.486l-1.616-48.965h1.486z"/><path fill="#FFF" opacity=".3" d="M354.977 145.008h-1.486l-1.616-48.965h1.486z"/><path fill="#FFF" opacity=".2" d="M377.213 94.427l-5.526 53.086h-17.388l-2.085-53.086h24.999z"/><path d="M357.854 77.362s-16.403 16.16-28.975 16.16l3.894 2.57h50.096l3.895-2.57c-12.508.033-28.91-16.16-28.91-16.16z" fill="#263238"/><path d="M386.829 93.556l-3.894 2.553h-50.096l-3.943-2.553c12.572 0 28.974-16.16 28.974-16.16s16.387 16.16 28.959 16.16z" fill="#FFF" opacity=".4"/><path d="M386.829 93.555l-3.895 2.553h-32.578a77.819 77.819 0 0 1-1.616-2.763c8.742-4.057 9.178-15.983 9.178-15.983s16.338 16.193 28.911 16.193z" fill="#FFF" opacity=".2"/><path d="M790.862 518.935h7.902l-16.16-91.207h-7.902l16.16 91.207zm-245.632 0h7.902l-16.16-91.207h-7.902l16.16 91.207z" fill="#263238"/><path d="M790.862 518.935h7.902l-16.16-91.207h-7.902l16.16 91.207zm-245.632 0h7.902l-16.16-91.207h-7.902l16.16 91.207z" fill="#FFF" opacity=".3"/><path fill="#263238" d="M476.469 481.33h310.272v-7.999H476.469z"/><path fill="#FFF" opacity=".5" d="M476.469 481.33h310.272v-7.999H476.469z"/><path d="M717.964 518.935h-7.902l16.16-91.207h7.902l-16.16 91.207zm-245.632 0h-7.902l16.16-91.207h7.902l-16.16 91.207z" fill="#263238"/><path d="M717.964 518.935h-7.902l16.16-91.207h7.902l-16.16 91.207zm-245.632 0h-7.902l16.16-91.207h7.902l-16.16 91.207z" fill="#FFF" opacity=".3"/><path fill="#263238" d="M544.018 424.172h7.87l13.154-73.188h-7.854z"/><path fill="#FFF" opacity=".3" d="M544.018 424.172h7.87l13.154-73.188h-7.854z"/><path d="M772.084 424.172h7.87l13.17-73.188h-7.869l-13.171 73.188zm-114.025 0h7.854l13.17-73.188h-7.87l-13.154 73.188z" fill="#263238"/><path d="M772.084 424.172h7.87l13.17-73.188h-7.869l-13.171 73.188zm-114.025 0h7.854l13.17-73.188h-7.87l-13.154 73.188z" fill="#FFF" opacity=".3"/><path d="M530.428 355.977H808.88l2.457-13.704H532.9l-2.472 13.704zm-4.461 24.79H804.42l2.473-13.704H528.44l-2.473 13.704zm-4.46 24.773H799.96l2.473-13.704H523.98l-2.473 13.704zm-58.741 25.953h335.142v-9.47H462.766v9.47z" fill="#263238"/><path d="M530.428 355.977H808.88l2.457-13.704H532.9l-2.472 13.704zm-4.461 24.79H804.42l2.473-13.704H528.44l-2.473 13.704zm-4.46 24.773H799.96l2.473-13.704H523.98l-2.473 13.704zm-58.741 25.953h335.142v-9.47H462.766v9.47z" fill="#FFF" opacity=".5"/><path fill="#FFF" opacity=".2" d="M462.766 431.493h270.502v-9.47H462.766z"/><path d="M693.951 493.079a15.038 15.038 0 0 1-7.175-1.972l.759-1.422a11.913 11.913 0 0 0 11.684.469c23.691-11.846 36.651-98.576 45.248-155.928 5.543-37.023 7.595-48.997 10.666-49.11 9.049-.356 21.089 4.072 21.606 4.266l-.566 1.503c-.113 0-12.265-4.525-21.008-4.153-2.165 1.179-5.543 23.787-9.13 47.736-8.63 57.707-21.671 144.907-46.105 157.14a13.404 13.404 0 0 1-5.979 1.471z" fill="#263238"/><path d="M796.082 203.023s-8.371 33.015-9.696 36.473c-1.325 3.458-23.432 39.285-23.432 39.285l5.963 4.751s25.743-32.757 27.181-35.762c1.438-3.006 12.088-36.441 12.088-36.441l-12.104-8.306z" fill="#B97964"/><path d="M803.726 182.29c-10.44 3.005-15.853 39.381-15.853 39.381l16.742 9.47s16.968-54.007-.889-48.851z" fill="#176DE4"/><path d="M811.854 195.783c-.452 9.567-3.442 21.8-5.43 29.088a240.337 240.337 0 0 1-1.809 6.254l-16.774-9.453s5.397-36.36 15.869-39.382c6.754-1.956 8.564 4.605 8.144 13.493z" fill="#FFF" opacity=".6"/><path d="M811.854 195.783c-.452 9.567-3.442 21.8-5.429 29.088-9.292-15.885 3.135-32.32 3.135-32.32a12.93 12.93 0 0 1 2.294 3.232z" fill="#000" opacity=".2"/><path d="M868.883 173.288s-24.014-10.083-65.157 9.002c0 0 10.051 52.52 9.162 78.553l62.798-3.878s3.006-56.867-6.803-83.677z" fill="#176DE4"/><path d="M875.686 256.965l-62.797 3.846c.888-26.018-9.147-78.538-9.147-78.538 41.127-19.085 65.141-9.001 65.141-9.001a114.614 114.614 0 0 1 5.252 24.903 335.45 335.45 0 0 1 1.971 36.586c.065 12.88-.42 22.204-.42 22.204z" fill="#FFF" opacity=".6"/><path fill="#B97964" d="M883.944 511.743l-7.902 9.147-19.392-17.388 7.918-9.163 19.376 17.404z"/><path fill="#000" opacity=".2" d="M864.568 494.339l-7.918 9.163 10.003 8.969 7.918-9.163z"/><path d="M811.321 292.662l2.165-33.936 61.085 2.376s4.67 28.037-1.616 55.784l-16.564-2.747c-10.116 28.118-34.598 99.222-28.91 114.041 7.11 18.584 44.634 67.209 44.634 67.209l-15.465 15.433s-66.256-58.741-70.329-97.041c-3.086-28.813 15.87-96.41 25-121.119z" fill="#176DE4"/><path d="M872.47 518.935l10.327-9.696c.352-.326.885-.36 1.276-.081l8.807 6.011c.78.55.968 1.626.421 2.408a1.3 1.3 0 0 1-.243.275c-3.393 3.087-6.027 5.155-10.229 9.098-2.586 2.408-10.132 9.987-13.72 13.332-3.587 3.345-7.337.259-6.173-1.438 5.22-7.563 8.306-14.173 8.629-18.019.05-.722.374-1.398.905-1.89z" fill="#263238"/><path d="M871.048 523.071a3.564 3.564 0 0 1-2.036 1.099 1.611 1.611 0 0 1-1.438-.695.824.824 0 0 1-.178-.888c.485-1.358 4.848-2.247 5.301-2.344a.28.28 0 0 1 .154.017.27.27 0 0 1 .12.404 14.71 14.71 0 0 1-1.923 2.407zm-2.925-.581a.697.697 0 0 0-.21.307s0 .177.097.355c.22.306.578.482.954.469a5.644 5.644 0 0 0 3.232-2.683 11.315 11.315 0 0 0-4.073 1.552z" fill="#176DE4"/><path d="M872.939 520.728l-.097.097c-1.325.34-4.848 0-5.446-1.002a.893.893 0 0 1 .162-1.131c.266-.338.669-.54 1.099-.549 1.729-.113 4.217 2.133 4.347 2.246a.334.334 0 0 1 .08.275.285.285 0 0 1-.145.064zm-4.945-1.842l-.097.081c-.258.242-.145.42-.097.485.404.646 2.812 1.05 4.315.889a6.656 6.656 0 0 0-3.507-1.713.891.891 0 0 0-.614.258zm-8.161-2.052l16.29-20.524-5.495-4.702-17.259 21.008 6.464 4.218z" fill="#176DE4"/><path fill="#FFF" opacity=".6" d="M859.833 516.834l16.29-20.524-5.495-4.702-17.259 21.008z"/><path fill="#B97964" d="M846.889 543.676h-11.667l-.954-27.004h11.668z"/><path d="M833.606 542.334h14.172c.472.005.88.332.986.792l2.311 10.391a1.73 1.73 0 0 1-1.342 2.036 1.356 1.356 0 0 1-.371 0c-4.59 0-7.919-.355-13.672-.355-3.555 0-14.237.371-19.133.371-4.897 0-5.527-4.848-3.523-5.268 8.985-1.971 15.74-4.686 18.616-7.256a2.85 2.85 0 0 1 1.956-.711z" fill="#263238"/><path d="M829.76 544.387a3.579 3.579 0 0 1-2.247-.598 1.623 1.623 0 0 1-.581-1.487.852.852 0 0 1 .484-.776c1.293-.662 5.058 1.616 5.462 1.923.099.046.158.15.146.259a.297.297 0 0 1-.069.153.285.285 0 0 1-.141.089c-.999.258-2.023.405-3.054.437zm-1.746-2.424a.567.567 0 0 0-.355 0s-.162.096-.178.323c-.047.37.092.74.372.986 1.306.6 2.793.676 4.153.21a11.459 11.459 0 0 0-3.992-1.487v-.032z" fill="#176DE4"/><path d="M832.733 543.966h-.129c-1.196-.662-3.523-3.232-3.232-4.444a.887.887 0 0 1 .889-.727 1.44 1.44 0 0 1 1.179.356c1.341 1.099 1.616 4.444 1.616 4.605a.306.306 0 0 1-.145.259l-.178-.049zm-2.343-4.734h-.129c-.356 0-.388.21-.404.29-.146.744 1.341 2.699 2.537 3.604a6.467 6.467 0 0 0-1.374-3.652.935.935 0 0 0-.63-.242z" fill="#176DE4"/><path fill="#000" opacity=".2" d="M845.936 516.688h-11.668l.501 13.93h11.668z"/><path d="M825.913 178.766a8.881 8.881 0 0 0 3.814-7.853 14.847 14.847 0 0 0-1.745-5.608 29.515 29.515 0 0 0-1.616-2.844l11.021-18.358c1.131 8.646 4.509 23.982 11.975 27.472-9.438 12.799-23.449 7.191-23.449 7.191z" fill="#B97964"/><path d="M836.789 153.121c3.232 9.793-3.442 15.659-7.062 17.776a14.841 14.841 0 0 0-1.745-5.608l8.807-12.168z" fill="#000" opacity=".2"/><path d="M800.575 128.897s.323 16.16 9.776 20.895c9.454 4.735 4.38-24.838 4.38-24.838l-14.156 3.943z" fill="#263238"/><path d="M836.918 158.163a14.547 14.547 0 0 1-15.546 8.419 16.306 16.306 0 0 1-10.407-5.866 14.737 14.737 0 0 1-1.018-1.39c-5.817-8.969-10.035-25.662-.905-33.774a15.84 15.84 0 0 1 15.062-3.396 15.84 15.84 0 0 1 10.794 11.039c3.168 11.086 5.576 17.469 2.02 24.968z" fill="#B97964"/><path d="M819.417 142.083c.192.327.249.716.159 1.085a1.459 1.459 0 0 1-.644.887c-.598.21-1.309-.356-1.616-1.245-.307-.888-.08-1.761.485-1.971.566-.21 1.293.388 1.616 1.244zm-10.035 3.539c.4.68.185 1.555-.485 1.972-.566.194-1.293-.356-1.616-1.244-.323-.889 0-1.762.485-1.972.485-.21 1.325.404 1.616 1.244z" fill="#263238"/><path d="M812.727 144.927a33.319 33.319 0 0 1-1.616 9.082 5.396 5.396 0 0 0 4.541-.711l-2.925-8.371z" fill="#A24E3F"/><path d="M821.373 137.736a.585.585 0 0 1-.582 0 4.496 4.496 0 0 0-3.943-.565.56.56 0 0 1-.421.013.543.543 0 0 1-.307-.288.565.565 0 0 1 .291-.727 5.505 5.505 0 0 1 2.576-.283 5.504 5.504 0 0 1 2.418.929c.245.17.322.498.178.76a.701.701 0 0 1-.21.161zm-2.602 19.651a8.468 8.468 0 0 0 6.14-4.848.305.305 0 0 0-.177-.388.307.307 0 0 0-.372.162 8.083 8.083 0 0 1-5.721 4.476.272.272 0 0 0-.225.214.286.286 0 0 0-.001.109.294.294 0 0 0 .323.226l.033.049zm-14.916-13.704a.395.395 0 0 1-.291.129.56.56 0 0 1-.375-.194.553.553 0 0 1-.126-.403 5.515 5.515 0 0 1 2.715-4.251.568.568 0 0 1 .743.259.562.562 0 0 1-.242.727 4.495 4.495 0 0 0-2.101 3.41.54.54 0 0 1-.323.323zm18.212-21.25l.873 5.058a3.78 3.78 0 0 1 3.232 4.024c-.339 4.573 3.895 10.229 7.805 11.829 0 0-.436-1.81 1.196-1.842 1.632-.033 3.992 9.34 2.392 14.641 0 0 3.232-5.317 2.795-15.789-.387-9.696-2.343-17.243-5.235-20.167l-13.058 2.246z" fill="#263238"/><path d="M842.785 140.435a11.01 11.01 0 0 1-4.089 7.337c-3.038 2.375-6.011 0-6.464-3.62-.323-3.232.824-8.452 4.476-9.373a4.847 4.847 0 0 1 6.077 5.656z" fill="#B97964"/><path d="M822.94 127.491s-4.169 4.702-6.464 3.814c-2.295-.889-.921-3.426-.921-3.426s-5.882 6.124-9.211 6.577c-3.329.452-1.729-4.687-1.729-4.687s-2.845 8.21-5.64 6.82c-1.358-.679-4.105-8.92 5.139-16.402 9.243-7.483 20.798-7.175 24.66-4.234a9.002 9.002 0 0 1 9.389 6.027c3.232 8.937-15.223 5.511-15.223 5.511z" fill="#263238"/><path d="M874.571 256.48c11.393 59.453-27.132 141.772-23.949 269.209h-21.331s-17.324-88.734-3.895-239.555l-11.91-27.472 61.085-2.182z" fill="#176DE4"/><path d="M874.571 256.48c11.393 59.453-27.132 141.772-23.949 269.209h-21.331s-17.324-88.734-3.895-239.555l-11.91-27.472 61.085-2.182z" fill="#FFF" opacity=".2"/><path fill="#176DE4" d="M826.851 528.372h25.145v-7.514l-26.099-.485.954 7.999z"/><path fill="#FFF" opacity=".6" d="M826.851 528.372h25.145v-7.514l-26.099-.485.954 7.999z"/><path d="M827.045 271.493a.422.422 0 0 1-.34-.178 23.036 23.036 0 0 1-2.666-9.308 67.748 67.748 0 0 1-3.895 8.888.422.422 0 0 1-.549.161.404.404 0 0 1-.146-.549 61.876 61.876 0 0 0 3.103-6.836c-1.179 1.616-2.731 2.99-4.315 2.747a3.49 3.49 0 0 1-3.005-3.232c.097-1.309 1.406-3.506 9.065-3.506 7.515 0 9.826 1.616 10.424 3.086.396.99.138 2.122-.647 2.844a3.785 3.785 0 0 1-1.715 1.095 3.788 3.788 0 0 1-2.034.053 13.352 13.352 0 0 1-5.527-5.091 23.155 23.155 0 0 0 2.57 9.26c.06.087.082.195.061.299a.397.397 0 0 1-.174.251.376.376 0 0 1-.21.016zm-2.037-11.054c.857 1.358 3.103 4.606 5.608 5.495a2.964 2.964 0 0 0 2.893-.921 1.89 1.89 0 0 0 .501-1.972c-.34-.76-1.875-2.489-9.002-2.602zm-1.373 0c-6.852.129-7.547 2.133-7.595 2.764-.081 1.131 1.196 2.246 2.327 2.424 1.923.274 4.234-3.2 5.268-5.188z" fill="#FFF"/><path d="M876.106 234.777c-16.871-11.312-11.748-36.053-11.748-36.053l9.696-.533a334.99 334.99 0 0 1 2.052 36.586z" fill="#000" opacity=".2"/><path d="M870.968 208s15.723 30.187 17.064 33.678c1.342 3.49 8.646 44.989 8.646 44.989l7.611-.436s-2.601-41.58-3.539-44.812c-.937-3.232-15.238-35.229-15.238-35.229L870.968 208z" fill="#B97964"/><path d="M868.883 173.288c9.082-2.989 23.82 36.474 23.82 36.474l-22.075 9.146s-16.532-40.723-1.745-45.62z" fill="#176DE4"/><path d="M868.883 173.288c9.082-2.989 23.82 36.474 23.82 36.474l-22.075 9.146s-16.532-40.723-1.745-45.62z" fill="#FFF" opacity=".6"/><path d="M897.728 281.447l-3.571 8.937 3.571 15.222 14.318-5.381s-.565-14.011-14.318-18.778zm-130.298-5.672s-5.963 1.794-7.158 1.487c-1.196-.307-8.08 14.915-8.08 14.915s13.121 4.17 15.206 3.879c2.085-.291 8.985-13.122.032-20.281z" fill="#B97964"/><path d="M735.013 494.824c11.91 0 20.54-3.458 20.54-12.104 0 0 8.306 12.168-5.107 16.322l3.345 2.197s-14.544 5.365-21.573-.808c-7.03-6.173 2.795-5.607 2.795-5.607z" fill="#176DE4"/><path d="M735.013 494.824c11.91 0 20.54-3.458 20.54-12.104 0 0 8.306 12.168-5.107 16.322l3.345 2.197s-14.544 5.365-21.573-.808c-7.03-6.173 2.795-5.607 2.795-5.607z" fill="#FFF" opacity=".3"/><path d="M696.585 520.373c.792-2.683-19.02-12.104-19.02-12.104.161 1.438 8.08 23.481 11.667 27.472 2.473 2.828 2.02 11.538 1.519 16.435-1.761.275-5.575 1.115-4.67 3.426h7.304s2.537-16.839 3.232-18.891c.695-2.053-.889-13.656-.032-16.338zm42.032 3.555l-19.392-8.969s0 15.999 1.051 20.572c.743 3.232-1.778 12.007-3.313 16.806-1.891.388-4.541 1.293-3.766 3.232h7.289a3.09 3.09 0 0 0 0-.921c1.357-3.07 5.753-13.009 6.787-14.786 1.244-2.069 11.344-15.934 11.344-15.934z" fill="#176DE4"/><path d="M696.585 520.373c.792-2.683-19.02-12.104-19.02-12.104.161 1.438 8.08 23.481 11.667 27.472 2.473 2.828 2.02 11.538 1.519 16.435-1.761.275-5.575 1.115-4.67 3.426h7.304s2.537-16.839 3.232-18.891c.695-2.053-.889-13.656-.032-16.338zm42.032 3.555l-19.392-8.969s0 15.999 1.051 20.572c.743 3.232-1.778 12.007-3.313 16.806-1.891.388-4.541 1.293-3.766 3.232h7.289a3.09 3.09 0 0 0 0-.921c1.357-3.07 5.753-13.009 6.787-14.786 1.244-2.069 11.344-15.934 11.344-15.934z" opacity=".3" fill="#FFF"/><path d="M752.515 555.537a2.642 2.642 0 0 0-.081-.84c-.291-3.539-1.454-16.354-2.311-17.776-2.747-4.735-5.009-17.372-5.123-20.184-.113-2.812-1.616-22.107-25.856-22.107a78.786 78.786 0 0 1-22.494-3.232c-6.998-2.505-11.668-2.78-11.312-7.886.355-5.107-2.99-13.849-4.267-14.059-1.276-.21-11.166-4.461-14.705-3.232-1.907.678-3.927 4.993-5.866 5.656-1.939.662-7.983-1.39-7.983-1.39s.21 8.953 2.02 12.782c1.616 3.459 10.795 2.101 17.113 11.636l1.972 11.942v16.532l-10.569 8.581-3.717 3.377c-1.616.356-4.848 1.616-4.848 2.893 0 1.616-.21 3.943 3.943 2.666 2.263-.695 3.103-1.939 3.103-3.119a139.665 139.665 0 0 1 13.946-5.882c8.791-2.65 8.646-8.516 8.646-8.516l39.98.775c4.508 6.464 15.303 12.686 17.064 14.544 1.261 1.39 4.412 9.583 6.044 13.995-1.454.517-2.731 1.39-2.165 2.828h7.304l.162.016z" fill="#176DE4"/><path d="M752.515 555.537a2.642 2.642 0 0 0-.081-.84c-.291-3.539-1.454-16.354-2.311-17.776-2.747-4.735-5.009-17.372-5.123-20.184-.113-2.812-1.616-22.107-25.856-22.107a78.786 78.786 0 0 1-22.494-3.232c-6.998-2.505-11.668-2.78-11.312-7.886.355-5.107-2.99-13.849-4.267-14.059-1.276-.21-11.166-4.461-14.705-3.232-1.907.678-3.927 4.993-5.866 5.656-1.939.662-7.983-1.39-7.983-1.39s.21 8.953 2.02 12.782c1.616 3.459 10.795 2.101 17.113 11.636l1.972 11.942v16.532l-10.569 8.581-3.717 3.377c-1.616.356-4.848 1.616-4.848 2.893 0 1.616-.21 3.943 3.943 2.666 2.263-.695 3.103-1.939 3.103-3.119a139.665 139.665 0 0 1 13.946-5.882c8.791-2.65 8.646-8.516 8.646-8.516l39.98.775c4.508 6.464 15.303 12.686 17.064 14.544 1.261 1.39 4.412 9.583 6.044 13.995-1.454.517-2.731 1.39-2.165 2.828h7.304l.162.016z" fill="#FFF" opacity=".6"/><path d="M672.846 466.512c1.26-.873 6.464-.76 8.597 1.373 2.133 2.133 8.533 10.553 6.286 12.928-2.246 2.376-11.716 7.563-12.459 3.232-.743-4.331-2.424-17.533-2.424-17.533z" fill="#176DE4"/><path d="M665.768 472.507c.129.63-.129 1.228-.582 1.309-.452.081-.905-.356-1.034-1.002a1.048 1.048 0 0 1 .582-1.309c.452-.113.921.339 1.034 1.002zm-11.393-1.438s-.953-1.051-1.745-1.051c-.792 0-.792 1.875.161 3.523 0 0 2.279-1.858 1.584-2.472z" fill="#263238"/><path d="M672.846 466.512c1.26-.873 6.464-.76 8.597 1.373 2.133 2.133 8.533 10.553 6.286 12.928-2.246 2.376-11.716 7.563-12.459 3.232-.743-4.331-2.424-17.533-2.424-17.533z" fill="#FFF" opacity=".3"/><path d="M671.489 497.797s12.313-4.121 15.675-12.104l1.196 2.748s-5.366 10.601-15.756 11.602l-1.115-2.246z" fill="#263238"/><path d="M673.104 501.272c0 1.179-.614 2.133-1.389 2.133-.776 0-1.39-.954-1.39-2.133 0-1.18.614-2.133 1.39-2.133.775 0 1.389.953 1.389 2.133z" fill="#176DE4"/><path d="M775.543 296.266a7.24 7.24 0 0 1-1.148-.097c-4.201-.679-19.65-7.692-20.313-7.983l.679-1.471c.145 0 15.901 7.224 19.893 7.854 1.923.307 3.232-.404 3.491-1.244.258-.841-.534-1.778-2.037-2.457l.663-1.47c2.747 1.244 3.313 3.086 2.909 4.395a3.994 3.994 0 0 1-4.137 2.473z" fill="#263238"/><path d="M506.785 352.583l-1.293-4.25a3.922 3.922 0 0 0 .647-3.135c-.453-1.616-3.135-8.306-3.135-8.306s-5.624 2.779-5.802 4.072c-.178 1.293 3.135 6.076 3.135 6.076l1.616 1.293.97 5.236 3.862-.986zm95.021 71.766l5.349.922s2.02-.566 2.941-.922c.921-.355 9.971 2.021 9.971 2.021s-2.78 6.464-4.848 6.27a39.879 39.879 0 0 1-6.836-2.02l-.549-1.487-6.077-.663.049-4.121z" fill="#EBB376"/><path d="M564.832 403.681s25.048 16.79 41.111 20.669l-.921 4.848s-18.277-.178-41.693-12.718l1.503-12.799z" fill="#176DE4"/><path d="M564.832 403.681s25.048 16.79 41.111 20.669l-.921 4.848s-18.277-.178-41.693-12.718l1.503-12.799z" fill="#FFF" opacity=".6"/><path d="M529.975 387.424s-14.027-13.898-15.498-16.887c-1.47-2.99-7.466-21.235-7.466-21.235l-4.977.938s4.703 17.857 4.977 20.604c.275 2.747 18.261 25.856 18.261 25.856l4.703-9.276z" fill="#176DE4"/><path d="M529.975 387.424s-14.027-13.898-15.498-16.887c-1.47-2.99-7.466-21.235-7.466-21.235l-4.977.938s4.703 17.857 4.977 20.604c.275 2.747 18.261 25.856 18.261 25.856l4.703-9.276z" fill="#FFF" opacity=".6"/><path d="M533.708 479.681c-6.044 43.277-25.662 70.765-25.662 70.765l-8.63-2.634a133.794 133.794 0 0 0 18.099-73.092l16.193 4.961zm22.753-10.601c26.454 34.777 32.142 68.066 32.142 68.066l-7.951 4.25a133.769 133.769 0 0 0-39.123-64.333l14.932-7.983z" fill="#EBB376"/><path d="M587.343 533.381l-8.08 4.493a.55.55 0 0 0-.295.332.539.539 0 0 0-.027.225.55.55 0 0 0 .063.218l3.232 6.545c.39.688 1.258.939 1.955.566 2.764-1.616 4.008-2.521 7.515-4.525a77.085 77.085 0 0 0 9.211-5.559c2.699-2.133.517-4.735-.808-4.073a22.622 22.622 0 0 1-11.312 1.487 2.179 2.179 0 0 0-1.454.291z" fill="#263238"/><path d="M590.542 533.171c-.647.343-1.33.613-2.036.808a.195.195 0 0 1-.21 0 .24.24 0 0 1 0-.21c.129-.291 1.374-2.796 2.44-2.957a.694.694 0 0 1 .647.258c.3.259.426.668.323 1.051a2.18 2.18 0 0 1-1.164 1.05zm.259-1.988c-.582.081-1.422 1.342-1.955 2.327 1.406-.468 2.327-1.034 2.472-1.616a.675.675 0 0 0-.21-.646.332.332 0 0 0-.136-.107.313.313 0 0 0-.171-.022v.064z" fill="#176DE4"/><path d="M588.539 533.914a.197.197 0 0 1-.162-.08s-1.374-2.037-1.05-3.136c.09-.286.303-.517.581-.63a.711.711 0 0 1 .889.162 4.235 4.235 0 0 1-.097 3.587l-.161.097zm-.615-3.377a.581.581 0 0 0-.274.339 4.31 4.31 0 0 0 .808 2.521c.35-.915.35-1.928 0-2.844 0-.081-.194-.162-.453 0l-.081-.016z" fill="#176DE4"/><path d="M508.563 548.022l-9.163-.582a.584.584 0 0 0-.63.517l-.905 7.224a1.456 1.456 0 0 0 1.341 1.535c3.232.146 4.735 0 8.759.275 3.575.371 7.171.484 10.762.339 3.41-.323 2.99-3.7 1.519-3.862a22.395 22.395 0 0 1-10.31-4.848 2.392 2.392 0 0 0-1.373-.598z" fill="#263238"/><path d="M511.375 549.59a9.934 9.934 0 0 1-2.166-.437.163.163 0 0 1-.129-.145.176.176 0 0 1 .081-.194c.274-.162 2.682-1.616 3.668-1.147.221.108.373.32.404.565.11.38-.01.79-.307 1.051a2.187 2.187 0 0 1-1.551.307zm1.292-1.536c-.533-.242-1.923.356-2.908.889 1.438.388 2.521.404 2.925 0a.686.686 0 0 0 .177-.662.35.35 0 0 0-.194-.275v.048z" fill="#176DE4"/><path d="M509.258 549.169h-.081a.17.17 0 0 1-.097-.145c0-.081 0-2.472.824-3.232a1.06 1.06 0 0 1 .84-.21c.16.019.309.089.426.199a.751.751 0 0 1 .221.415c.129.905-1.196 2.537-2.036 2.957l-.097.016zm1.325-3.232a.63.63 0 0 0-.42.146c-.534.452-.663 1.794-.695 2.553a4.007 4.007 0 0 0 1.616-2.392c0-.096 0-.242-.356-.29l-.145-.017zm44.068-103.763c4.929 6.464 3.701 14.076 15.271 43.778 0 0-12.799 10.051-35.697 10.051a114.466 114.466 0 0 1-31.221-3.878c2.553-14.544 2.666-46.008 7.417-57.061l44.23 7.11z" fill="#176DE4"/><path d="M554.651 442.174c1.067-9.26 5.204-30.252 9.421-37.475 0 0-3.232-5.543-17.307-10.068a70.15 70.15 0 0 1-16.79-8.08s-14.27 24.854-19.554 48.561l44.23 7.062z" fill="#176DE4"/><path d="M533.885 388.911l-20.814 41.143-6.286-2.569 19.909-43.358 7.191 4.784zm23.287 9.049l1.681 41.693h5.898v-35.972l-7.579-5.721z" fill="#176DE4"/><path d="M533.885 388.911l-20.814 41.143-6.286-2.569 19.909-43.358 7.191 4.784zm23.287 9.049l1.681 41.693h5.898v-35.972l-7.579-5.721z" opacity=".6" fill="#FFF"/><path d="M530.896 394.518s-3.135-10.811-.986-12.055c2.149-1.244 28.846 10.213 31.981 13.59 3.135 3.378-4.848 10.214-4.848 10.214s2.472-5.899-10.407-11.636c-12.88-5.736-15.74-.113-15.74-.113z" fill="#176DE4"/><path d="M530.896 394.518s-3.135-10.811-.986-12.055c2.149-1.244 28.846 10.213 31.981 13.59 3.135 3.378-4.848 10.214-4.848 10.214s2.472-5.899-10.407-11.636c-12.88-5.736-15.74-.113-15.74-.113z" fill="#FFF" opacity=".4"/><path d="M562.796 351.161s-17.776-6.109-31.981 13.251c-14.205 19.36 30.575 34.308 37.362 31.916 6.787-2.392 16.709-38.752-5.381-45.167z" fill="#263238"/><path d="M552.825 399.98l-7.062.307-8.468-4.848a8.142 8.142 0 0 0 2.004-1.341c3.911-3.571 1.309-9.292 1.309-9.292l5.187.275 11.312.582c-7.32 6.932-4.282 14.317-4.282 14.317z" fill="#EBB376"/><path d="M554.231 388.765s-7.902 7.531-14.932 5.365c3.911-3.571 1.309-9.292 1.309-9.292l5.187.275 8.436 3.652z" fill="#000" opacity=".2"/><path d="M551.29 351.306s-14.657 3.41-7.676 18.407c7.886 16.919 7.676-18.407 7.676-18.407z" fill="#263238"/><path d="M569.486 377.954c-4.557 7.741-13.494 14.399-20.75 12.298-13.315-3.846-16.919-8.565-13.784-18.293 2.796-8.791 12.088-20.249 23.367-17.631 11.28 2.618 17.485 12.88 11.167 23.626z" fill="#EBB376"/><path d="M547.411 356.025a87.163 87.163 0 0 0 12.751 4.347s5.72 10.052 1.939 15.029c-3.782 4.977-1.374 6.464-4.735 13.946 0 0 8.08 2.844 17.146-12.54 6.625-11.199-1.245-20.717-11.716-25.646-8.775-4.121-18.003-.905-15.385 4.864zm2.586 15.158c-.533.986-1.519 1.519-2.182 1.164-.662-.356-.727-1.471-.177-2.473.549-1.002 1.519-1.519 2.165-1.163.646.355.743 1.47.194 2.472zm-7.789-4.767c-.517.953-1.455 1.471-2.085 1.115-.63-.355-.695-1.406-.178-2.359.518-.954 1.455-1.455 2.085-1.115.63.339.695 1.406.178 2.359z" fill="#263238"/><path d="M549.868 364.574a.514.514 0 0 1 .646-.647 5.092 5.092 0 0 1 3.377 3.232.529.529 0 0 1-.371.631.564.564 0 0 1-.63-.372 4.032 4.032 0 0 0-2.731-2.537.502.502 0 0 1-.291-.307zm-8-3.83a.582.582 0 0 1-.177-.259.515.515 0 0 1 .42-.598 5.006 5.006 0 0 1 4.508 1.245.5.5 0 0 1 0 .727.493.493 0 0 1-.548.109.497.497 0 0 1-.163-.109 4.049 4.049 0 0 0-3.7-.857.562.562 0 0 1-.34-.258z" fill="#263238"/><path d="M543.145 368.436l-1.277 4.848a6.138 6.138 0 0 1-3.086-1.907 14.53 14.53 0 0 0 4.363-2.941z" fill="#D58745"/><path d="M558.028 378.342s4.638-3.814 6.367-.97c1.73 2.845-3.005 10.763-6.754 8.824-3.75-1.939-2.683-6.109.387-7.854z" fill="#EBB376"/><path d="M539.881 376.629c.241 1.356.381 2.728.42 4.105l.727.097c3.232.404 4.848-.485 5.769-1.616.395-.558.655-1.2.76-1.875.052-.38.052-.766 0-1.147-2.134.648-4.383.83-6.594.533-.646-.032-1.082-.097-1.082-.097z" fill="#263238"/><path d="M541.012 376.742l.145 1.212c3.087.372 5.317.21 6.464-.598.053-.38.053-.766 0-1.147-2.14.65-4.393.832-6.609.533z" fill="#FFF"/><path d="M541.028 380.831c3.232.404 4.848-.485 5.769-1.616a10.617 10.617 0 0 0-3.733.258 3.99 3.99 0 0 0-2.036 1.358z" fill="#DE5753"/><path d="M557.317 354.134s-5.559 11.943-.242 19.974c5.317 8.032 3.878 17.356.776 19.117-3.103 1.762 9.227 4.719 13.251 2.974 4.024-1.745 3.701-12.298 3.701-12.298s7.692-15.578 1.89-24.24c-5.801-8.662-19.376-5.527-19.376-5.527z" fill="#263238"/><path d="M555.039 361.261s-6.238-6.464-15.772-.824c0 0-3.766 1.616 1.228-5.462 4.993-7.078 19.78-10.246 28.894-.582 9.114 9.664-14.35 6.868-14.35 6.868z" fill="#263238"/><path d="M554.651 442.174c4.929 6.464 3.701 14.076 15.271 43.778 0 0-12.799 10.051-35.697 10.051a114.466 114.466 0 0 1-31.221-3.878c2.553-14.544 2.666-46.008 7.417-57.061l44.23 7.11z" fill="#FFF" opacity=".4"/><path d="M355.335 272.122s20.652-25.549 49.417-43.907l1.002 4.751s-27.73 20.895-45.248 41.742l-5.171-2.586z" fill="#176DE4"/><path d="M355.335 272.122s20.652-25.549 49.417-43.907l1.002 4.751s-27.73 20.895-45.248 41.742l-5.171-2.586z" fill="#FFF" opacity=".3"/><path d="M490.319 322.218l5.543 5.947c1.598.222 3.172.589 4.703 1.099 1.115.565 4.282 9.276 4.428 9.97.145.695-8.581 4.703-9.406 3.733-.824-.969-2.084-7.191-2.359-8.435a11.025 11.025 0 0 1 .275-3.588l-6.464-6.108 3.28-2.618z" fill="#EBB376"/><path d="M439.593 184.858c-10.569 1.794-12.718 16.403-16.063 31.658-3.345 15.255-12.766 24.369-4.46 38.784 8.306 14.414 33.855 18.81 49.175 7.465 15.319-11.344 3.684-23.819 4.508-38.606.825-14.786 9.939-27.472-5.639-37.766-18.94-12.459-27.521-1.535-27.521-1.535z" fill="#263238"/><path d="M494.553 325.45l-4.428 5.527s-26.486-27.957-29.847-34.033c-1.471-2.683-3.361-10.375-5.01-18.148-1.616-7.482-2.925-15.045-3.506-18.309-.194-1.067-.291-1.616-.291-1.616l10.875-9.502c5.705 7.934 4.848 40.917 8.258 44.828 3.41 3.91 23.949 31.253 23.949 31.253z" fill="#176DE4"/><path d="M455.268 278.78c-1.616-7.482-2.925-15.045-3.506-18.309l4.411-1.972s4.703 15.385-.905 20.281z" fill="#000" opacity=".2"/><path fill="#EBB376" d="M444.183 541.655l-9.389 1.244 1.163-13.348 1.083-12.249 11.506-3.362-2.311 14.674-2.052 13.041z"/><path fill="#000" opacity=".2" d="M446.17 528.921l-10.261.888 1.098-12.378 11.523-3.426z"/><path fill="#EBB376" d="M349.34 529.616l-9.309-1.73 5.252-12.33 4.816-11.312 11.991.388-6.755 13.235-5.995 11.749z"/><path d="M430.285 541.461c0-1.05 12.847-.226 12.847-.226s7.886 8.08 15.546 9.825c7.66 1.745 3.378 6.464-5.187 6.464h-21.17c-6.076-.065-2.278-5.252-2.036-16.063z" fill="#263238"/><path d="M444.57 542.883h-.113v-.194a.441.441 0 0 1 0-.145c0-.146 1.131-3.119 2.861-3.83a1.986 1.986 0 0 1 1.616 0c.581.274.856.63.84 1.066-.016.436-.954 1.358-2.004 1.907a5.369 5.369 0 0 1 2.877.323c.34.178.59.488.694.857.193.48.064 1.03-.323 1.373-.332.225-.73.333-1.131.307a15.926 15.926 0 0 1-5.317-1.664zm1.164-.21c1.891.808 4.25 1.503 4.848 1.018 0 0 .21-.178 0-.679a.678.678 0 0 0-.372-.452 3.086 3.086 0 0 0-1.503-.275 15.512 15.512 0 0 0-2.973.388zm1.777-3.426a5.61 5.61 0 0 0-2.262 2.747c1.907-.727 3.733-1.713 3.765-2.295 0-.177-.274-.339-.452-.436a1.597 1.597 0 0 0-.598-.129 1.577 1.577 0 0 0-.453.113z" fill="#176DE4"/><path d="M338.141 523.507c.452-.905 11.764 5.042 11.764 5.042s3.911 10.552 10.165 15.336c6.254 4.783.452 7.207-7.353 3.717l-19.392-8.678c-5.43-2.489.162-5.656 4.816-15.417z" fill="#263238"/><path d="M350.584 530.682a.198.198 0 0 1 0-.113.269.269 0 0 1 0-.113.269.269 0 0 1 0-.113.277.277 0 0 1 .081-.113c.097-.113 2.294-2.392 4.169-2.327.58.01 1.127.27 1.503.711.42.501.533.937.323 1.325-.21.388-1.422.84-2.602.921.95.249 1.812.759 2.489 1.471.243.298.343.688.275 1.066-.024.513-.356.96-.841 1.131a1.848 1.848 0 0 1-1.163-.194 15.978 15.978 0 0 1-4.234-3.652zm1.147.291c1.406 1.503 3.232 3.103 4.008 2.893 0 0 .258 0 .355-.582a.691.691 0 0 0-.145-.549 3.23 3.23 0 0 0-1.277-.889 14.524 14.524 0 0 0-2.941-.905v.032zm3.022-2.44a5.66 5.66 0 0 0-3.135 1.616c2.036.129 4.105 0 4.379-.55 0-.161-.113-.436-.242-.581a1.484 1.484 0 0 0-.485-.372 1.608 1.608 0 0 0-.517-.113z" fill="#176DE4"/><path d="M427.004 301.501l.615 23.658s21.008 50.29 27.924 73.496c6.917 23.206-5.236 122.476-5.236 122.476l-17.647 2.085s-8.08-75.596-9.582-89.349c-1.503-13.752-16.322-49.853-16.322-49.853s-3.232 34.712-4.848 46.007c-1.616 11.296-38.041 80.332-38.041 80.332l-17.145-7.062s23.755-75.952 23.949-79.378c.194-3.426-19.845-57.352 10.488-129.393l45.845 6.981z" fill="#263238"/><path fill="#000" d="M383.276 289.898l-2.214 6.383 44.763 11.83 2.618-7.547-45.167-10.666z"/><path fill="#263238" d="M398.623 292.222l-2.203-.643-3.272 11.216 2.203.643z"/><path fill="#FFF" d="M417.587 298.526l-9.828-2.464-1.87 7.462 9.828 2.463z"/><path fill="#263238" d="M426.231 298.585l-2.203-.643-3.275 11.215 2.203.644z"/><path d="M462.346 249.304c-1.939 2.521-3.733 4.848-5.413 7.175-6.464 8.727-11.167 14.916-14.722 19.909a103.848 103.848 0 0 0-10.342 17.227c-1.164 2.456-2.311 5.139-3.588 8.29l-45.005-12.007c8.484-31.447 15.739-47.963 19.392-56.188a1.27 1.27 0 0 0 .113-.259 11.31 11.31 0 0 1 13.348-6.334c3.232.872 7.013 1.971 10.52 3.232a146.344 146.344 0 0 1 19.004 8.597 137.498 137.498 0 0 1 16.693 10.358z" fill="#176DE4"/><path d="M462.363 249.304c-1.956 2.521-3.75 4.848-5.414 7.175-6.464 8.646-11.102 14.819-14.641 19.764l-.097.145a105.819 105.819 0 0 0-10.359 17.243l-.29.614c-1.051 2.279-2.101 4.848-3.232 7.66l-45.054-12.007c8.467-31.447 15.739-47.947 19.392-56.172l.129-.275a11.308 11.308 0 0 1 13.332-6.334c3.232.872 7.013 1.971 10.536 3.232a147.07 147.07 0 0 1 18.988 8.597 137.05 137.05 0 0 1 16.71 10.358z" fill="#FFF" opacity=".6"/><path d="M416.161 227.117c-5.914-1.616 2.796 19.278 16.257 23.335 13.461 4.056 21.574-.922 21.574-4.848 0-3.927-20.055-13.785-37.831-18.487z" fill="#EBB376"/><path d="M433.291 247.688c-7.563-8.613-6.917-14.544-6.917-14.544 9.922-.339 13.219-13.17 13.219-13.17l8.581 10.973a38.32 38.32 0 0 0-4.202 3.975c-5.575 6.173-2.811 8.71-2.811 8.71-1.18 5.01-7.87 4.056-7.87 4.056z" fill="#EBB376"/><path d="M448.174 230.979a38.32 38.32 0 0 0-4.202 3.975c-3.943-5.51-4.379-14.948-4.379-14.948l8.581 10.973z" fill="#000" opacity=".2"/><path d="M457.531 190.482c11.586 2.828 13.8 9.938 11.748 22.09-2.569 15.175-8.468 24.968-22.171 18.261-18.633-9.13-8.824-45.038 10.423-40.351z" fill="#EBB376"/><path d="M461.942 210.1a25.694 25.694 0 0 0 2.198 5.624 3.233 3.233 0 0 1-3.361.565l1.163-6.189z" fill="#D58745"/><path d="M455.091 207.482c-.211.953-.905 1.616-1.616 1.487-.711-.13-.986-1.034-.776-1.988.21-.953.889-1.616 1.616-1.487.727.13.986.97.776 1.988z" fill="#263238"/><path d="M454.04 205.43l2.246-.372s-1.341 1.535-2.246.372zm12.993 4.395c-.21.954-.905 1.616-1.535 1.487-.631-.129-.986-1.034-.776-1.988.21-.953.889-1.616 1.535-1.486.647.129.986 1.034.776 1.987z" fill="#263238"/><path d="M465.982 207.822l2.263-.356s-1.422 1.519-2.263.356zm-14.511-7.321a.6.6 0 0 1-.469-.226.597.597 0 0 1 .113-.824 6.672 6.672 0 0 1 6.012-.598.562.562 0 0 1 .339.743.585.585 0 0 1-.759.34 5.63 5.63 0 0 0-4.848.452.618.618 0 0 1-.388.113zm18.374 3.119a.594.594 0 0 1-.437-.194 4.933 4.933 0 0 0-3.878-1.891.59.59 0 0 1-.536-.941.586.586 0 0 1 .39-.222 6.15 6.15 0 0 1 4.848 2.262c.22.23.22.593 0 .824a.561.561 0 0 1-.387.162z" fill="#263238"/><path d="M440.11 206.933s7.741-8.21 8.711-15.756c0 0 25.241-3.782 20.7 19.796 0 0 7.289-20.152-12.524-25.452-19.812-5.301-26.809 23.836-18.648 35.035 0 0-3.038-8.484 1.761-13.623z" fill="#263238"/><path d="M441.403 209.841a5.224 5.224 0 0 0-4.331-5.979c-3.684-.485-7.191 6.464 1.309 10.423 1.212.566 2.246-.517 3.022-4.444z" fill="#EBB376"/><path d="M459.906 221.541a27.483 27.483 0 0 0-2.86 2.99l-.63-.372c-2.844-1.616-3.588-3.426-3.572-4.848.026-.683.22-1.35.566-1.939.177-.341.4-.656.662-.937a15.605 15.605 0 0 0 4.849 4.492c.597.404.985.614.985.614z" fill="#263238"/><path d="M458.953 220.943l-.873.857c-2.666-1.616-4.331-3.087-4.67-4.412.177-.341.4-.656.662-.937a15.599 15.599 0 0 0 4.881 4.492z" fill="#FFF"/><path d="M456.416 224.159c-2.844-1.616-3.588-3.426-3.572-4.848a10.71 10.71 0 0 1 2.78 2.521 3.98 3.98 0 0 1 .792 2.327z" fill="#DE5753"/><path d="M463.704 251.954c-15.11 16.354-32.191 47.058-32.191 47.058-8.29-7.158-8.694-24.935-8.694-24.935-13.962 13.559-39.543 10.795-39.543 10.795s5.478-18.487 11.101-34.582a330.035 330.035 0 0 1 3.911-10.714c2.65-6.803 5.026-11.829 6.464-12.54 5.058-2.489 18.762.436 18.762.436l2.844 35.552 29.815-19.99c9.438 6.965 7.531 8.92 7.531 8.92z" fill="#176DE4"/><path d="M427.037 265.254a.936.936 0 1 1-1.873.001.936.936 0 0 1 1.873-.001zm-1.632 5.947a.939.939 0 1 1-1.804-.359.934.934 0 0 1 .866-.578c.248 0 .487.099.663.274a.943.943 0 0 1 .275.663z" fill="#263238"/><path d="M362.72 262.006l33.144 22.139s-4.719 33.128-10.019 36.053c-5.301 2.925-45.248-22.737-47.995-30.09-2.747-7.353 24.87-28.102 24.87-28.102z" fill="#176DE4"/><path d="M362.72 262.006l33.144 22.139s-4.719 33.128-10.019 36.053c-5.301 2.925-45.248-22.737-47.995-30.09-2.747-7.353 24.87-28.102 24.87-28.102z" fill="#FFF" opacity=".4"/><path d="M385.586 286.666s32.159-49.611 28.62-60.681h3.119s6.254 11.797-26.487 64.107l-5.252-3.426z" fill="#176DE4"/><path d="M385.586 286.666s32.159-49.611 28.62-60.681h3.119s6.254 11.797-26.487 64.107l-5.252-3.426z" fill="#FFF" opacity=".3"/><path d="M385.586 264.317l4.606 4.848s4.751-.356 6.464-.55c1.713-.193 5.608 3.507 5.591 4.428-.016.921-6.302 8.775-6.302 8.775l-6.27-3.054-2.473-6.642-3.926-4.605 2.31-3.2z" fill="#EBB376"/><path d="M402.215 240.966s-3.814 6.464-7.838 9.324a330.035 330.035 0 0 1 3.911-10.714l3.927 1.39z" fill="#000" opacity=".2"/><path d="M408.824 226.034c-3.91-.614-29.088 7.854-37.555 13.558-7.385 5.01.856 19.392 13.219 30.704l3.781-4.686s-11.021-15.207-9.534-19.586c9.566-.792 23.48-5.026 23.48-5.026l6.609-14.964z" fill="#176DE4"/></g></svg>