<svg width="329" height="51" xmlns="http://www.w3.org/2000/svg" xmlns:xlink="http://www.w3.org/1999/xlink" overflow="hidden"><defs><clipPath id="clip0"><rect x="73" y="292" width="329" height="51"/></clipPath></defs><g clip-path="url(#clip0)" transform="translate(-73 -292)"><path d="M74 293 401 293 401 343 74 343Z" fill-rule="evenodd"/><path d="M257.142 305.387 321.358 310.942C327.325 311.459 331 312.412 331 313.445L331 324.555C331 325.587 327.325 326.541 321.358 327.058L257.142 332.613C251.176 333.129 243.825 333.129 237.858 332.613L173.642 327.058C167.675 326.541 164 325.587 164 324.555L164 313.445C164 312.412 167.675 311.459 173.642 310.942L237.858 305.387C243.825 304.871 251.176 304.871 257.142 305.387Z" fill="#00F2A9" fill-rule="evenodd"/><path d="M266 319C266 320.657 257.494 322 247 322 236.507 322 228 320.657 228 319 228 317.343 236.507 316 247 316 257.494 316 266 317.343 266 319Z" fill-rule="evenodd"/></g></svg>