<svg width="329" height="70" xmlns="http://www.w3.org/2000/svg" xmlns:xlink="http://www.w3.org/1999/xlink" overflow="hidden"><defs><clipPath id="clip0"><rect x="73" y="273" width="329" height="70"/></clipPath></defs><g clip-path="url(#clip0)" transform="translate(-73 -273)"><path d="M74 273 401 273 401 343 74 343Z" fill-rule="evenodd"/><path d="M257.142 290.553 321.358 298.489C327.325 299.227 331 300.589 331 302.064L331 317.936C331 319.411 327.325 320.773 321.358 321.511L257.142 329.447C251.176 330.184 243.825 330.184 237.858 329.447L173.642 321.511C167.675 320.773 164 319.411 164 317.936L164 302.064C164 300.589 167.675 299.227 173.642 298.489L237.858 290.553C243.825 289.816 251.176 289.816 257.142 290.553Z" fill="#00F2A9" fill-rule="evenodd"/><path d="M266 310C266 312.209 257.494 314 247 314 236.507 314 228 312.209 228 310 228 307.791 236.507 306 247 306 257.494 306 266 307.791 266 310Z" fill-rule="evenodd"/></g></svg>