<svg width="40" height="40" viewBox="0 0 40 40" fill="none" xmlns="http://www.w3.org/2000/svg">
<path d="M31.25 17.5V31.3889C31.25 31.6836 31.1329 31.9662 30.9246 32.1746C30.7162 32.3829 30.4336 32.5 30.1389 32.5H6.25C5.91848 32.5 5.60054 32.3683 5.36612 32.1339C5.1317 31.8995 5 31.5815 5 31.25V13.75C5 13.4185 5.1317 13.1005 5.36612 12.8661C5.60054 12.6317 5.91848 12.5 6.25 12.5H13.3333C13.6038 12.5 13.867 12.5877 14.0833 12.75L18.4167 16C18.633 16.1623 18.8962 16.25 19.1667 16.25H30C30.3315 16.25 30.6495 16.3817 30.8839 16.6161C31.1183 16.8505 31.25 17.1685 31.25 17.5Z" stroke="#458FF6" stroke-width="2" stroke-linecap="round" stroke-linejoin="round"/>
<path d="M31.25 17.5V31.3889C31.25 31.6836 31.1329 31.9662 30.9246 32.1746C30.7162 32.3829 30.4336 32.5 30.1389 32.5H6.25C5.91848 32.5 5.60054 32.3683 5.36612 32.1339C5.1317 31.8995 5 31.5815 5 31.25V13.75C5 13.4185 5.1317 13.1005 5.36612 12.8661C5.60054 12.6317 5.91848 12.5 6.25 12.5H13.3333C13.6038 12.5 13.867 12.5877 14.0833 12.75L18.4167 16C18.633 16.1623 18.8962 16.25 19.1667 16.25H30C30.3315 16.25 30.6495 16.3817 30.8839 16.6161C31.1183 16.8505 31.25 17.1685 31.25 17.5Z" stroke="#458FF6" stroke-width="2" stroke-linecap="round" stroke-linejoin="round"/>
<path d="M10 12.5V8.75C10 8.41848 10.1317 8.10054 10.3661 7.86612C10.6005 7.6317 10.9185 7.5 11.25 7.5H18.3333C18.6038 7.5 18.867 7.58772 19.0833 7.75L23.4167 11C23.633 11.1623 23.8962 11.25 24.1667 11.25H35C35.3315 11.25 35.6495 11.3817 35.8839 11.6161C36.1183 11.8505 36.25 12.1685 36.25 12.5V26.3889C36.25 26.5348 36.2213 26.6793 36.1654 26.8141C36.1096 26.9489 36.0277 27.0714 35.9246 27.1746C35.8214 27.2777 35.6989 27.3596 35.5641 27.4154C35.4293 27.4713 35.2848 27.5 35.1389 27.5H31.25" stroke="#458FF6" stroke-width="2" stroke-linecap="round" stroke-linejoin="round"/>
</svg>
