<svg width="17" height="18" viewBox="0 0 17 18" fill="none" xmlns="http://www.w3.org/2000/svg">
<path d="M14.3438 4.21875L2.65625 4.21875" stroke="#A7A7AD" stroke-linecap="round" stroke-linejoin="round"/>
<path d="M6.90625 7.40625V11.6562" stroke="#A7A7AD" stroke-linecap="round" stroke-linejoin="round"/>
<path d="M10.0938 7.40625V11.6562" stroke="#A7A7AD" stroke-linecap="round" stroke-linejoin="round"/>
<path d="M13.2812 4.21875V14.3125C13.2812 14.4534 13.2253 14.5885 13.1257 14.6882C13.026 14.7878 12.8909 14.8438 12.75 14.8438H4.25C4.1091 14.8438 3.97398 14.7878 3.87435 14.6882C3.77472 14.5885 3.71875 14.4534 3.71875 14.3125V4.21875" stroke="#A7A7AD" stroke-linecap="round" stroke-linejoin="round"/>
<path d="M11.1562 4.21875V3.15625C11.1562 2.87446 11.0443 2.60421 10.8451 2.40495C10.6458 2.20569 10.3755 2.09375 10.0938 2.09375H6.90625C6.62446 2.09375 6.35421 2.20569 6.15495 2.40495C5.95569 2.60421 5.84375 2.87446 5.84375 3.15625V4.21875" stroke="#A7A7AD" stroke-linecap="round" stroke-linejoin="round"/>
</svg>
