<svg width="40" height="40" viewBox="0 0 40 40" fill="none" xmlns="http://www.w3.org/2000/svg">
<path d="M15 27.499H4.6875C4.43886 27.499 4.2004 27.4003 4.02459 27.2244C3.84877 27.0486 3.75 26.8102 3.75 26.5615V16.249C3.75 13.2653 4.93526 10.4038 7.04504 8.29406C9.15482 6.18428 12.0163 4.99902 15 4.99902H15C17.9837 4.99902 20.8452 6.18429 22.955 8.29407C25.0647 10.4039 26.25 13.2653 26.25 16.249V16.249C26.25 19.2327 25.0647 22.0942 22.955 24.204C20.8452 26.3138 17.9837 27.499 15 27.499V27.499Z" stroke="#458FF6" stroke-width="2" stroke-linecap="round" stroke-linejoin="round"/>
<path d="M14.3906 27.4991C15.1669 29.6925 16.604 31.5914 18.504 32.9344C20.404 34.2775 22.6736 34.9986 25.0003 34.9986H35.3128C35.5615 34.9986 35.7999 34.8999 35.9757 34.7241C36.1515 34.5482 36.2503 34.3098 36.2503 34.0611V23.7486C36.2503 20.8713 35.1478 18.1034 33.1697 16.014C31.1915 13.9246 28.488 12.6725 25.615 12.5151" stroke="#458FF6" stroke-width="2" stroke-linecap="round" stroke-linejoin="round"/>
</svg>
