<svg width="58" height="58" viewBox="0 0 58 58" fill="none" xmlns="http://www.w3.org/2000/svg">
<path d="M29 53.1666C42.3469 53.1666 53.1667 42.3469 53.1667 29C53.1667 15.6531 42.3469 4.83331 29 4.83331C15.6531 4.83331 4.83334 15.6531 4.83334 29C4.83334 42.3469 15.6531 53.1666 29 53.1666Z" stroke="#458FF6" stroke-width="3" stroke-linecap="round" stroke-linejoin="round"/>
<path d="M29 38.6666C34.3388 38.6666 38.6667 34.3387 38.6667 29C38.6667 23.6612 34.3388 19.3333 29 19.3333C23.6612 19.3333 19.3333 23.6612 19.3333 29C19.3333 34.3387 23.6612 38.6666 29 38.6666Z" stroke="#458FF6" stroke-width="3" stroke-linecap="round" stroke-linejoin="round"/>
<path d="M11.9141 11.9141L22.1608 22.1608" stroke="#458FF6" stroke-width="3" stroke-linecap="round" stroke-linejoin="round"/>
<path d="M35.8392 35.8392L46.0859 46.0859" stroke="#458FF6" stroke-width="3" stroke-linecap="round" stroke-linejoin="round"/>
<path d="M35.8392 22.1608L46.0859 11.9141" stroke="#458FF6" stroke-width="3" stroke-linecap="round" stroke-linejoin="round"/>
<path d="M35.8392 22.1607L44.3701 13.6299" stroke="#458FF6" stroke-width="3" stroke-linecap="round" stroke-linejoin="round"/>
<path d="M11.9141 46.0859L22.1608 35.8392" stroke="#458FF6" stroke-width="3" stroke-linecap="round" stroke-linejoin="round"/>
</svg>
