<svg width="36" height="46" viewBox="0 0 36 46" fill="none" xmlns="http://www.w3.org/2000/svg">
<path d="M5.19355 46H30.4194C33.2877 46 35.6129 43.6748 35.6129 40.8064V13.4265C35.6129 11.9632 34.9956 10.5679 33.9129 9.58359L24.8567 1.35063C23.9007 0.481555 22.6551 0 21.3631 0H5.19355C2.32523 0 0 2.32523 0 5.19355V40.8065C0 43.6748 2.32523 46 5.19355 46Z" fill="#2D9CDB"/>
<path d="M32.0116 12.7206L22.8911 3.60008C22.6574 3.36638 22.2578 3.5319 22.2578 3.86239V12.9829C22.2578 13.1878 22.4239 13.3539 22.6288 13.3539H31.7493C32.0798 13.3539 32.2453 12.9543 32.0116 12.7206Z" fill="white"/>
<path d="M6.09911 22.6123H9.2093C10.5942 22.6123 11.6666 22.9803 12.4263 23.7163C13.194 24.4523 13.5778 25.4891 13.5778 26.8265C13.5778 28.1719 13.194 29.2165 12.4263 29.9605C11.6666 30.6965 10.5942 31.0645 9.2093 31.0645H6.09911V22.6123ZM9.11433 29.818C11.0612 29.818 12.0346 28.8208 12.0346 26.8265C12.0346 24.848 11.0612 23.8588 9.11433 23.8588H7.63046V29.818H9.11433ZM18.8927 31.1713C18.0775 31.1713 17.3653 30.9972 16.7559 30.649C16.1544 30.2928 15.6875 29.7903 15.3551 29.1414C15.0307 28.4845 14.8684 27.7129 14.8684 26.8265C14.8684 25.9481 15.0307 25.1844 15.3551 24.5354C15.6796 23.8786 16.1426 23.376 16.744 23.0278C17.3534 22.6796 18.0696 22.5055 18.8927 22.5055C19.7157 22.5055 20.428 22.6796 21.0294 23.0278C21.6388 23.376 22.1018 23.8786 22.4184 24.5354C22.7428 25.1844 22.9051 25.9481 22.9051 26.8265C22.9051 27.7129 22.7428 28.4845 22.4184 29.1414C22.0939 29.7903 21.6309 30.2928 21.0294 30.649C20.428 30.9972 19.7157 31.1713 18.8927 31.1713ZM18.8927 29.9486C19.6762 29.9486 20.2855 29.6795 20.7208 29.1414C21.1561 28.6032 21.3737 27.8316 21.3737 26.8265C21.3737 25.8294 21.1561 25.0657 20.7208 24.5354C20.2855 23.9973 19.6762 23.7282 18.8927 23.7282C18.1092 23.7282 17.4998 23.9933 17.0645 24.5235C16.6293 25.0538 16.4116 25.8214 16.4116 26.8265C16.4116 27.8316 16.6293 28.6032 17.0645 29.1414C17.4998 29.6795 18.1092 29.9486 18.8927 29.9486ZM28.3079 31.1713C27.477 31.1713 26.7489 30.9932 26.1237 30.6371C25.5064 30.281 25.0315 29.7784 24.6992 29.1295C24.3668 28.4726 24.2006 27.705 24.2006 26.8265C24.2006 25.956 24.3668 25.1962 24.6992 24.5473C25.0315 23.8904 25.5064 23.3879 26.1237 23.0397C26.7489 22.6835 27.477 22.5055 28.3079 22.5055C28.8777 22.5055 29.4119 22.5965 29.9105 22.7785C30.417 22.9526 30.8364 23.198 31.1688 23.5145L30.6702 24.6304C30.2904 24.3217 29.9105 24.1002 29.5306 23.9656C29.1587 23.8232 28.759 23.7519 28.3317 23.7519C27.5165 23.7519 26.8834 24.0171 26.4323 24.5473C25.9891 25.0775 25.7675 25.8373 25.7675 26.8265C25.7675 27.8237 25.9891 28.5913 26.4323 29.1295C26.8755 29.6597 27.5086 29.9248 28.3317 29.9248C28.759 29.9248 29.1587 29.8576 29.5306 29.723C29.9105 29.5806 30.2904 29.355 30.6702 29.0464L31.1688 30.1623C30.8364 30.4788 30.417 30.7281 29.9105 30.9101C29.4119 31.0842 28.8777 31.1713 28.3079 31.1713Z" fill="white"/>
</svg>
