<svg width="36" height="46" viewBox="0 0 36 46" fill="none" xmlns="http://www.w3.org/2000/svg">
<path d="M5.19355 46H30.4194C33.2877 46 35.6129 43.6748 35.6129 40.8064V13.4265C35.6129 11.9632 34.9956 10.5679 33.9129 9.58359L24.8567 1.35063C23.9007 0.481555 22.6551 0 21.3631 0H5.19355C2.32523 0 0 2.32523 0 5.19355V40.8065C0 43.6748 2.32523 46 5.19355 46Z" fill="#27AE60"/>
<path d="M32.0116 12.7206L22.8911 3.60008C22.6574 3.36638 22.2578 3.5319 22.2578 3.86239V12.9829C22.2578 13.1878 22.4239 13.3539 22.6288 13.3539H31.7493C32.0798 13.3539 32.2453 12.9543 32.0116 12.7206Z" fill="white"/>
<path d="M15.4481 31.0645H13.6555L11.3644 27.9068L9.07334 31.0645H7.28083L10.4979 26.7553L7.38766 22.6123H9.18018L11.3644 25.6394L13.5724 22.6123H15.3531L12.231 26.7672L15.4481 31.0645ZM16.2659 22.6123H17.7973V29.8061H21.7503V31.0645H16.2659V22.6123ZM25.6188 31.1713C24.9698 31.1713 24.3605 31.0842 23.7907 30.9101C23.2288 30.736 22.75 30.4867 22.3543 30.1623L22.8766 29.0464C23.2881 29.355 23.7155 29.5845 24.1587 29.7349C24.6097 29.8774 25.1004 29.9486 25.6307 29.9486C26.2163 29.9486 26.6674 29.8457 26.9839 29.6399C27.3084 29.4342 27.4707 29.1453 27.4707 28.7734C27.4707 28.4568 27.3203 28.2154 27.0196 28.0492C26.7267 27.8751 26.24 27.7129 25.5594 27.5625C24.499 27.333 23.7273 27.0362 23.2446 26.6722C22.7618 26.3082 22.5205 25.7779 22.5205 25.0815C22.5205 24.5829 22.655 24.1397 22.9241 23.7519C23.1931 23.3642 23.573 23.0595 24.0637 22.8379C24.5623 22.6163 25.136 22.5055 25.785 22.5055C26.3785 22.5055 26.9404 22.5965 27.4707 22.7785C28.0088 22.9526 28.448 23.198 28.7883 23.5145L28.2779 24.6304C27.5261 24.0289 26.6951 23.7282 25.785 23.7282C25.2389 23.7282 24.8076 23.8429 24.491 24.0725C24.1745 24.294 24.0162 24.5987 24.0162 24.9865C24.0162 25.3189 24.1547 25.5722 24.4317 25.7463C24.7166 25.9204 25.1993 26.0826 25.8799 26.233C26.5843 26.3992 27.1581 26.5812 27.6012 26.779C28.0444 26.969 28.3847 27.2183 28.6221 27.5269C28.8596 27.8276 28.9783 28.2075 28.9783 28.6665C28.9783 29.173 28.8437 29.6162 28.5747 29.9961C28.3056 30.368 27.9178 30.6569 27.4113 30.8626C26.9048 31.0684 26.3073 31.1713 25.6188 31.1713Z" fill="white"/>
</svg>
