<svg width="36" height="46" viewBox="0 0 36 46" fill="none" xmlns="http://www.w3.org/2000/svg">
<path d="M5.19355 46H30.4194C33.2877 46 35.6129 43.6748 35.6129 40.8064V13.4265C35.6129 11.9632 34.9956 10.5679 33.9129 9.58359L24.8567 1.35063C23.9007 0.481555 22.6551 0 21.3631 0H5.19355C2.32523 0 0 2.32523 0 5.19355V40.8065C0 43.6748 2.32523 46 5.19355 46Z" fill="#9D84FE"/>
<path d="M32.0116 12.7206L22.8911 3.60008C22.6574 3.36638 22.2578 3.5319 22.2578 3.86239V12.9829C22.2578 13.1878 22.4239 13.3539 22.6288 13.3539H31.7493C32.0798 13.3539 32.2453 12.9543 32.0116 12.7206Z" fill="white"/>
<path d="M16.9355 26.4941V30.554C16.5477 30.7439 16.0808 30.8943 15.5347 31.0051C14.9887 31.1159 14.4307 31.1713 13.8609 31.1713C12.9904 31.1713 12.2346 30.9972 11.5936 30.649C10.9525 30.3008 10.4619 29.8022 10.1216 29.1532C9.78126 28.5043 9.61111 27.7287 9.61111 26.8265C9.61111 25.9402 9.78126 25.1725 10.1216 24.5235C10.4619 23.8746 10.9446 23.376 11.5698 23.0278C12.2029 22.6796 12.9429 22.5055 13.7897 22.5055C14.3832 22.5055 14.9372 22.5925 15.4516 22.7666C15.9739 22.9408 16.4092 23.1861 16.7574 23.5026L16.2351 24.6185C15.8394 24.3099 15.4516 24.0883 15.0718 23.9537C14.6919 23.8192 14.2764 23.7519 13.8253 23.7519C12.9548 23.7519 12.2939 24.0131 11.8428 24.5354C11.3997 25.0577 11.1781 25.8214 11.1781 26.8265C11.1781 27.8632 11.4076 28.6467 11.8666 29.177C12.3256 29.6993 13.0102 29.9605 13.9203 29.9605C14.4742 29.9605 15.0203 29.8853 15.5585 29.7349V27.5981H13.7303V26.4941H16.9355ZM18.6598 22.6123H20.1912V31.0645H18.6598V22.6123ZM22.0217 22.6123H27.5417V23.835H23.5412V26.1499H27.3043V27.3845H23.5412V31.0645H22.0217V22.6123Z" fill="white"/>
</svg>
