<svg width="36" height="46" viewBox="0 0 36 46" fill="none" xmlns="http://www.w3.org/2000/svg">
<path d="M5.19355 46H30.4194C33.2877 46 35.6129 43.6748 35.6129 40.8064V13.4265C35.6129 11.9632 34.9956 10.5679 33.9129 9.58359L24.8567 1.35063C23.9007 0.481555 22.6551 0 21.3631 0H5.19355C2.32523 0 0 2.32523 0 5.19355V40.8065C0 43.6748 2.32523 46 5.19355 46Z" fill="#9B51E0"/>
<path d="M32.0116 12.7206L22.8911 3.60008C22.6574 3.36638 22.2578 3.5319 22.2578 3.86239V12.9829C22.2578 13.1878 22.4239 13.3539 22.6288 13.3539H31.7493C32.0798 13.3539 32.2453 12.9543 32.0116 12.7206Z" fill="white"/>
<path d="M6.97626 31.8666C7.37987 31.922 7.66477 31.9497 7.83097 31.9497C8.21875 31.9497 8.48387 31.8547 8.62632 31.6648C8.76877 31.4748 8.84 31.1345 8.84 30.6439V22.5479H10.3714V30.6439C10.3714 31.5461 10.2012 32.199 9.8609 32.6026C9.5206 33.0141 8.93892 33.2199 8.11587 33.2199C7.736 33.2199 7.35613 33.1882 6.97626 33.1249V31.8666ZM12.2034 22.5479H15.8715C16.7816 22.5479 17.4899 22.7695 17.9964 23.2126C18.5029 23.6479 18.7562 24.2454 18.7562 25.0052C18.7562 25.7649 18.4989 26.3664 17.9845 26.8095C17.478 27.2527 16.7737 27.4743 15.8715 27.4743H13.7347V31H12.2034V22.5479ZM15.6934 26.2872C16.2237 26.2872 16.6233 26.1804 16.8924 25.9667C17.1694 25.7451 17.3079 25.4286 17.3079 25.017C17.3079 24.5976 17.1734 24.281 16.9043 24.0674C16.6352 23.8458 16.2316 23.735 15.6934 23.735H13.7347V26.2872H15.6934ZM27.1262 26.4297V30.4895C26.7384 30.6795 26.2715 30.8298 25.7254 30.9406C25.1794 31.0514 24.6214 31.1068 24.0516 31.1068C23.1811 31.1068 22.4253 30.9327 21.7843 30.5845C21.1432 30.2363 20.6526 29.7377 20.3123 29.0888C19.972 28.4398 19.8018 27.6643 19.8018 26.7621C19.8018 25.8757 19.972 25.108 20.3123 24.4591C20.6526 23.8102 21.1353 23.3116 21.7605 22.9634C22.3936 22.6151 23.1336 22.441 23.9804 22.441C24.5739 22.441 25.1279 22.5281 25.6423 22.7022C26.1647 22.8763 26.5999 23.1216 26.9481 23.4382L26.4258 24.5541C26.0301 24.2454 25.6423 24.0238 25.2625 23.8893C24.8826 23.7548 24.4671 23.6875 24.016 23.6875C23.1455 23.6875 22.4847 23.9486 22.0336 24.471C21.5904 24.9933 21.3688 25.757 21.3688 26.7621C21.3688 27.7988 21.5983 28.5823 22.0573 29.1125C22.5163 29.6348 23.2009 29.896 24.111 29.896C24.665 29.896 25.211 29.8208 25.7492 29.6705V27.5337H23.921V26.4297H27.1262Z" fill="white"/>
</svg>
