<svg width="36" height="46" viewBox="0 0 36 46" fill="none" xmlns="http://www.w3.org/2000/svg">
<path d="M5.19355 46H30.4194C33.2877 46 35.6129 43.6748 35.6129 40.8064V13.4265C35.6129 11.9632 34.9956 10.5679 33.9129 9.58359L24.8567 1.35063C23.9007 0.481555 22.6551 0 21.3631 0H5.19355C2.32523 0 0 2.32523 0 5.19355V40.8065C0 43.6748 2.32523 46 5.19355 46Z" fill="#828282"/>
<path d="M32.0116 12.7206L22.8911 3.60008C22.6574 3.36638 22.2578 3.5319 22.2578 3.86239V12.9829C22.2578 13.1878 22.4239 13.3539 22.6288 13.3539H31.7493C32.0798 13.3539 32.2453 12.9543 32.0116 12.7206Z" fill="white"/>
<path d="M10.0002 23.8706H7.24609V22.6123H14.3093V23.8706H11.5434V31.0645H10.0002V23.8706ZM22.5138 31.0645H20.7213L18.4302 27.9068L16.1391 31.0645H14.3466L17.5636 26.7553L14.4534 22.6123H16.246L18.4302 25.6394L20.6382 22.6123H22.4189L19.2968 26.7672L22.5138 31.0645ZM25.3142 23.8706H22.5601V22.6123H29.6233V23.8706H26.8574V31.0645H25.3142V23.8706Z" fill="white"/>
</svg>
