<svg width="971" height="576" viewBox="0 0 971 576" fill="none" xmlns="http://www.w3.org/2000/svg"><path fill-rule="evenodd" clip-rule="evenodd" d="M292.719 14.093c47.24 2.447 72.458 55.861 113.776 78.902 50.23 28.011 124.164 20.199 153.1 69.919 29.132 50.056 4.702 114.143-14.095 168.929-18.523 53.989-41.254 113.002-91.749 139.574-48.739 25.648-106.112-2.503-161.032-6.554-49.594-3.659-100.64 7.159-144.654-15.998-48.177-25.347-84.923-67.764-108.158-117.012-25.69-54.454-56.753-120.355-29.049-173.811 27.832-53.701 105.338-49.794 159.19-77.297 42.484-21.697 75.037-69.12 122.671-66.652z" fill="#176DE4"/><path opacity=".9" fill-rule="evenodd" clip-rule="evenodd" d="M292.719 14.093c47.24 2.447 72.458 55.861 113.776 78.902 50.23 28.011 124.164 20.199 153.1 69.919 29.132 50.056 4.702 114.143-14.095 168.929-18.523 53.989-41.254 113.002-91.749 139.574-48.739 25.648-106.112-2.503-161.032-6.554-49.594-3.659-100.64 7.159-144.654-15.998-48.177-25.347-84.923-67.764-108.158-117.012-25.69-54.454-56.753-120.355-29.049-173.811 27.832-53.701 105.338-49.794 159.19-77.297 42.484-21.697 75.037-69.12 122.671-66.652z" fill="#fff"/><path d="M970.966 505.55H199.934v.385h771.032v-.385zM375.513 517.917h-53.047v.386h53.047v-.386zM401.528 517.917h-15.853v.386h15.853v-.386zM479.741 510.346h-29.854v.385h29.854v-.385zM863.962 526.476h-66.601v.385h66.601v-.385zM887.464 526.476h-9.762v.385h9.762v-.385zM814.216 512.937H669.755v.385h144.461v-.385zM565.403 436.774H267.646a8.81 8.81 0 0 1-6.217-2.584 8.81 8.81 0 0 1-2.573-6.221V9.406a8.803 8.803 0 0 1 8.79-8.728h297.757a8.805 8.805 0 0 1 8.805 8.805v418.486a8.802 8.802 0 0 1-8.805 8.805zM267.646.986a8.42 8.42 0 0 0-8.405 8.42v418.563a8.42 8.42 0 0 0 8.405 8.419h297.757a8.434 8.434 0 0 0 8.42-8.419V9.406a8.436 8.436 0 0 0-8.42-8.42H267.646zM898.967 436.774H601.195a8.818 8.818 0 0 1-8.806-8.805V9.406a8.825 8.825 0 0 1 8.806-8.728h297.772a8.807 8.807 0 0 1 8.775 8.728v418.563a8.806 8.806 0 0 1-8.775 8.805zM601.195.986a8.438 8.438 0 0 0-8.42 8.42v418.563a8.434 8.434 0 0 0 8.42 8.419h297.772a8.434 8.434 0 0 0 8.42-8.419V9.406a8.435 8.435 0 0 0-8.42-8.42H601.195z" fill="#E6E6E6"/><path d="M846.09 295.382H738.037V505.55H846.09V295.382z" fill="#F5F5F5"/><path d="M846.09 295.382h-8.913V505.55h8.913V295.382z" fill="#F0F0F0"/><path d="M497.583 346.779h248.782V301.38H497.583v45.399z" fill="#E0E0E0"/><path d="M601.318 505.704H494.653a1.542 1.542 0 1 1 0-3.084h106.665c15.421 0 17.471-4.503 17.471-22.36V255.118a1.544 1.544 0 0 1 3.085 0V480.26c0 19.091-2.961 25.444-20.556 25.444z" fill="#E0E0E0"/><path d="M507.144 311.959h336.51v-15.76h-336.51v15.76z" fill="#F0F0F0"/><path d="M509.58 295.382H401.528V505.55H509.58V295.382z" fill="#F5F5F5"/><path d="M509.565 295.382h-8.913V505.55h8.913V295.382z" fill="#F0F0F0"/><path d="M433.063 505.55V131.291h-92.724V505.55h92.724z" fill="#FAFAFA"/><path d="M427.974 224.771v-82.547h-82.547v82.547h82.547z" fill="#F5F5F5"/><path d="M368.42 141.114h36.608a8.558 8.558 0 0 1-8.558 8.558h-19.43a8.55 8.55 0 0 1-6.092-2.485 8.56 8.56 0 0 1-2.528-6.073z" fill="#E0E0E0"/><path d="M427.959 314.719v-82.546h-82.547v82.546h82.547zM427.974 404.668v-82.547h-82.547v82.547h82.547zM427.974 494.632v-82.547h-82.547v82.547h82.547z" fill="#F5F5F5"/><path d="M368.42 231.078h36.608a8.574 8.574 0 0 1-8.558 8.558h-19.43a8.58 8.58 0 0 1-7.959-5.271 8.57 8.57 0 0 1-.661-3.287zM368.42 321.026h36.608a8.558 8.558 0 0 1-8.558 8.559h-19.43a8.55 8.55 0 0 1-6.092-2.485 8.56 8.56 0 0 1-2.528-6.074zM368.42 410.975h36.608a8.558 8.558 0 0 1-8.558 8.559h-19.43a8.568 8.568 0 0 1-6.092-2.485 8.571 8.571 0 0 1-2.528-6.074z" fill="#E0E0E0"/><path d="M340.339 505.55V131.291h-46.308V505.55h46.308zM607.64 295.382h-23.3l5.659-45.368h23.316l-5.675 45.368z" fill="#F0F0F0"/><path d="M612.806 295.382H589.49l5.675-45.368h23.301l-5.66 45.368z" fill="#F5F5F5"/><path d="M662.8 295.382h-16.855l-3.223-5.135h16.84l3.238 5.135z" fill="#F0F0F0"/><path d="M753.103 295.382H651.096l-3.223-5.135h91.475l13.755 5.135z" fill="#FAFAFA"/><path d="M533.729 282.367h7.371a13.012 13.012 0 0 1 13.015 13.015h-33.432a13.015 13.015 0 0 1 13.046-13.015zM615.628 272.698h-23.3l2.837-22.684h23.301l-2.838 22.684z" fill="#F0F0F0"/><path d="M529.936 267.27h165.001a2.27 2.27 0 0 0 1.716-.774 2.285 2.285 0 0 0 .551-1.801l-12.707-101.653a2.283 2.283 0 0 0-2.267-2.005H517.275a2.274 2.274 0 0 0-1.71.769 2.287 2.287 0 0 0-.556 1.791l12.706 101.668a2.281 2.281 0 0 0 2.221 2.005z" fill="#F0F0F0"/><path d="M532.434 267.27h164.893a2.29 2.29 0 0 0 2.186-1.615c.095-.311.122-.638.081-.96l-12.707-101.653a2.295 2.295 0 0 0-2.267-2.005H519.727a2.274 2.274 0 0 0-1.71.769 2.287 2.287 0 0 0-.557 1.791l12.707 101.668a2.283 2.283 0 0 0 2.267 2.005z" fill="#F5F5F5"/><path d="M694.274 261.641l-11.89-95.145a.645.645 0 0 0-.647-.555H523.413a.618.618 0 0 0-.633.709l11.89 95.161a.634.634 0 0 0 .632.555h158.339a.648.648 0 0 0 .633-.725z" fill="#E0E0E0"/><path d="M634.01 295.382h-37.966v-.478a3.778 3.778 0 0 1 3.778-3.778h30.41a3.778 3.778 0 0 1 3.778 3.778v.478z" fill="#FAFAFA"/><path d="M600.47 295.382h-25.753v-.478a3.778 3.778 0 0 1 3.778-3.778h18.197a3.778 3.778 0 0 1 3.778 3.778v.478z" fill="#F0F0F0"/><path d="M379.523 89.023v-.077c.354-1.188.693-2.39.986-3.593a6.271 6.271 0 0 0 4.843 2.914h.416c2.575-.247 5.042-2.745 6.6-6.677a.573.573 0 0 0 0-.447.601.601 0 0 0-.355-.293 13.553 13.553 0 0 0-10.902 1.897c.231-1.142.432-2.298.601-3.44.407.08.82.12 1.234.124 4.194 0 7.279-3.747 7.433-3.932a.547.547 0 0 0 .102-.49.548.548 0 0 0-.334-.374 7.708 7.708 0 0 0-6.307-.247 5.594 5.594 0 0 0-2.482 2.514 13.79 13.79 0 0 0-10.934-9.345.506.506 0 0 0-.447.108.509.509 0 0 0-.216.401c-.216 3.809-.092 8.481 2.761 10.702a6.506 6.506 0 0 0 4.132 1.264 15.057 15.057 0 0 0 3.917-.616c-.407 2.755-1 5.48-1.773 8.157a21.59 21.59 0 0 0-11.273-7.926.568.568 0 0 0-.678.4c-.864 3.285-.417 5.953 1.28 7.711a8.629 8.629 0 0 0 6.384 2.19 19.125 19.125 0 0 0 3.701-.386c-.71 2.252-1.542 4.457-2.329 6.554-1.711-1.542-6.754-5.366-12.244-3.763a.588.588 0 0 0-.339.294.573.573 0 0 0 0 .447c1.542 3.639 3.192 5.66 5.32 6.353a5.52 5.52 0 0 0 1.758.278c1.63-.07 3.218-.535 4.626-1.357a111.536 111.536 0 0 1-3.608 7.71 11.2 11.2 0 0 0-11.057-2.93.54.54 0 0 0-.432.586 6.7 6.7 0 0 0 3.994 5.366c.814.35 1.69.529 2.576.525a7.632 7.632 0 0 0 3.516-.91 117.128 117.128 0 0 1-3.177 5.52H356.33a136.12 136.12 0 0 1-5.474-10.378 9.988 9.988 0 0 0 2.698.417 7.33 7.33 0 0 0 7.259-5.816c.232-1.1.207-2.24-.073-3.329a.538.538 0 0 0-.601-.385 13.402 13.402 0 0 0-10.363 6.739c-1.234-2.776-2.436-5.722-3.485-8.76a9.746 9.746 0 0 0 4.364 1.265 5.244 5.244 0 0 0 1.789-.293c3.084-1.018 4.857-4.734 6.369-8.59a.509.509 0 0 0 0-.446.578.578 0 0 0-.355-.293c-6.168-1.728-11.242 4.21-12.815 6.338a75.815 75.815 0 0 1-2.051-7.819c1.296.254 2.612.388 3.933.401a9.589 9.589 0 0 0 7.217-2.529c1.865-1.974 2.313-4.934 1.31-8.543a.533.533 0 0 0-.462-.405.541.541 0 0 0-.216.02 23.626 23.626 0 0 0-12.198 8.836l-.231-1.404a.59.59 0 0 0-.154-.323 6.78 6.78 0 0 0-3.501-4.241 8.45 8.45 0 0 0-6.908.37.604.604 0 0 0-.34.386.545.545 0 0 0 .124.478c.154.2 3.546 4.21 8.111 4.21a8.032 8.032 0 0 0 1.465-.155c.2 1.31.447 2.622.725 3.917a14.901 14.901 0 0 0-12.059-1.943.601.601 0 0 0-.355.293.611.611 0 0 0 0 .463c1.773 4.287 4.518 7 7.356 7.232h.385c1.434 0 3.377-.663 5.351-3.3a87.038 87.038 0 0 0 2.807 8.851c-2.668-1.264-8.667-3.438-12.954-.123a.547.547 0 0 0-.204.578.54.54 0 0 0 .097.193c2.775 3.778 5.335 5.613 7.849 5.613 2.081 0 4.071-1.311 6.06-3.901a124.123 124.123 0 0 0 3.593 8.049c-2.668-1.65-5.598-1.388-9.052.787a.534.534 0 0 0-.262.462.508.508 0 0 0 .231.463 13.66 13.66 0 0 0 7.017 2.544 6.161 6.161 0 0 0 3.654-1.11 143.306 143.306 0 0 0 2.853 5.197h-4.765v2.714h1.727l1.434 14.372h21.111l1.419-14.372h1.742v-2.714h-9.483a136.409 136.409 0 0 0 3.824-6.801.529.529 0 0 0 .093-.185c.37-.694.724-1.403 1.094-2.143a7.127 7.127 0 0 0 5.706 3.192c.236.015.473.015.709 0a6.845 6.845 0 0 0 5.644-4.41.54.54 0 0 0-.246-.663 11.696 11.696 0 0 0-10.671-.432c.801-1.681 1.542-3.485 2.344-5.351a.444.444 0 0 0 .107-.247c.216-.524.417-1.049.633-1.542 1.835 2.313 3.654 3.454 5.551 3.454 2.298 0 4.626-1.696 7.125-5.197a.554.554 0 0 0-.108-.77c-3.933-2.946-9.253-.926-11.751.246a74.572 74.572 0 0 0 1.403-4.225l.047-.154zM820.569 82.515h-78.861v86.587h78.861V82.515z" fill="#E0E0E0"/><path d="M810.838 86.062a.43.43 0 0 1-.2 0c-.185-.123-18.813-11.195-24.673-11.195-5.86 0-23.671 11.072-23.856 11.18a.366.366 0 0 1-.289.05.374.374 0 0 1-.235-.174.386.386 0 0 1 .123-.524c.74-.463 18.119-11.303 24.257-11.303 6.137 0 24.364 10.794 25.135 11.303a.367.367 0 0 1 .179.385.353.353 0 0 1-.055.14.372.372 0 0 1-.386.138z" fill="#EBEBEB"/><path d="M829.096 82.515h-81.451v86.587h81.451V82.515z" fill="#F5F5F5"/><path d="M822.281 162.271v-72.94h-67.805v72.94h67.805z" fill="#fff"/><path d="M801.51 138.941c7.257-7.256 7.257-19.022.001-26.278-7.257-7.257-19.023-7.257-26.279 0-7.257 7.256-7.257 19.022 0 26.278 7.256 7.257 19.022 7.257 26.278 0z" fill="#E0E0E0"/><path d="M786.798 400.458h69.115a24.205 24.205 0 0 0 16.962-6.916 24.204 24.204 0 0 0 7.264-16.816l2.591-126.542a17.664 17.664 0 0 0-5.045-12.715 17.657 17.657 0 0 0-12.612-5.296h-43.332a17.638 17.638 0 0 0-17.534 15.652l-17.409 152.633z" fill="#E6E6E6"/><path d="M824.516 400.458h-73.649a3.456 3.456 0 0 1-3.454-3.454v-.324a9.471 9.471 0 0 1 9.469-9.468h67.634v13.246z" fill="#E6E6E6"/><path d="M818.703 507.277a1.541 1.541 0 0 1-1.542-1.218L795.572 402h-37.627l-21.588 104.059a1.574 1.574 0 0 1-3.085-.632l21.867-105.277a1.543 1.543 0 0 1 1.542-1.234h40.094a1.547 1.547 0 0 1 1.542 1.234l21.851 105.277a1.545 1.545 0 0 1-1.188 1.819c-.09.022-.184.032-.277.031z" fill="#E6E6E6"/><path d="M795.248 507.277a1.06 1.06 0 0 1-.308 0 1.538 1.538 0 0 1-1.206-1.218 1.525 1.525 0 0 1 .003-.602l21.866-105.276a1.544 1.544 0 0 1 1.542-1.234h40.094c.361-.007.713.112.995.337.281.226.475.543.547.897l21.851 105.276a1.572 1.572 0 0 1-1.84 1.862 1.573 1.573 0 0 1-1.244-1.229l-21.589-104.059h-37.657L796.713 506.09a1.54 1.54 0 0 1-1.465 1.187z" fill="#E6E6E6"/><path d="M585.448 575.191c165.128 0 298.991-7.816 298.991-17.457 0-9.64-133.863-17.456-298.991-17.456s-298.991 7.816-298.991 17.456c0 9.641 133.863 17.457 298.991 17.457z" fill="#F5F5F5"/><path d="M611.832 543.486a2.1 2.1 0 0 1-2.051-1.681l-29.299-144.276h-51.027l-29.3 144.276a2.093 2.093 0 0 1-2.441 1.505 2.098 2.098 0 0 1-1.661-2.338l29.639-145.956a2.116 2.116 0 0 1 2.051-1.681h54.435a2.1 2.1 0 0 1 2.051 1.681l29.654 145.956a2.099 2.099 0 0 1-1.635 2.467l-.416.047z" fill="#176DE4"/><path d="M529.933 543.486a2.11 2.11 0 0 1-2.051-1.681l-29.299-144.276h-51.027l-29.3 144.276a2.09 2.09 0 0 1-2.495 1.772 2.098 2.098 0 0 1-1.607-2.605l29.654-145.956a2.1 2.1 0 0 1 2.051-1.681h54.435a2.08 2.08 0 0 1 2.036 1.681l29.654 145.956a2.099 2.099 0 0 1-1.635 2.467l-.416.047z" fill="#176DE4"/><path d="M541.39 395.447h-93.757a32.873 32.873 0 0 1-32.877-32.213l-3.485-142.487a23.946 23.946 0 0 1 23.933-24.442h58.783a23.963 23.963 0 0 1 23.794 21.25l23.609 177.892z" fill="#176DE4"/><path d="M490.255 377.405h91.753a12.846 12.846 0 0 1 12.846 12.846v.447a4.627 4.627 0 0 1-4.627 4.626h-99.972v-17.919z" fill="#176DE4"/><g opacity=".3" fill="#000"><path opacity=".3" d="M611.832 543.486a2.1 2.1 0 0 1-2.051-1.681l-29.299-144.276h-51.027l-29.3 144.276a2.093 2.093 0 0 1-2.441 1.505 2.098 2.098 0 0 1-1.661-2.338l29.639-145.956a2.116 2.116 0 0 1 2.051-1.681h54.435a2.1 2.1 0 0 1 2.051 1.681l29.654 145.956a2.099 2.099 0 0 1-1.635 2.467l-.416.047z"/><path opacity=".3" d="M529.933 543.486a2.11 2.11 0 0 1-2.051-1.681l-29.299-144.276h-51.027l-29.3 144.276a2.09 2.09 0 0 1-2.495 1.772 2.098 2.098 0 0 1-1.607-2.605l29.654-145.956a2.1 2.1 0 0 1 2.051-1.681h54.435a2.08 2.08 0 0 1 2.036 1.681l29.654 145.956a2.099 2.099 0 0 1-1.635 2.467l-.416.047z"/><path opacity=".3" d="M541.39 395.447h-93.757a32.873 32.873 0 0 1-32.877-32.213l-3.485-142.487a23.946 23.946 0 0 1 23.933-24.442h58.783a23.963 23.963 0 0 1 23.794 21.25l23.609 177.892z"/><path opacity=".3" d="M490.255 377.405h91.753a12.845 12.845 0 0 1 12.846 12.845v.448a4.629 4.629 0 0 1-4.626 4.626h-99.973v-17.919z"/></g><path d="M515.298 188.44s13.108 17.117 4.627 51.197c-8.482 34.08-52.245 15.575-54.898-15.143-3.084-36.208 37.565-11.242 44.72-43.44l5.551 7.386z" fill="#263238"/><path d="M505.784 178.278c-5.69 4.01-7.942 9.839-1.65 15.544 6.292 5.706 15.266 5.521 17.98 3.177 2.714-2.344 2.175-14.249 2.175-14.249l-18.505-4.472z" fill="#176DE4"/><path opacity=".8" d="M505.784 178.278c-5.69 4.01-7.942 9.839-1.65 15.544 6.292 5.706 15.266 5.521 17.98 3.177 2.714-2.344 2.175-14.249 2.175-14.249l-18.505-4.472z" fill="#fff"/><path d="M577.644 254.133c.154.693.416 1.773.663 2.683l.74 2.899a166.191 166.191 0 0 0 1.697 5.829c1.141 3.917 2.405 7.818 3.731 11.72a398.236 398.236 0 0 0 4.164 11.658c.725 1.927 1.45 3.87 2.221 5.798l.894 2.313c.179.396.412.764.694 1.095a20.446 20.446 0 0 0 7.818 4.934 71.868 71.868 0 0 0 11.103 3.455c3.917.909 7.942 1.665 12.013 2.297 4.071.632 8.25 1.141 12.259 1.542l.139 8.297a128.73 128.73 0 0 1-26.462 0 77.893 77.893 0 0 1-13.585-2.637 45.75 45.75 0 0 1-7.001-2.761 26.8 26.8 0 0 1-7.032-4.95 19.414 19.414 0 0 1-3.084-3.994c-.232-.37-.432-.786-.648-1.172l-.401-.832-.709-1.542c-.956-1.959-1.913-3.917-2.791-5.906-1.789-3.979-3.532-7.988-5.089-12.075-1.558-4.086-3.084-8.204-4.38-12.336a205.287 205.287 0 0 1-1.819-6.415l-.849-3.254c-.246-1.172-.478-2.144-.724-3.531l16.438-3.115z" fill="#E58A7B"/><path d="M572.401 236.614c6.616 1.681 11.226 28.883 11.226 28.883l-18.211 12.337s-17.472-27.449-12.337-34.712c5.258-7.464 9.669-8.913 19.322-6.508z" fill="#176DE4"/><path opacity=".5" d="M572.401 236.614c6.616 1.681 11.226 28.883 11.226 28.883l-18.211 12.337s-17.472-27.449-12.337-34.712c5.258-7.464 9.669-8.913 19.322-6.508z" fill="#fff"/><path opacity=".2" d="M570.026 243.461l-15.837 12.553a139.71 139.71 0 0 0 11.211 21.928l12.63-8.589-8.004-25.892z" fill="#176DE4"/><path d="M572.401 236.615s7.71 2.683-7.71 96.795h-65.106c1.095-26.508 1.126-42.854-11.535-97.273a193.075 193.075 0 0 1 27.649-3.64 208.18 208.18 0 0 1 29.593 0c12.706 1.219 27.109 4.118 27.109 4.118z" fill="#176DE4"/><path opacity=".5" d="M572.401 236.615s7.71 2.683-7.71 96.795h-65.106c1.095-26.508 1.126-42.854-11.535-97.273a193.075 193.075 0 0 1 27.649-3.64 208.18 208.18 0 0 1 29.593 0c12.706 1.219 27.109 4.118 27.109 4.118z" fill="#fff"/><path d="M633.251 310.279l11.365-11.535 1.542 16.254s-8.528 5.767-14.418 2.668l1.511-7.387z" fill="#E58A7B"/><path d="M658.032 297.033l.509 13.662-12.398 4.303-1.496-16.254 13.385-1.711zM638.587 528.528h16.037l2.467-37.149h-16.037l-2.467 37.149zM576.518 528.528h16.038l5.15-37.149h-16.037l-5.151 37.149z" fill="#E58A7B"/><path d="M593.558 526.662h-18.026a1.261 1.261 0 0 0-1.28 1.095l-2.051 14.264a2.578 2.578 0 0 0 .654 1.998 2.588 2.588 0 0 0 1.921.855c6.276-.108 9.252-.478 17.225-.478 4.873 0 17.379.509 24.118.509 6.739 0 7.093-6.662 4.287-7.264-12.568-2.714-19.939-6.43-24.18-9.992a4.116 4.116 0 0 0-2.668-.987zM655.873 526.662h-17.996a1.277 1.277 0 0 0-1.28 1.095l-2.051 14.264a2.595 2.595 0 0 0 1.525 2.629c.33.147.689.223 1.051.223 6.276-.107 9.252-.478 17.225-.478 4.888 0 14.958.509 21.696.509 6.739 0 7.094-6.661 4.287-7.263-12.568-2.714-17.518-6.43-21.743-9.992a4.178 4.178 0 0 0-2.714-.987zM559.617 166.79c5.768.37 8.698 29.299-8.219 27.618-16.916-1.681 8.219-27.618 8.219-27.618z" fill="#263238"/><path d="M657.091 491.379l-1.279 19.153h-16.038l1.265-19.153h16.052zM581.669 491.379h16.053l-2.668 19.153h-16.053l2.668-19.153z" fill="#CF6F64"/><path opacity=".2" d="M494.558 266.392c1.542 7.895 2.637 14.711 3.469 20.849l3.809-29.469-7.278 8.62z" fill="#176DE4"/><path d="M518.629 199.25c1.866 9.515 3.732 26.956-2.93 33.309 0 0 2.606 9.653 20.294 9.653 19.445 0 9.252-9.653 9.252-9.653-10.625-2.529-10.347-10.409-8.496-17.795l-18.12-15.514z" fill="#E58A7B"/><path d="M532.477 244.279l5.922-2.128-.787-1.62-5.135 3.748zM543.965 243.045l-5.566-.894 1.202-1.805 4.364 2.699z" fill="#263238"/><path d="M517.858 228.071l-4.024 3.917a.662.662 0 0 0 0 .926l16.962 19.322a19.092 19.092 0 0 1 6.909-11.628c-14.033-5.304-17.688-10.794-18.937-12.336a.541.541 0 0 0-.91-.201zM542.1 231.032l4.996 1.357a.882.882 0 0 1 .617.633 37.347 37.347 0 0 1-.771 19.137c-.71-2.622-3.084-8.898-7.341-11.813 4.627-3.192 2.761-7.309 2.098-8.867a.337.337 0 0 1 .401-.447z" fill="#176DE4"/><path d="M526.047 205.573l10.794 9.175a32.005 32.005 0 0 0-.91 5.243c-4.055-.586-9.622-5.027-10.054-9.252a14.005 14.005 0 0 1 .17-5.166z" fill="#CF6F64"/><path d="M517.596 174.176c-1.835 15.806-2.961 22.468 3.516 31.906 9.715 14.202 29.546 12.999 36.069-1.943 5.875-13.447 7.88-37.01-6.307-46.016a21.707 21.707 0 0 0-21.116-1.254 21.716 21.716 0 0 0-12.162 17.307z" fill="#E58A7B"/><path d="M553.742 148.069c-26.138-10.316-45.768 1.326-49.824 17.873-6.369 25.691 13.971 27.495 13.971 27.495l2.545-6.569c3.654 2.205 13.878 1.233 10.794-17.842-1.82-10.795 11.843 4.241 29.176 2.56 4.611-.448 10.918-16.578-6.662-23.517z" fill="#263238"/><path d="M562.64 154.422c-3.439-5.289-10.471-9.822-25.043-11.966 0 0 7.571 1.712 10.023 7.248 2.452 5.536 19.168 11.087 15.02 4.718z" fill="#263238"/><path d="M512.569 187.855a11.58 11.58 0 0 0 2.822 8.419c2.699 3.084 6.245 1.188 7.356-2.513.986-3.347.786-8.96-2.822-10.656-3.609-1.696-7.063.987-7.356 4.75z" fill="#E58A7B"/><path d="M564.737 333.472s107.544 10.008 106.495 58.907c-1.095 50.888-11.982 114.452-11.982 114.452h-22.221s-1.897-53.788-2.544-103.889c-.324-26.092-104.244-31.32-104.244-31.32l-13.416-38.15h47.912z" fill="#263238"/><path d="M547.528 333.472s69.501 23.054 71.258 51.582c3.223 52.523-19.861 121.823-19.861 121.823h-21.882s1.249-45.954 3.855-93.542c3.3-59.801-102.208-.832-81.313-79.817l47.943-.046zM540.465 182.797c-.231 1.264.262 2.421 1.095 2.575.833.154 1.681-.771 1.912-2.036.231-1.264-.262-2.436-1.095-2.575-.833-.139-1.65.756-1.912 2.036zM554.852 185.372c-.231 1.264.263 2.421 1.095 2.575.833.154 1.697-.771 1.928-2.036.231-1.264-.262-2.436-1.095-2.575-.833-.139-1.696.756-1.928 2.036z" fill="#263238"/><path d="M556.395 183.336l3.222-.339s-1.927 2.112-3.222.339z" fill="#263238"/><path d="M550.658 186.868a34.91 34.91 0 0 0 3.084 8.944 5.59 5.59 0 0 1-4.626 0l1.542-8.944z" fill="#DF5753"/><path d="M543.811 199.929a10.908 10.908 0 0 1-7.988-5.783.247.247 0 0 1 .124-.324.26.26 0 0 1 .188.007.27.27 0 0 1 .136.132 10.383 10.383 0 0 0 7.54 5.49.265.265 0 0 1 .158.107.266.266 0 0 1 .043.186.243.243 0 0 1-.073.122.246.246 0 0 1-.128.063zM537.088 177.106a.435.435 0 0 1-.195-.037.44.44 0 0 1-.16-.117.459.459 0 0 1 0-.679 7.253 7.253 0 0 1 6.384-1.943.493.493 0 0 1 .121.887.47.47 0 0 1-.367.054 6.264 6.264 0 0 0-5.49 1.712.53.53 0 0 1-.293.123zM562.717 179.635a.46.46 0 0 1-.447-.293 6.329 6.329 0 0 0-4.349-3.762.494.494 0 0 1-.401-.556.496.496 0 0 1 .571-.4 7.203 7.203 0 0 1 5.058 4.333.494.494 0 0 1-.247.647l-.185.031z" fill="#263238"/><path d="M497.781 259.406c-1.404 4.627-2.915 9.253-4.257 14.002-1.341 4.75-2.76 9.376-3.978 14.079-1.218 4.704-2.375 9.361-3.238 13.879-.417 2.282-.802 4.549-1.018 6.677a30.408 30.408 0 0 0-.201 2.992c0 .216 0 0-.154-.355a3.863 3.863 0 0 0-.771-1.126c-.786-.678-1.079-.555-.725-.447a7.25 7.25 0 0 0 1.974.201 33.709 33.709 0 0 0 6.168-.787 115.032 115.032 0 0 0 13.555-3.87c9.114-3.085 18.366-6.847 27.372-10.687l3.978 7.263a215.998 215.998 0 0 1-26.724 14.927 113.515 113.515 0 0 1-14.788 5.752 45.724 45.724 0 0 1-8.636 1.743 21.6 21.6 0 0 1-5.489-.139 13.984 13.984 0 0 1-3.501-1.002 12.098 12.098 0 0 1-3.855-2.653 12.538 12.538 0 0 1-3.439-8.327c-.077-1.542-.092-3.084 0-4.472.108-2.853.37-5.551.725-8.188a176.747 176.747 0 0 1 2.868-15.421 336.306 336.306 0 0 1 3.794-14.85c1.372-4.904 2.853-9.715 4.626-14.619l15.714 5.428z" fill="#E58A7B"/><path d="M599.048 529.36a18.705 18.705 0 0 1-4.21-.586.262.262 0 0 1-.092-.478c.539-.354 5.351-3.469 7.186-2.652a1.163 1.163 0 0 1 .678.987 2.016 2.016 0 0 1-.586 1.912 4.499 4.499 0 0 1-2.976.817zm-3.47-.956c2.977.617 5.213.54 6.076-.262a1.547 1.547 0 0 0 .432-1.434.663.663 0 0 0-.386-.571c-1.172-.524-4.425 1.219-6.122 2.267z" fill="#176DE4"/><path d="M594.9 528.79h-.139a.28.28 0 0 1-.139-.247c0-.185 0-4.749 1.728-6.261a1.798 1.798 0 0 1 1.542-.478 1.206 1.206 0 0 1 1.187.956c.324 1.666-2.359 5.074-4.04 6.03h-.139zm2.714-6.508a1.332 1.332 0 0 0-.91.37c-1.218 1.08-1.465 4.133-1.542 5.351 1.542-1.11 3.609-3.916 3.346-5.166 0-.2-.154-.462-.709-.539l-.185-.016zM661.903 529.36a28.024 28.024 0 0 1-5.043-.57.295.295 0 0 1-.216-.231.27.27 0 0 1 .03-.165.266.266 0 0 1 .124-.113c.71-.37 7.048-3.608 8.975-2.56.168.093.309.226.411.388.103.162.163.346.175.537a1.969 1.969 0 0 1-.648 1.743 5.902 5.902 0 0 1-3.808.971zm-4.149-.956c2.067.355 6.169.864 7.587-.401a1.541 1.541 0 0 0 .478-1.31.587.587 0 0 0-.308-.509c-1.264-.679-5.521 1.126-7.757 2.22z" fill="#176DE4"/><path d="M656.922 528.79a.27.27 0 0 1-.154 0 .33.33 0 0 1-.124-.247c0-.185.386-4.457 2.36-6.168.276-.236.598-.412.946-.518.347-.107.713-.14 1.074-.099.987.092 1.264.586 1.341.971.278 1.774-3.454 5.166-5.335 6.014l-.108.047zm3.809-6.508a2.035 2.035 0 0 0-1.373.525c-1.449 1.202-1.958 4.086-2.112 5.243 2.02-1.126 4.78-4.025 4.626-5.213 0-.123 0-.462-.848-.539l-.293-.016z" fill="#176DE4"/><path d="M532.138 294.211l15.205-3.856-7.248 14.604s-10.286.447-13.678-5.289l5.721-5.459z" fill="#E58A7B"/><path d="M559.633 295.891l-6.724 11.905-12.814-2.837 7.248-14.604 12.29 5.536z" fill="#E58A7B"/><path d="M541.992 180.761l3.222-.339s-1.989 2.112-3.222.339z" fill="#263238"/><path d="M498.613 329.648l-.524 5.829c-.216.462.308.925 1.064.925h65.908c.586 0 1.064-.293 1.11-.663l.586-5.829c0-.401-.478-.74-1.11-.74h-65.97a1.192 1.192 0 0 0-1.064.478z" fill="#176DE4"/><path d="M507.48 337.034h-1.773c-.355 0-.617-.185-.602-.401l.833-7.587c0-.216.339-.401.694-.401h1.712c.354 0 .617.185.601.401l-.833 7.587c.016.216-.293.401-.632.401zM560.096 337.034h-1.774c-.355 0-.617-.185-.601-.401l.832-7.587c0-.216.34-.401.694-.401h1.758c.355 0 .617.185.602.401l-.833 7.587c0 .216-.339.401-.678.401zM533.788 337.034h-1.774c-.354 0-.616-.185-.601-.401l.833-7.587c0-.216.339-.401.694-.401h1.758c.354 0 .616.185.601.401l-.833 7.587c-.031.216-.324.401-.678.401z" fill="#263238"/><path d="M488.05 236.198c-6.538 1.99-14.372 24.457-14.372 24.457l21.049 20.556s13.509-21.203 10.795-29.638c-2.884-8.79-10.024-17.626-17.472-15.375z" fill="#176DE4"/><path opacity=".5" d="M488.05 236.198c-6.538 1.99-14.372 24.457-14.372 24.457l21.049 20.556s13.509-21.203 10.795-29.638c-2.884-8.79-10.024-17.626-17.472-15.375z" fill="#fff"/><path d="M837.822 317.45H715.136v238.634h122.686V317.45z" fill="#176DE4"/><path opacity=".6" d="M837.822 317.45H715.136v238.634h122.686V317.45z" fill="#fff"/><path d="M600.144 317.45H477.457v238.634h122.687V317.45z" fill="#176DE4"/><path opacity=".6" d="M600.144 317.45H477.457v238.634h122.687V317.45z" fill="#fff"/><path d="M842.418 317.45h-10.116v238.634h10.116V317.45z" fill="#176DE4"/><path opacity=".3" d="M842.418 317.45h-10.116v238.634h10.116V317.45z" fill="#000"/><path d="M601.609 335.353h243.939V317.45H601.609v17.903z" fill="#176DE4"/><path opacity=".3" d="M601.609 335.353h243.939V317.45H601.609v17.903z" fill="#000"/><path d="M604.754 317.45h-10.115v238.634h10.115V317.45z" fill="#176DE4"/><path opacity=".3" d="M604.754 317.45h-10.115v238.634h10.115V317.45z" fill="#000"/><path d="M601.023 374.537H837.36v-51.551H601.023v51.551z" fill="#176DE4"/><path opacity=".3" d="M601.023 374.537H837.36v-51.551H601.023v51.551z" fill="#000"/><path d="M837.884 563.024h-68.113a17.456 17.456 0 0 1-17.441-17.441V330.68a15.421 15.421 0 0 0-15.42-15.42h-20.387v-1.542h20.371a16.965 16.965 0 0 1 16.963 16.962v214.903a15.918 15.918 0 0 0 15.899 15.899h68.128a5.507 5.507 0 0 0 3.285-9.931l.909-1.234a7.042 7.042 0 0 1 2.493 7.868 7.05 7.05 0 0 1-6.687 4.839z" fill="#176DE4"/><path opacity=".3" d="M837.884 563.024h-68.113a17.456 17.456 0 0 1-17.441-17.441V330.68a15.421 15.421 0 0 0-15.42-15.42h-20.387v-1.542h20.371a16.965 16.965 0 0 1 16.963 16.962v214.903a15.918 15.918 0 0 0 15.899 15.899h68.128a5.507 5.507 0 0 0 3.285-9.931l.909-1.234a7.042 7.042 0 0 1 2.493 7.868 7.05 7.05 0 0 1-6.687 4.839z" fill="#000"/><path d="M847.815 387.86h-1.542v29.809h1.542V387.86z" fill="#176DE4"/><path opacity=".3" d="M847.815 387.86h-1.542v29.809h1.542V387.86z" fill="#000"/><path d="M847.815 370.265h-1.542v7.834h1.542v-7.834z" fill="#176DE4"/><path opacity=".3" d="M847.815 370.265h-1.542v7.834h1.542v-7.834z" fill="#000"/><path d="M734.875 246.206H620.547l-16.562 67.512h114.313l16.577-67.512z" fill="#176DE4"/><path opacity=".4" d="M734.875 246.206H620.547l-16.562 67.512h114.313l16.577-67.512z" fill="#fff"/><path d="M607.485 313.718l-.462 3.732h-44.859l.463-3.732h44.858z" fill="#176DE4"/><path opacity=".4" d="M607.485 313.718l-.462 3.732h-44.859l.463-3.732h44.858z" fill="#fff"/><path d="M721.814 313.718l-.463 3.732H607.023l.462-3.732h114.329z" fill="#176DE4"/><path opacity=".5" d="M721.814 313.718l-.463 3.732H607.023l.462-3.732h114.329z" fill="#000"/><path d="M738.391 246.206H624.063l-16.562 67.512h114.313l16.577-67.512z" fill="#176DE4"/><path opacity=".5" d="M738.391 246.206H624.063l-16.562 67.512h114.313l16.577-67.512z" fill="#000"/><path d="M782.539 300.441S765.715 271.434 789 248.35c0 0 6.091 3.978 5.998 9.252-.092 5.274-6.523 6.693-5.15 11.134 1.372 4.441 7.464 8.836 3.47 12.521-3.994 3.686.647 6.955.37 11.458-.278 4.503-11.149 7.726-11.149 7.726z" fill="#176DE4"/><path d="M783.819 303.093s6.815-32.831-22.607-47.372c0 0-4.534 5.69-2.76 10.794 1.773 5.104 8.296 4.287 8.388 8.96.093 4.672-4.287 10.717.663 12.953 4.95 2.236 1.543 6.816 3.254 11.01 1.712 4.195 13.062 3.655 13.062 3.655z" fill="#176DE4"/><path opacity=".5" d="M783.819 303.093s6.815-32.831-22.607-47.372c0 0-4.534 5.69-2.76 10.794 1.773 5.104 8.296 4.287 8.388 8.96.093 4.672-4.287 10.717.663 12.953 4.95 2.236 1.543 6.816 3.254 11.01 1.712 4.195 13.062 3.655 13.062 3.655z" fill="#000"/><path d="M758.035 295.814s.571 21.589 22.021 21.589 22.005-21.589 22.005-21.589h-44.026z" fill="#176DE4"/><path opacity=".5" d="M758.035 295.814s.571 21.589 22.021 21.589 22.005-21.589 22.005-21.589h-44.026z" fill="#000"/><path d="M642.737 154.36l-18.32-23.671-18.319 23.671h8.62v30.641h19.399V154.36h8.62zM696.478 182.194a43.177 43.177 0 0 1 43.178-43.177v11.241a31.91 31.91 0 0 0-29.491 19.692 31.913 31.913 0 0 0-2.43 12.214l-11.257.03zM696.478 182.195h11.257a31.919 31.919 0 0 0 31.921 31.92 31.572 31.572 0 0 0 15.945-4.287l5.644 9.823a43.177 43.177 0 0 1-64.767-37.395v-.061z" fill="#176DE4"/><path opacity=".5" d="M696.478 182.195h11.257a31.919 31.919 0 0 0 31.921 31.92 31.572 31.572 0 0 0 15.945-4.287l5.644 9.823a43.177 43.177 0 0 1-64.767-37.395v-.061z" fill="#fff"/><path d="M739.656 150.258v-11.272A43.174 43.174 0 0 1 781.531 171a43.18 43.18 0 0 1-20.286 48.651l-5.629-9.761a31.904 31.904 0 0 0 3.572-53.089 31.905 31.905 0 0 0-19.532-6.543z" fill="#176DE4"/><path opacity=".7" d="M739.656 150.258v-11.272A43.174 43.174 0 0 1 781.531 171a43.18 43.18 0 0 1-20.286 48.651l-5.629-9.761a31.904 31.904 0 0 0 3.572-53.089 31.905 31.905 0 0 0-19.532-6.543z" fill="#000"/><path d="M699.115 76.24h-39.338a5.289 5.289 0 0 0-5.289 5.288v72.74a5.29 5.29 0 0 0 5.289 5.243h50.348a5.288 5.288 0 0 0 5.274-5.289V92.539l-16.284-16.3z" fill="#263238"/><path d="M696.802 152.278h-32.707a2.312 2.312 0 0 1-2.313-2.313 2.31 2.31 0 0 1 2.313-2.297h32.722a2.314 2.314 0 0 1 2.313 2.297 2.329 2.329 0 0 1-2.328 2.313zM681.381 88.16h-17.286a2.312 2.312 0 0 1-2.313-2.298 2.312 2.312 0 0 1 2.313-2.313h17.302a2.311 2.311 0 0 1 2.313 2.313 2.315 2.315 0 0 1-2.329 2.297zM692.685 97.32h-28.59a2.312 2.312 0 0 1-2.313-2.298 2.312 2.312 0 0 1 2.313-2.314H692.7a2.315 2.315 0 0 1 2.298 2.314 2.288 2.288 0 0 1-.679 1.63 2.3 2.3 0 0 1-1.634.667zM705.823 106.479h-41.728a2.31 2.31 0 0 1-2.313-2.297 2.312 2.312 0 0 1 2.313-2.314h41.743a2.313 2.313 0 0 1 2.314 2.314 2.318 2.318 0 0 1-.689 1.631 2.304 2.304 0 0 1-1.64.666zM705.823 115.639h-24.272a2.314 2.314 0 0 1-2.313-2.298 2.31 2.31 0 0 1 2.313-2.313h24.272a2.315 2.315 0 0 1 2.313 2.313 2.312 2.312 0 0 1-2.313 2.298zM670.417 115.639h-6.322a2.314 2.314 0 0 1-2.313-2.298 2.31 2.31 0 0 1 2.313-2.313h6.338a2.312 2.312 0 0 1 2.313 2.313 2.314 2.314 0 0 1-2.329 2.298zM705.823 124.799h-41.728a2.314 2.314 0 0 1-2.313-2.313 2.312 2.312 0 0 1 2.313-2.298h41.743c.611 0 1.197.242 1.631.672a2.32 2.32 0 0 1 .683 1.626 2.32 2.32 0 0 1-.683 1.641 2.318 2.318 0 0 1-1.646.672zM689.708 133.959h-25.613a2.313 2.313 0 0 1-2.313-2.313 2.31 2.31 0 0 1 2.313-2.298h25.629a2.31 2.31 0 0 1 2.313 2.298 2.315 2.315 0 0 1-2.329 2.313zM705.823 133.959h-6.847a2.312 2.312 0 0 1-1.624-3.938 2.295 2.295 0 0 1 1.624-.673h6.847a2.31 2.31 0 0 1 2.313 2.298 2.316 2.316 0 0 1-2.313 2.313zM705.823 143.119h-41.728a2.313 2.313 0 0 1-2.313-2.314 2.31 2.31 0 0 1 2.313-2.297h41.743a2.314 2.314 0 0 1 2.314 2.297 2.313 2.313 0 0 1-2.329 2.314z" fill="#176DE4"/><path opacity=".5" d="M696.802 152.278h-32.707a2.312 2.312 0 0 1-2.313-2.313 2.31 2.31 0 0 1 2.313-2.297h32.722a2.314 2.314 0 0 1 2.313 2.297 2.329 2.329 0 0 1-2.328 2.313zM681.381 88.16h-17.286a2.312 2.312 0 0 1-2.313-2.298 2.312 2.312 0 0 1 2.313-2.313h17.302a2.311 2.311 0 0 1 2.313 2.313 2.315 2.315 0 0 1-2.329 2.297zM692.685 97.32h-28.59a2.312 2.312 0 0 1-2.313-2.298 2.312 2.312 0 0 1 2.313-2.314H692.7a2.315 2.315 0 0 1 2.298 2.314 2.288 2.288 0 0 1-.679 1.63 2.3 2.3 0 0 1-1.634.667zM705.823 106.479h-41.728a2.31 2.31 0 0 1-2.313-2.297 2.312 2.312 0 0 1 2.313-2.314h41.743a2.313 2.313 0 0 1 2.314 2.314 2.318 2.318 0 0 1-.689 1.631 2.304 2.304 0 0 1-1.64.666zM705.823 115.639h-24.272a2.314 2.314 0 0 1-2.313-2.298 2.31 2.31 0 0 1 2.313-2.313h24.272a2.315 2.315 0 0 1 2.313 2.313 2.312 2.312 0 0 1-2.313 2.298zM670.417 115.639h-6.322a2.314 2.314 0 0 1-2.313-2.298 2.31 2.31 0 0 1 2.313-2.313h6.338a2.312 2.312 0 0 1 2.313 2.313 2.314 2.314 0 0 1-2.329 2.298zM705.823 124.799h-41.728a2.314 2.314 0 0 1-2.313-2.313 2.312 2.312 0 0 1 2.313-2.298h41.743c.611 0 1.197.242 1.631.672a2.32 2.32 0 0 1 .683 1.626 2.32 2.32 0 0 1-.683 1.641 2.318 2.318 0 0 1-1.646.672zM689.708 133.959h-25.613a2.313 2.313 0 0 1-2.313-2.313 2.31 2.31 0 0 1 2.313-2.298h25.629a2.31 2.31 0 0 1 2.313 2.298 2.315 2.315 0 0 1-2.329 2.313zM705.823 133.959h-6.847a2.312 2.312 0 0 1-1.624-3.938 2.295 2.295 0 0 1 1.624-.673h6.847a2.31 2.31 0 0 1 2.313 2.298 2.316 2.316 0 0 1-2.313 2.313zM705.823 143.119h-41.728a2.313 2.313 0 0 1-2.313-2.314 2.31 2.31 0 0 1 2.313-2.297h41.743a2.314 2.314 0 0 1 2.314 2.297 2.313 2.313 0 0 1-2.329 2.314z" fill="#fff"/><path d="M699.115 76.24v11.01a5.264 5.264 0 0 0 3.263 4.89 5.27 5.27 0 0 0 2.026.399h10.995l-16.284-16.3z" fill="#176DE4"/><path opacity=".5" d="M699.115 76.24v11.01a5.264 5.264 0 0 0 3.263 4.89 5.27 5.27 0 0 0 2.026.399h10.995l-16.284-16.3z" fill="#fff"/></svg>