<svg width="799" height="760" viewBox="0 0 799 760" fill="none" xmlns="http://www.w3.org/2000/svg">
<g opacity="0.2">
<g opacity="0.6" clip-path="url(#clip0)">
<path d="M-156.953 356.268C-95.5771 285.781 25.6288 376.969 201.25 337.061C353.359 302.479 362.11 210.622 483.642 215.177C572.431 218.487 669.183 269.755 722.356 359.072C780.996 457.551 759.68 557.81 753.696 582.139C726.983 691.263 647.698 748.826 619.728 768.487C504.488 849.44 375.173 835.254 313.135 828.479C80.0998 802.957 -169.386 636.583 -180.495 455.701C-181.971 432.02 -184.658 388.098 -156.953 356.268Z" fill="url(#paint0_linear)"/>
</g>
</g>
<defs>
<linearGradient id="paint0_linear" x1="427.823" y1="69.8267" x2="193.583" y2="775.635" gradientUnits="userSpaceOnUse">
<stop stop-color="#F3F7FF"/>
<stop offset="1" stop-color="#DEEEFE"/>
</linearGradient>
<clipPath id="clip0">
<rect width="937.962" height="671.376" fill="white" transform="translate(-22.4224) rotate(21.4558)"/>
</clipPath>
</defs>
</svg>
