<svg width="198" height="41" viewBox="0 0 198 41" fill="none" xmlns="http://www.w3.org/2000/svg">
<path d="M67.4649 9.216H82.3449V12.512H71.5609V18.752H81.7049V22.08H71.5609V32H67.4649V9.216ZM85.4894 15.84H89.4574V32H85.4894V15.84ZM89.6814 8.512V12.448H85.2334V8.512H89.6814ZM103.081 15.424C106.942 15.424 108.873 17.6427 108.873 22.08V32H104.873V22.272C104.873 20.992 104.628 20.064 104.137 19.488C103.646 18.8907 102.889 18.592 101.865 18.592C100.649 18.592 99.6678 18.9867 98.9211 19.776C98.1744 20.544 97.8011 21.568 97.8011 22.848V32H93.8331V20.416C93.8331 18.7093 93.7478 17.184 93.5771 15.84H97.3211L97.6091 18.496C98.1638 17.5147 98.9104 16.7573 99.8491 16.224C100.809 15.6907 101.886 15.424 103.081 15.424ZM135.61 9.216V32H131.962V17.856L125.914 32H123.194L117.114 18.016V32H113.466V9.216H116.73L124.57 27.04L132.346 9.216H135.61ZM140.302 15.84H144.27V32H140.302V15.84ZM144.494 8.512V12.448H140.046V8.512H144.494ZM157.894 15.424C161.755 15.424 163.686 17.6427 163.686 22.08V32H159.686V22.272C159.686 20.992 159.44 20.064 158.95 19.488C158.459 18.8907 157.702 18.592 156.678 18.592C155.462 18.592 154.48 18.9867 153.734 19.776C152.987 20.544 152.614 21.568 152.614 22.848V32H148.646V20.416C148.646 18.7093 148.56 17.184 148.39 15.84H152.134L152.422 18.496C152.976 17.5147 153.723 16.7573 154.662 16.224C155.622 15.6907 156.699 15.424 157.894 15.424ZM183.383 8.448V32H179.447V29.408C178.956 30.304 178.252 31.008 177.335 31.52C176.418 32.0107 175.372 32.256 174.199 32.256C172.812 32.256 171.575 31.904 170.487 31.2C169.399 30.496 168.546 29.504 167.927 28.224C167.33 26.9227 167.031 25.44 167.031 23.776C167.031 22.112 167.33 20.6507 167.927 19.392C168.524 18.1333 169.367 17.1627 170.455 16.48C171.543 15.776 172.791 15.424 174.199 15.424C175.351 15.424 176.375 15.6693 177.271 16.16C178.188 16.6293 178.892 17.3013 179.383 18.176V8.448H183.383ZM175.255 29.12C176.578 29.12 177.602 28.6613 178.327 27.744C179.074 26.8267 179.447 25.5253 179.447 23.84C179.447 22.1547 179.084 20.8533 178.359 19.936C177.634 19.0187 176.61 18.56 175.287 18.56C173.943 18.56 172.898 19.0187 172.151 19.936C171.426 20.832 171.063 22.112 171.063 23.776C171.063 25.4613 171.426 26.7733 172.151 27.712C172.898 28.6507 173.932 29.12 175.255 29.12Z" fill="#176DE4"/>
<circle cx="20.5" cy="20.5" r="20.5" fill="#176DE4"/>
</svg>
