<svg width="174" height="130" viewBox="0 0 174 130" fill="none" xmlns="http://www.w3.org/2000/svg"><g opacity=".4"><path d="M86.987 129.632c37.26 0 67.465-1.763 67.465-3.939 0-2.175-30.205-3.938-67.465-3.938-37.259 0-67.464 1.763-67.464 3.938 0 2.176 30.205 3.939 67.465 3.939z" fill="#F5F5F5"/><path d="M88.501 27.08l-.243-.19a53.173 53.173 0 0 1 3.423-3.925l.22.215a53.837 53.837 0 0 0-3.4 3.9zM87.201 28.224l-1.122 1.415.24.19 1.122-1.415-.24-.19zM111.344 43.222c7.561-12.154 8.591-24.13 3.086-28.006-5.504-3.877-16.433 1.127-25.33 12.342l-25.425 32.07 26.068 18.358 21.601-34.764z" fill="#407BFF"/><path opacity=".1" d="M108.369 41.128l-22.13 34.401-2.707-5.174 21.98-31.385c6.215-8.876 9.698-16.987 9.712-21.503a.366.366 0 0 1 .305-.366.37.37 0 0 1 .411.24c1.566 4.507-1.148 13.804-7.571 23.787z" fill="#fff"/><path d="M89.728 77.978c3.519-4.998.535-13.16-6.664-18.229-7.2-5.07-15.889-5.127-19.408-.129-3.52 4.999-.536 13.16 6.664 18.23 7.199 5.068 15.888 5.126 19.408.128z" fill="#407BFF"/><path opacity=".5" d="M89.728 77.978c3.519-4.998.535-13.16-6.664-18.229-7.2-5.07-15.889-5.127-19.408-.129-3.52 4.999-.536 13.16 6.664 18.23 7.199 5.068 15.888 5.126 19.408.128z" fill="#fff"/><path opacity=".1" d="M87.022 54.085c-5.72-4.03-12.21-5.18-16.353-3.298l-6.455 8.135c3.828-4.273 12.008-3.98 18.849.835 6.84 4.815 9.878 12.432 7.136 17.467l5.418-8.699c.466-4.568-2.812-10.369-8.595-14.44z" fill="#000"/><path opacity=".2" d="M96.184 27.857c-1.587 2.512-2.784 7.213 1.93 10.529 4.716 3.316 8.738.612 10.565-1.74l-12.495-8.79z" fill="#000"/><path d="M109.792 33.751c-.539 4.489-5.727 7.763-11.172 3.928-5.446-3.834-4.113-9.822-.07-11.83 2.491-1.245 5.665-.696 7.836.814 2.171 1.51 3.74 4.305 3.406 7.088z" fill="#fff"/><path d="M99.36 36.618c-2.118-1.489-3.204-3.438-3.05-5.476a5.114 5.114 0 0 1 2.818-4.176c1.892-.946 4.572-.65 6.517.717 1.945 1.367 3.131 3.796 2.87 5.898a5.103 5.103 0 0 1-2.968 4.053c-1.858.842-4.067.477-6.186-1.016z" fill="#407BFF"/><path opacity=".3" d="M99.36 36.618c-2.118-1.489-3.204-3.438-3.05-5.476a5.114 5.114 0 0 1 2.818-4.176c1.892-.946 4.572-.65 6.517.717 1.945 1.367 3.131 3.796 2.87 5.898a5.103 5.103 0 0 1-2.968 4.053c-1.858.842-4.067.477-6.186-1.016z" fill="#000"/><path d="M99.36 36.618c-2.118-1.489-3.242-3.382-3.159-5.323a4.485 4.485 0 0 1 2.617-3.884c1.82-.841 4.447-.473 6.392.898 1.945 1.371 3.177 3.72 2.996 5.717a4.483 4.483 0 0 1-2.784 3.772c-1.785.734-3.942.313-6.061-1.18z" fill="#407BFF"/><path opacity=".2" d="M99.36 36.618c-2.118-1.489-3.242-3.382-3.159-5.323a4.485 4.485 0 0 1 2.617-3.884c1.82-.841 4.447-.473 6.392.898 1.945 1.371 3.177 3.72 2.996 5.717a4.483 4.483 0 0 1-2.784 3.772c-1.785.734-3.942.313-6.061-1.18z" fill="#fff"/><path opacity=".3" d="M106.685 29.684l-9.795 4.321a4.989 4.989 0 0 1-.696-2.71 4.33 4.33 0 0 1 .261-1.312l6.323-2.784a7.353 7.353 0 0 1 3.9 2.491l.007-.006zM108.091 32.47l-8.988 3.96a8.68 8.68 0 0 1-1.468-1.364l9.777-4.314c.306.538.534 1.117.679 1.719z" fill="#fff"/><path opacity=".1" d="M117.889 24.722c-.299-2.401-2.143-5.178-5.059-7.23-2.916-2.054-6.148-2.854-8.511-2.328 4.019-1.64 7.62-1.702 10.112.052 2.491 1.753 3.646 5.17 3.458 9.506z" fill="#000"/><path opacity=".5" d="M83.059 68.19c1.096-1.556.208-4.07-1.984-5.613-2.192-1.544-4.857-1.532-5.954.025-1.096 1.557-.208 4.07 1.984 5.614 2.192 1.543 4.857 1.532 5.954-.025zM72.722 66.73c-1.096 1.555-3.762 1.569-5.954.024-2.192-1.545-3.083-4.057-1.987-5.612 1.097-1.556 3.765-1.57 5.957-.025 2.192 1.545 3.066 4.057 1.984 5.613zM87.93 77.45c-1.096 1.559-3.761 1.57-5.953.025-2.192-1.545-3.08-4.058-1.983-5.613 1.096-1.555 3.761-1.57 5.953-.024 2.192 1.545 3.08 4.057 1.983 5.612zM77.593 75.985c-1.096 1.556-3.761 1.566-5.953.025-2.192-1.542-3.08-4.057-1.984-5.616 1.096-1.559 3.762-1.566 5.954-.025 2.192 1.542 3.065 4.058 1.983 5.616z" fill="#407BFF"/><path opacity=".5" d="M83.063 68.198a2.47 2.47 0 0 1-.404.446c.609-1.552-.31-3.706-2.269-5.084-1.959-1.378-4.293-1.517-5.55-.425.074-.185.169-.361.282-.525 1.097-1.555 3.765-1.57 5.957-.024 2.192 1.545 3.076 4.053 1.984 5.612zM72.722 66.73c-.116.163-.25.313-.4.445.608-1.555-.307-3.706-2.269-5.087-1.962-1.381-4.294-1.517-5.55-.42.073-.187.168-.363.282-.526 1.096-1.56 3.761-1.57 5.953-.025 2.192 1.545 3.066 4.054 1.984 5.613zM87.93 77.454c-.115.162-.25.31-.4.442.61-1.556-.31-3.706-2.268-5.084-1.96-1.378-4.294-1.52-5.55-.421.072-.187.167-.365.282-.529 1.096-1.559 3.761-1.57 5.953-.024 2.192 1.545 3.083 4.057 1.983 5.616zM77.593 75.985a2.298 2.298 0 0 1-.4.442c.609-1.552-.31-3.705-2.269-5.083-1.959-1.378-4.294-1.517-5.55-.421.072-.188.167-.365.282-.53 1.096-1.558 3.761-1.565 5.953-.024 2.193 1.542 3.066 4.058 1.984 5.616z" fill="#407BFF"/><path d="M80.926 39.398s-4.697 6.096-8.79 11.343a5.387 5.387 0 0 1-4.944 1.987c-3.573-.442-9.394 2.088-9.394 2.088s11.013-18.09 23.128-15.418z" fill="#407BFF"/><path opacity=".3" d="M80.926 39.398s-4.697 6.096-8.79 11.343a5.387 5.387 0 0 1-4.944 1.987c-3.573-.442-9.394 2.088-9.394 2.088s11.013-18.09 23.128-15.418z" fill="#000"/><path d="M102.955 54.913s-4.137 6.476-7.718 12.095a5.383 5.383 0 0 0-.201 5.324c1.621 3.218 1.197 9.565 1.197 9.565s13.323-16.483 6.722-26.984z" fill="#407BFF"/><path opacity=".3" d="M102.955 54.913s-4.137 6.476-7.718 12.095a5.383 5.383 0 0 0-.201 5.324c1.621 3.218 1.197 9.565 1.197 9.565s13.323-16.483 6.722-26.984z" fill="#000"/><path d="M118.133 101.466c4.345-10.634-14.444-13.647-21.88-10.978-7.435 2.668-15.017 4.652-15.31-2.464-.292-7.115 5.436-11.527 2.704-13.17-1.513-.911-1.945.696-2.693 3.041-2.29 7.186-15.257 8.898-9.29 19.298 5.967 10.4 2.783 8.142-7.255 12.314-10.038 4.172-4.871 16.186 4.84 16.186h58.484c26.806 0 1.426-51.308-9.6-24.227z" fill="#407BFF"/><path opacity=".6" d="M118.133 101.466c4.345-10.634-14.444-13.647-21.88-10.978-7.435 2.668-15.017 4.652-15.31-2.464-.292-7.115 5.436-11.527 2.704-13.17-1.513-.911-1.945.696-2.693 3.041-2.29 7.186-15.257 8.898-9.29 19.298 5.967 10.4 2.783 8.142-7.255 12.314-10.038 4.172-4.871 16.186 4.84 16.186h58.484c26.806 0 1.426-51.308-9.6-24.227z" fill="#fff"/><path d="M68.737 64.402c-.779-2.707-4.996.696-9.15 4.82-4.155 4.122-6.205 13.534-10.223 18.44-4.02 4.907-15.526 9.34-11.027 16.723 6.635 10.88-8.615 21.319 9.447 21.319H84.83c6.775 0 14.12-8.285 3.57-13.918-10.55-5.633-26.354 7.502-30.62-5.028-2.115-6.218 5.568-3.365 2.008-13.546-3.56-10.18-3.323-12.954-1.51-17.491 4.412-11.058 11.66-7.206 10.46-11.319z" fill="#407BFF"/><path opacity=".6" d="M68.737 64.402c-.779-2.707-4.996.696-9.15 4.82-4.155 4.122-6.205 13.534-10.223 18.44-4.02 4.907-15.526 9.34-11.027 16.723 6.635 10.88-8.615 21.319 9.447 21.319H84.83c6.775 0 14.12-8.285 3.57-13.918-10.55-5.633-26.354 7.502-30.62-5.028-2.115-6.218 5.568-3.365 2.008-13.546-3.56-10.18-3.323-12.954-1.51-17.491 4.412-11.058 11.66-7.206 10.46-11.319z" fill="#fff"/><path d="M76.417 65.651c.918-1.677 4.07-.671 4.001 1.524-.07 2.196-8.232 5.073-6.715 12.655 1.517 7.582 16.089 8.125 19.51 15.72 3.42 7.596-9.83 8.661-5.878 13.411 3.953 4.749 16.152-6.159 24.844-3.355 8.692 2.805 17.377 20.087 1.434 20.087H64.486c-10.683 0-18.484-22.056-8.219-31.13 10.264-9.075 1.983-6.128 5.814-11.942s10.811-10.54 14.336-16.97z" fill="#407BFF"/><path opacity=".8" d="M76.417 65.651c.918-1.677 4.07-.671 4.001 1.524-.07 2.196-8.232 5.073-6.715 12.655 1.517 7.582 16.089 8.125 19.51 15.72 3.42 7.596-9.83 8.661-5.878 13.411 3.953 4.749 16.152-6.159 24.844-3.355 8.692 2.805 17.377 20.087 1.434 20.087H64.486c-10.683 0-18.484-22.056-8.219-31.13 10.264-9.075 1.983-6.128 5.814-11.942s10.811-10.54 14.336-16.97z" fill="#fff"/></g></svg>