<svg width="176" height="131" viewBox="0 0 176 131" fill="none" xmlns="http://www.w3.org/2000/svg"><g opacity=".6"><path d="M87.89 130.977c37.646 0 68.164-1.781 68.164-3.979 0-2.198-30.518-3.98-68.164-3.98s-68.164 1.782-68.164 3.98 30.518 3.979 68.164 3.979z" fill="#F5F5F5"/><path opacity=".2" d="M94.777 93.42s-25.836 15.254-25.836 29.707h51.679c-.003-14.453-25.843-29.707-25.843-29.707z" fill="#407BFF"/><path opacity=".2" d="M94.777 111.62s-23.857 5.91-23.857 11.507h47.714c0-5.597-23.857-11.507-23.857-11.507z" fill="#407BFF"/><path opacity=".3" d="M97.913 97.632c4.852 4.771 14.28 15.342 14.28 25.495h-6.465c0-10.153-5.161-20.724-7.815-25.495z" fill="#fff"/><path opacity=".2" d="M94.777 93.42S68.941 78.166 68.941 63.713h51.679c-.003 14.453-25.843 29.707-25.843 29.707z" fill="#407BFF"/><path opacity=".2" d="M94.777 92.028s-13.19-6.328-13.19-12.34h26.384c0 6.001-13.194 12.34-13.194 12.34z" fill="#407BFF"/><path opacity=".3" d="M91.961 89.208c-4.848-4.77-14.266-15.342-14.266-25.495h6.465c-.014 10.153 5.136 20.725 7.801 25.495zM97.913 89.208c4.852-4.77 14.045-16.565 14.28-25.495h-1.722c-.809 10.888-8.719 20.88-12.558 25.495z" fill="#fff"/><path d="M117.108 58.612h-2.928v.352h2.928v-.352zM127.05 63.443h-.351a4.483 4.483 0 0 0-4.475-4.48h-3.091v-.35h3.091a4.838 4.838 0 0 1 4.826 4.83z" fill="#407BFF"/><path d="M122.22 59.843H67.334a3.6 3.6 0 0 0-3.6 3.6v.54a3.6 3.6 0 0 0 3.6 3.6h54.886a3.6 3.6 0 0 0 3.6-3.6v-.54a3.6 3.6 0 0 0-3.6-3.6zM122.22 119.256H67.334a3.6 3.6 0 0 0-3.6 3.6v.541a3.6 3.6 0 0 0 3.6 3.6h54.886a3.6 3.6 0 0 0 3.6-3.6v-.541a3.6 3.6 0 0 0-3.6-3.6z" fill="#407BFF"/><path d="M49.472 87.721l-2.384-2.116 4.064-6.24 2.384 2.113-4.064 6.243z" fill="#FF8B7B"/><path d="M47.58 84.262l3.03 2.11a.23.23 0 0 1 .075.32l-1.52 2.502a.584.584 0 0 1-.804.152c-1.055-.75-1.445-1.115-2.707-2.134a46.867 46.867 0 0 1-3.586-3.126c-.935-.97.053-1.909.548-1.575 1.17.795 3.206 1.67 4.384 1.6a.914.914 0 0 1 .58.151z" fill="#263238"/><path opacity=".2" d="M53.532 81.481l-2.383-2.116-1.955 3.006 2.443 2.028 1.895-2.918z" fill="#000"/><path d="M77.783 50.308s-15.996-1.093-17.979 4.328c-4.51 12.326-10.378 25.4-10.378 25.4l4.714 3.414s9.967-15.24 13.008-25.024c6.153 1.494 17.276 2.77 20.858-1.343 3.059-3.516.77-6.775.77-6.775H77.783z" fill="#263238"/><path opacity=".3" d="M64.082 59.888c-.372 1.505-.938 5.815-1.29 8.673a88.117 88.117 0 0 0 2.18-4.52l-.89-4.153z" fill="#000"/><path d="M53.838 84.993l-5.347-4.19 1.093-2.349 5.977 4.567-1.723 1.972zM46.297 84.069a4.3 4.3 0 0 0 .788.404.077.077 0 0 0 .08-.018.078.078 0 0 0 .018-.08c-.046-.12-.446-1.171-.865-1.273a.293.293 0 0 0-.27.077.43.43 0 0 0-.159.397.9.9 0 0 0 .408.493zm.679.193c-.552-.24-.897-.503-.935-.703a.274.274 0 0 1 .112-.257.135.135 0 0 1 .13-.038c.225.056.517.58.693.998z" fill="#407BFF"/><path d="M47.067 84.462a.064.064 0 0 0 .035 0 .08.08 0 0 0 .07-.028c.025-.028.623-.763.535-1.216a.386.386 0 0 0-.208-.27.291.291 0 0 0-.351.03c-.267.25-.257 1.094-.099 1.442.003.016.009.03.018.042zm.39-1.346a.227.227 0 0 1 .099.147c.053.268-.232.728-.419.981-.098-.351-.066-.977.106-1.139.035-.031.084-.063.186 0l.028.01z" fill="#407BFF"/><path d="M70.488 91.41l-3.076.614-.57-8.237 3.126.099.52 7.523z" fill="#FF8B7B"/><path d="M66.993 90.9l3.516-1.48a.238.238 0 0 1 .323.115l1.343 2.7a.604.604 0 0 1-.313.788c-1.23.496-1.842.668-3.385 1.322-.95.4-3.516 1.56-4.887 1.902-1.37.34-1.68-1.034-1.125-1.301 1.315-.633 3.495-2.563 4.082-3.628.1-.184.256-.33.446-.419z" fill="#263238"/><path d="M66.118 91.912a4.31 4.31 0 0 0 .784-.464.084.084 0 0 0 .032-.08.085.085 0 0 0-.063-.06c-.127-.029-1.266-.257-1.586.052a.293.293 0 0 0-.08.278.434.434 0 0 0 .256.351.921.921 0 0 0 .657-.077zm.538-.485c-.51.351-.928.503-1.136.422a.278.278 0 0 1-.161-.24.141.141 0 0 1 .035-.136c.172-.166.805-.123 1.262-.046z" fill="#407BFF"/><path d="M66.884 91.458a.11.11 0 0 0 .032-.024.082.082 0 0 0 0-.074c0-.039-.323-.967-.766-1.14a.39.39 0 0 0-.352.032.295.295 0 0 0-.169.331c.07.352.813.826 1.203.879a.07.07 0 0 0 .052-.004zm-.96-1.086a.235.235 0 0 1 .183 0c.264.102.507.605.626.907-.351-.116-.89-.478-.935-.724 0-.046 0-.106.095-.162l.032-.02z" fill="#407BFF"/><path opacity=".2" d="M69.971 83.89l-3.129-.103.3 4.303 3.114-.056-.285-4.145z" fill="#000"/><path d="M85.552 50.308S62.701 52.47 63.524 59.35c1.202 9.925 2.08 27.303 2.08 27.303l5.826.228s2.187-15.279.907-25.442c5.917 0 18.77.313 21.03-2.746 2.683-3.628 1.442-8.385 1.442-8.385h-9.257z" fill="#263238"/><path d="M72.073 87.24l-6.992-.348-.25-3.041 7.668.527-.426 2.862zM80.48 30.16c-.05.63-.106 1.189-.184 1.776-.077.587-.15 1.16-.242 1.74a46.152 46.152 0 0 1-.661 3.463c-.26 1.156-.58 2.31-.981 3.473a18.508 18.508 0 0 1-1.593 3.516 8.79 8.79 0 0 1-1.406 1.79 5.42 5.42 0 0 1-.453.379 6.06 6.06 0 0 1-.436.323c-.281.199-.574.38-.876.545a17.02 17.02 0 0 1-3.515 1.431c-.58.18-1.164.324-1.758.454-.594.13-1.16.242-1.758.334a28.27 28.27 0 0 1-3.516.351 1.202 1.202 0 0 1-.421-2.345l.045-.017a56.478 56.478 0 0 0 6.058-2.306 16.53 16.53 0 0 0 2.594-1.47c.187-.134.352-.27.52-.408.078-.067.159-.133.226-.204.062-.056.12-.116.175-.179.234-.282.434-.59.598-.918.427-.866.77-1.771 1.023-2.703.285-.988.53-2.018.735-3.066.204-1.047.386-2.11.559-3.185.172-1.076.302-2.172.422-3.192v-.06a2.415 2.415 0 0 1 4.802.478h.042z" fill="#407BFF"/><path d="M63.218 46.758l-1.758.109 1.406 3.234s3.041-.067 2.978-1.565l-.548-.703a2.863 2.863 0 0 0-2.078-1.075zM59.533 47.134l1.519 2.974h1.81l-1.406-3.234-1.923.26z" fill="#FF8B7B"/><path d="M80.226 25.175l3.4-.703 2.707-.39a5.02 5.02 0 0 1 1.17-.053 5.125 5.125 0 0 1 4.48 3.744c.678 2.461 1.29 5.481 1.757 8.156.654 3.716.992 9.3 1.055 14.376H78.69c-.352-9.194-2.306-15.117-2.97-18.791a5.14 5.14 0 0 1 2.843-5.551l1.663-.788z" fill="#407BFF"/><path d="M78.69 27.197c.039 1.512.352 6.901 1.972 9.963.285-2.869 3.692-11.601 3.692-11.601l-5.664 1.638z" fill="#F5F5F5"/><path opacity=".3" d="M94.11 38.454c0-.057 0-.11-.022-.17l-.031-.252-.053-.404-.053-.377-.053-.351c0-.099-.031-.2-.045-.295-.035-.225-.07-.444-.11-.658-.115-.657-.238-1.34-.372-2.025v-.056a86.245 86.245 0 0 0-.418-2.067v-.046c-.06-.295-.123-.584-.19-.875l-.074-.324-.127-.559-.105-.436-.021-.091a57.63 57.63 0 0 0-.433-1.677l-2.443-1.287c.281 1.08.549 2.268.802 3.484a3.567 3.567 0 0 0-.802.573c-.584.52-.562 1.628.021 2.94a32.5 32.5 0 0 1 2.637 11.85c.074 1.656.12 3.333.14 4.96h2.461c-.07-4.032-.295-8.377-.71-11.857z" fill="#000"/><path d="M82.36 18.4l-1.382 2.11-1.877 2.865c.242.246.438.533.58.848.352.703.626 1.209-.826 2.197-.31.21-.32.545-.25.914.085.45.352.92 1.913.643a7.224 7.224 0 0 0 3.93-2.18c.52-.523.401-.914-.102-1.455-1.42-1.53-1.845-3.973-1.986-5.941z" fill="#FF8B7B"/><path d="M79.041 28.03l.995.626 1.618-.686a2.612 2.612 0 0 0-1.407-.735c-.465.155-.88.429-1.206.795z" fill="#263238"/><path d="M80.23 27.235c.742.306 1.114.995 1.452 1.79 0 0 3.554-2.693 3.628-4.468-.19-.605-1.08-.5-1.08-.5s-1.082 1.878-4 3.178zM80.23 27.235a1.804 1.804 0 0 0-1.125 1.758s-1.582-1.856-.296-3.259c.35-.183.72-.321 1.104-.411 0 0-.386.773.317 1.912z" fill="#fff"/><path d="M80.35 28.364h-.454c-.148.253-.352 3.55-.433 5.305.218 1.024.537 2.024.953 2.985a.148.148 0 0 0 0 .035c.025.056.05.109.078.162.049.105.098.21.154.31.163-1.09.415-2.164.756-3.21-.464-2.033-1.055-5.587-1.055-5.587z" fill="#263238"/><path opacity=".2" d="M79.565 22.669l1.153-2.043c.022.05.05.11.078.165.1.255.183.517.246.784.21.911-.492 2.205-1.27 2.813-.03-.056-.06-.116-.09-.176a3.519 3.519 0 0 0-.532-.816l-.045-.035.46-.692z" fill="#000"/><path d="M73.947 18.281c-.277-1.248 1.709-2.974 1.709-2.974l-2.352-.82c-1.062.764-.373 2.94.643 3.794z" fill="#263238"/><path d="M81.871 14.674c.556 3.122 1.055 4.922-.12 6.915a4.117 4.117 0 0 1-7.287-.21c-1.318-2.574-2.004-7.243.678-9.292a4.167 4.167 0 0 1 6.73 2.587z" fill="#FF8B7B"/><path d="M81.914 17.831l-1.477-.404v-1.899s-1.867-1.054-1.578-2.373c.143-.74.344-1.47.6-2.18 0 0 2.96-.19 3.868.19-.235.255-.49.49-.763.704a6.729 6.729 0 0 1 1.793 1.835 2.46 2.46 0 0 0-1.013.489s.387 2.604-1.43 3.638z" fill="#263238"/><path d="M78.518 8.95c1.086.683.457 1.934.457 1.934l2.907.06c-.155-.917-2.675-2.039-3.364-1.993z" fill="#263238"/><path d="M79.653 13.795c-.207.584-2.563 1.301-4.71 1.371a9.745 9.745 0 0 1-3.137-.59c.304-.312.661-.565 1.055-.749-1.297-.32-2.939-1.459-3.392-2.387a5.371 5.371 0 0 1 2.953-.19 3.163 3.163 0 0 1-1.115-2.183s5.499 2.18 7.615 1.276c2.3-.984 4.046.861 2.535 2.268-1.512 1.406-1.804 1.184-1.804 1.184z" fill="#263238"/><path d="M83.552 16.935a2.813 2.813 0 0 1-.63 1.898c-.569.679-1.455.137-1.659-.703-.183-.763.056-1.94.805-2.306.749-.366 1.445.257 1.484 1.11z" fill="#FF8B7B"/><path d="M77.118 17.578c.078.246 0 .489-.14.549-.14.06-.352-.095-.433-.352-.08-.257 0-.489.141-.548.14-.06.351.091.432.351zM74.394 18.563c.077.242 0 .488-.14.544-.142.057-.352-.091-.433-.351-.081-.26 0-.489.14-.545.141-.056.352.105.433.352z" fill="#263238"/><path d="M75.325 18.432a8.228 8.228 0 0 1-.253 2.159 1.235 1.235 0 0 0 1.027-.243l-.774-1.916z" fill="#A02724"/><path d="M76.992 21.287a2.232 2.232 0 0 0 1.3-1.146.077.077 0 0 0-.042-.099.076.076 0 0 0-.057-.001.073.073 0 0 0-.041.04 2.111 2.111 0 0 1-1.48 1.14.073.073 0 0 0-.056.09.074.074 0 0 0 .087.057c.098-.02.194-.048.289-.081zM77.723 16.137a.151.151 0 0 0 .053-.053.148.148 0 0 0-.042-.207 1.46 1.46 0 0 0-1.358-.141.151.151 0 0 0-.036.25.15.15 0 0 0 .167.024 1.141 1.141 0 0 1 1.054.12.15.15 0 0 0 .162.007zM73.852 17.082a.138.138 0 0 0 0-.073.15.15 0 0 0-.197-.081 1.441 1.441 0 0 0-.885 1.033.151.151 0 0 0 .295.05 1.156 1.156 0 0 1 .703-.806.15.15 0 0 0 .084-.123z" fill="#263238"/><path d="M91.234 26.262c.386.478.724.91 1.054 1.37.33.461.675.918.999 1.386.657.931 1.269 1.898 1.866 2.883a30.5 30.5 0 0 1 1.653 3.097 19.08 19.08 0 0 1 1.283 3.515c.175.704.267 1.427.274 2.152a8.275 8.275 0 0 1-.31 2.145 14.213 14.213 0 0 1-1.518 3.459c-.302.517-.63 1.012-.97 1.49a36.79 36.79 0 0 1-1.055 1.39 24.06 24.06 0 0 1-2.387 2.523 1.206 1.206 0 0 1-1.846-1.504l.032-.053a40.724 40.724 0 0 0 2.855-5.54c.362-.865.626-1.767.787-2.69.059-.37.074-.747.046-1.122a5.47 5.47 0 0 0-.24-1.09 16.23 16.23 0 0 0-1.142-2.601 40.222 40.222 0 0 0-1.557-2.647 60.456 60.456 0 0 0-1.758-2.612l-.925-1.287c-.31-.418-.632-.865-.924-1.248l-.021-.028a2.413 2.413 0 1 1 3.79-2.988h.014zM57.737 52.196l29.91-1.353a.701.701 0 0 1 .75.682L57.055 52.93a.703.703 0 0 1 .682-.735z" fill="#407BFF"/><path opacity=".6" d="M57.737 52.196l29.91-1.353a.701.701 0 0 1 .75.682L57.055 52.93a.703.703 0 0 1 .682-.735z" fill="#fff"/><path d="M52.977 38.32l21.28-.963a.665.665 0 0 1 .618.446l4.086 12.962a.351.351 0 0 1-.327.486l-21.28.963a.658.658 0 0 1-.615-.443l-4.086-12.966a.351.351 0 0 1 .324-.485z" fill="#407BFF"/><path opacity=".6" d="M52.977 38.32l21.28-.963a.665.665 0 0 1 .618.446l4.086 12.962a.351.351 0 0 1-.327.486l-21.28.963a.658.658 0 0 1-.615-.443l-4.086-12.966a.351.351 0 0 1 .324-.485z" fill="#fff"/><path opacity=".5" d="M74.882 37.8l4.085 12.962a.351.351 0 0 1-.326.488l-4.377-13.897a.665.665 0 0 1 .618.447zM79.783 51.198l7.864-.352a.704.704 0 0 1 .75.682l-9.296.419a.701.701 0 0 1 .682-.75z" fill="#407BFF"/><path d="M89.718 50.02l-2.01.292 2.06 2.865s3.272-.524 2.893-1.976l-.703-.583a2.854 2.854 0 0 0-2.24-.598zM85.246 51.17l2.521 2.197 2-.19-2.06-2.865-2.46.858z" fill="#FF8B7B"/></g></svg>