<svg width="36" height="46" viewBox="0 0 36 46" fill="none" xmlns="http://www.w3.org/2000/svg">
<path d="M5.19355 46H30.4194C33.2877 46 35.6129 43.6748 35.6129 40.8064V13.4265C35.6129 11.9632 34.9956 10.5679 33.9129 9.58359L24.8567 1.35063C23.9007 0.481555 22.6551 0 21.3631 0H5.19355C2.32523 0 0 2.32523 0 5.19355V40.8065C0 43.6748 2.32523 46 5.19355 46Z" fill="#BB6BD9"/>
<path d="M32.0116 12.7206L22.8911 3.60008C22.6574 3.36638 22.2578 3.5319 22.2578 3.86239V12.9829C22.2578 13.1878 22.4239 13.3539 22.6288 13.3539H31.7493C32.0798 13.3539 32.2453 12.9543 32.0116 12.7206Z" fill="white"/>
<path d="M9.71051 31.1713C9.06157 31.1713 8.45219 31.0842 7.88239 30.9101C7.32049 30.736 6.8417 30.4867 6.446 30.1623L6.96832 29.0464C7.37985 29.355 7.8072 29.5845 8.25039 29.7349C8.70148 29.8774 9.19215 29.9486 9.72239 29.9486C10.308 29.9486 10.7591 29.8457 11.0757 29.6399C11.4001 29.4342 11.5624 29.1453 11.5624 28.7734C11.5624 28.4568 11.412 28.2154 11.1113 28.0492C10.8185 27.8751 10.3318 27.7129 9.65116 27.5625C8.59069 27.333 7.81907 27.0362 7.33632 26.6722C6.85357 26.3082 6.61219 25.7779 6.61219 25.0815C6.61219 24.5829 6.74673 24.1397 7.01581 23.7519C7.28488 23.3642 7.66475 23.0595 8.15542 22.8379C8.654 22.6163 9.22776 22.5055 9.87671 22.5055C10.4703 22.5055 11.0321 22.5965 11.5624 22.7785C12.1005 22.9526 12.5398 23.198 12.8801 23.5145L12.3696 24.6304C11.6178 24.0289 10.7868 23.7282 9.87671 23.7282C9.33064 23.7282 8.89933 23.8429 8.58277 24.0725C8.26621 24.294 8.10793 24.5987 8.10793 24.9865C8.10793 25.3189 8.24643 25.5722 8.52342 25.7463C8.80832 25.9204 9.29107 26.0826 9.97168 26.233C10.676 26.3992 11.2498 26.5812 11.693 26.779C12.1361 26.969 12.4765 27.2183 12.7139 27.5269C12.9513 27.8276 13.07 28.2075 13.07 28.6665C13.07 29.173 12.9355 29.6162 12.6664 29.9961C12.3973 30.368 12.0095 30.6569 11.503 30.8626C10.9965 31.0684 10.399 31.1713 9.71051 31.1713ZM22.0787 22.6123L18.3156 31.0645H17.0691L13.306 22.6123H14.8967L17.7102 29.1414L20.5236 22.6123H22.0787ZM29.7135 26.4941V30.554C29.3257 30.7439 28.8588 30.8943 28.3127 31.0051C27.7666 31.1159 27.2087 31.1713 26.6389 31.1713C25.7683 31.1713 25.0126 30.9972 24.3715 30.649C23.7305 30.3008 23.2398 29.8022 22.8995 29.1532C22.5592 28.5043 22.3891 27.7287 22.3891 26.8265C22.3891 25.9402 22.5592 25.1725 22.8995 24.5235C23.2398 23.8746 23.7226 23.376 24.3478 23.0278C24.9809 22.6796 25.7209 22.5055 26.5677 22.5055C27.1612 22.5055 27.7152 22.5925 28.2296 22.7666C28.7519 22.9408 29.1872 23.1861 29.5354 23.5026L29.0131 24.6185C28.6174 24.3099 28.2296 24.0883 27.8497 23.9537C27.4699 23.8192 27.0544 23.7519 26.6033 23.7519C25.7327 23.7519 25.0719 24.0131 24.6208 24.5354C24.1776 25.0577 23.956 25.8214 23.956 26.8265C23.956 27.8632 24.1856 28.6467 24.6446 29.177C25.1036 29.6993 25.7881 29.9605 26.6982 29.9605C27.2522 29.9605 27.7983 29.8853 28.3364 29.7349V27.5981H26.5083V26.4941H29.7135Z" fill="white"/>
</svg>
