<svg width="28" height="28" viewBox="0 0 28 28" fill="none" xmlns="http://www.w3.org/2000/svg">
<g clip-path="url(#clip0)">
<path d="M27.7208 8.4001C27.7208 8.4001 27.4473 6.46963 26.6051 5.62197C25.5387 4.50635 24.3465 4.50088 23.7997 4.43525C19.884 4.15088 14.0051 4.15088 14.0051 4.15088H13.9942C13.9942 4.15088 8.11529 4.15088 4.19966 4.43525C3.65279 4.50088 2.4606 4.50635 1.3942 5.62197C0.552008 6.46963 0.284039 8.4001 0.284039 8.4001C0.284039 8.4001 -0.000335693 10.6696 -0.000335693 12.9337V15.0556C-0.000335693 17.3196 0.278571 19.5892 0.278571 19.5892C0.278571 19.5892 0.552008 21.5196 1.38873 22.3673C2.45513 23.4829 3.85513 23.4446 4.47857 23.5649C6.72076 23.7782 13.9997 23.8438 13.9997 23.8438C13.9997 23.8438 19.884 23.8329 23.7997 23.554C24.3465 23.4884 25.5387 23.4829 26.6051 22.3673C27.4473 21.5196 27.7208 19.5892 27.7208 19.5892C27.7208 19.5892 27.9997 17.3251 27.9997 15.0556V12.9337C27.9997 10.6696 27.7208 8.4001 27.7208 8.4001ZM11.1067 17.6313V9.76182L18.67 13.7103L11.1067 17.6313Z" fill="#176DE4"/>
</g>
<defs>
<clipPath id="clip0">
<rect width="28" height="28" fill="white"/>
</clipPath>
</defs>
</svg>
