<svg width="17" height="18" viewBox="0 0 17 18" fill="none" xmlns="http://www.w3.org/2000/svg">
<path d="M13.8125 3.15625H3.1875C2.8941 3.15625 2.65625 3.3941 2.65625 3.6875V14.3125C2.65625 14.6059 2.8941 14.8438 3.1875 14.8438H13.8125C14.1059 14.8438 14.3438 14.6059 14.3438 14.3125V3.6875C14.3438 3.3941 14.1059 3.15625 13.8125 3.15625Z" stroke="#A7A7AD" stroke-linecap="round" stroke-linejoin="round"/>
<path d="M6.24609 8.33984L8.49999 10.5937L10.7539 8.33984" stroke="#A7A7AD" stroke-linecap="round" stroke-linejoin="round"/>
<path d="M8.5 5.28125V10.5938" stroke="#A7A7AD" stroke-linecap="round" stroke-linejoin="round"/>
<path d="M2.65527 11.125H5.09147C5.16124 11.125 5.23032 11.1387 5.29477 11.1654C5.35923 11.1921 5.41779 11.2313 5.46712 11.2806L6.74967 12.5631C6.799 12.6125 6.85757 12.6516 6.92202 12.6783C6.98648 12.705 7.05556 12.7188 7.12532 12.7188H9.87272C9.94249 12.7188 10.0116 12.705 10.076 12.6783C10.1405 12.6516 10.199 12.6125 10.2484 12.5631L11.5309 11.2806C11.5803 11.2313 11.6388 11.1921 11.7033 11.1654C11.7677 11.1387 11.8368 11.125 11.9066 11.125H14.3428" stroke="#A7A7AD" stroke-linecap="round" stroke-linejoin="round"/>
</svg>
