<svg width="12" height="12" viewBox="0 0 12 12" fill="none" xmlns="http://www.w3.org/2000/svg">
<path d="M11.3779 5.37881H11.3773C11.2958 5.37888 11.2151 5.395 11.1398 5.42626C11.0646 5.45751 10.9962 5.50328 10.9386 5.56097C10.881 5.61865 10.8354 5.68711 10.8042 5.76243C10.7731 5.83776 10.7571 5.91848 10.7572 5.99999C10.7564 6.87009 10.5171 7.72334 10.0654 8.46698C9.61364 9.21062 8.96669 9.81621 8.19487 10.2179C7.42304 10.6196 6.55587 10.8021 5.68761 10.7454C4.81935 10.6888 3.98323 10.3953 3.27011 9.89673C1.12118 8.39201 0.597026 5.41949 2.10175 3.27052C3.60647 1.12156 6.57901 0.597359 8.72795 2.10213C9.05307 2.32918 9.34853 2.59596 9.60749 2.89628H7.86093C7.69633 2.89628 7.53847 2.96167 7.42208 3.07806C7.30569 3.19445 7.2403 3.35231 7.2403 3.51692C7.2403 3.68152 7.30569 3.83938 7.42208 3.95577C7.53847 4.07216 7.69633 4.13755 7.86093 4.13755H10.7572C10.9218 4.13755 11.0797 4.07216 11.1961 3.95577C11.3125 3.83938 11.3778 3.68152 11.3778 3.51692V0.620632C11.3778 0.45603 11.3125 0.29817 11.1961 0.181779C11.0797 0.0653879 10.9218 0 10.7572 0C10.5926 0 10.4348 0.0653879 10.3184 0.181779C10.202 0.29817 10.1366 0.45603 10.1366 0.620632V1.65417C9.91878 1.44752 9.68592 1.25736 9.43992 1.08525C8.79459 0.633391 8.06658 0.313061 7.29745 0.142553C6.52832 -0.0279556 5.73313 -0.0453029 4.9573 0.0915011C4.18147 0.228305 3.44018 0.516581 2.77575 0.939871C2.11133 1.36316 1.53678 1.91317 1.08492 2.5585C0.172344 3.86181 -0.185119 5.47426 0.0911688 7.04113C0.367457 8.60799 1.25486 10.0009 2.55817 10.9135C3.56161 11.6203 4.75894 11.9998 5.98631 12C6.33982 11.9998 6.69265 11.9688 7.04076 11.9073C8.42979 11.6623 9.68809 10.9357 10.5947 9.85522C11.5014 8.77473 11.9984 7.40938 11.9985 5.9989C11.9983 5.8344 11.9329 5.67668 11.8165 5.56041C11.7001 5.44414 11.5424 5.37882 11.3779 5.37881Z" fill="#FF5722"/>
</svg>
