<svg width="23" height="29" viewBox="0 0 23 29" fill="none" xmlns="http://www.w3.org/2000/svg">
<path d="M3.27419 29H19.1774C20.9857 29 22.4516 27.5341 22.4516 25.7258V8.46453C22.4516 7.54205 22.0625 6.66236 21.3799 6.04183L15.6705 0.851487C15.0678 0.303589 14.2826 0 13.468 0H3.27419C1.46591 0 0 1.46591 0 3.27419V25.7258C0 27.5341 1.46591 29 3.27419 29Z" fill="#219653"/>
<path d="M20.1804 8.02024L14.4305 2.27034C14.2832 2.12301 14.0312 2.22735 14.0312 2.43571V8.18561C14.0312 8.31477 14.136 8.41948 14.2651 8.41948H20.015C20.2234 8.41948 20.3277 8.16757 20.1804 8.02024Z" fill="white"/>
<path d="M10.0742 18.987V19.7578H6.16015V19.0543L8.89925 15.2001H6.16015V14.4293H9.99189V15.1253L7.23783 18.987H10.0742ZM10.9229 14.4293H11.8883V19.7578H10.9229V14.4293ZM13.0423 14.4293H15.3548C15.9286 14.4293 16.3751 14.569 16.6945 14.8484C17.0138 15.1228 17.1734 15.4995 17.1734 15.9785C17.1734 16.4574 17.0113 16.8366 16.687 17.116C16.3677 17.3954 15.9236 17.5351 15.3548 17.5351H14.0077V19.7578H13.0423V14.4293ZM15.2426 16.7867C15.5769 16.7867 15.8288 16.7194 15.9985 16.5847C16.1731 16.445 16.2604 16.2454 16.2604 15.9859C16.2604 15.7215 16.1756 15.5219 16.0059 15.3872C15.8363 15.2475 15.5819 15.1777 15.2426 15.1777H14.0077V16.7867H15.2426Z" fill="white"/>
</svg>
