<svg width="36" height="46" viewBox="0 0 36 46" fill="none" xmlns="http://www.w3.org/2000/svg">
<path d="M5.19355 46H30.4194C33.2877 46 35.6129 43.6748 35.6129 40.8064V13.4265C35.6129 11.9632 34.9956 10.5679 33.9129 9.58359L24.8567 1.35063C23.9007 0.481555 22.6551 0 21.3631 0H5.19355C2.32523 0 0 2.32523 0 5.19355V40.8065C0 43.6748 2.32523 46 5.19355 46Z" fill="#EB5757"/>
<path d="M32.0116 12.7206L22.8911 3.60008C22.6574 3.36638 22.2578 3.5319 22.2578 3.86239V12.9829C22.2578 13.1878 22.4239 13.3539 22.6288 13.3539H31.7493C32.0798 13.3539 32.2453 12.9543 32.0116 12.7206Z" fill="white"/>
<path d="M6.84961 22.6123H10.5177C11.4278 22.6123 12.1361 22.8339 12.6426 23.2771C13.1491 23.7124 13.4024 24.3099 13.4024 25.0696C13.4024 25.8294 13.1452 26.4308 12.6308 26.874C12.1243 27.3172 11.4199 27.5388 10.5177 27.5388H8.38097V31.0645H6.84961V22.6123ZM10.3397 26.3517C10.8699 26.3517 11.2696 26.2448 11.5386 26.0312C11.8156 25.8096 11.9541 25.493 11.9541 25.0815C11.9541 24.662 11.8196 24.3455 11.5505 24.1318C11.2814 23.9102 10.8778 23.7994 10.3397 23.7994H8.38097V26.3517H10.3397ZM14.7559 22.6123H17.8661C19.251 22.6123 20.3233 22.9803 21.0831 23.7163C21.8507 24.4523 22.2346 25.4891 22.2346 26.8265C22.2346 28.1719 21.8507 29.2165 21.0831 29.9605C20.3233 30.6965 19.251 31.0645 17.8661 31.0645H14.7559V22.6123ZM17.7711 29.818C19.7179 29.818 20.6913 28.8208 20.6913 26.8265C20.6913 24.848 19.7179 23.8588 17.7711 23.8588H16.2872V29.818H17.7711ZM23.7982 22.6123H29.3182V23.835H25.3177V26.1499H29.0808V27.3845H25.3177V31.0645H23.7982V22.6123Z" fill="white"/>
</svg>
