<svg width="36" height="46" viewBox="0 0 36 46" fill="none" xmlns="http://www.w3.org/2000/svg">
<path d="M5.19355 46H30.4194C33.2877 46 35.6129 43.6748 35.6129 40.8064V13.4265C35.6129 11.9632 34.9956 10.5679 33.9129 9.58359L24.8567 1.35063C23.9007 0.481555 22.6551 0 21.3631 0H5.19355C2.32523 0 0 2.32523 0 5.19355V40.8065C0 43.6748 2.32523 46 5.19355 46Z" fill="#FC8273"/>
<path d="M32.0116 12.7206L22.8911 3.60008C22.6574 3.36638 22.2578 3.5319 22.2578 3.86239V12.9829C22.2578 13.1878 22.4239 13.3539 22.6288 13.3539H31.7493C32.0798 13.3539 32.2453 12.9543 32.0116 12.7206Z" fill="white"/>
<path d="M6.84961 22.6123H10.5177C11.4278 22.6123 12.1361 22.8339 12.6426 23.2771C13.1491 23.7124 13.4024 24.3099 13.4024 25.0696C13.4024 25.8294 13.1452 26.4308 12.6308 26.874C12.1243 27.3172 11.4199 27.5388 10.5177 27.5388H8.38097V31.0645H6.84961V22.6123ZM10.3397 26.3517C10.8699 26.3517 11.2696 26.2448 11.5386 26.0312C11.8156 25.8096 11.9541 25.493 11.9541 25.0815C11.9541 24.662 11.8196 24.3455 11.5505 24.1318C11.2814 23.9102 10.8778 23.7994 10.3397 23.7994H8.38097V26.3517H10.3397ZM14.7559 22.6123H18.424C19.3341 22.6123 20.0424 22.8339 20.5489 23.2771C21.0554 23.7124 21.3086 24.3099 21.3086 25.0696C21.3086 25.8294 21.0514 26.4308 20.537 26.874C20.0305 27.3172 19.3262 27.5388 18.424 27.5388H16.2872V31.0645H14.7559V22.6123ZM18.2459 26.3517C18.7762 26.3517 19.1758 26.2448 19.4449 26.0312C19.7219 25.8096 19.8604 25.493 19.8604 25.0815C19.8604 24.662 19.7258 24.3455 19.4568 24.1318C19.1877 23.9102 18.7841 23.7994 18.2459 23.7994H16.2872V26.3517H18.2459ZM24.4475 23.8706H21.6934V22.6123H28.7566V23.8706H25.9907V31.0645H24.4475V23.8706Z" fill="white"/>
</svg>
