<svg width="23" height="29" viewBox="0 0 23 29" fill="none" xmlns="http://www.w3.org/2000/svg">
<path d="M3.27419 29H19.1774C20.9857 29 22.4516 27.5341 22.4516 25.7258V8.46453C22.4516 7.54205 22.0625 6.66236 21.3799 6.04183L15.6705 0.851487C15.0678 0.303589 14.2826 0 13.468 0H3.27419C1.46591 0 0 1.46591 0 3.27419V25.7258C0 27.5341 1.46591 29 3.27419 29Z" fill="#9B51E0"/>
<path d="M20.1804 8.02024L14.4305 2.27034C14.2832 2.12301 14.0312 2.22735 14.0312 2.43571V8.18561C14.0312 8.31477 14.136 8.41948 14.2651 8.41948H20.015C20.2234 8.41948 20.3277 8.16757 20.1804 8.02024Z" fill="white"/>
<path d="M4.39714 20.2636C4.65159 20.2985 4.83121 20.316 4.93598 20.316C5.18045 20.316 5.34759 20.2561 5.4374 20.1364C5.52721 20.0166 5.57211 19.8021 5.57211 19.4928V14.3888H6.53753V19.4928C6.53753 20.0615 6.43026 20.4732 6.21572 20.7276C6.00118 20.987 5.63447 21.1168 5.11559 21.1168C4.87611 21.1168 4.63663 21.0968 4.39714 21.0569V20.2636ZM7.6925 14.3888H10.005C10.5788 14.3888 11.0253 14.5285 11.3446 14.8079C11.6639 15.0823 11.8236 15.459 11.8236 15.9379C11.8236 16.4169 11.6614 16.7961 11.3371 17.0755C11.0178 17.3549 10.5738 17.4946 10.005 17.4946H8.65792V19.7173H7.6925V14.3888ZM9.89276 16.7462C10.227 16.7462 10.479 16.6788 10.6486 16.5441C10.8233 16.4044 10.9106 16.2049 10.9106 15.9454C10.9106 15.681 10.8257 15.4814 10.6561 15.3467C10.4865 15.207 10.232 15.1372 9.89276 15.1372H8.65792V16.7462H9.89276ZM17.1004 16.836V19.3955C16.8559 19.5152 16.5615 19.61 16.2173 19.6799C15.873 19.7497 15.5213 19.7846 15.162 19.7846C14.6132 19.7846 14.1368 19.6749 13.7326 19.4553C13.3285 19.2358 13.0192 18.9215 12.8046 18.5124C12.5901 18.1033 12.4828 17.6143 12.4828 17.0455C12.4828 16.4867 12.5901 16.0028 12.8046 15.5937C13.0192 15.1846 13.3235 14.8702 13.7177 14.6507C14.1168 14.4312 14.5833 14.3214 15.1171 14.3214C15.4913 14.3214 15.8406 14.3763 16.1649 14.4861C16.4942 14.5958 16.7686 14.7505 16.9881 14.9501L16.6588 15.6535C16.4094 15.459 16.1649 15.3193 15.9254 15.2344C15.6859 15.1496 15.424 15.1072 15.1396 15.1072C14.5908 15.1072 14.1742 15.2719 13.8898 15.6012C13.6104 15.9304 13.4707 16.4119 13.4707 17.0455C13.4707 17.6991 13.6154 18.1931 13.9048 18.5273C14.1941 18.8566 14.6257 19.0213 15.1995 19.0213C15.5487 19.0213 15.893 18.9739 16.2322 18.8791V17.532H15.0797V16.836H17.1004Z" fill="white"/>
</svg>
