<svg width="20" height="20" viewBox="0 0 20 20" fill="none" xmlns="http://www.w3.org/2000/svg">
<path d="M10 0C4.47715 0 0 4.47715 0 10C0 15.5228 4.47715 20 10 20C15.5228 20 20 15.5228 20 10C19.9936 4.47982 15.5202 0.00642897 10 0Z" fill="#458FF6" fill-opacity="0.1"/>
<path d="M15.7724 6.83313L10.0683 14.574C9.93221 14.7545 9.72936 14.8727 9.50527 14.9022C9.28118 14.9316 9.05465 14.8698 8.87659 14.7306L4.80325 11.474C4.44381 11.1863 4.3856 10.6617 4.67325 10.3023C4.9609 9.94285 5.48547 9.88465 5.84492 10.1723L9.24159 12.8898L14.4308 5.8473C14.6009 5.59195 14.8976 5.45078 15.2031 5.47983C15.5086 5.50887 15.7734 5.70344 15.8923 5.98627C16.0113 6.26911 15.9653 6.59445 15.7724 6.83313Z" fill="#458FF6"/>
</svg>
