<svg width="36" height="46" viewBox="0 0 36 46" fill="none" xmlns="http://www.w3.org/2000/svg">
<path d="M5.19355 46H30.4194C33.2877 46 35.6129 43.6748 35.6129 40.8064V13.4265C35.6129 11.9632 34.9956 10.5679 33.9129 9.58359L24.8567 1.35063C23.9007 0.481555 22.6551 0 21.3631 0H5.19355C2.32523 0 0 2.32523 0 5.19355V40.8065C0 43.6748 2.32523 46 5.19355 46Z" fill="#56CCF2"/>
<path d="M32.0116 12.7206L22.8911 3.60008C22.6574 3.36638 22.2578 3.5319 22.2578 3.86239V12.9829C22.2578 13.1878 22.4239 13.3539 22.6288 13.3539H31.7493C32.0798 13.3539 32.2453 12.9543 32.0116 12.7206Z" fill="white"/>
<path d="M13.529 29.0175H9.39794L8.54323 31H7L10.8225 22.5479H12.0689L15.9032 31H14.3719L13.529 29.0175ZM13.0186 27.8305L11.4635 24.2098L9.90839 27.8305H13.0186ZM23.7575 22.5479L19.9944 31H18.748L14.9849 22.5479H16.5756L19.389 29.0769L22.2024 22.5479H23.7575ZM24.5612 22.5479H26.0926V31H24.5612V22.5479Z" fill="white"/>
</svg>
