<svg width="22" height="18" viewBox="0 0 22 18" fill="none" xmlns="http://www.w3.org/2000/svg">
<path d="M11 3.5H20.1667C20.3877 3.5 20.5996 3.5878 20.7559 3.74408C20.9122 3.90036 21 4.11232 21 4.33333V16C21 16.221 20.9122 16.433 20.7559 16.5893C20.5996 16.7455 20.3877 16.8333 20.1667 16.8333H1.83333C1.61252 16.8327 1.40093 16.7447 1.24479 16.5885C1.08865 16.4324 1.00065 16.2208 1 16V6" stroke="#4C445D" stroke-linecap="round" stroke-linejoin="round"/>
<path d="M7.38889 6H1V1.83333C1 1.61232 1.0878 1.40036 1.24408 1.24408C1.40036 1.0878 1.61232 1 1.83333 1H7.38889C7.5692 1 7.74464 1.05848 7.88889 1.16667L11 3.5L7.88889 5.83333C7.74464 5.94152 7.5692 6 7.38889 6Z" stroke="#4C445D" stroke-linecap="round" stroke-linejoin="round"/>
</svg>
