<svg width="23" height="29" viewBox="0 0 23 29" fill="none" xmlns="http://www.w3.org/2000/svg">
<path d="M3.27419 29H19.1774C20.9857 29 22.4516 27.5341 22.4516 25.7258V8.46453C22.4516 7.54205 22.0625 6.66236 21.3799 6.04183L15.6705 0.851486C15.0678 0.303589 14.2826 0 13.468 0H3.27419C1.46591 0 0 1.46591 0 3.27419V25.7258C0 27.5341 1.46591 29 3.27419 29Z" fill="#EB5757"/>
<path d="M20.1823 8.02024L14.4324 2.27034C14.2851 2.12301 14.0332 2.22735 14.0332 2.43571V8.18561C14.0332 8.31477 14.1379 8.41948 14.2671 8.41948H20.017C20.2253 8.41948 20.3297 8.16757 20.1823 8.02024Z" fill="white"/>
<path d="M4.31845 14.4298H6.63096C7.20473 14.4298 7.65126 14.5695 7.97057 14.8489C8.28989 15.1233 8.44954 15.5 8.44954 15.9789C8.44954 16.4579 8.28739 16.8371 7.96309 17.1165C7.64378 17.3959 7.19974 17.5356 6.63096 17.5356H5.28387V19.7583H4.31845V14.4298ZM6.5187 16.7872C6.85298 16.7872 7.10494 16.7198 7.27457 16.5851C7.4492 16.4454 7.53651 16.2459 7.53651 15.9864C7.53651 15.722 7.45169 15.5224 7.28206 15.3877C7.11242 15.248 6.85797 15.1782 6.5187 15.1782H5.28387V16.7872H6.5187ZM9.30282 14.4298H11.2636C12.1367 14.4298 12.8128 14.6618 13.2917 15.1258C13.7757 15.5898 14.0177 16.2434 14.0177 17.0866C14.0177 17.9347 13.7757 18.5933 13.2917 19.0623C12.8128 19.5263 12.1367 19.7583 11.2636 19.7583H9.30282V14.4298ZM11.2037 18.9725C12.4311 18.9725 13.0448 18.3438 13.0448 17.0866C13.0448 15.8392 12.4311 15.2156 11.2037 15.2156H10.2682V18.9725H11.2037ZM15.0034 14.4298H18.4834V15.2006H15.9614V16.66H18.3337V17.4383H15.9614V19.7583H15.0034V14.4298Z" fill="white"/>
</svg>
