<svg width="36" height="46" viewBox="0 0 36 46" fill="none" xmlns="http://www.w3.org/2000/svg">
<path d="M5.19355 46H30.4194C33.2877 46 35.6129 43.6748 35.6129 40.8064V13.4265C35.6129 11.9632 34.9956 10.5679 33.9129 9.58359L24.8567 1.35063C23.9007 0.481555 22.6551 0 21.3631 0H5.19355C2.32523 0 0 2.32523 0 5.19355V40.8065C0 43.6748 2.32523 46 5.19355 46Z" fill="#F2994A"/>
<path d="M32.0116 12.7206L22.8911 3.60008C22.6574 3.36638 22.2578 3.5319 22.2578 3.86239V12.9829C22.2578 13.1878 22.4239 13.3539 22.6288 13.3539H31.7493C32.0798 13.3539 32.2453 12.9543 32.0116 12.7206Z" fill="white"/>
<path d="M18.832 29.082H14.7009L13.8462 31.0645H12.303L16.1254 22.6123H17.3719L21.2062 31.0645H19.6749L18.832 29.082ZM18.3216 27.8949L16.7665 24.2743L15.2114 27.8949H18.3216ZM22.1203 22.6123H23.6516V31.0645H22.1203V22.6123Z" fill="white"/>
</svg>
