<svg width="19" height="20" viewBox="0 0 19 20" fill="none" xmlns="http://www.w3.org/2000/svg">
<g filter="url(#filter0_dd)">
<path fill-rule="evenodd" clip-rule="evenodd" d="M11.2501 16.5C11.2344 16.5 11.2194 16.4992 11.2044 16.4985C10.8654 16.4782 10.5826 16.2322 10.5151 15.8992L9.3616 10.224C9.3016 9.92849 9.07135 9.69824 8.77585 9.63824L3.1006 8.48399C2.7676 8.41724 2.5216 8.13449 2.50135 7.79549C2.4811 7.45574 2.69035 7.14524 3.01285 7.03874L15.0129 3.03899C15.2821 2.94749 15.5791 3.01799 15.7801 3.21974C15.9811 3.42074 16.0509 3.71774 15.9616 3.98699L11.9611 15.987C11.8591 16.2952 11.5711 16.5 11.2501 16.5Z" fill="#231F20"/>
<mask id="mask0" mask-type="alpha" maskUnits="userSpaceOnUse" x="2" y="2" width="14" height="15">
<path fill-rule="evenodd" clip-rule="evenodd" d="M11.2501 16.5C11.2344 16.5 11.2194 16.4992 11.2044 16.4985C10.8654 16.4782 10.5826 16.2322 10.5151 15.8992L9.3616 10.224C9.3016 9.92849 9.07135 9.69824 8.77585 9.63824L3.1006 8.48399C2.7676 8.41724 2.5216 8.13449 2.50135 7.79549C2.4811 7.45574 2.69035 7.14524 3.01285 7.03874L15.0129 3.03899C15.2821 2.94749 15.5791 3.01799 15.7801 3.21974C15.9811 3.42074 16.0509 3.71774 15.9616 3.98699L11.9611 15.987C11.8591 16.2952 11.5711 16.5 11.2501 16.5Z" fill="white"/>
</mask>
<g mask="url(#mask0)">
<rect x="1" width="18" height="18" fill="white"/>
</g>
</g>
<defs>
<filter id="filter0_dd" x="-0.8" y="-0.9" width="21.6" height="21.6" filterUnits="userSpaceOnUse" color-interpolation-filters="sRGB">
<feFlood flood-opacity="0" result="BackgroundImageFix"/>
<feColorMatrix in="SourceAlpha" type="matrix" values="0 0 0 0 0 0 0 0 0 0 0 0 0 0 0 0 0 0 127 0" result="hardAlpha"/>
<feOffset dy="0.9"/>
<feGaussianBlur stdDeviation="0.45"/>
<feColorMatrix type="matrix" values="0 0 0 0 0 0 0 0 0 0 0 0 0 0 0 0 0 0 0.03 0"/>
<feBlend mode="normal" in2="BackgroundImageFix" result="effect1_dropShadow"/>
<feColorMatrix in="SourceAlpha" type="matrix" values="0 0 0 0 0 0 0 0 0 0 0 0 0 0 0 0 0 0 127 0" result="hardAlpha"/>
<feOffset dy="0.9"/>
<feGaussianBlur stdDeviation="0.9"/>
<feColorMatrix type="matrix" values="0 0 0 0 0 0 0 0 0 0 0 0 0 0 0 0 0 0 0.03 0"/>
<feBlend mode="normal" in2="effect1_dropShadow" result="effect2_dropShadow"/>
<feBlend mode="normal" in="SourceGraphic" in2="effect2_dropShadow" result="shape"/>
</filter>
</defs>
</svg>
