<svg width="52" height="52" viewBox="0 0 52 52" fill="none" xmlns="http://www.w3.org/2000/svg">
<path d="M2.09543 18.2329L26 0.865247L49.9046 18.2329L40.7738 46.3344H11.2262L2.09543 18.2329Z" stroke="#458FF6" stroke-width="1.4"/>
<path fill-rule="evenodd" clip-rule="evenodd" d="M19.3335 22.6666C18.8733 22.6666 18.5002 23.0397 18.5002 23.5V31.8333C18.5002 32.2935 18.8733 32.6666 19.3335 32.6666H32.6668C33.1271 32.6666 33.5002 32.2935 33.5002 31.8333V23.5C33.5002 23.0397 33.1271 22.6666 32.6668 22.6666H19.3335ZM16.8335 23.5C16.8335 22.1192 17.9528 21 19.3335 21H32.6668C34.0475 21 35.1668 22.1192 35.1668 23.5V31.8333C35.1668 33.214 34.0475 34.3333 32.6668 34.3333H19.3335C17.9528 34.3333 16.8335 33.214 16.8335 31.8333V23.5Z" fill="#458FF6"/>
<path fill-rule="evenodd" clip-rule="evenodd" d="M22.5657 18.3989C23.0346 17.93 23.6705 17.6666 24.3335 17.6666H27.6668C28.3299 17.6666 28.9658 17.93 29.4346 18.3989C29.9034 18.8677 30.1668 19.5036 30.1668 20.1666V33.5C30.1668 33.9602 29.7937 34.3333 29.3335 34.3333C28.8733 34.3333 28.5002 33.9602 28.5002 33.5V20.1666C28.5002 19.9456 28.4124 19.7337 28.2561 19.5774C28.0998 19.4211 27.8878 19.3333 27.6668 19.3333H24.3335C24.1125 19.3333 23.9005 19.4211 23.7442 19.5774C23.588 19.7337 23.5002 19.9456 23.5002 20.1666V33.5C23.5002 33.9602 23.1271 34.3333 22.6668 34.3333C22.2066 34.3333 21.8335 33.9602 21.8335 33.5V20.1666C21.8335 19.5036 22.0969 18.8677 22.5657 18.3989Z" fill="#458FF6"/>
</svg>
