<svg width="12" height="12" viewBox="0 0 12 12" fill="none" xmlns="http://www.w3.org/2000/svg">
<circle cx="6" cy="6" r="6" fill="#5496FF"/>
<path d="M6.00534 7.65708C5.75122 7.65708 5.54534 7.46271 5.54534 7.22296C5.54534 7.22296 5.26209 4.0997 5.26172 3.05483C5.26159 2.7457 5.59472 2.5332 6.00547 2.5332C6.38872 2.5332 6.73409 2.7272 6.73409 3.04583C6.73409 4.10758 6.46547 7.22296 6.46547 7.22296C6.46534 7.46271 6.25934 7.65708 6.00534 7.65708Z" fill="white"/>
<path d="M5.37109 8.8418C5.37109 9.00756 5.43694 9.16653 5.55415 9.28374C5.67136 9.40095 5.83033 9.4668 5.99609 9.4668C6.16185 9.4668 6.32083 9.40095 6.43804 9.28374C6.55525 9.16653 6.62109 9.00756 6.62109 8.8418C6.62109 8.67604 6.55525 8.51707 6.43804 8.39986C6.32083 8.28264 6.16185 8.2168 5.99609 8.2168C5.83033 8.2168 5.67136 8.28264 5.55415 8.39986C5.43694 8.51707 5.37109 8.67604 5.37109 8.8418Z" fill="white"/>
</svg>
