<svg width="36" height="46" viewBox="0 0 36 46" fill="none" xmlns="http://www.w3.org/2000/svg">
<path d="M5.19355 46H30.4194C33.2877 46 35.6129 43.6748 35.6129 40.8064V13.4265C35.6129 11.9632 34.9956 10.5679 33.9129 9.58359L24.8567 1.35063C23.9007 0.481555 22.6551 0 21.3631 0H5.19355C2.32523 0 0 2.32523 0 5.19355V40.8065C0 43.6748 2.32523 46 5.19355 46Z" fill="#2F80ED"/>
<path d="M32.0116 12.7206L22.8911 3.60008C22.6574 3.36638 22.2578 3.5319 22.2578 3.86239V12.9829C22.2578 13.1878 22.4239 13.3539 22.6288 13.3539H31.7493C32.0798 13.3539 32.2453 12.9543 32.0116 12.7206Z" fill="white"/>
<path d="M14.5331 22.6123V31.0645H13.1798V25.8175L10.9362 31.0645H9.92719L7.6717 25.8768V31.0645H6.31841V22.6123H7.52925L10.4376 29.2245L13.3223 22.6123H14.5331ZM16.3804 22.6123H20.0485C20.9586 22.6123 21.6669 22.8339 22.1734 23.2771C22.6799 23.7124 22.9331 24.3099 22.9331 25.0696C22.9331 25.8294 22.6759 26.4308 22.1615 26.874C21.655 27.3172 20.9507 27.5388 20.0485 27.5388H17.9117V31.0645H16.3804V22.6123ZM19.8704 26.3517C20.4007 26.3517 20.8003 26.2448 21.0694 26.0312C21.3464 25.8096 21.4849 25.493 21.4849 25.0815C21.4849 24.662 21.3503 24.3455 21.0813 24.1318C20.8122 23.9102 20.4086 23.7994 19.8704 23.7994H17.9117V26.3517H19.8704ZM28.2396 26.7197C28.7382 26.8542 29.1181 27.0995 29.3793 27.4557C29.6483 27.8118 29.7829 28.251 29.7829 28.7734C29.7829 29.5094 29.5098 30.091 28.9638 30.5184C28.4256 30.9457 27.6975 31.1594 26.7795 31.1594C26.2097 31.1594 25.6597 31.0724 25.1294 30.8983C24.6071 30.7242 24.1758 30.4828 23.8355 30.1741L24.3578 29.0583C25.1097 29.6439 25.8971 29.9367 26.7202 29.9367C27.2583 29.9367 27.658 29.8299 27.9191 29.6162C28.1882 29.4025 28.3227 29.078 28.3227 28.6428C28.3227 28.2154 28.1882 27.9028 27.9191 27.705C27.65 27.4992 27.2346 27.3963 26.6727 27.3963H25.5568V26.1736H26.4709C27.563 26.1736 28.1091 25.7581 28.1091 24.9272C28.1091 24.5394 27.9904 24.2426 27.7529 24.0368C27.5155 23.8311 27.1831 23.7282 26.7558 23.7282C25.996 23.7282 25.2363 24.021 24.4765 24.6066L23.9661 23.4908C24.3064 23.19 24.7337 22.9526 25.2482 22.7785C25.7705 22.5965 26.3047 22.5055 26.8507 22.5055C27.6817 22.5055 28.3425 22.7112 28.8332 23.1228C29.3318 23.5264 29.5811 24.0685 29.5811 24.7491C29.5731 25.216 29.4505 25.6236 29.2131 25.9718C28.9836 26.3121 28.6591 26.5614 28.2396 26.7197Z" fill="white"/>
</svg>
