<svg width="12" height="13" viewBox="0 0 12 13" fill="none" xmlns="http://www.w3.org/2000/svg">
<path d="M11 2.81836L1 2.81836" stroke="white" stroke-linecap="round" stroke-linejoin="round"/>
<path d="M4.63672 5.5459V9.18226" stroke="white" stroke-linecap="round" stroke-linejoin="round"/>
<path d="M7.36328 5.5459V9.18226" stroke="white" stroke-linecap="round" stroke-linejoin="round"/>
<path d="M10.092 2.81836V11.4547C10.092 11.5753 10.0441 11.6909 9.95884 11.7761C9.8736 11.8614 9.75798 11.9093 9.63743 11.9093H2.3647C2.24415 11.9093 2.12853 11.8614 2.04329 11.7761C1.95805 11.6909 1.91016 11.5753 1.91016 11.4547V2.81836" stroke="white" stroke-linecap="round" stroke-linejoin="round"/>
<path d="M8.27397 2.81818V1.90909C8.27397 1.66799 8.17819 1.43675 8.0077 1.26627C7.83722 1.09578 7.60599 1 7.36488 1H4.63761C4.3965 1 4.16527 1.09578 3.99478 1.26627C3.82429 1.43675 3.72852 1.66799 3.72852 1.90909V2.81818" stroke="white" stroke-linecap="round" stroke-linejoin="round"/>
</svg>
