<svg width="34" height="24" viewBox="0 0 34 24" fill="none" xmlns="http://www.w3.org/2000/svg">
<path d="M12 16.5C14.4853 16.5 16.5 14.4853 16.5 12C16.5 9.51472 14.4853 7.5 12 7.5C9.51472 7.5 7.5 9.51472 7.5 12C7.5 14.4853 9.51472 16.5 12 16.5Z" stroke="#1F1534" stroke-opacity="0.7" stroke-width="1.4" stroke-linecap="round" stroke-linejoin="round"/>
<path d="M18.5064 7.56149C18.7282 7.88718 18.9253 8.22908 19.0959 8.5843L21.5283 9.93462C21.8246 11.2954 21.8256 12.7038 21.5313 14.065L19.0975 15.4161C18.9263 15.771 18.7288 16.1126 18.5064 16.438L18.5533 19.2197C17.5229 20.1567 16.3037 20.8618 14.9777 21.2875L12.5907 19.8553C12.1978 19.8845 11.8032 19.8842 11.4102 19.8543L9.0246 21.2858C7.69801 20.862 6.47773 20.1586 5.44607 19.2232L5.49292 16.4399C5.27109 16.1142 5.07406 15.7723 4.90347 15.4171L2.47101 14.0667C2.17473 12.706 2.17372 11.2975 2.46803 9.93634L4.90184 8.58527C5.07299 8.23032 5.27057 7.88873 5.4929 7.56339L5.44608 4.78166C6.47639 3.84469 7.69565 3.13958 9.02162 2.71387L11.4086 4.14608C11.8016 4.11682 12.1962 4.11713 12.5891 4.14701L14.9747 2.71559C16.3013 3.13938 17.5216 3.84274 18.5533 4.77821L18.5064 7.56149Z" stroke="#1F1534" stroke-opacity="0.7" stroke-width="1.4" stroke-linecap="round" stroke-linejoin="round"/>
<path d="M33 11L30.5 13.5L28 11" stroke="#1F1534" stroke-opacity="0.7" stroke-linecap="round" stroke-linejoin="round"/>
</svg>
