<svg width="36" height="46" viewBox="0 0 36 46" fill="none" xmlns="http://www.w3.org/2000/svg">
<path d="M5.19355 46H30.4194C33.2877 46 35.6129 43.6748 35.6129 40.8064V13.4265C35.6129 11.9632 34.9956 10.5679 33.9129 9.58359L24.8567 1.35063C23.9007 0.481555 22.6551 0 21.3631 0H5.19355C2.32523 0 0 2.32523 0 5.19355V40.8065C0 43.6748 2.32523 46 5.19355 46Z" fill="#219653"/>
<path d="M32.0116 12.7206L22.8911 3.60008C22.6574 3.36638 22.2578 3.5319 22.2578 3.86239V12.9829C22.2578 13.1878 22.4239 13.3539 22.6288 13.3539H31.7493C32.0798 13.3539 32.2453 12.9543 32.0116 12.7206Z" fill="white"/>
<path d="M15.9805 29.8417V31.0645H9.77201V29.9486L14.1168 23.835H9.77201V22.6123H15.8499V23.7163L11.4814 29.8417H15.9805ZM17.3267 22.6123H18.858V31.0645H17.3267V22.6123ZM20.6886 22.6123H24.3567C25.2668 22.6123 25.9751 22.8339 26.4816 23.2771C26.9881 23.7124 27.2413 24.3099 27.2413 25.0696C27.2413 25.8294 26.9841 26.4308 26.4697 26.874C25.9632 27.3172 25.2589 27.5388 24.3567 27.5388H22.2199V31.0645H20.6886V22.6123ZM24.1786 26.3517C24.7089 26.3517 25.1085 26.2448 25.3776 26.0312C25.6546 25.8096 25.7931 25.493 25.7931 25.0815C25.7931 24.662 25.6586 24.3455 25.3895 24.1318C25.1204 23.9102 24.7168 23.7994 24.1786 23.7994H22.2199V26.3517H24.1786Z" fill="white"/>
</svg>
