<svg width="132" height="115" viewBox="0 0 132 115" xmlns="http://www.w3.org/2000/svg"><defs><linearGradient x1="525.935%" y1="965.165%" x2="-156.89%" y2="-356.14%" id="a"><stop stop-color="#97C3F9" offset="0%"/><stop stop-color="#93C1F9" offset="100%"/></linearGradient></defs><path d="M5.228 104c2.888 0 5.229 2.334 5.229 5.212 0 2.88-2.341 5.213-5.229 5.213-2.887 0-5.228-2.334-5.228-5.213C0 106.334 2.34 104 5.228 104zm30 0c2.888 0 5.229 2.334 5.229 5.212 0 2.88-2.341 5.213-5.229 5.213-2.887 0-5.228-2.334-5.228-5.213 0-2.878 2.34-5.212 5.228-5.212zm31 0c2.888 0 5.229 2.334 5.229 5.212 0 2.88-2.341 5.213-5.229 5.213-2.887 0-5.228-2.334-5.228-5.213 0-2.878 2.34-5.212 5.228-5.212zm30 0c2.888 0 5.229 2.334 5.229 5.212 0 2.88-2.341 5.213-5.229 5.213-2.887 0-5.228-2.334-5.228-5.213 0-2.878 2.34-5.212 5.228-5.212zm30 0c2.888 0 5.229 2.334 5.229 5.212 0 2.88-2.341 5.213-5.229 5.213-2.887 0-5.228-2.334-5.228-5.213 0-2.878 2.34-5.212 5.228-5.212zm-121-26c2.888 0 5.229 2.334 5.229 5.212 0 2.88-2.341 5.213-5.229 5.213C2.341 88.425 0 86.091 0 83.212 0 80.334 2.34 78 5.228 78zm30 0c2.888 0 5.229 2.334 5.229 5.212 0 2.88-2.341 5.213-5.229 5.213-2.887 0-5.228-2.334-5.228-5.213C30 80.334 32.34 78 35.228 78zm31 0c2.888 0 5.229 2.334 5.229 5.212 0 2.88-2.341 5.213-5.229 5.213-2.887 0-5.228-2.334-5.228-5.213C61 80.334 63.34 78 66.228 78zm30 0c2.888 0 5.229 2.334 5.229 5.212 0 2.88-2.341 5.213-5.229 5.213-2.887 0-5.228-2.334-5.228-5.213C91 80.334 93.34 78 96.228 78zm30 0c2.888 0 5.229 2.334 5.229 5.212 0 2.88-2.341 5.213-5.229 5.213-2.887 0-5.228-2.334-5.228-5.213 0-2.878 2.34-5.212 5.228-5.212zm-121-26c2.888 0 5.229 2.334 5.229 5.212 0 2.88-2.341 5.213-5.229 5.213C2.341 62.425 0 60.091 0 57.212 0 54.334 2.34 52 5.228 52zm30 0c2.888 0 5.229 2.334 5.229 5.212 0 2.88-2.341 5.213-5.229 5.213-2.887 0-5.228-2.334-5.228-5.213C30 54.334 32.34 52 35.228 52zm31 0c2.888 0 5.229 2.334 5.229 5.212 0 2.88-2.341 5.213-5.229 5.213-2.887 0-5.228-2.334-5.228-5.213C61 54.334 63.34 52 66.228 52zm30 0c2.888 0 5.229 2.334 5.229 5.212 0 2.88-2.341 5.213-5.229 5.213-2.887 0-5.228-2.334-5.228-5.213C91 54.334 93.34 52 96.228 52zm30 0c2.888 0 5.229 2.334 5.229 5.212 0 2.88-2.341 5.213-5.229 5.213-2.887 0-5.228-2.334-5.228-5.213 0-2.878 2.34-5.212 5.228-5.212zm-121-26c2.888 0 5.229 2.334 5.229 5.212 0 2.88-2.341 5.213-5.229 5.213C2.341 36.425 0 34.091 0 31.212 0 28.334 2.34 26 5.228 26zm30 0c2.888 0 5.229 2.334 5.229 5.212 0 2.88-2.341 5.213-5.229 5.213-2.887 0-5.228-2.334-5.228-5.213C30 28.334 32.34 26 35.228 26zm31 0c2.888 0 5.229 2.334 5.229 5.212 0 2.88-2.341 5.213-5.229 5.213-2.887 0-5.228-2.334-5.228-5.213C61 28.334 63.34 26 66.228 26zm30 0c2.888 0 5.229 2.334 5.229 5.212 0 2.88-2.341 5.213-5.229 5.213-2.887 0-5.228-2.334-5.228-5.213C91 28.334 93.34 26 96.228 26zm30 0c2.888 0 5.229 2.334 5.229 5.212 0 2.88-2.341 5.213-5.229 5.213-2.887 0-5.228-2.334-5.228-5.213 0-2.878 2.34-5.212 5.228-5.212zm-121-26c2.888 0 5.229 2.334 5.229 5.212 0 2.88-2.341 5.213-5.229 5.213C2.341 10.425 0 8.091 0 5.212 0 2.334 2.34 0 5.228 0zm30 0c2.888 0 5.229 2.334 5.229 5.212 0 2.88-2.341 5.213-5.229 5.213-2.887 0-5.228-2.334-5.228-5.213C30 2.334 32.34 0 35.228 0zm31 0c2.888 0 5.229 2.334 5.229 5.212 0 2.88-2.341 5.213-5.229 5.213-2.887 0-5.228-2.334-5.228-5.213C61 2.334 63.34 0 66.228 0zm30 0c2.888 0 5.229 2.334 5.229 5.212 0 2.88-2.341 5.213-5.229 5.213-2.887 0-5.228-2.334-5.228-5.213C91 2.334 93.34 0 96.228 0zm30 0c2.888 0 5.229 2.334 5.229 5.212 0 2.88-2.341 5.213-5.229 5.213-2.887 0-5.228-2.334-5.228-5.213C121 2.334 123.34 0 126.228 0z" fill="url(#a)" fill-rule="nonzero"/></svg>