<svg width="534" height="556" viewBox="0 0 534 556" fill="none" xmlns="http://www.w3.org/2000/svg"><path d="M263.198 13.743H49.01v269.131h214.188V13.743z" fill="#E0E0E0"/><path d="M256.729 21.444H56.846v253.742h199.883V21.444z" fill="#FAFAFA"/><path d="M56.846 208.228h40.21l5.169 23.668h17.453l14.868-67.293h49.746v-45.889h36.192v76.669h36.245v79.816H56.846v-66.971z" fill="#F5F5F5"/><path d="M159.968 21.444h-6.456v251.652h6.456V21.444z" fill="#E0E0E0"/><path d="M256.729 144.377H56.846v6.617h199.883v-6.617zM466.631 85.496l12.858 32.883-7.996-.027-6.403-20.212 1.541-12.644z" fill="#E0E0E0"/><path d="M422.737 55.105l-4.42 63.02 45.621.951 5.13-63.971h-46.331z" fill="#EBEBEB"/><path d="M427.292 60.18l-3.67 52.453 33.914 1.594 4.742-54.354-34.986.308z" fill="#FAFAFA"/><path d="M434.739 67.601l-2.759 36.861h18.711L454 67.602h-19.261z" fill="#E0E0E0"/><path d="M354.976 118.62V66.797h37.946v51.783l-37.946.04z" fill="#EBEBEB"/><path d="M376.554 66.797S385.702-.093 383.144 0c-2.558.094-9.001 60.984-9.001 60.984s-.268-50.43-2.679-50.161c-2.411.268 0 53.39 0 53.39s-4.125-43.117-6.349-42.085c-2.223 1.03.951 44.67.951 44.67h10.501" fill="#E0E0E0"/><path d="M369.656 66.797s3.174-33.338 4.219-31.061c1.045 2.277 0 19.85 0 19.85s8.854-43.062 11.091-41.63c2.236 1.434-8.934 46.787-8.934 46.787s8.572-25.864 10.461-23.132c1.888 2.733-7.113 26.99-7.113 26.99s9.202-17.158 9.832-14.855c.629 2.304-4.394 17.065-4.394 17.065l-15.162-.014zM364.245 66.998s-20.279-39.82-17.775-38.589c2.505 1.233 15.484 26.977 15.484 26.977s-8.586-24.834-6.697-25.597c1.889-.764 11.291 27.9 11.291 27.9l2.117 9.376-4.42-.067z" fill="#EBEBEB"/><path d="M372.549 66.891l.951 51.81h-18.042l-.348-51.984 17.439.174z" fill="#E0E0E0"/><path d="M355.016 71.378l17.48.295 20.426-.295.643-4.956H354.52l.496 4.956z" fill="#F5F5F5"/><path d="M512.078 117.776H322.334v8.332h189.744v-8.332z" fill="#E0E0E0"/><path d="M357.896 417.996c-1.608-1.782 2.183-12.189 20.172-12.926 17.988-.736 25.194 5.814 25.221 12.926.013 3.148-45.393 0-45.393 0z" fill="#455A64"/><path d="M349.015 145.717l-19.984 123.589h182.511l21.993-124.915-184.52 1.326z" fill="#F5F5F5"/><path d="M347.194 156.954c.08-.428 184.252-.696 184.252-.696l2.089-11.867-184.52 1.339-1.821 11.251" fill="#E0E0E0"/><path d="M356.73 151.275a1.695 1.695 0 0 1-1.04 1.581 1.701 1.701 0 1 1-.661-3.269 1.701 1.701 0 0 1 1.202.49 1.689 1.689 0 0 1 .499 1.198zM365.035 151.275a1.686 1.686 0 0 1-2.017 1.655 1.688 1.688 0 1 1 2.017-1.655zM373.353 151.275a1.71 1.71 0 0 1-.28.949 1.707 1.707 0 0 1-1.745.735 1.708 1.708 0 0 1-1.344-1.334 1.708 1.708 0 0 1 .721-1.75c.28-.187.61-.288.947-.288a1.687 1.687 0 0 1 1.701 1.688z" fill="#263238"/><path d="M393.967 212.474l-22.838 26.414a32.422 32.422 0 0 1-14.211-26.347c0-18.364 16.729-33.486 37.049-33.486 20.319 0 37.048 15.109 37.048 33.486l-37.048-.067z" fill="#176DE4"/><path d="M396.9 216.667a3.184 3.184 0 0 1-.388.522l-1.193 1.42-4.527 5.357c-3.938 4.608-9.536 11.118-16.247 18.953v-.428a37.104 37.104 0 0 0 17.011 6.322 39.092 39.092 0 0 0 20.225-3.054 36.576 36.576 0 0 0 15.149-12.229 34.064 34.064 0 0 0 4.139-8.104 33.174 33.174 0 0 0 1.594-8.291l.294.308-26.118-.442-7.34-.16-1.943-.067a3.71 3.71 0 0 1-.683 0 3.29 3.29 0 0 1 .643 0h9.215l26.226.174h.322v.321a32.863 32.863 0 0 1-1.581 8.479 34.401 34.401 0 0 1-4.192 8.278 36.995 36.995 0 0 1-15.497 12.523 39.892 39.892 0 0 1-20.587 3.081 37.719 37.719 0 0 1-17.279-6.51l-.268-.187.215-.255 16.528-18.846 4.621-5.223 1.232-1.34c.125-.213.269-.414.429-.602zM409.718 194.66a2.076 2.076 0 1 0 0-4.153 2.076 2.076 0 0 0 0 4.153z" fill="#263238"/><path d="M453.035 177.394a11.42 11.42 0 0 1-1.955.134l-5.358.107c-4.487 0-10.715.108-17.533.108h-3.268l.241-.094c-4.3 4.286-8.13 8.036-10.903 10.715l-3.282 3.135a6.748 6.748 0 0 1-1.259 1.071 9.594 9.594 0 0 1 1.085-1.246c.817-.87 1.875-1.969 3.134-3.281 2.679-2.773 6.457-6.604 10.716-10.917l.094-.093h3.522c6.845 0 13.046 0 17.534.093l5.357.121a9.979 9.979 0 0 1 1.875.147z" fill="#263238"/><path d="M500.076 203.486c.009-.239.041-.476.094-.709.08-.483.188-1.139.335-1.983l1.339-7.487 4.836-26.869.281.335-51.876.067.335-.282v.603l-.121.616-.228 1.246-.455 2.464c-.308 1.635-.603 3.255-.911 4.863-.589 3.214-1.174 6.375-1.754 9.483-1.166 6.188-2.277 12.055-3.309 17.694l-.321-.375 37.37.147 10.715.094H500.264h-3.737l-10.608.08-37.505.147h-.375l.067-.375c1.032-5.585 2.117-11.519 3.269-17.72.562-3.094 1.151-6.255 1.741-9.47.308-1.621.603-3.241.911-4.876.147-.817.294-1.634.455-2.464l.228-1.232.107-.617.067-.321v-.268l.348-.295 51.876.067h.188l-.067.335a23994.552 23994.552 0 0 0-5.144 26.963c-.629 3.174-1.111 5.666-1.46 7.42l-.388 1.916c-.107.603-.161.817-.161.803zM412.973 236.423a2.076 2.076 0 1 0 0-4.152 2.076 2.076 0 0 0 0 4.152z" fill="#263238"/><path d="M450.665 234.347c0 .201-8.439.348-18.846.348s-18.846-.147-18.846-.348c0-.201 8.439-.348 18.846-.348s18.846.16 18.846.348z" fill="#263238"/><path d="M500.076 250.527a3.04 3.04 0 0 1 .094-.509 284.27 284.27 0 0 1 1.674-6.898c1.166-4.742 2.827-11.506 4.876-19.824l.254.322-53.496.08.334-.254V223.859l-.12.455-.228.884-.442 1.795a332.926 332.926 0 0 0-.897 3.536l-1.902 7.019c-1.152 4.541-2.264 8.934-3.335 13.126l-.308-.402 38.374.148 11.091.08h4.031H496.179l-11.037.081-38.562.147h-.429l.107-.415c1.058-4.193 2.157-8.599 3.295-13.14.572-2.277 1.156-4.585 1.755-6.925l.884-3.536.455-1.782.228-.897.107-.455v-.416l.335-.267 53.497.093h.482l-.081.322c-2.169 8.358-3.924 15.149-5.156 19.904-.616 2.29-1.099 4.098-1.434 5.357-.16.576-.281 1.032-.375 1.34-.093.308-.174.629-.174.616zM495.857 177.863c0 .201-7.943.348-17.747.348-9.805 0-17.748-.147-17.748-.348 0-.201 7.943-.348 17.748-.348 9.804 0 17.747.16 17.747.348zM495.442 183.676c0 .201-8.037.348-17.841.348-9.805 0-17.855-.147-17.855-.348 0-.201 8.037-.348 17.855-.348s17.841.16 17.841.348zM494.41 189.329c0 .187-7.715.348-17.225.348-9.51 0-17.238-.161-17.238-.348 0-.188 7.715-.349 17.238-.349 9.524 0 17.225.108 17.225.349z" fill="#263238"/><path d="M495.027 233.704c0 .187-7.568.348-16.917.348-9.35 0-16.917-.161-16.917-.348 0-.188 7.581-.349 16.917-.349 9.335 0 16.917.175 16.917.349zM492.95 240.133c0 .201-6.456.348-14.425.348-7.97 0-14.426-.147-14.426-.348 0-.201 6.456-.348 14.426-.348 7.969 0 14.425.16 14.425.348z" fill="#263238"/><path d="M277.369 374.706c-.643 3.763-18.511 43.303-6.978 43.303h57.97s-5.987-5.625 12.136-43.303h-63.128z" fill="#455A64"/><path d="M239.865 242.732l-23.694 138.47h199.856l24.512-143.332-200.674 4.862z" fill="#455A64"/><path d="M246.656 249.482l-19.971 123.603h182.498l21.993-124.916-184.52 1.313z" fill="#FAFAFA"/><path d="M440.539 237.87l3.777 2.545-25.449 144.551H221.448l-5.277-3.764h199.856l24.512-143.332z" fill="#263238"/><path d="M244.848 260.733c.067-.442 184.238-.696 184.238-.696l2.09-11.868-184.52 1.34-1.808 11.251" fill="#EBEBEB"/><path d="M380.425 362.115v-.348l.161-1.031c.169-.983.397-2.322.683-4.019.629-3.603 1.513-8.773 2.612-15.189 2.277-12.992 5.451-31.075 9.054-51.595v-.294h15.082l-.067.415c-5.585 30.258-10.474 56.845-13.3 72.128v.161h-.148l-10.501-.107h-3.335 3.496l10.381-.107-.188.147 12.966-72.182.348.402H393.31l.335-.281c-3.71 20.399-6.965 38.361-9.376 51.286-1.179 6.43-2.143 11.613-2.813 15.23-.335 1.754-.589 3.134-.777 4.125-.093.442-.16.804-.214 1.072a2.392 2.392 0 0 1-.04.187zM357.28 362.115a4.97 4.97 0 0 1 .147-.964c.121-.71.295-1.661.509-2.867.482-2.585 1.152-6.242 1.996-10.715 1.754-9.283 4.206-22.195 7.005-36.955v-.281h15.082l-.08.415c-4.233 20.989-8.037 39.647-10.394 51.474v.174h-.175l-10.487-.12h-2.679c-.299.02-.599.02-.898 0h3.778l10.34-.121-.214.174c2.33-11.84 6-30.512 10.126-51.528l.335.416h-14.439l.334-.268a60124.25 60124.25 0 0 1-7.286 36.633c-.924 4.568-1.661 8.238-2.197 10.823l-.602 2.933c0 .308-.134.563-.175.763l-.026.014zM334.041 362.115a2.56 2.56 0 0 1 0-.429l.214-1.339c.201-1.179.482-2.866.857-5.036.777-4.434 1.889-10.823 3.282-18.752 2.839-16.073 6.791-38.321 11.264-63.543v-.281h15.082l-.067.402c-6.992 38.294-13.166 71.659-16.435 88.978v.147h-.147l-10.541-.107H333.987h3.697l10.421-.094-.161.134c3.054-17.412 9.081-50.751 16.073-89.032l.348.416h-14.318l.335-.295a74264.475 74264.475 0 0 1-11.533 63.221c-1.473 7.956-2.679 14.372-3.482 18.819l-.965 5.103c-.107.563-.187 1.005-.254 1.34l-.107.348zM310.842 362.115c.01-.225.037-.449.08-.67.094-.522.201-1.178.335-2.009.308-1.848.75-4.42 1.339-7.621 1.166-6.63 2.786-15.832 4.648-26.467v-.282h15.069l-.081.416c-2.772 14.465-5.264 27.485-7.032 36.687v.201h-.187l-10.448-.134-2.826-.121a7.496 7.496 0 0 1-.924 0H314.659l10.287-.134-.241.188c1.714-9.202 4.139-22.248 6.817-36.728l.349.416h-14.346l.322-.268c-1.983 10.514-3.684 19.609-4.929 26.159-.616 3.215-1.125 5.813-1.487 7.675-.174.844-.308 1.54-.415 2.063a5.684 5.684 0 0 1-.174.629zM287.629 362.115v-.282c0-.187 0-.522.121-.87.134-.817.308-1.942.536-3.389.495-3.014 1.192-7.327 2.062-12.684 1.822-10.903 4.34-26.066 7.22-43.331v-.281h15.082l-.081.415c-4.42 24.954-8.317 47.014-10.715 60.462v.174h-.161l-10.474-.12h-2.746a7.065 7.065 0 0 1-.897 0h3.763l10.354-.108-.201.161 10.421-60.515.348.415H297.97l.335-.281c-2.987 17.144-5.613 32.146-7.501 43.009-.965 5.357-1.728 9.711-2.277 12.751-.268 1.46-.469 2.679-.63 3.442l-.174.911-.094.121zM264.457 362.115a1.49 1.49 0 0 1 0-.389c0-.294.107-.683.188-1.178.187-1.085.442-2.679.776-4.608.684-4.018 1.688-9.898 2.92-17.158 2.545-14.667 6.095-35.08 10.113-58.185v-.281h15.082l-.067.415c-6.242 34.718-11.76 65.07-14.801 81.424v.147h-.147l-10.514-.107h-3.322 3.455l10.408-.107-.174.147c2.839-16.394 8.224-46.772 14.466-81.477l.334.402h-14.345l.335-.282c-4.112 22.985-7.755 43.277-10.367 57.864-1.34 7.286-2.398 13.14-3.148 17.212-.361 2.009-.656 3.562-.857 4.674-.107.509-.174.911-.241 1.219-.067.308-.094.268-.094.268zM254.371 255.054a1.7 1.7 0 1 1-3.4.028 1.7 1.7 0 0 1 3.4-.028zM260.988 256.742a1.688 1.688 0 1 0 0-3.377 1.688 1.688 0 0 0 0 3.377zM270.994 255.054a1.709 1.709 0 0 1-1.044 1.583 1.708 1.708 0 0 1-1.86-.366 1.706 1.706 0 0 1-.367-1.86 1.703 1.703 0 0 1 3.271.643zM241.258 362.115s0-.348.148-1.032c.147-.683.281-1.754.495-3.04.469-2.679 1.125-6.603 1.942-11.412 1.715-9.831 4.086-23.494 6.805-39.085v-.281h15.082l-.081.415c-4.139 22.315-7.822 42.112-10.113 54.488v.175h-.16l-10.488-.121h-2.679a7.287 7.287 0 0 1-.911 0h3.778l10.353-.121-.214.175 9.845-54.529.335.402h-14.413l.335-.281c-2.826 15.47-5.357 29.025-7.072 38.763-.911 4.835-1.634 8.733-2.156 11.466-.241 1.339-.442 2.357-.59 3.107l-.16.817a1.478 1.478 0 0 1-.081.094z" fill="#263238"/><path d="M397.824 307.614H321.37l4.366-25.664h76.99l-4.902 25.664z" fill="#176DE4"/><path d="M321.369 307.613l-1.486 8.961s10.045-9.309 9.885-9.309h-8.332" fill="#176DE4"/><path d="M391.194 290.871c0 .187-12.738.348-28.436.348s-28.45-.161-28.45-.348c0-.188 12.738-.349 28.45-.349 15.711 0 28.436.161 28.436.349zM390.444 297.072c0 .188-12.738.349-28.436.349s-28.45-.161-28.45-.349c0-.187 12.738-.348 28.45-.348 15.711 0 28.436.147 28.436.348z" fill="#FAFAFA"/><path d="M515.493 426.876H297.675v127.099h217.818V426.876z" fill="#263238"/><path d="M396.9 426.876h-99.225v127.099H396.9V426.876z" fill="#455A64"/><path d="M386.747 470.046v-.643-1.848c0-1.648 0-4.018-.067-7.059 0-6.108-.067-14.908-.134-25.757l.255.254-79.817.094c-.308.322.415-.415.348-.335v35.294l-.321-.321 57.207.147 16.595.094H386.827c-.12.013-.241.013-.361 0h-5.505l-16.516.094-57.434.16h-.335v-.335V434.752c-.081 0 .656-.669.348-.361l79.723.053h.254v.241c0 10.917-.107 19.757-.133 25.918 0 3.014 0 5.358-.067 6.992v1.808a4.61 4.61 0 0 1-.054.643z" fill="#263238"/><path d="M350.274 452.392s-.08-.294-.241-.79a3.391 3.391 0 0 0-1.245-1.701 3.137 3.137 0 0 0-2.961-.388 3.082 3.082 0 0 0-1.454 4.643c.359.516.866.91 1.454 1.13a3.219 3.219 0 0 0 2.961-.389 3.391 3.391 0 0 0 1.245-1.701c.161-.495.174-.804.241-.804s.108.308 0 .871a3.44 3.44 0 0 1-1.219 2.023 3.613 3.613 0 0 1-1.655.754 3.609 3.609 0 0 1-1.814-.152 3.694 3.694 0 0 1-2.475-3.489 3.694 3.694 0 0 1 2.475-3.489 3.643 3.643 0 0 1 3.469.589 3.456 3.456 0 0 1 1.219 2.036c.108.563.041.871 0 .857zM386.747 508.916v-.642-1.862c0-1.648 0-4.019-.067-7.046 0-6.121-.067-14.908-.134-25.757l.255.255-79.817.093.348-.348v35.281l-.321-.335 57.207.161 16.595.093H386.426a2.44 2.44 0 0 1 .401 0h-5.866l-16.515.094-57.435.161h-.335v-.335-35.093l.348-.348 79.817.093h.254v.255c0 10.916-.107 19.756-.134 25.904 0 3.014 0 5.358-.067 7.006v1.795a4.75 4.75 0 0 1-.147.575z" fill="#263238"/><path d="M350.274 491.263s-.08-.308-.241-.804a3.391 3.391 0 0 0-1.245-1.701 3.22 3.22 0 0 0-2.961-.388 3.082 3.082 0 0 0-1.454 4.643c.359.516.866.91 1.454 1.13a3.192 3.192 0 0 0 1.527.182 3.19 3.19 0 0 0 1.434-.557 3.363 3.363 0 0 0 1.245-1.715c.161-.495.174-.79.241-.79s.108.308 0 .857a3.428 3.428 0 0 1-1.219 2.036 3.593 3.593 0 0 1-3.469.589 3.694 3.694 0 0 1-2.475-3.489 3.694 3.694 0 0 1 2.475-3.489 3.598 3.598 0 0 1 3.469.603 3.428 3.428 0 0 1 1.219 2.036c.108.549.041.857 0 .857zM386.747 547.773v-.643-1.848c0-1.648 0-4.018-.067-7.059 0-6.108-.067-14.908-.134-25.757l.255.254-79.817.094c-.308.322.415-.415.348-.335v35.294l-.321-.321 57.207.147 16.595.094H386.827c-.12.013-.241.013-.361 0h-5.505l-16.516.08-57.434.161h-.335v-.335-35.12c-.081.067.656-.669.348-.361l79.817.107h.254v.241c0 10.916-.107 19.77-.134 25.918 0 3.014 0 5.358-.067 6.992v1.808a4.41 4.41 0 0 1-.147.589z" fill="#263238"/><path d="M350.274 530.119s-.08-.294-.241-.79a3.391 3.391 0 0 0-1.245-1.701 3.174 3.174 0 0 0-2.961-.388 3.082 3.082 0 0 0-1.454 4.643c.359.516.866.91 1.454 1.13a3.173 3.173 0 0 0 2.961-.389 3.391 3.391 0 0 0 1.245-1.701c.161-.495.174-.804.241-.804s.108.309 0 .871a3.49 3.49 0 0 1-1.219 2.036 3.643 3.643 0 0 1-3.469.589 3.694 3.694 0 0 1-2.475-3.489 3.694 3.694 0 0 1 2.475-3.489 3.643 3.643 0 0 1 3.469.589 3.456 3.456 0 0 1 1.219 2.036c.108.563.041.871 0 .857zM190.253 426.876H7.032v127.099h183.221V426.876z" fill="#263238"/><path d="M523.382 418.009H0v12.082h523.382v-12.082z" fill="#263238"/><path d="M23.266 430.091H7.032v123.884h16.234V430.091z" fill="#455A64"/><path d="M210.518 226.833a12.337 12.337 0 0 1-.227-1.541 10.99 10.99 0 0 0-1.34-3.911 4.57 4.57 0 0 0-1.955-1.875 2.562 2.562 0 0 0-2.8.522 10.84 10.84 0 0 0 0 13.596 2.555 2.555 0 0 0 2.8.535 4.676 4.676 0 0 0 1.955-1.888 10.99 10.99 0 0 0 1.34-3.911c.042-.514.118-1.024.227-1.527a4.737 4.737 0 0 1 0 1.567 10.123 10.123 0 0 1-1.165 4.125 5.14 5.14 0 0 1-2.157 2.157 2.97 2.97 0 0 1-1.754.254 3.676 3.676 0 0 1-1.688-.817 11.25 11.25 0 0 1 0-14.573 3.58 3.58 0 0 1 1.688-.83 3.077 3.077 0 0 1 1.754.254 5.14 5.14 0 0 1 2.157 2.157 10.115 10.115 0 0 1 1.165 4.139 4.79 4.79 0 0 1 0 1.567z" fill="#263238"/><path d="M152.695 200.647l-4.018 80.259 34.477 3.241 1.902-19.489s12.055 3.001 15.805-8.21c2.344-7.166 4.433-63.275 4.433-63.275l-52.599 7.474z" fill="#FFBE9D"/><path d="M212.621 201.451c-2.933 6.978-13.997 12.965-13.997 12.965l-1.808 17.774a36.08 36.08 0 0 0-4.943 0c.884-8.344-9.844-6.697-10.943-1.031-1.045 5.465 5.184 9.122 5.184 9.122-4.3 6.59-6.041 10.072-12.149 16.247-6.59 6.697-10.139 7.233-16.957 7.032l-7.514-.348s-2.679-6.416-4.621-21.565c-.951-7.287-6.697-16.837-5.023-28.691 4.608-33.66 41.857-27.686 41.857-27.686 13.984-10.876 37.826-.228 30.914 16.181z" fill="#263238"/><path d="M210.518 226.927c-2.543.49-5.125.741-7.715.75a43.9 43.9 0 0 1-7.742 0 41.99 41.99 0 0 1 7.702-.737 44.633 44.633 0 0 1 7.755-.013z" fill="#263238"/><path d="M320.352 321.209l-12.524 7.755-4.594 10.716v-9.377s3.402-4.018 6.188-6.951c2.786-2.933.79-4.969 0-5.974s-12.778 12.925-12.778 12.925v8.037c-5.586-6.871-8.171-4.514-9.028-3.268-.857 1.246 9.028 10.568 9.028 10.568v2.84l-49.117 26.413-12.926-32.146-26.4 13.863 15.765 38.16a19.911 19.911 0 0 0 12.09 11.298 19.894 19.894 0 0 0 16.453-1.748l57.797-34.168 3.844-6.416a16.167 16.167 0 0 0 2.29-7.287l1.996-28.865c3.509-2.196 1.916-6.375 1.916-6.375z" fill="#FFBE9D"/><path d="M247.768 374.934a68.69 68.69 0 0 1-4.849 13.099 71.17 71.17 0 0 1 4.849-13.099zM318.436 327.584c-.74.381-1.5.721-2.277 1.018a7.196 7.196 0 0 0-3.764 4.287 53.177 53.177 0 0 1-3.643 7.809 53.883 53.883 0 0 1 3-8.037 8.188 8.188 0 0 1 1.822-2.933 8.027 8.027 0 0 1 2.371-1.527 5.678 5.678 0 0 1 2.491-.617zM318.249 332.152a1.461 1.461 0 0 0-1.059.697c-.388.75-.884 1.928-1.339 3.187a45.88 45.88 0 0 1-1.768 4.689c.002-1.71.382-3.398 1.112-4.943a16.904 16.904 0 0 1 1.647-3.215 1.43 1.43 0 0 1 1.045-.589c.254 0 .375.134.362.174z" fill="#EB996E"/><path d="M200.312 351.721l5.612 19.007 35.615-16.073c-1.339-4.019-7.179-21.712-18.444-49.84a48.412 48.412 0 0 0-36.928-29.763c-11.653-1.942-24.337-3.455-34.102-3.335a42.34 42.34 0 0 0-41.093 33.888c-3.014 14.934 2.263 24.806-1.139 57.488l-1.085 82.201 95.1 3.496-3.536-97.069z" fill="#176DE4"/><path d="M114.253 362.222s-13.22.777-18.417-9.228c0 0 14.238-52.64 19.208-58.842l-.791 68.07z" fill="#176DE4"/><path d="M224.89 310.119c-.34.263-.72.471-1.125.616a11.447 11.447 0 0 1-3.63.683 23.924 23.924 0 0 1-5.773-.737c-2.196-.495-4.647-1.232-7.393-1.687a32.045 32.045 0 0 0-4.313-.228 27.795 27.795 0 0 0-4.621.763 39.857 39.857 0 0 0-9.604 4.019c-3.255 1.768-6.563 3.857-10.086 5.92a52.936 52.936 0 0 1-11.532 5.358 22.779 22.779 0 0 1-12.792.201 32.626 32.626 0 0 1-10.461-5.666c-2.987-2.317-5.585-4.755-8.036-6.979a68.954 68.954 0 0 0-7.099-5.786 27.512 27.512 0 0 0-12.055-5.117 43.576 43.576 0 0 0-4.849 0c.395-.16.809-.268 1.232-.321a16.636 16.636 0 0 1 3.67-.174 26.676 26.676 0 0 1 12.511 4.849 64.34 64.34 0 0 1 7.313 5.746c2.491 2.196 5.116 4.581 8.036 6.804a31.748 31.748 0 0 0 10.06 5.358 21.665 21.665 0 0 0 12.054-.228 53.329 53.329 0 0 0 11.238-5.184c3.496-2.022 6.831-4.112 10.153-5.88a40.507 40.507 0 0 1 9.952-4.018 28.252 28.252 0 0 1 4.849-.723c1.511.016 3.018.132 4.514.348 2.839.536 5.264 1.339 7.42 1.902 1.82.525 3.694.839 5.586.938a15.66 15.66 0 0 0 4.781-.777zM200.941 375.71a16.705 16.705 0 0 0-5.907-2.143 19.862 19.862 0 0 0-6.804.375c-2.545.509-5.291 1.434-8.304 2.184a33.49 33.49 0 0 1-15.792.214c-4.019-.938-6.175-2.21-6.108-2.344.067-.134 2.397.71 6.309 1.339a36.953 36.953 0 0 0 15.256-.602c2.933-.737 5.733-1.635 8.398-2.103a19.234 19.234 0 0 1 7.206-.081 11.47 11.47 0 0 1 4.501 1.849c.937.736 1.312 1.259 1.245 1.312zM201.906 424.787s-.362.603-1.259 1.447a19.545 19.545 0 0 1-4.313 2.987 17.183 17.183 0 0 1-7.595 1.929 25.212 25.212 0 0 1-9.376-2.09c-3.121-1.219-5.974-2.585-8.666-3.349a20.647 20.647 0 0 0-7.353-.857c-1.659.1-3.276.557-4.742 1.34-1.045.576-1.527 1.044-1.621.951-.093-.094.322-.657 1.34-1.34a10.531 10.531 0 0 1 4.929-1.929c2.613-.305 5.26-.1 7.795.603a85.085 85.085 0 0 1 8.841 3.295 25.507 25.507 0 0 0 8.826 2.103c2.472.01 4.917-.515 7.166-1.54 3.952-1.782 5.894-3.751 6.028-3.55z" fill="#263238"/><path opacity=".3" d="M98.77 363.146c12.456 2.545 25.248 0 37.932-.776 7.702-.456 16.234-1.34 22.315 3.442 4.822 3.75 6.697 10.059 8.157 16.006 5.358 22.69 6.282 42.956 7.474 66.221l-61.614-1.339-14.265-83.554zM115.044 320.432l2.665 38.415h-8.117l5.452-38.415z" fill="#000"/><path d="M132.349 445.24l122.29 4.327a36.456 36.456 0 0 1 35.174 37.021l-1.072 69.396h-44.844l-2.893-59.832-108.655-2.866V445.24z" fill="#263238"/><path d="M173.362 508.689h-12.028v44.027h12.028v-44.027zM60.408 368.812v106.083a25.195 25.195 0 0 0 25.195 25.181h70.642V368.812a11.239 11.239 0 0 0-11.238-11.224H71.633a11.224 11.224 0 0 0-11.225 11.224z" fill="#455A64"/><path d="M251.317 508.689H79.281a18.754 18.754 0 0 1 18.752-18.671h134.68a18.67 18.67 0 0 1 18.671 18.671h-.067z" fill="#455A64"/><path d="M156.245 487.539a9.848 9.848 0 0 1-.268 3.121 12.705 12.705 0 0 1-10.059 9.51 17.972 17.972 0 0 1-3.309.228H95.555l-8.505-.107h-2.318c-.27.008-.54-.019-.803-.081.266-.043.534-.065.803-.067l2.318-.067 8.505-.12 28.128-.134h18.926a16.712 16.712 0 0 0 3.215-.188 12.049 12.049 0 0 0 5.183-2.237 12.56 12.56 0 0 0 4.648-6.777c.563-1.956.496-3.094.59-3.081zM177.89 509.051a78.283 78.283 0 0 1-10.542.348 78.46 78.46 0 0 1-10.554-.348 81.022 81.022 0 0 1 10.554-.348 81.014 81.014 0 0 1 10.542.348z" fill="#263238"/><path d="M230.235 501.014a5.154 5.154 0 0 1-.322-1.339c-.174-.871-.402-2.13-.67-3.764a675.228 675.228 0 0 1-2.196-13.877c-.482-2.92-.871-6.175-1.514-9.563-.174-.844-.335-1.701-.509-2.585-.174-.884-.509-1.715-.763-2.599-.134-.429-.255-.884-.389-1.339-.134-.456-.335-.871-.509-1.34-.361-.884-.683-1.781-1.071-2.679a48.714 48.714 0 0 0-6.403-10.246 46.153 46.153 0 0 0-9.63-8.68 43.023 43.023 0 0 0-11.68-5.625 43.88 43.88 0 0 0-11.908-2.036c-7.795-.174-14.894-.134-20.814-.215-5.921-.08-10.716-.147-14.038-.227-1.66 0-2.946-.081-3.83-.134a5.25 5.25 0 0 1-1.34-.134 4.766 4.766 0 0 1 1.34-.148l3.83-.133c3.309-.081 8.117-.148 14.038-.215 5.92-.067 12.979-.187 20.855-.08 4.169.089 8.304.77 12.282 2.022a43.085 43.085 0 0 1 12.055 5.773 46.178 46.178 0 0 1 9.912 8.961 49.567 49.567 0 0 1 6.523 10.595c.388.911.71 1.848 1.071 2.746.161.455.335.897.509 1.339.175.442.255.911.389 1.34.254.91.495 1.795.737 2.679.241.884.334 1.781.495 2.678.603 3.47.924 6.698 1.34 9.617.763 5.881 1.339 10.649 1.754 13.944.188 1.647.335 2.933.415 3.804.087.482.101.974.041 1.46z" fill="#455A64"/><path d="M13.14 372.643s-2.17 6.067 1.982 10.461h8.64s-.764-9.805-10.622-10.461z" fill="#176DE4"/><path opacity=".4" d="M13.14 372.643s-2.17 6.067 1.982 10.461h8.64s-.764-9.805-10.622-10.461z" fill="#000"/><path d="M27.86 360.146c-.361-.429-7.755 11.144-3.603 22.958h8.144s3.188-13.743-4.54-22.958z" fill="#176DE4"/><path d="M42.286 372.643a10.593 10.593 0 0 0-9.885 10.461h8.13s3.563-5.01 1.755-10.461z" fill="#176DE4"/><path d="M14.453 382.648a18.261 18.261 0 0 0-7.314 18.11c2.09 12.054 14.814 17.251 14.814 17.251h14.104s14.36-6.335 14.01-19.368c-.347-13.032-8.893-15.805-8.893-15.805l-26.721-.188z" fill="#455A64"/><path d="M50.014 397.181a6.803 6.803 0 0 0-1.165-1.46 6.345 6.345 0 0 0-4.701-1.339 17.003 17.003 0 0 0-6.898 3 24.108 24.108 0 0 1-4.112 2.103 9.566 9.566 0 0 1-4.97.495c-3.442-.589-6.188-2.437-8.76-3.67a12.93 12.93 0 0 0-7.233-1.741 6.859 6.859 0 0 0-4.393 2.237 8.495 8.495 0 0 0-.964 1.607c.009-.168.04-.335.094-.495.138-.482.36-.935.656-1.34a6.902 6.902 0 0 1 4.54-2.545c2.66-.233 5.326.361 7.635 1.701 2.68 1.233 5.358 3.014 8.586 3.55a8.883 8.883 0 0 0 4.634-.442 23.691 23.691 0 0 0 4.019-2.023 17.05 17.05 0 0 1 7.18-2.933 6.438 6.438 0 0 1 4.943 1.634c.344.34.626.739.829 1.179.067.308.107.469.08.482z" fill="#263238"/><path d="M50.215 400.329a7.338 7.338 0 0 0-1.152-1.447 6.156 6.156 0 0 0-4.66-1.339 16.827 16.827 0 0 0-6.819 2.987 23.005 23.005 0 0 1-4.018 2.116 9.384 9.384 0 0 1-4.929.496c-3.416-.59-6.135-2.438-8.68-3.67a12.624 12.624 0 0 0-7.139-1.742 6.807 6.807 0 0 0-4.353 2.251 7.86 7.86 0 0 0-.937 1.593s0-.174.08-.495c.145-.456.362-.885.643-1.273a6.86 6.86 0 0 1 4.487-2.558 12.752 12.752 0 0 1 7.514 1.648c2.599 1.232 5.358 3.013 8.492 3.549a8.673 8.673 0 0 0 4.581-.442 22.795 22.795 0 0 0 3.951-2.022 16.747 16.747 0 0 1 7.113-2.934 6.309 6.309 0 0 1 4.822 1.634c.34.337.616.732.817 1.166.089.149.152.312.187.482z" fill="#263238"/><path d="M13.609 400.249c0-.081.375-.322.87.08a.978.978 0 0 1 .282 1.071 1.124 1.124 0 0 1-2.157-.133 1.046 1.046 0 0 1 .308-1.032c.482-.402.898-.214.87-.134-.026.081-.294.148-.495.469a.55.55 0 0 0 0 .522.602.602 0 0 0 .456.362.566.566 0 0 0 .482-.295.48.48 0 0 0 0-.495c-.295-.308-.603-.322-.616-.415zM29.588 395.159c0-.081.375-.335.884.08a1.004 1.004 0 0 1 .268 1.072 1.155 1.155 0 0 1-1.125.75 1.181 1.181 0 0 1-1.031-.884 1.018 1.018 0 0 1 .321-1.032c.482-.402.897-.214.857-.134-.04.081-.294.148-.495.469a.59.59 0 0 0 0 .523.606.606 0 0 0 .455.361.557.557 0 0 0 .482-.294.473.473 0 0 0 0-.496c-.294-.308-.602-.322-.616-.415zM45.085 400.476c0-.08.375-.321.884.08a1.008 1.008 0 0 1 .268 1.072 1.153 1.153 0 0 1-1.125.75 1.176 1.176 0 0 1-1.031-.871 1.043 1.043 0 0 1 .321-1.044c.482-.402.898-.215.857-.134-.04.08-.294.16-.495.469a.559.559 0 0 0 .122.776c.078.058.17.095.266.108a.569.569 0 0 0 .483-.295.468.468 0 0 0 0-.496c-.228-.294-.523-.321-.55-.415z" fill="#263238"/><path d="M452.808 370.353l4.594 47.656h23.226l5.558-47.656h-33.378z" fill="#455A64"/><path d="M452.808 364.191a9.95 9.95 0 0 0-2.184 6.295h37.746a7.054 7.054 0 0 0-2.184-6.295h-33.378z" fill="#263238"/><path d="M457.107 359.825l-1.272 4.714 28.49.215-1.889-4.983-25.329.054z" fill="#263238"/><path d="M452.379 382.287c0 .442 2.679 24.029 2.679 24.029h28.383l2.678-23.989-33.74-.04z" fill="#176DE4"/></svg>