<svg width="145" height="41" viewBox="0 0 145 41" fill="none" xmlns="http://www.w3.org/2000/svg"><path d="M51.112 12.912h10.56v1.656h-8.616v5.928h8.136v1.656h-8.136V30h-1.944V12.912zm13.283 5.016h1.944V30h-1.944V17.928zm2.184-5.112v2.208h-2.376v-2.208h2.376zm9.56 4.824c2.895 0 4.343 1.592 4.343 4.776V30h-1.944v-7.488c0-1.12-.224-1.936-.672-2.448-.448-.528-1.152-.792-2.112-.792-1.12 0-2.016.344-2.688 1.032-.672.688-1.008 1.616-1.008 2.784V30h-1.944v-8.688a27.04 27.04 0 0 0-.192-3.384h1.848l.192 2.16a3.932 3.932 0 0 1 1.656-1.8c.736-.432 1.576-.648 2.52-.648zm24.406-4.728V30h-1.824V17.304L93.177 30h-1.392l-5.592-12.6.024 12.6h-1.824V12.912h1.632l6.48 14.736 6.408-14.736h1.632zm3.975 5.016h1.944V30h-1.944V17.928zm2.184-5.112v2.208h-2.376v-2.208h2.376zm9.559 4.824c2.896 0 4.344 1.592 4.344 4.776V30h-1.944v-7.488c0-1.12-.224-1.936-.672-2.448-.448-.528-1.152-.792-2.112-.792-1.12 0-2.016.344-2.688 1.032-.672.688-1.008 1.616-1.008 2.784V30h-1.944v-8.688a27.04 27.04 0 0 0-.192-3.384h1.848l.192 2.16a3.932 3.932 0 0 1 1.656-1.8c.736-.432 1.576-.648 2.52-.648zm18.647-5.304V30h-1.92v-2.184a3.876 3.876 0 0 1-1.608 1.752c-.704.4-1.528.6-2.472.6-1.056 0-1.992-.264-2.808-.792-.8-.528-1.424-1.264-1.872-2.208-.448-.96-.672-2.064-.672-3.312 0-1.248.216-2.336.648-3.264.448-.944 1.08-1.672 1.896-2.184.816-.512 1.752-.768 2.808-.768.944 0 1.768.208 2.472.624a3.8 3.8 0 0 1 1.584 1.704v-7.632h1.944zm-5.616 16.224c1.184 0 2.096-.4 2.736-1.2.64-.816.96-1.968.96-3.456 0-1.472-.32-2.608-.96-3.408-.64-.816-1.552-1.224-2.736-1.224-1.184 0-2.112.4-2.784 1.2-.656.8-.984 1.928-.984 3.384 0 1.488.328 2.648.984 3.48.672.816 1.6 1.224 2.784 1.224z" fill="#1F1534"/><circle cx="20.5" cy="20.5" r="20.5" fill="#458FF6"/></svg>