<svg width="145" height="41" viewBox="0 0 145 41" fill="none" xmlns="http://www.w3.org/2000/svg">
<path d="M50.848 12.912H62.008V15.384H53.92V20.064H61.528V22.56H53.92V30H50.848V12.912ZM64.3664 17.88H67.3424V30H64.3664V17.88ZM67.5104 12.384V15.336H64.1744V12.384H67.5104ZM77.5602 17.568C80.4562 17.568 81.9042 19.232 81.9042 22.56V30H78.9042V22.704C78.9042 21.744 78.7202 21.048 78.3522 20.616C77.9842 20.168 77.4162 19.944 76.6482 19.944C75.7362 19.944 75.0002 20.24 74.4402 20.832C73.8802 21.408 73.6002 22.176 73.6002 23.136V30H70.6242V21.312C70.6242 20.032 70.5602 18.888 70.4322 17.88H73.2402L73.4562 19.872C73.8722 19.136 74.4322 18.568 75.1362 18.168C75.8562 17.768 76.6642 17.568 77.5602 17.568ZM101.957 12.912V30H99.2211V19.392L94.6851 30H92.6451L88.0851 19.512V30H85.3491V12.912H87.7971L93.6771 26.28L99.5091 12.912H101.957ZM105.476 17.88H108.452V30H105.476V17.88ZM108.62 12.384V15.336H105.284V12.384H108.62ZM118.67 17.568C121.566 17.568 123.014 19.232 123.014 22.56V30H120.014V22.704C120.014 21.744 119.83 21.048 119.462 20.616C119.094 20.168 118.526 19.944 117.758 19.944C116.846 19.944 116.11 20.24 115.55 20.832C114.99 21.408 114.71 22.176 114.71 23.136V30H111.734V21.312C111.734 20.032 111.67 18.888 111.542 17.88H114.35L114.566 19.872C114.982 19.136 115.542 18.568 116.246 18.168C116.966 17.768 117.774 17.568 118.67 17.568ZM137.786 12.336V30H134.835V28.056C134.467 28.728 133.939 29.256 133.251 29.64C132.563 30.008 131.779 30.192 130.898 30.192C129.859 30.192 128.931 29.928 128.115 29.4C127.299 28.872 126.659 28.128 126.195 27.168C125.747 26.192 125.523 25.08 125.523 23.832C125.523 22.584 125.747 21.488 126.195 20.544C126.643 19.6 127.275 18.872 128.09 18.36C128.907 17.832 129.843 17.568 130.898 17.568C131.763 17.568 132.531 17.752 133.203 18.12C133.891 18.472 134.419 18.976 134.787 19.632V12.336H137.786ZM131.691 27.84C132.683 27.84 133.451 27.496 133.995 26.808C134.555 26.12 134.835 25.144 134.835 23.88C134.835 22.616 134.563 21.64 134.019 20.952C133.475 20.264 132.707 19.92 131.715 19.92C130.707 19.92 129.923 20.264 129.363 20.952C128.819 21.624 128.547 22.584 128.547 23.832C128.547 25.096 128.819 26.08 129.363 26.784C129.923 27.488 130.699 27.84 131.691 27.84Z" fill="#1F1534"/>
<circle cx="20.5" cy="20.5" r="20.5" fill="#458FF6"/>
</svg>
