<svg width="114" height="32" viewBox="0 0 114 32" fill="none" xmlns="http://www.w3.org/2000/svg"><path d="M47.386 9.184h8.37v1.854H49.69v3.51h5.706v1.872H49.69V22h-2.304V9.184zm10.139 3.726h2.232V22h-2.232v-9.09zm2.358-4.122v2.214H57.38V8.788h2.502zm7.537 3.888c2.172 0 3.258 1.248 3.258 3.744V22h-2.25v-5.472c0-.72-.138-1.242-.414-1.566-.276-.336-.702-.504-1.278-.504-.684 0-1.236.222-1.656.666-.42.432-.63 1.008-.63 1.728V22h-2.232v-6.516c0-.96-.048-1.818-.144-2.574h2.106l.162 1.494a3.308 3.308 0 0 1 1.26-1.278 3.68 3.68 0 0 1 1.818-.45zm18.298-3.492V22h-2.052v-7.956L80.264 22h-1.53l-3.42-7.866V22h-2.052V9.184h1.836l4.41 10.026 4.374-10.026h1.836zm2.639 3.726h2.232V22h-2.232v-9.09zm2.358-4.122v2.214h-2.502V8.788h2.502zm7.537 3.888c2.172 0 3.258 1.248 3.258 3.744V22h-2.25v-5.472c0-.72-.138-1.242-.414-1.566-.276-.336-.702-.504-1.278-.504-.684 0-1.236.222-1.656.666-.42.432-.63 1.008-.63 1.728V22H93.05v-6.516c0-.96-.048-1.818-.144-2.574h2.106l.162 1.494a3.308 3.308 0 0 1 1.26-1.278 3.68 3.68 0 0 1 1.818-.45zm14.338-3.924V22h-2.214v-1.458c-.276.504-.672.9-1.188 1.188-.516.276-1.104.414-1.764.414-.78 0-1.476-.198-2.088-.594-.612-.396-1.092-.954-1.44-1.674-.336-.732-.504-1.566-.504-2.502 0-.936.168-1.758.504-2.466.336-.708.81-1.254 1.422-1.638.612-.396 1.314-.594 2.106-.594.648 0 1.224.138 1.728.414.516.264.912.642 1.188 1.134V8.752h2.25zm-4.572 11.628c.744 0 1.32-.258 1.728-.774.42-.516.63-1.248.63-2.196 0-.948-.204-1.68-.612-2.196-.408-.516-.984-.774-1.728-.774-.756 0-1.344.258-1.764.774-.408.504-.612 1.224-.612 2.16 0 .948.204 1.686.612 2.214.42.528 1.002.792 1.746.792z" fill="#1F1534"/><circle cx="16" cy="16" r="16" fill="#458FF6"/></svg>