<svg width="20" height="20" viewBox="0 0 20 20" fill="none" xmlns="http://www.w3.org/2000/svg">
<path opacity="0.1" d="M10 0C4.47715 0 0 4.47715 0 10C0 15.5228 4.47715 20 10 20C15.5228 20 20 15.5228 20 10C19.9936 4.47982 15.5202 0.00642897 10 0Z" fill="white"/>
<path d="M13.8708 7.86315L9.89133 12.7867C9.79642 12.9015 9.6549 12.9767 9.49857 12.9954C9.34223 13.0142 9.18419 12.9748 9.05997 12.8863L6.21821 10.8149C5.96744 10.632 5.92684 10.2983 6.12751 10.0697C6.32819 9.84107 6.69416 9.80405 6.94493 9.98701L9.31461 11.7155L12.9348 7.23611C13.0535 7.0737 13.2605 6.98391 13.4737 7.00239C13.6868 7.02086 13.8715 7.14461 13.9545 7.32451C14.0375 7.50441 14.0054 7.71134 13.8708 7.86315Z" fill="white"/>
</svg>
