<svg width="25" height="25" viewBox="0 0 25 25" fill="none" xmlns="http://www.w3.org/2000/svg">
<path d="M11.0386 20.4659C16.0091 20.4659 20.0386 16.4365 20.0386 11.4659C20.0386 6.49538 16.0091 2.46594 11.0386 2.46594C6.06801 2.46594 2.03857 6.49538 2.03857 11.4659C2.03857 16.4365 6.06801 20.4659 11.0386 20.4659Z" stroke="#458FF6" stroke-width="1.2" stroke-linecap="round" stroke-linejoin="round"/>
<path d="M8.41943 8.766C8.63103 8.1645 9.04867 7.6573 9.59839 7.33422C10.1481 7.01115 10.7944 6.89305 11.4229 7.00084C12.0513 7.10864 12.6214 7.43538 13.032 7.92318C13.4426 8.41098 13.6674 9.02837 13.6664 9.666C13.6664 11.466 10.9664 12.366 10.9664 12.366" stroke="#458FF6" stroke-width="1.2" stroke-linecap="round" stroke-linejoin="round"/>
<path d="M11.0391 15.9659H11.0481" stroke="#458FF6" stroke-width="1.2" stroke-linecap="round" stroke-linejoin="round"/>
</svg>
