<svg width="17" height="16" viewBox="0 0 17 16" fill="none" xmlns="http://www.w3.org/2000/svg">
<path fill-rule="evenodd" clip-rule="evenodd" d="M11.8332 5.66667H12.4998C13.2332 5.66667 13.8332 6.26667 13.8332 7V13.6667C13.8332 14.4 13.2332 15 12.4998 15H4.49984C3.7665 15 3.1665 14.4 3.1665 13.6667V7C3.1665 6.26667 3.7665 5.66667 4.49984 5.66667H5.1665V4.33333C5.1665 2.49333 6.65984 1 8.49984 1C10.3398 1 11.8332 2.49333 11.8332 4.33333V5.66667ZM8.49981 2.33334C7.39315 2.33334 6.49981 3.22668 6.49981 4.33334V5.66668H10.4998V4.33334C10.4998 3.22668 9.60648 2.33334 8.49981 2.33334ZM4.49981 13.6667V7H12.4998V13.6667H4.49981ZM9.83317 10.3333C9.83317 11.0667 9.23317 11.6667 8.49984 11.6667C7.7665 11.6667 7.1665 11.0667 7.1665 10.3333C7.1665 9.6 7.7665 9 8.49984 9C9.23317 9 9.83317 9.6 9.83317 10.3333Z" fill="#1F1534" fill-opacity="0.5"/>
</svg>
