<svg width="534" height="556" viewBox="0 0 534 556" fill="none" xmlns="http://www.w3.org/2000/svg">
<path d="M263.198 13.7426H49.0097V282.874H263.198V13.7426Z" fill="#E0E0E0"/>
<path d="M256.729 21.4444H56.8454V275.186H256.729V21.4444Z" fill="#FAFAFA"/>
<path d="M56.8454 208.228H97.0551L102.225 231.896H119.678L134.546 164.603H184.292V118.714H220.484V195.383H256.729V275.199H56.8454V208.228Z" fill="#F5F5F5"/>
<path d="M159.968 21.4444H153.512V273.096H159.968V21.4444Z" fill="#E0E0E0"/>
<path d="M256.729 144.377H56.8454V150.994H256.729V144.377Z" fill="#E0E0E0"/>
<path d="M466.631 85.4959L479.489 118.379L471.493 118.352L465.09 98.1401L466.631 85.4959Z" fill="#E0E0E0"/>
<path d="M422.737 55.1043L418.317 118.124L463.938 119.075L469.068 55.1043H422.737Z" fill="#EBEBEB"/>
<path d="M427.292 60.1807L423.621 112.633L457.536 114.227L462.277 59.8726L427.292 60.1807Z" fill="#FAFAFA"/>
<path d="M434.739 67.6011L431.98 104.462H450.691L454 67.6011H434.739Z" fill="#E0E0E0"/>
<path d="M354.976 118.62V66.7975H392.922V118.58L354.976 118.62Z" fill="#EBEBEB"/>
<path d="M376.554 66.7975C376.554 66.7975 385.702 -0.0936616 383.144 9.84744e-05C380.586 0.0938586 374.143 60.9843 374.143 60.9843C374.143 60.9843 373.875 10.5548 371.464 10.8227C369.053 11.0906 371.464 64.2124 371.464 64.2124C371.464 64.2124 367.339 21.0961 365.115 22.1275C362.892 23.1588 366.066 66.7975 366.066 66.7975H376.567" fill="#E0E0E0"/>
<path d="M369.656 66.7975C369.656 66.7975 372.83 33.4591 373.875 35.7361C374.92 38.0131 373.875 55.5865 373.875 55.5865C373.875 55.5865 382.729 12.5238 384.966 13.957C387.202 15.3902 376.032 60.7433 376.032 60.7433C376.032 60.7433 384.604 34.8789 386.493 37.6113C388.381 40.3437 379.38 64.6008 379.38 64.6008C379.38 64.6008 388.582 47.4427 389.212 49.7465C389.841 52.0504 384.818 66.8109 384.818 66.8109L369.656 66.7975Z" fill="#EBEBEB"/>
<path d="M364.245 66.9984C364.245 66.9984 343.966 27.1771 346.47 28.4094C348.975 29.6417 361.954 55.3855 361.954 55.3855C361.954 55.3855 353.368 30.5525 355.257 29.789C357.146 29.0255 366.548 57.6893 366.548 57.6893L368.665 67.0654L364.245 66.9984Z" fill="#EBEBEB"/>
<path d="M372.549 66.8912L373.5 118.7H355.458L355.11 66.7171L372.549 66.8912Z" fill="#E0E0E0"/>
<path d="M355.016 71.3783L372.495 71.673L392.922 71.3783L393.565 66.4224H354.52L355.016 71.3783Z" fill="#F5F5F5"/>
<path d="M512.078 117.776H322.334V126.107H512.078V117.776Z" fill="#E0E0E0"/>
<path d="M357.896 417.996C356.288 416.215 360.079 405.807 378.067 405.071C396.056 404.334 403.262 410.884 403.289 417.996C403.302 421.144 357.896 417.996 357.896 417.996Z" fill="#455A64"/>
<path d="M349.015 145.717L329.031 269.306H511.542L533.535 144.391L349.015 145.717Z" fill="#F5F5F5"/>
<path d="M347.194 156.955C347.274 156.526 531.446 156.258 531.446 156.258L533.535 144.391L349.015 145.73L347.194 156.981" fill="#E0E0E0"/>
<path d="M356.73 151.275C356.733 151.612 356.636 151.943 356.45 152.224C356.265 152.506 356 152.726 355.69 152.856C355.379 152.987 355.037 153.023 354.706 152.959C354.375 152.895 354.071 152.734 353.831 152.496C353.592 152.259 353.429 151.956 353.362 151.626C353.295 151.295 353.328 150.952 353.456 150.641C353.585 150.329 353.803 150.063 354.083 149.875C354.363 149.688 354.692 149.588 355.029 149.588C355.252 149.586 355.473 149.628 355.679 149.712C355.886 149.796 356.073 149.92 356.231 150.077C356.39 150.234 356.515 150.421 356.601 150.626C356.686 150.832 356.73 151.053 356.73 151.275Z" fill="#263238"/>
<path d="M365.035 151.275C365.035 151.609 364.936 151.935 364.75 152.213C364.565 152.491 364.301 152.707 363.993 152.835C363.685 152.962 363.345 152.996 363.018 152.931C362.691 152.865 362.39 152.705 362.154 152.469C361.918 152.233 361.757 151.932 361.692 151.605C361.627 151.277 361.66 150.938 361.788 150.629C361.916 150.321 362.132 150.058 362.41 149.872C362.687 149.687 363.013 149.588 363.347 149.588C363.795 149.588 364.224 149.765 364.541 150.082C364.857 150.398 365.035 150.828 365.035 151.275Z" fill="#263238"/>
<path d="M373.353 151.275C373.355 151.612 373.258 151.943 373.073 152.224C372.887 152.506 372.623 152.726 372.312 152.856C372.001 152.987 371.659 153.023 371.328 152.959C370.997 152.895 370.693 152.734 370.454 152.496C370.214 152.259 370.051 151.956 369.984 151.626C369.918 151.295 369.95 150.952 370.079 150.641C370.207 150.329 370.425 150.063 370.705 149.875C370.985 149.688 371.315 149.588 371.652 149.588C371.874 149.586 372.095 149.628 372.302 149.712C372.508 149.796 372.696 149.92 372.854 150.077C373.012 150.234 373.137 150.421 373.223 150.626C373.309 150.832 373.353 151.053 373.353 151.275Z" fill="#263238"/>
<path d="M393.967 212.474L371.129 238.887C366.817 235.962 363.274 232.039 360.8 227.453C358.326 222.867 356.994 217.751 356.918 212.541C356.918 194.177 373.647 179.055 393.967 179.055C414.286 179.055 431.015 194.164 431.015 212.541L393.967 212.474Z" fill="#176DE4"/>
<path d="M396.9 216.666C396.789 216.853 396.659 217.028 396.511 217.189L395.319 218.608L390.792 223.966C386.854 228.574 381.255 235.083 374.545 242.919V242.491C379.604 245.974 385.449 248.146 391.556 248.813C398.449 249.607 405.43 248.553 411.781 245.759C417.843 243.126 423.078 238.9 426.93 233.53C428.665 231.026 430.057 228.3 431.069 225.426C431.951 222.742 432.487 219.955 432.663 217.135L432.957 217.443L406.838 217.001L399.498 216.84L397.556 216.773C397.329 216.795 397.1 216.795 396.873 216.773C397.087 216.753 397.302 216.753 397.516 216.773H399.431H406.731L432.957 216.948H433.279V217.269C433.127 220.152 432.595 223.003 431.698 225.748C430.681 228.683 429.271 231.468 427.506 234.025C423.583 239.539 418.223 243.87 412.009 246.549C405.54 249.379 398.436 250.442 391.422 249.63C385.212 248.925 379.274 246.688 374.143 243.12L373.875 242.933L374.089 242.678L390.618 223.832L395.239 218.608L396.471 217.269C396.596 217.056 396.74 216.854 396.9 216.666Z" fill="#263238"/>
<path d="M409.718 194.659C410.865 194.659 411.794 193.73 411.794 192.583C411.794 191.437 410.865 190.507 409.718 190.507C408.572 190.507 407.642 191.437 407.642 192.583C407.642 193.73 408.572 194.659 409.718 194.659Z" fill="#263238"/>
<path d="M453.035 177.394C452.389 177.495 451.734 177.539 451.08 177.528L445.722 177.635C441.235 177.635 435.007 177.742 428.189 177.742H424.921L425.162 177.649C420.862 181.935 417.032 185.685 414.259 188.364L410.977 191.498C410.603 191.906 410.18 192.265 409.718 192.57C410.043 192.124 410.406 191.708 410.803 191.324C411.62 190.454 412.678 189.355 413.937 188.043C416.616 185.27 420.393 181.439 424.653 177.126L424.747 177.033H428.269C435.114 177.033 441.315 177.033 445.802 177.126L451.16 177.247C451.789 177.237 452.416 177.286 453.035 177.394Z" fill="#263238"/>
<path d="M500.076 203.486C500.085 203.247 500.116 203.01 500.17 202.776C500.25 202.294 500.357 201.638 500.505 200.794L501.844 193.307L506.68 166.438L506.961 166.773L455.085 166.84L455.42 166.558V166.692V166.853V167.161L455.299 167.777L455.071 169.023L454.616 171.487C454.308 173.121 454.013 174.742 453.705 176.349C453.116 179.564 452.531 182.725 451.95 185.833C450.785 192.021 449.673 197.888 448.642 203.527L448.321 203.151L485.691 203.299L496.406 203.393H499.259H499.996H500.264H500.036H499.326H496.527L485.918 203.473L448.414 203.62H448.039L448.106 203.245C449.138 197.66 450.223 191.726 451.375 185.525C451.937 182.43 452.526 179.269 453.116 176.055C453.424 174.434 453.719 172.813 454.027 171.179C454.174 170.362 454.321 169.545 454.482 168.715L454.71 167.482L454.817 166.866L454.884 166.545V166.398V166.277L455.232 165.982L507.108 166.049H507.296L507.229 166.384C505.086 177.595 503.318 186.851 502.085 193.347C501.456 196.521 500.974 199.013 500.625 200.767L500.237 202.683C500.13 203.285 500.076 203.5 500.076 203.486Z" fill="#263238"/>
<path d="M412.973 236.423C414.12 236.423 415.049 235.493 415.049 234.347C415.049 233.2 414.12 232.271 412.973 232.271C411.826 232.271 410.897 233.2 410.897 234.347C410.897 235.493 411.826 236.423 412.973 236.423Z" fill="#263238"/>
<path d="M450.665 234.347C450.665 234.548 442.226 234.695 431.819 234.695C421.411 234.695 412.973 234.548 412.973 234.347C412.973 234.146 421.411 233.999 431.819 233.999C442.226 233.999 450.665 234.159 450.665 234.347Z" fill="#263238"/>
<path d="M500.076 250.527C500.093 250.355 500.124 250.185 500.17 250.018C500.25 249.656 500.357 249.174 500.505 248.572C500.813 247.232 501.255 245.451 501.844 243.12C503.01 238.378 504.67 231.614 506.72 223.296L506.974 223.618L453.477 223.698L453.812 223.444V223.524V223.631V223.859L453.692 224.314L453.464 225.198L453.022 226.993C452.714 228.172 452.419 229.351 452.125 230.529L450.223 237.548C449.071 242.089 447.959 246.482 446.887 250.674L446.579 250.273L484.954 250.42L496.045 250.5H499.018H499.795H500.076H499.835H499.085H496.178L485.142 250.581L446.579 250.728H446.151L446.258 250.313C447.316 246.12 448.414 241.714 449.553 237.173C450.124 234.896 450.709 232.588 451.308 230.248L452.192 226.712L452.647 224.931L452.875 224.033L452.982 223.578V223.363V223.243V223.163L453.317 222.895L506.814 222.988H507.296L507.215 223.31C505.045 231.668 503.291 238.459 502.059 243.214C501.442 245.504 500.96 247.312 500.625 248.572C500.465 249.147 500.344 249.603 500.25 249.911C500.157 250.219 500.076 250.54 500.076 250.527Z" fill="#263238"/>
<path d="M495.857 177.863C495.857 178.064 487.914 178.211 478.11 178.211C468.305 178.211 460.362 178.064 460.362 177.863C460.362 177.662 468.305 177.515 478.11 177.515C487.914 177.515 495.857 177.675 495.857 177.863Z" fill="#263238"/>
<path d="M495.442 183.676C495.442 183.877 487.405 184.024 477.601 184.024C467.796 184.024 459.746 183.877 459.746 183.676C459.746 183.475 467.783 183.328 477.601 183.328C487.419 183.328 495.442 183.489 495.442 183.676Z" fill="#263238"/>
<path d="M494.41 189.329C494.41 189.516 486.695 189.677 477.185 189.677C467.675 189.677 459.947 189.516 459.947 189.329C459.947 189.141 467.662 188.98 477.185 188.98C486.709 188.98 494.41 189.087 494.41 189.329Z" fill="#263238"/>
<path d="M495.027 233.704C495.027 233.891 487.459 234.052 478.11 234.052C468.76 234.052 461.193 233.891 461.193 233.704C461.193 233.516 468.774 233.356 478.11 233.356C487.445 233.356 495.027 233.53 495.027 233.704Z" fill="#263238"/>
<path d="M492.95 240.133C492.95 240.334 486.494 240.481 478.525 240.481C470.555 240.481 464.099 240.334 464.099 240.133C464.099 239.932 470.555 239.785 478.525 239.785C486.494 239.785 492.95 239.946 492.95 240.133Z" fill="#263238"/>
<path d="M277.369 374.706C276.726 378.469 258.858 418.009 270.391 418.009H328.361C328.361 418.009 322.374 412.384 340.497 374.706H277.369Z" fill="#455A64"/>
<path d="M239.865 242.732L216.171 381.202H416.027L440.539 237.869L239.865 242.732Z" fill="#455A64"/>
<path d="M246.656 249.482L226.685 373.085H409.182L431.176 248.17L246.656 249.482Z" fill="#FAFAFA"/>
<path d="M440.539 237.869L444.316 240.414L418.867 384.966H221.448L216.171 381.202H416.027L440.539 237.869Z" fill="#263238"/>
<path d="M244.848 260.734C244.915 260.292 429.086 260.037 429.086 260.037L431.176 248.17L246.656 249.509L244.848 260.76" fill="#EBEBEB"/>
<path d="M380.425 362.115V361.767L380.586 360.735C380.755 359.753 380.983 358.414 381.269 356.717C381.898 353.114 382.782 347.944 383.881 341.528C386.158 328.536 389.332 310.453 392.935 289.933V289.638H408.017L407.95 290.054C402.365 320.311 397.476 346.899 394.65 362.182V362.343H394.502L384.001 362.236H381.322H380.666H381.389H384.162L394.543 362.128L394.355 362.276L407.321 290.094L407.669 290.496H393.31L393.645 290.214C389.935 310.614 386.68 328.576 384.269 341.501C383.09 347.93 382.126 353.114 381.456 356.731C381.121 358.485 380.867 359.865 380.679 360.856C380.586 361.298 380.519 361.66 380.465 361.927C380.454 361.99 380.441 362.053 380.425 362.115Z" fill="#263238"/>
<path d="M357.28 362.115C357.297 361.79 357.347 361.467 357.427 361.151C357.547 360.441 357.722 359.49 357.936 358.284C358.418 355.699 359.088 352.043 359.932 347.569C361.686 338.287 364.137 325.374 366.937 310.614V310.333H382.019L381.938 310.748C377.706 331.737 373.902 350.395 371.544 362.222V362.396H371.37L360.883 362.276H358.204C357.905 362.296 357.605 362.296 357.306 362.276H358.298H361.084L371.424 362.155L371.21 362.329C373.54 350.489 377.21 331.817 381.336 310.801L381.671 311.217H367.232L367.566 310.949C364.66 325.575 362.115 338.38 360.28 347.582C359.356 352.15 358.619 355.82 358.083 358.405L357.48 361.338C357.48 361.646 357.347 361.901 357.306 362.102L357.28 362.115Z" fill="#263238"/>
<path d="M334.04 362.115C334.029 361.972 334.029 361.829 334.04 361.686L334.255 360.347C334.456 359.168 334.737 357.481 335.112 355.311C335.889 350.877 337.001 344.488 338.394 336.559C341.233 320.486 345.184 298.238 349.658 273.016V272.735H364.74L364.673 273.137C357.681 311.431 351.507 344.796 348.238 362.115V362.262H348.091L337.55 362.155H334.871H333.987H334.938H337.684L348.104 362.061L347.944 362.195C350.998 344.783 357.025 311.444 364.017 273.163L364.365 273.579H350.047L350.381 273.284C345.814 298.372 341.769 320.553 338.849 336.505C337.376 344.461 336.17 350.877 335.366 355.324L334.402 360.427C334.295 360.99 334.215 361.432 334.148 361.767L334.04 362.115Z" fill="#263238"/>
<path d="M310.842 362.115C310.852 361.89 310.879 361.666 310.922 361.445C311.016 360.923 311.123 360.267 311.257 359.436C311.565 357.588 312.007 355.016 312.596 351.815C313.761 345.185 315.382 335.983 317.244 325.348V325.066H332.313L332.232 325.482C329.46 339.947 326.968 352.967 325.2 362.169V362.369H325.013L314.565 362.236L311.739 362.115C311.431 362.134 311.122 362.134 310.815 362.115H311.833H314.659L324.946 361.981L324.705 362.169C326.419 352.967 328.843 339.921 331.522 325.441L331.871 325.857H317.525L317.847 325.589C315.864 336.103 314.163 345.198 312.918 351.748C312.302 354.962 311.793 357.561 311.431 359.423C311.257 360.267 311.123 360.963 311.016 361.485C310.97 361.698 310.912 361.909 310.842 362.115Z" fill="#263238"/>
<path d="M287.629 362.115C287.629 362.115 287.629 362.021 287.629 361.834C287.629 361.646 287.629 361.311 287.75 360.963C287.884 360.146 288.058 359.021 288.286 357.574C288.781 354.561 289.478 350.248 290.348 344.89C292.17 333.987 294.688 318.825 297.568 301.559V301.278H312.65L312.569 301.693C308.149 326.647 304.252 348.707 301.854 362.155V362.329H301.693L291.219 362.209H288.473C288.174 362.228 287.874 362.228 287.576 362.209H287.83H288.553H291.339L301.693 362.102L301.492 362.262L311.913 301.747L312.261 302.162H297.97L298.304 301.881C295.318 319.026 292.692 334.027 290.804 344.89C289.839 350.248 289.076 354.601 288.527 357.641C288.259 359.101 288.058 360.32 287.897 361.084L287.723 361.994L287.629 362.115Z" fill="#263238"/>
<path d="M264.457 362.115C264.44 361.986 264.44 361.855 264.457 361.727C264.457 361.432 264.564 361.043 264.645 360.548C264.832 359.463 265.087 357.869 265.421 355.94C266.105 351.922 267.109 346.042 268.341 338.782C270.886 324.115 274.436 303.702 278.454 280.597V280.316H293.536L293.469 280.731C287.227 315.449 281.709 345.801 278.668 362.155V362.303H278.521L268.007 362.195H265.328H264.685H265.395H268.14L278.548 362.088L278.374 362.236C281.213 345.841 286.598 315.463 292.84 280.758L293.174 281.16H278.829L279.164 280.879C275.052 303.863 271.409 324.156 268.797 338.742C267.457 346.028 266.399 351.882 265.649 355.954C265.287 357.963 264.993 359.517 264.792 360.628C264.685 361.137 264.618 361.539 264.551 361.847C264.484 362.155 264.457 362.115 264.457 362.115Z" fill="#263238"/>
<path d="M254.371 255.054C254.374 255.391 254.276 255.722 254.091 256.003C253.906 256.285 253.641 256.505 253.33 256.635C253.02 256.766 252.677 256.802 252.346 256.738C252.016 256.674 251.711 256.513 251.472 256.275C251.233 256.038 251.069 255.735 251.003 255.405C250.936 255.074 250.969 254.732 251.097 254.42C251.226 254.108 251.444 253.842 251.724 253.654C252.004 253.467 252.333 253.367 252.67 253.367C253.119 253.367 253.55 253.544 253.868 253.86C254.187 254.176 254.368 254.606 254.371 255.054Z" fill="#263238"/>
<path d="M260.988 256.742C261.92 256.742 262.676 255.986 262.676 255.054C262.676 254.122 261.92 253.367 260.988 253.367C260.056 253.367 259.3 254.122 259.3 255.054C259.3 255.986 260.056 256.742 260.988 256.742Z" fill="#263238"/>
<path d="M270.993 255.054C270.996 255.392 270.898 255.723 270.712 256.004C270.526 256.286 270.261 256.506 269.95 256.637C269.638 256.767 269.295 256.802 268.964 256.737C268.633 256.672 268.328 256.509 268.09 256.271C267.851 256.032 267.689 255.728 267.623 255.396C267.558 255.065 267.593 254.722 267.723 254.411C267.854 254.099 268.074 253.834 268.356 253.648C268.637 253.462 268.968 253.364 269.306 253.367C269.752 253.37 270.18 253.549 270.495 253.865C270.811 254.181 270.99 254.608 270.993 255.054Z" fill="#263238"/>
<path d="M241.258 362.115C241.258 362.115 241.258 361.767 241.405 361.084C241.553 360.401 241.687 359.329 241.901 358.043C242.37 355.364 243.026 351.44 243.843 346.631C245.558 336.8 247.928 323.138 250.648 307.547V307.265H265.729L265.649 307.681C261.51 329.995 257.827 349.792 255.536 362.169V362.343H255.376L244.888 362.222H242.209C241.906 362.241 241.602 362.241 241.298 362.222H241.566H242.289H245.075L255.429 362.102L255.215 362.276L265.06 307.748L265.395 308.149H250.982L251.317 307.868C248.491 323.338 245.96 336.894 244.245 346.631C243.334 351.467 242.611 355.364 242.089 358.097C241.847 359.436 241.647 360.454 241.499 361.204L241.338 362.021C241.313 362.054 241.286 362.085 241.258 362.115Z" fill="#263238"/>
<path d="M397.824 307.614H321.369L325.736 281.95H402.726L397.824 307.614Z" fill="#176DE4"/>
<path d="M321.369 307.614L319.883 316.574C319.883 316.574 329.928 307.265 329.768 307.265H321.436" fill="#176DE4"/>
<path d="M391.194 290.871C391.194 291.058 378.456 291.219 362.758 291.219C347.06 291.219 334.308 291.058 334.308 290.871C334.308 290.683 347.046 290.522 362.758 290.522C378.469 290.522 391.194 290.683 391.194 290.871Z" fill="#FAFAFA"/>
<path d="M390.444 297.072C390.444 297.26 377.706 297.421 362.008 297.421C346.31 297.421 333.558 297.26 333.558 297.072C333.558 296.885 346.296 296.724 362.008 296.724C377.719 296.724 390.444 296.871 390.444 297.072Z" fill="#FAFAFA"/>
<path d="M515.493 426.876H297.675V553.975H515.493V426.876Z" fill="#263238"/>
<path d="M396.9 426.876H297.675V553.975H396.9V426.876Z" fill="#455A64"/>
<path d="M386.747 470.046C386.747 470.046 386.747 469.819 386.747 469.403C386.747 468.988 386.747 468.345 386.747 467.555C386.747 465.907 386.747 463.537 386.68 460.496C386.68 454.388 386.613 445.588 386.546 434.739L386.801 434.993L306.984 435.087C306.676 435.409 307.399 434.672 307.332 434.752V443.941C307.332 446.981 307.332 449.982 307.332 452.928C307.332 458.835 307.332 464.568 307.332 470.046L307.011 469.725L364.218 469.872L380.813 469.966H385.26H386.426H386.827C386.707 469.979 386.586 469.979 386.466 469.966H385.341H380.961L364.446 470.06L307.011 470.22H306.676V469.886C306.676 464.407 306.676 458.675 306.676 452.768V434.752C306.596 434.752 307.332 434.083 307.024 434.391L386.747 434.444H387.002V434.685C387.002 445.602 386.894 454.442 386.868 460.603C386.868 463.617 386.868 465.961 386.801 467.595C386.801 468.359 386.801 468.935 386.801 469.403C386.798 469.619 386.78 469.834 386.747 470.046Z" fill="#263238"/>
<path d="M350.274 452.393C350.274 452.393 350.194 452.098 350.033 451.602C349.809 450.917 349.373 450.321 348.788 449.901C348.365 449.595 347.874 449.4 347.357 449.332C346.84 449.264 346.314 449.326 345.827 449.513C345.239 449.732 344.732 450.126 344.373 450.642C344.015 451.158 343.823 451.771 343.823 452.399C343.823 453.027 344.015 453.64 344.373 454.156C344.732 454.672 345.239 455.066 345.827 455.286C346.316 455.465 346.84 455.524 347.355 455.456C347.871 455.388 348.362 455.197 348.788 454.897C349.373 454.477 349.809 453.881 350.033 453.196C350.194 452.701 350.207 452.393 350.274 452.393C350.341 452.393 350.382 452.701 350.274 453.263C350.119 454.06 349.688 454.776 349.055 455.286C348.577 455.675 348.007 455.934 347.4 456.04C346.792 456.145 346.168 456.093 345.586 455.889C344.863 455.635 344.236 455.163 343.793 454.538C343.349 453.913 343.111 453.166 343.111 452.399C343.111 451.633 343.349 450.885 343.793 450.26C344.236 449.635 344.863 449.163 345.586 448.91C346.167 448.707 346.79 448.655 347.397 448.758C348.003 448.861 348.574 449.116 349.055 449.499C349.689 450.013 350.121 450.734 350.274 451.535C350.382 452.098 350.315 452.406 350.274 452.393Z" fill="#263238"/>
<path d="M386.747 508.917C386.747 508.917 386.747 508.689 386.747 508.274C386.747 507.858 386.747 507.202 386.747 506.412C386.747 504.764 386.747 502.394 386.68 499.366C386.68 493.245 386.613 484.459 386.546 473.609L386.801 473.864L306.984 473.957L307.332 473.609V482.784C307.332 485.825 307.332 488.812 307.332 491.772C307.332 497.679 307.332 503.398 307.332 508.89L307.011 508.555L364.218 508.716L380.813 508.809H385.26H386.426C386.559 508.799 386.694 508.799 386.827 508.809H386.466H385.341H380.961L364.446 508.903L307.011 509.064H306.676V508.729C306.676 503.237 306.676 497.518 306.676 491.611V473.636L307.024 473.288L386.841 473.381H387.095V473.636C387.095 484.552 386.988 493.393 386.961 499.541C386.961 502.554 386.961 504.898 386.894 506.546C386.894 507.309 386.894 507.885 386.894 508.341C386.857 508.535 386.808 508.728 386.747 508.917Z" fill="#263238"/>
<path d="M350.274 491.263C350.274 491.263 350.194 490.955 350.033 490.459C349.809 489.774 349.373 489.178 348.788 488.758C348.362 488.459 347.871 488.267 347.355 488.199C346.84 488.132 346.316 488.19 345.827 488.37C345.239 488.589 344.732 488.983 344.373 489.499C344.015 490.015 343.823 490.628 343.823 491.256C343.823 491.884 344.015 492.497 344.373 493.013C344.732 493.529 345.239 493.923 345.827 494.143C346.314 494.327 346.838 494.39 347.354 494.325C347.87 494.259 348.363 494.068 348.788 493.768C349.377 493.345 349.814 492.744 350.033 492.053C350.194 491.558 350.207 491.263 350.274 491.263C350.341 491.263 350.382 491.571 350.274 492.12C350.123 492.922 349.691 493.644 349.055 494.156C348.576 494.543 348.005 494.8 347.398 494.903C346.79 495.006 346.167 494.952 345.586 494.745C344.863 494.492 344.236 494.02 343.793 493.395C343.349 492.77 343.111 492.023 343.111 491.256C343.111 490.49 343.349 489.742 343.793 489.117C344.236 488.492 344.863 488.02 345.586 487.767C346.168 487.562 346.792 487.51 347.4 487.616C348.007 487.721 348.577 487.981 349.055 488.37C349.691 488.882 350.123 489.604 350.274 490.406C350.382 490.955 350.315 491.263 350.274 491.263Z" fill="#263238"/>
<path d="M386.747 547.773C386.747 547.773 386.747 547.546 386.747 547.13C386.747 546.715 386.747 546.072 386.747 545.282C386.747 543.635 386.747 541.264 386.68 538.223C386.68 532.115 386.613 523.315 386.546 512.466L386.801 512.721L306.984 512.814C306.676 513.136 307.399 512.399 307.332 512.479V521.668C307.332 524.708 307.332 527.709 307.332 530.655C307.332 536.562 307.332 542.295 307.332 547.773L307.011 547.452L364.218 547.599L380.813 547.693H385.26H386.426H386.827C386.707 547.706 386.586 547.706 386.466 547.693H385.341H380.961L364.446 547.773L307.011 547.934H306.676V547.599C306.676 542.121 306.676 536.388 306.676 530.481V512.479C306.596 512.546 307.332 511.81 307.024 512.118L386.841 512.225H387.095V512.466C387.095 523.382 386.988 532.236 386.961 538.384C386.961 541.398 386.961 543.742 386.894 545.376C386.894 546.153 386.894 546.715 386.894 547.184C386.859 547.384 386.81 547.581 386.747 547.773Z" fill="#263238"/>
<path d="M350.274 530.12C350.274 530.12 350.194 529.825 350.033 529.329C349.809 528.644 349.373 528.049 348.788 527.628C348.364 527.326 347.872 527.132 347.356 527.064C346.84 526.997 346.315 527.057 345.827 527.24C345.239 527.459 344.732 527.854 344.373 528.369C344.015 528.885 343.823 529.498 343.823 530.126C343.823 530.754 344.015 531.368 344.373 531.883C344.732 532.399 345.239 532.793 345.827 533.013C346.315 533.196 346.84 533.256 347.356 533.188C347.872 533.121 348.364 532.927 348.788 532.624C349.373 532.204 349.809 531.608 350.033 530.923C350.194 530.428 350.207 530.12 350.274 530.12C350.341 530.12 350.382 530.428 350.274 530.99C350.118 531.79 349.687 532.511 349.055 533.026C348.574 533.41 348.003 533.665 347.397 533.768C346.79 533.871 346.167 533.818 345.586 533.616C344.863 533.362 344.236 532.891 343.793 532.265C343.349 531.64 343.111 530.893 343.111 530.126C343.111 529.36 343.349 528.612 343.793 527.987C344.236 527.362 344.863 526.89 345.586 526.637C346.167 526.434 346.79 526.382 347.397 526.485C348.003 526.588 348.574 526.843 349.055 527.227C349.689 527.74 350.121 528.461 350.274 529.263C350.382 529.825 350.315 530.133 350.274 530.12Z" fill="#263238"/>
<path d="M190.253 426.876H7.03204V553.975H190.253V426.876Z" fill="#263238"/>
<path d="M523.382 418.009H0V430.091H523.382V418.009Z" fill="#263238"/>
<path d="M23.2659 430.091H7.03204V553.975H23.2659V430.091Z" fill="#455A64"/>
<path d="M210.518 226.833C210.41 226.324 210.334 225.81 210.291 225.292C210.096 223.915 209.641 222.588 208.951 221.381C208.504 220.573 207.822 219.919 206.996 219.506C206.53 219.306 206.015 219.249 205.516 219.342C205.018 219.435 204.558 219.674 204.196 220.028C202.645 221.954 201.799 224.353 201.799 226.826C201.799 229.299 202.645 231.698 204.196 233.623C204.557 233.98 205.016 234.222 205.514 234.317C206.013 234.413 206.528 234.358 206.996 234.159C207.82 233.737 208.501 233.08 208.951 232.271C209.641 231.063 210.096 229.736 210.291 228.36C210.333 227.846 210.409 227.336 210.518 226.833C210.605 227.351 210.605 227.881 210.518 228.4C210.429 229.842 210.031 231.249 209.353 232.525C208.869 233.445 208.117 234.197 207.196 234.682C206.651 234.943 206.039 235.032 205.442 234.936C204.818 234.814 204.237 234.532 203.754 234.119C202.025 232.085 201.076 229.502 201.076 226.833C201.076 224.163 202.025 221.58 203.754 219.546C204.232 219.124 204.815 218.837 205.442 218.716C206.039 218.627 206.649 218.715 207.196 218.97C208.117 219.454 208.869 220.206 209.353 221.127C210.033 222.407 210.431 223.818 210.518 225.265C210.604 225.784 210.604 226.314 210.518 226.833Z" fill="#263238"/>
<path d="M152.695 200.647L148.677 280.905L183.154 284.147L185.056 264.658C185.056 264.658 197.111 267.658 200.861 256.447C203.205 249.281 205.294 193.173 205.294 193.173L152.695 200.647Z" fill="#FFBE9D"/>
<path d="M212.621 201.45C209.688 208.429 198.624 214.416 198.624 214.416L196.816 232.19C195.17 232.077 193.519 232.077 191.873 232.19C192.757 223.846 182.029 225.493 180.93 231.159C179.885 236.624 186.114 240.28 186.114 240.28C181.814 246.87 180.073 250.353 173.965 256.528C167.375 263.225 163.826 263.761 157.008 263.56L149.494 263.212C149.494 263.212 146.815 256.796 144.873 241.647C143.922 234.36 138.176 224.81 139.85 212.956C144.458 179.296 181.707 185.27 181.707 185.27C195.691 174.394 219.533 185.042 212.621 201.45Z" fill="#263238"/>
<path d="M210.518 226.926C207.976 227.416 205.393 227.668 202.803 227.676C200.228 227.905 197.637 227.905 195.061 227.676C197.6 227.194 200.179 226.948 202.763 226.94C205.343 226.711 207.938 226.706 210.518 226.926Z" fill="#263238"/>
<path d="M320.351 321.209L307.828 328.964L303.234 339.68V330.304C303.234 330.304 306.636 326.285 309.422 323.352C312.208 320.419 310.212 318.383 309.422 317.378C308.631 316.373 296.644 330.304 296.644 330.304V338.34C291.058 331.469 288.473 333.826 287.616 335.072C286.759 336.318 296.644 345.64 296.644 345.64V348.48L247.527 374.893L234.601 342.747L208.201 356.61L223.966 394.77C225.053 397.41 226.695 399.785 228.781 401.735C230.867 403.684 233.348 405.162 236.055 406.068C238.763 406.973 241.634 407.286 244.473 406.985C247.312 406.683 250.052 405.775 252.509 404.32L310.306 370.152L314.15 363.736C315.484 361.525 316.27 359.026 316.44 356.449L318.436 327.585C321.945 325.388 320.351 321.209 320.351 321.209Z" fill="#FFBE9D"/>
<path d="M247.768 374.933C246.601 379.453 244.976 383.843 242.919 388.033C244.102 383.518 245.726 379.13 247.768 374.933Z" fill="#EB996E"/>
<path d="M318.436 327.585C317.696 327.965 316.936 328.305 316.159 328.603C315.273 329.023 314.481 329.619 313.834 330.357C313.187 331.094 312.697 331.955 312.395 332.889C311.394 335.586 310.176 338.197 308.752 340.698C309.537 337.943 310.54 335.256 311.752 332.661C312.144 331.565 312.765 330.565 313.574 329.728C314.268 329.083 315.071 328.566 315.945 328.201C316.717 327.808 317.57 327.597 318.436 327.585Z" fill="#EB996E"/>
<path d="M318.249 332.152C318.031 332.181 317.823 332.259 317.64 332.379C317.457 332.5 317.303 332.66 317.19 332.848C316.802 333.599 316.306 334.777 315.851 336.036C315.348 337.63 314.757 339.195 314.083 340.724C314.085 339.015 314.464 337.327 315.195 335.782C315.627 334.655 316.18 333.577 316.842 332.567C316.963 332.399 317.12 332.26 317.3 332.158C317.48 332.056 317.681 331.995 317.887 331.978C318.141 331.978 318.262 332.112 318.249 332.152Z" fill="#EB996E"/>
<path d="M200.312 351.721L205.924 370.728L241.539 354.654C240.2 350.636 234.36 332.942 223.095 304.814C220.011 297.102 214.994 290.313 208.526 285.101C202.059 279.888 194.359 276.428 186.167 275.052C174.514 273.11 161.83 271.596 152.065 271.717C142.371 271.807 133.002 275.221 125.522 281.389C118.043 287.557 112.907 296.105 110.972 305.604C107.958 320.539 113.235 330.411 109.833 363.093L108.748 445.294L203.848 448.79L200.312 351.721Z" fill="#176DE4"/>
<path d="M114.253 362.222C114.253 362.222 101.033 362.999 95.8362 352.994C95.8362 352.994 110.074 300.354 115.044 294.152L114.253 362.222Z" fill="#176DE4"/>
<path d="M224.89 310.118C224.55 310.381 224.17 310.589 223.765 310.735C222.6 311.157 221.374 311.388 220.135 311.418C218.188 311.408 216.25 311.16 214.362 310.681C212.166 310.185 209.715 309.449 206.969 308.993C205.538 308.82 204.097 308.744 202.656 308.766C201.097 308.889 199.551 309.145 198.035 309.529C194.672 310.443 191.443 311.794 188.431 313.547C185.176 315.315 181.868 317.405 178.345 319.468C174.73 321.711 170.858 323.51 166.813 324.825C162.656 326.113 158.216 326.183 154.021 325.026C150.216 323.795 146.67 321.874 143.56 319.36C140.573 317.043 137.975 314.605 135.524 312.382C133.288 310.298 130.917 308.365 128.425 306.596C124.877 303.944 120.741 302.189 116.37 301.479C114.755 301.388 113.136 301.388 111.521 301.479C111.916 301.319 112.33 301.211 112.753 301.158C113.966 300.964 115.197 300.906 116.423 300.983C120.938 301.508 125.245 303.177 128.934 305.832C131.507 307.569 133.951 309.489 136.247 311.578C138.738 313.775 141.363 316.159 144.283 318.383C147.286 320.761 150.694 322.576 154.343 323.74C158.301 324.807 162.482 324.728 166.397 323.513C170.332 322.226 174.103 320.487 177.635 318.329C181.131 316.307 184.466 314.217 187.788 312.449C190.912 310.674 194.259 309.323 197.74 308.431C199.332 308.05 200.955 307.808 202.589 307.707C204.099 307.723 205.607 307.84 207.103 308.056C209.942 308.591 212.367 309.395 214.523 309.958C216.343 310.482 218.217 310.797 220.109 310.895C221.733 310.886 223.346 310.624 224.89 310.118Z" fill="#263238"/>
<path d="M200.941 375.71C199.126 374.629 197.121 373.901 195.034 373.567C192.762 373.299 190.46 373.426 188.23 373.942C185.685 374.451 182.939 375.375 179.926 376.125C174.754 377.455 169.34 377.528 164.134 376.34C160.115 375.402 157.959 374.13 158.026 373.996C158.093 373.862 160.424 374.706 164.335 375.335C169.407 376.198 174.603 375.993 179.591 374.732C182.524 373.996 185.324 373.098 187.989 372.63C190.365 372.149 192.809 372.122 195.195 372.549C196.81 372.836 198.345 373.467 199.696 374.398C200.633 375.134 201.008 375.657 200.941 375.71Z" fill="#263238"/>
<path d="M201.906 424.787C201.906 424.787 201.544 425.39 200.647 426.234C199.35 427.419 197.899 428.424 196.334 429.22C193.985 430.44 191.385 431.1 188.739 431.149C185.509 431.061 182.325 430.351 179.363 429.06C176.242 427.841 173.389 426.475 170.697 425.711C168.318 424.984 165.826 424.694 163.343 424.854C161.685 424.954 160.067 425.411 158.602 426.193C157.557 426.769 157.075 427.238 156.981 427.144C156.887 427.051 157.303 426.488 158.321 425.805C159.773 424.753 161.469 424.089 163.25 423.876C165.863 423.571 168.51 423.776 171.045 424.479C174.051 425.413 177.002 426.513 179.885 427.774C182.679 428.996 185.668 429.709 188.712 429.877C191.184 429.887 193.629 429.362 195.878 428.336C199.83 426.555 201.772 424.586 201.906 424.787Z" fill="#263238"/>
<g opacity="0.3">
<path opacity="0.3" d="M98.7696 363.146C111.226 365.691 124.018 363.146 136.702 362.37C144.404 361.914 152.936 361.03 159.017 365.812C163.839 369.562 165.714 375.871 167.174 381.818C172.532 404.508 173.456 424.774 174.648 448.039L113.034 446.7L98.7696 363.146Z" fill="black"/>
</g>
<path opacity="0.3" d="M115.044 320.432L117.709 358.847H109.592L115.044 320.432Z" fill="black"/>
<path d="M132.349 445.24L254.639 449.566C264.182 449.902 273.213 453.968 279.79 460.891C286.367 467.814 289.966 477.04 289.812 486.588L288.741 555.984H243.897L241.004 496.152L132.349 493.285V445.24Z" fill="#263238"/>
<path d="M173.362 508.689H161.334V552.716H173.362V508.689Z" fill="#455A64"/>
<path d="M60.4083 368.812V474.895C60.4118 481.575 63.0678 487.98 67.7923 492.702C72.5169 497.424 78.9232 500.076 85.6029 500.076H156.244V368.812C156.241 365.834 155.055 362.979 152.948 360.875C150.841 358.77 147.985 357.588 145.007 357.588H71.6327C68.6558 357.588 65.8008 358.77 63.6958 360.875C61.5908 362.98 60.4083 365.835 60.4083 368.812Z" fill="#455A64"/>
<path d="M251.317 508.689H79.2809C79.3021 503.729 81.2872 498.98 84.8016 495.481C88.3159 491.982 93.0735 490.017 98.0329 490.017H232.713C237.665 490.017 242.414 491.984 245.915 495.486C249.417 498.988 251.384 503.737 251.384 508.689H251.317Z" fill="#455A64"/>
<path d="M156.245 487.539C156.323 488.587 156.232 489.641 155.977 490.66C155.4 493.049 154.142 495.218 152.357 496.906C150.571 498.594 148.335 499.728 145.918 500.17C144.824 500.348 143.717 500.424 142.609 500.398H139.14H123.683H95.555L87.0496 500.291H84.7324C84.4621 500.299 84.1919 500.272 83.9287 500.21C84.1945 500.167 84.4632 500.145 84.7324 500.143L87.0496 500.076L95.555 499.956L123.683 499.822H142.609C143.684 499.863 144.761 499.8 145.824 499.634C147.704 499.31 149.481 498.543 151.007 497.397C153.273 495.723 154.909 493.336 155.655 490.62C156.218 488.664 156.151 487.526 156.245 487.539Z" fill="#263238"/>
<path d="M177.89 509.051C174.388 509.403 170.866 509.52 167.348 509.399C163.826 509.52 160.3 509.404 156.794 509.051C160.301 508.705 163.826 508.589 167.348 508.702C170.866 508.589 174.387 508.706 177.89 509.051Z" fill="#263238"/>
<path d="M230.235 501.014C230.068 500.584 229.96 500.133 229.913 499.675C229.739 498.804 229.511 497.545 229.243 495.911C228.694 492.629 227.904 487.874 227.047 482.034C226.565 479.114 226.176 475.859 225.533 472.471C225.359 471.627 225.198 470.77 225.024 469.886C224.85 469.002 224.515 468.171 224.261 467.287C224.127 466.858 224.006 466.403 223.872 465.948C223.738 465.492 223.537 465.077 223.363 464.608C223.002 463.724 222.68 462.827 222.292 461.929C220.591 458.261 218.44 454.819 215.889 451.683C213.104 448.351 209.861 445.429 206.259 443.003C202.672 440.549 198.734 438.652 194.579 437.378C190.723 436.154 186.715 435.468 182.671 435.342C174.876 435.168 167.777 435.208 161.857 435.127C155.936 435.047 151.141 434.98 147.819 434.9C146.159 434.9 144.873 434.819 143.989 434.766C143.538 434.779 143.088 434.734 142.649 434.632C143.086 434.519 143.538 434.47 143.989 434.484L147.819 434.351C151.128 434.27 155.936 434.203 161.857 434.136C167.777 434.069 174.836 433.949 182.712 434.056C186.881 434.145 191.016 434.826 194.994 436.078C199.288 437.364 203.356 439.311 207.049 441.851C210.77 444.342 214.109 447.36 216.961 450.812C219.572 454.056 221.763 457.615 223.484 461.407C223.872 462.318 224.194 463.255 224.555 464.153C224.716 464.608 224.89 465.05 225.064 465.492C225.239 465.934 225.319 466.403 225.453 466.832C225.707 467.742 225.948 468.627 226.19 469.511C226.431 470.395 226.524 471.292 226.685 472.189C227.288 475.659 227.609 478.887 228.025 481.806C228.788 487.687 229.364 492.455 229.779 495.75C229.967 497.397 230.114 498.683 230.194 499.554C230.281 500.036 230.295 500.528 230.235 501.014Z" fill="#455A64"/>
<path d="M13.1398 372.643C13.1398 372.643 10.9699 378.711 15.1222 383.104H23.7615C23.7615 383.104 22.998 373.299 13.1398 372.643Z" fill="#176DE4"/>
<path opacity="0.4" d="M13.1398 372.643C13.1398 372.643 10.9699 378.711 15.1222 383.104H23.7615C23.7615 383.104 22.998 373.299 13.1398 372.643Z" fill="black"/>
<path d="M27.8602 360.146C27.4985 359.717 20.1049 371.29 24.2571 383.104H32.4008C32.4008 383.104 35.5887 369.361 27.8602 360.146Z" fill="#176DE4"/>
<path d="M42.2858 372.643C39.6237 372.822 37.1269 373.998 35.2944 375.937C33.4619 377.877 32.4286 380.436 32.4008 383.104H40.5312C40.5312 383.104 44.094 378.094 42.2858 372.643Z" fill="#176DE4"/>
<path d="M14.4525 382.648C11.6438 384.665 9.46539 387.437 8.17072 390.643C6.87604 393.849 6.51832 397.356 7.13917 400.758C9.22868 412.812 21.9533 418.009 21.9533 418.009H36.0575C36.0575 418.009 50.4162 411.674 50.0679 398.641C49.7197 385.609 41.1741 382.836 41.1741 382.836L14.4525 382.648Z" fill="#455A64"/>
<path d="M50.0143 397.181C49.695 396.643 49.3028 396.152 48.849 395.721C48.1931 395.198 47.4398 394.81 46.6327 394.58C45.8256 394.35 44.9809 394.283 44.1476 394.382C41.6532 394.855 39.2962 395.88 37.2495 397.382C35.9496 398.214 34.5725 398.918 33.1375 399.485C31.5542 400.088 29.8393 400.259 28.1682 399.981C24.7259 399.391 21.98 397.543 19.4083 396.311C17.2201 395.034 14.7049 394.428 12.1754 394.569C10.4843 394.745 8.91863 395.542 7.78208 396.806C7.40229 397.305 7.07885 397.844 6.81769 398.414C6.82664 398.245 6.85818 398.078 6.91145 397.918C7.05026 397.437 7.27239 396.983 7.56777 396.579C8.69091 395.17 10.3206 394.256 12.1084 394.034C14.7678 393.8 17.4344 394.394 19.7432 395.735C22.422 396.967 25.1009 398.748 28.3289 399.284C29.8856 399.552 31.4854 399.399 32.9634 398.842C34.3638 398.297 35.7093 397.62 36.9817 396.82C39.1177 395.303 41.5743 394.3 44.161 393.886C45.0532 393.799 45.9538 393.899 46.805 394.181C47.6562 394.462 48.4391 394.918 49.1035 395.52C49.4491 395.86 49.7305 396.259 49.9339 396.699C50.0009 397.007 50.0411 397.168 50.0143 397.181Z" fill="#263238"/>
<path d="M50.2152 400.329C49.8939 399.8 49.5068 399.314 49.0633 398.882C48.4174 398.355 47.6712 397.965 46.87 397.735C46.0688 397.505 45.2293 397.439 44.4021 397.543C41.9352 398.018 39.6057 399.038 37.5844 400.53C36.3181 401.366 34.9721 402.075 33.5661 402.646C31.9972 403.25 30.2948 403.421 28.637 403.142C25.2215 402.552 22.5024 400.704 19.9575 399.472C17.8029 398.197 15.318 397.591 12.8183 397.73C11.1382 397.914 9.58641 398.716 8.46519 399.981C8.09115 400.473 7.77645 401.008 7.52759 401.575C7.52759 401.575 7.52758 401.401 7.60795 401.079C7.75286 400.623 7.96993 400.194 8.25088 399.807C9.356 398.402 10.966 397.484 12.738 397.248C15.3526 397.011 17.9768 397.586 20.2522 398.896C22.8507 400.128 25.6099 401.909 28.7442 402.445C30.2831 402.713 31.8656 402.56 33.325 402.003C34.7048 401.459 36.0282 400.782 37.2763 399.981C39.3873 398.464 41.8224 397.46 44.3887 397.047C45.2619 396.969 46.1419 397.074 46.9722 397.355C47.8026 397.637 48.565 398.088 49.2107 398.681C49.5502 399.018 49.8269 399.413 50.0277 399.847C50.1165 399.996 50.1799 400.159 50.2152 400.329Z" fill="#263238"/>
<path d="M13.6086 400.249C13.6086 400.168 13.9837 399.927 14.4793 400.329C14.629 400.458 14.7361 400.63 14.7863 400.821C14.8365 401.012 14.8275 401.214 14.7605 401.401C14.6781 401.63 14.5236 401.826 14.3201 401.96C14.1166 402.094 13.8751 402.158 13.632 402.143C13.3889 402.128 13.1573 402.034 12.9719 401.876C12.7866 401.718 12.6575 401.504 12.6041 401.267C12.557 401.083 12.5608 400.89 12.6151 400.708C12.6693 400.527 12.772 400.363 12.9121 400.235C13.3943 399.833 13.8095 400.021 13.7828 400.101C13.756 400.182 13.4881 400.249 13.2872 400.57C13.2438 400.65 13.2211 400.74 13.2211 400.831C13.2211 400.922 13.2438 401.012 13.2872 401.092C13.3264 401.186 13.3888 401.269 13.4684 401.332C13.548 401.395 13.6423 401.437 13.7426 401.454C13.8415 401.451 13.9378 401.422 14.0223 401.37C14.1068 401.318 14.1765 401.246 14.2248 401.159C14.2696 401.085 14.2933 400.999 14.2933 400.912C14.2933 400.824 14.2696 400.739 14.2248 400.664C13.9301 400.356 13.622 400.342 13.6086 400.249Z" fill="#263238"/>
<path d="M29.588 395.159C29.588 395.078 29.9631 394.824 30.4721 395.239C30.6165 395.372 30.7189 395.544 30.7665 395.735C30.8141 395.925 30.8049 396.125 30.74 396.311C30.6554 396.538 30.5011 396.734 30.299 396.868C30.097 397.003 29.8575 397.07 29.6148 397.061C29.3727 397.038 29.1436 396.941 28.959 396.782C28.7744 396.624 28.6432 396.413 28.5835 396.177C28.5349 395.992 28.5393 395.797 28.5961 395.615C28.6529 395.433 28.76 395.27 28.9049 395.145C29.3871 394.744 29.8024 394.931 29.7622 395.011C29.722 395.092 29.4675 395.159 29.2666 395.48C29.2264 395.561 29.2055 395.651 29.2055 395.741C29.2055 395.832 29.2264 395.921 29.2666 396.003C29.3058 396.096 29.3682 396.179 29.4478 396.242C29.5274 396.305 29.6217 396.347 29.722 396.364C29.8212 396.362 29.9181 396.334 30.0028 396.282C30.0875 396.23 30.1569 396.157 30.2042 396.07C30.2505 395.995 30.275 395.909 30.275 395.822C30.275 395.734 30.2505 395.648 30.2042 395.574C29.9095 395.266 29.6014 395.253 29.588 395.159Z" fill="#263238"/>
<path d="M45.0852 400.476C45.0852 400.396 45.4602 400.155 45.9692 400.557C46.1137 400.69 46.216 400.862 46.2636 401.052C46.3112 401.243 46.302 401.443 46.2371 401.628C46.1526 401.856 45.9982 402.051 45.7962 402.186C45.5941 402.32 45.3546 402.388 45.112 402.378C44.8716 402.356 44.6438 402.261 44.4593 402.105C44.2749 401.95 44.1427 401.741 44.0806 401.508C44.0325 401.321 44.0371 401.124 44.0938 400.94C44.1506 400.756 44.2573 400.59 44.4021 400.463C44.8843 400.061 45.2995 400.249 45.2593 400.329C45.2191 400.409 44.9646 400.49 44.7637 400.798C44.7074 400.877 44.6725 400.97 44.6627 401.066C44.6528 401.163 44.6681 401.261 44.7073 401.35C44.7464 401.439 44.808 401.516 44.8859 401.575C44.9639 401.633 45.0556 401.67 45.1522 401.682C45.2514 401.68 45.3482 401.651 45.4329 401.599C45.5176 401.548 45.5871 401.474 45.6344 401.387C45.6807 401.313 45.7052 401.227 45.7052 401.139C45.7052 401.052 45.6807 400.966 45.6344 400.892C45.4066 400.597 45.112 400.57 45.0852 400.476Z" fill="#263238"/>
<path d="M452.808 370.353L457.402 418.009H480.628L486.186 370.353H452.808Z" fill="#455A64"/>
<path d="M452.808 364.191C451.378 365.976 450.607 368.2 450.624 370.486H488.37C488.553 369.338 488.45 368.163 488.069 367.064C487.688 365.966 487.041 364.979 486.186 364.191H452.808Z" fill="#263238"/>
<path d="M457.107 359.825L455.835 364.539L484.325 364.754L482.436 359.771L457.107 359.825Z" fill="#263238"/>
<path d="M452.379 382.287C452.379 382.729 455.058 406.316 455.058 406.316H483.44L486.119 382.327L452.379 382.287Z" fill="#176DE4"/>
</svg>
