<svg width="291" height="228" viewBox="0 0 291 228" fill="none" xmlns="http://www.w3.org/2000/svg">
<path d="M291 200.895H0V201.041H291V200.895Z" fill="#EBEBEB"/>
<path d="M137.934 174.938H25.5557C24.6753 174.936 23.8315 174.585 23.2096 173.962C22.5876 173.339 22.2383 172.495 22.2383 171.615V13.6423C22.2459 12.767 22.5987 11.93 23.2198 11.3132C23.8409 10.6964 24.6803 10.3496 25.5557 10.3481H137.934C138.815 10.3481 139.661 10.6983 140.284 11.3215C140.907 11.9447 141.257 12.79 141.257 13.6714V171.615C141.257 172.496 140.907 173.341 140.284 173.964C139.661 174.588 138.815 174.938 137.934 174.938V174.938ZM25.5557 10.4645C24.7139 10.4661 23.9071 10.8016 23.3125 11.3973C22.7178 11.9931 22.3838 12.8005 22.3838 13.6423V171.615C22.3838 172.456 22.7178 173.264 23.3125 173.859C23.9071 174.455 24.7139 174.791 25.5557 174.792H137.934C138.776 174.791 139.584 174.455 140.179 173.86C140.775 173.264 141.11 172.457 141.112 171.615V13.6423C141.11 12.8 140.775 11.9926 140.179 11.397C139.584 10.8014 138.776 10.4661 137.934 10.4645H25.5557Z" fill="#EBEBEB"/>
<path d="M263.827 174.938H151.442C150.561 174.936 149.717 174.586 149.094 173.963C148.471 173.34 148.121 172.495 148.119 171.615V13.6423C148.128 12.7664 148.482 11.9295 149.104 11.3129C149.726 10.6962 150.566 10.3496 151.442 10.3481H263.827C264.701 10.3512 265.539 10.6987 266.159 11.3153C266.779 11.9319 267.13 12.768 267.138 13.6423V171.615C267.138 172.494 266.79 173.337 266.169 173.96C265.548 174.583 264.706 174.935 263.827 174.938V174.938ZM151.442 10.4645C150.6 10.4661 149.793 10.8014 149.197 11.397C148.601 11.9926 148.266 12.8 148.265 13.6423V171.615C148.266 172.457 148.601 173.264 149.197 173.86C149.793 174.455 150.6 174.791 151.442 174.792H263.827C264.669 174.791 265.476 174.455 266.072 173.86C266.667 173.264 267.003 172.457 267.004 171.615V13.6423C267.003 12.8 266.667 11.9926 266.072 11.397C265.476 10.8014 264.669 10.4661 263.827 10.4645H151.442Z" fill="#EBEBEB"/>
<path d="M261.842 206.436H243.468V206.581H261.842V206.436Z" fill="#EBEBEB"/>
<path d="M195.168 204.858H175.723V205.004H195.168V204.858Z" fill="#EBEBEB"/>
<path d="M267.15 211.842H230.815V211.988H267.15V211.842Z" fill="#EBEBEB"/>
<path d="M41.7236 210.865H30.5317V211.01H41.7236V210.865Z" fill="#EBEBEB"/>
<path d="M64.538 210.865H46.9092V211.01H64.538V210.865Z" fill="#EBEBEB"/>
<path d="M142.089 208.409H110.335V208.554H142.089V208.409Z" fill="#EBEBEB"/>
<path d="M158.455 47.0898L125.293 80.258V190.716H241.687V47.0898H158.455Z" fill="white"/>
<path d="M241.687 191.03H125.287C125.204 191.03 125.124 190.997 125.065 190.938C125.006 190.879 124.973 190.799 124.973 190.716V80.2578C124.973 80.2166 124.981 80.1758 124.997 80.1378C125.013 80.0998 125.036 80.0654 125.066 80.0367L158.24 46.8626C158.299 46.8051 158.378 46.7719 158.461 46.7695H241.687C241.728 46.7695 241.769 46.7777 241.807 46.7935C241.845 46.8092 241.88 46.8324 241.909 46.8616C241.938 46.8908 241.961 46.9254 241.977 46.9635C241.993 47.0017 242.001 47.0425 242.001 47.0838V190.716C242.001 190.757 241.993 190.798 241.977 190.836C241.961 190.874 241.938 190.909 241.909 190.938C241.88 190.967 241.845 190.99 241.807 191.006C241.769 191.022 241.728 191.03 241.687 191.03V191.03ZM125.607 190.407H241.373V47.4039H158.589L125.607 80.3858V190.407Z" fill="#E0E0E0"/>
<path d="M125.293 80.258L160.091 84.7452L158.455 47.0898L125.293 80.258Z" fill="#E6E6E6"/>
<path d="M125.293 80.258H158.455V47.0898L125.293 80.258Z" fill="white"/>
<path d="M158.455 80.5666H125.281C125.219 80.5669 125.159 80.5488 125.107 80.5147C125.055 80.4805 125.015 80.4317 124.99 80.3746C124.966 80.3179 124.96 80.2552 124.973 80.1949C124.985 80.1346 125.016 80.0795 125.06 80.037L158.234 46.863C158.279 46.8199 158.335 46.7904 158.396 46.778C158.457 46.7657 158.52 46.7709 158.578 46.7932C158.634 46.8179 158.683 46.8586 158.717 46.9102C158.751 46.9619 158.769 47.0223 158.77 47.0842V80.2582C158.768 80.3405 158.734 80.419 158.676 80.4767C158.617 80.5343 158.538 80.5666 158.455 80.5666V80.5666ZM126.05 79.9439H158.147V47.8466L126.05 79.9439Z" fill="#E0E0E0"/>
<path d="M190.221 128.023L210.009 108.235C210.451 107.793 210.802 107.268 211.041 106.69C211.28 106.112 211.403 105.493 211.403 104.868C211.403 104.243 211.28 103.623 211.041 103.046C210.802 102.468 210.451 101.943 210.009 101.501C209.567 101.059 209.042 100.708 208.464 100.469C207.886 100.23 207.267 100.106 206.642 100.106C206.017 100.106 205.398 100.23 204.82 100.469C204.242 100.708 203.717 101.059 203.275 101.501L183.487 121.289L163.699 101.501C162.806 100.608 161.595 100.106 160.332 100.106C159.069 100.106 157.858 100.608 156.965 101.501C156.072 102.394 155.571 103.605 155.571 104.868C155.571 106.131 156.072 107.342 156.965 108.235L176.753 128.023L156.965 147.811C156.072 148.704 155.571 149.915 155.571 151.178C155.571 152.44 156.072 153.652 156.965 154.545C157.858 155.437 159.069 155.939 160.332 155.939C161.595 155.939 162.806 155.437 163.699 154.545L183.487 134.757L203.275 154.545C204.168 155.437 205.379 155.939 206.642 155.939C207.905 155.939 209.116 155.437 210.009 154.545C210.902 153.652 211.403 152.44 211.403 151.178C211.403 149.915 210.902 148.704 210.009 147.811L190.221 128.023Z" fill="#F0F0F0"/>
<path d="M129.786 111.616C128.67 112.731 127.156 113.358 125.578 113.358C124 113.358 122.487 112.731 121.37 111.616L102.275 92.5148L110.691 84.0991L129.786 103.224C130.894 104.339 131.516 105.848 131.516 107.42C131.516 108.992 130.894 110.501 129.786 111.616V111.616Z" fill="#F0F0F0"/>
<path d="M102.272 92.5518L110.688 84.1358L111.466 84.9136C112.272 85.7202 112.725 86.8142 112.725 87.9549C112.725 89.0956 112.272 90.1896 111.466 90.9962L109.132 93.3296C108.326 94.1362 107.232 94.5893 106.091 94.5893C104.95 94.5893 103.856 94.1362 103.05 93.3296L102.272 92.5518V92.5518Z" fill="#E0E0E0"/>
<path d="M49.3011 31.1314C43.5263 36.9121 39.5949 44.275 38.0038 52.2895C36.4128 60.3041 37.2336 68.6104 40.3624 76.1586C43.4912 83.7067 48.7875 90.1579 55.582 94.6966C62.3765 99.2352 70.364 101.658 78.5349 101.658C86.7059 101.658 94.6934 99.2352 101.488 94.6966C108.282 90.1579 113.579 83.7067 116.707 76.1586C119.836 68.6104 120.657 60.3041 119.066 52.2895C117.475 44.275 113.544 36.9121 107.769 31.1314C103.931 27.2899 99.374 24.2424 94.3578 22.1631C89.3417 20.0839 83.9649 19.0137 78.5349 19.0137C73.1049 19.0137 67.7281 20.0839 62.712 22.1631C57.6959 24.2424 53.1387 27.2899 49.3011 31.1314V31.1314ZM105.383 87.2129C100.073 92.5222 93.3087 96.1378 85.9444 97.6026C78.5802 99.0674 70.947 98.3156 64.01 95.4421C57.0731 92.5687 51.144 87.7028 46.9725 81.4597C42.801 75.2166 40.5745 67.8767 40.5745 60.3682C40.5745 52.8597 42.801 45.5198 46.9725 39.2767C51.144 33.0335 57.0731 28.1676 64.01 25.2942C70.947 22.4208 78.5802 21.6689 85.9444 23.1337C93.3087 24.5985 100.073 28.2142 105.383 33.5234C108.908 37.0487 111.704 41.2338 113.612 45.8399C115.52 50.4459 116.502 55.3826 116.502 60.3682C116.502 65.3537 115.52 70.2904 113.612 74.8965C111.704 79.5025 108.908 83.6876 105.383 87.2129V87.2129Z" fill="#E0E0E0"/>
<path d="M100.255 83.4764C99.9818 83.4757 99.7147 83.3941 99.4875 83.2419C99.2603 83.0896 99.0833 82.8735 98.9787 82.6208C98.8742 82.3682 98.8468 82.0902 98.8999 81.8219C98.9531 81.5537 99.0845 81.3072 99.2775 81.1135C104.77 75.6061 107.854 68.1458 107.854 60.3681C107.854 52.5904 104.77 45.13 99.2775 39.6227C99.1364 39.4973 99.0224 39.3444 98.9426 39.1733C98.8627 39.0023 98.8187 38.8167 98.8131 38.6281C98.8075 38.4394 98.8406 38.2516 98.9103 38.0761C98.9799 37.9007 99.0847 37.7413 99.2182 37.6079C99.3517 37.4744 99.511 37.3696 99.6865 37.2999C99.8619 37.2303 100.05 37.1972 100.238 37.2027C100.427 37.2083 100.613 37.2524 100.784 37.3322C100.955 37.4121 101.108 37.5261 101.233 37.6672C107.244 43.692 110.619 51.8549 110.619 60.3652C110.619 68.8755 107.244 77.0383 101.233 83.0632C101.105 83.1929 100.953 83.2962 100.785 83.3671C100.618 83.4381 100.437 83.4752 100.255 83.4764V83.4764Z" fill="#E0E0E0"/>
<path d="M48.6435 68.8564C48.3321 68.8567 48.0297 68.7516 47.7856 68.5582C47.5415 68.3649 47.37 68.0946 47.2991 67.7913C46.2924 63.5282 46.1654 59.1045 46.9259 54.7907C47.6864 50.4768 49.3184 46.3632 51.7223 42.7013C51.9245 42.3926 52.241 42.1769 52.6023 42.1016C52.9636 42.0262 53.34 42.0975 53.6487 42.2997C53.9574 42.5019 54.1731 42.8185 54.2484 43.1798C54.3238 43.541 54.2525 43.9174 54.0503 44.2262C51.8494 47.5713 50.3531 51.3297 49.6526 55.2722C48.9522 59.2146 49.0623 63.2585 49.9763 67.157C50.0195 67.3336 50.0272 67.517 49.999 67.6966C49.9707 67.8762 49.9071 68.0484 49.8119 68.2032C49.7166 68.3581 49.5915 68.4924 49.4439 68.5986C49.2963 68.7047 49.1291 68.7805 48.9519 68.8215C48.8506 68.8435 48.7472 68.8552 48.6435 68.8564V68.8564Z" fill="#E0E0E0"/>
<path d="M56.8147 83.4763C56.4477 83.4754 56.096 83.3288 55.8369 83.0689C53.3438 80.5853 51.2789 77.7062 49.7259 74.5484C49.6457 74.3856 49.5983 74.2086 49.5864 74.0275C49.5746 73.8464 49.5985 73.6647 49.6569 73.4928C49.7153 73.321 49.8069 73.1623 49.9266 73.0258C50.0463 72.8894 50.1917 72.7779 50.3545 72.6976C50.5173 72.6174 50.6943 72.57 50.8754 72.5581C51.0565 72.5463 51.2382 72.5702 51.4101 72.6286C51.5819 72.687 51.7406 72.7786 51.877 72.8983C52.0135 73.018 52.125 73.1634 52.2053 73.3262C53.6291 76.2101 55.5166 78.8407 57.7925 81.1133C58.0512 81.373 58.1965 81.7246 58.1965 82.0911C58.1965 82.4576 58.0512 82.8092 57.7925 83.0689C57.5323 83.3272 57.1813 83.4735 56.8147 83.4763V83.4763Z" fill="#E0E0E0"/>
<path d="M122.821 164.814L128.262 170.255L115.627 182.889C114.981 183.535 114.105 183.898 113.191 183.898C112.277 183.898 111.401 183.535 110.755 182.889L110.183 182.317C109.537 181.671 109.174 180.794 109.174 179.881C109.174 178.967 109.537 178.09 110.183 177.444L122.817 164.81L122.821 164.814Z" fill="#F0F0F0"/>
<path d="M122.83 164.826L128.262 170.258L128.003 170.517C127.416 171.103 126.621 171.433 125.793 171.433C124.964 171.433 124.169 171.103 123.583 170.517L122.562 169.497C121.976 168.91 121.647 168.115 121.647 167.287C121.647 166.458 121.976 165.663 122.562 165.077L122.821 164.817L122.83 164.826Z" fill="#E0E0E0"/>
<path d="M165.492 135.304L152.746 148.044C151.331 149.56 150.561 151.566 150.597 153.64C150.634 155.713 151.474 157.691 152.941 159.157C154.408 160.622 156.387 161.46 158.461 161.495C160.534 161.529 162.54 160.757 164.054 159.34L169.211 154.19C170.296 147.652 168.975 140.942 165.492 135.304Z" fill="#F0F0F0"/>
<path d="M170.293 147.595C169.928 142.319 168.007 137.27 164.772 133.086C161.537 128.902 157.134 125.772 152.12 124.091C147.105 122.409 141.705 122.253 136.602 123.641C131.499 125.029 126.922 127.9 123.45 131.889C119.979 135.879 117.768 140.808 117.098 146.054C116.428 151.3 117.329 156.627 119.687 161.361C122.045 166.095 125.754 170.023 130.344 172.649C134.935 175.275 140.201 176.481 145.477 176.113C152.549 175.621 159.136 172.34 163.789 166.992C168.443 161.645 170.783 154.667 170.293 147.595ZM119.13 151.157C118.792 146.313 119.899 141.478 122.31 137.264C124.721 133.049 128.327 129.644 132.674 127.479C137.02 125.314 141.91 124.487 146.727 125.101C151.543 125.716 156.069 127.745 159.732 130.932C163.395 134.119 166.031 138.321 167.306 143.006C168.581 147.691 168.439 152.649 166.896 157.252C165.353 161.856 162.48 165.899 158.639 168.87C154.799 171.841 150.163 173.606 145.32 173.942C138.825 174.393 132.418 172.246 127.506 167.973C122.595 163.7 119.582 157.651 119.13 151.157Z" fill="#E0E0E0"/>
<path d="M130.007 165.108C127.948 163.322 126.261 161.148 125.043 158.709C123.826 156.27 123.102 153.614 122.913 150.895C122.899 150.775 122.91 150.653 122.945 150.537C122.98 150.422 123.038 150.314 123.116 150.221C123.193 150.128 123.289 150.052 123.396 149.997C123.504 149.942 123.622 149.91 123.742 149.902C123.863 149.893 123.984 149.91 124.098 149.949C124.212 149.989 124.317 150.052 124.407 150.133C124.496 150.214 124.568 150.313 124.619 150.423C124.669 150.533 124.696 150.652 124.699 150.773C125.056 155.785 127.384 160.451 131.173 163.751C134.963 167.05 139.905 168.714 144.918 168.378C145.154 168.362 145.387 168.44 145.566 168.596C145.744 168.752 145.854 168.972 145.87 169.208C145.886 169.444 145.808 169.677 145.652 169.855C145.497 170.034 145.277 170.143 145.04 170.159C142.325 170.348 139.6 169.999 137.02 169.132C134.441 168.265 132.057 166.897 130.007 165.108V165.108Z" fill="#E0E0E0"/>
<path d="M162.169 144.79C162.036 144.675 161.941 144.523 161.895 144.354C161.194 141.863 159.993 139.541 158.365 137.53C156.737 135.518 154.716 133.86 152.426 132.656C152.226 132.54 152.077 132.352 152.013 132.13C151.948 131.908 151.971 131.67 152.078 131.465C152.184 131.26 152.366 131.104 152.585 131.03C152.804 130.956 153.043 130.969 153.252 131.067C155.759 132.385 157.971 134.2 159.753 136.401C161.536 138.603 162.85 141.144 163.618 143.871C163.65 143.984 163.659 144.102 163.644 144.219C163.63 144.335 163.593 144.448 163.535 144.55C163.478 144.653 163.4 144.742 163.307 144.815C163.214 144.887 163.108 144.94 162.995 144.971C162.853 145.01 162.703 145.014 162.559 144.983C162.415 144.951 162.281 144.885 162.169 144.79V144.79Z" fill="#E0E0E0"/>
<path d="M141.653 130.316C141.475 130.158 141.366 129.936 141.35 129.699C141.334 129.463 141.412 129.23 141.567 129.052C141.722 128.873 141.941 128.762 142.177 128.745C144.447 128.587 146.727 128.801 148.928 129.379C149.042 129.409 149.15 129.462 149.244 129.533C149.339 129.605 149.418 129.695 149.478 129.797C149.538 129.9 149.577 130.013 149.592 130.13C149.608 130.248 149.601 130.367 149.571 130.482C149.541 130.597 149.488 130.704 149.417 130.798C149.345 130.893 149.255 130.972 149.153 131.032C149.05 131.092 148.937 131.131 148.82 131.146C148.702 131.162 148.583 131.155 148.468 131.125C146.46 130.594 144.377 130.397 142.305 130.543C142.066 130.555 141.832 130.473 141.653 130.316V130.316Z" fill="#E0E0E0"/>
<path d="M145.5 227.178C207.822 227.178 258.344 224.228 258.344 220.59C258.344 216.951 207.822 214.001 145.5 214.001C83.1782 214.001 32.6562 216.951 32.6562 220.59C32.6562 224.228 83.1782 227.178 145.5 227.178Z" fill="#F5F5F5"/>
<path d="M80.2112 63.2402C75.5203 67.9602 83.4937 75.2876 78.2266 78.6515C82.5275 80.8108 97.6013 83.552 101.507 75.0606C98.6606 72.849 100.639 67.4131 98.0146 62.1926C94.0861 54.452 75.5203 57.88 80.2112 63.2402Z" fill="#263238"/>
<path d="M80.6361 63.118C79.1753 62.8736 74.2341 65.3296 77.9123 71.9237C80.8747 77.2548 78.407 77.6331 78.407 77.6331C78.407 77.6331 81.317 77.7146 79.571 73.7512C77.7203 69.52 76.8531 65.1317 80.6361 63.118Z" fill="#263238"/>
<path d="M115.236 104.987C115.056 104.658 114.754 104.412 114.395 104.303C114.036 104.194 113.648 104.231 113.315 104.405L112.972 104.586C112.861 104.644 112.652 104.783 112.483 104.882C112.314 104.981 112.117 105.092 111.93 105.185C111.563 105.37 111.184 105.529 110.795 105.662C110.076 105.923 109.32 106.066 108.555 106.087C107.852 106.095 107.153 105.983 106.489 105.755C106.066 105.599 105.659 105.404 105.272 105.173C104.772 104.068 104.294 102.95 103.887 101.798C103.392 100.453 102.956 99.0799 102.572 97.6889C102.188 96.2979 101.85 94.8895 101.571 93.4752C101.425 92.771 101.297 92.0609 101.181 91.3567L101.024 90.3033C100.971 89.9657 100.925 89.5816 100.896 89.3139V89.1975C100.818 88.4257 100.438 87.7162 99.8375 87.225C99.2372 86.7339 98.4663 86.5013 97.6946 86.5785C96.9228 86.6557 96.2133 87.0363 95.7221 87.6366C95.231 88.2369 94.9984 89.0077 95.0756 89.7795C95.1163 90.2742 95.1512 90.6525 95.2036 91.0657C95.256 91.4789 95.3142 91.8747 95.3724 92.2763C95.5004 93.0794 95.6459 93.8709 95.8089 94.6625C96.1324 96.2353 96.5404 97.7895 97.0311 99.3185C97.2581 100.087 97.5374 100.843 97.7993 101.606C98.0612 102.368 98.3813 103.113 98.7131 103.852C99.3482 105.346 100.069 106.801 100.872 108.211L100.942 108.339C101.151 108.718 101.464 109.029 101.844 109.236C102.944 109.835 104.133 110.256 105.365 110.481C106.631 110.705 107.928 110.677 109.183 110.4C110.955 109.989 112.582 109.106 113.892 107.845C114.107 107.647 114.311 107.443 114.474 107.228C114.637 107.013 114.834 106.809 115.056 106.506C115.226 106.296 115.334 106.042 115.366 105.773C115.398 105.504 115.353 105.231 115.236 104.987Z" fill="#FF8B7B"/>
<path d="M119.107 99.5394H118.938C118.381 99.5275 117.828 99.6442 117.324 99.8804C116.819 100.117 116.376 100.466 116.028 100.901L113.217 104.428V106.838C115.475 107.734 118.338 105.319 118.338 105.319L119.788 104.952C120.275 104.83 120.701 104.532 120.981 104.115C121.262 103.698 121.378 103.191 121.307 102.694L121.097 101.28C121.029 100.799 120.79 100.359 120.425 100.04C120.06 99.7205 119.592 99.5429 119.107 99.5394V99.5394Z" fill="#FF8B7B"/>
<path d="M100.82 85.9384C102.7 87.8706 102.816 93.6382 102.816 93.6382L95.297 99.691C95.297 99.691 92.2065 91.1356 93.9176 88.115C95.3668 85.5542 98.4223 83.4765 100.82 85.9384Z" fill="#407BFF"/>
<g opacity="0.2">
<path opacity="0.2" d="M100.82 85.9384C102.7 87.8706 102.816 93.6382 102.816 93.6382L95.297 99.691C95.297 99.691 92.2065 91.1356 93.9176 88.115C95.3668 85.5542 98.4223 83.4765 100.82 85.9384Z" fill="white"/>
</g>
<path d="M88.377 215.602L92.5324 216.056L93.1028 204.765L88.9473 204.305L88.377 215.602Z" fill="#FF8B7B"/>
<path d="M93.2131 213.344H88.3301C88.2317 213.341 88.1359 213.376 88.0631 213.442C87.9903 213.509 87.9462 213.601 87.9402 213.699L87.6143 218.314C87.6142 218.556 87.7085 218.788 87.877 218.96C88.0456 219.133 88.275 219.234 88.5164 219.24C90.5766 219.24 90.5999 219.24 93.1724 219.24H100.104C102.234 219.24 102.24 217.08 101.32 216.883C97.1823 216.01 95.5702 214.799 94.1094 213.647C93.8527 213.449 93.5372 213.342 93.2131 213.344V213.344Z" fill="#263238"/>
<path opacity="0.2" d="M93.1025 204.771L92.8057 210.591H88.627L88.9471 204.311L93.1025 204.771Z" fill="black"/>
<path d="M95.3432 114.683C95.3432 114.683 98.94 144.79 98.94 158.176C96.1056 176.8 93.702 209.485 93.702 209.485L87.9518 209.334C87.9518 209.334 85.3386 173.739 87.7597 158.368C84.6577 144.598 80.8281 112.821 80.8281 112.821L95.3432 114.683Z" fill="#263238"/>
<path opacity="0.2" d="M84.2561 123.064C83.5707 123.366 82.9058 123.712 82.2656 124.1C83.0571 130.042 84.0989 137.521 85.2047 144.423C87.0904 138.743 86.0719 126.253 84.2561 123.064Z" fill="black"/>
<path d="M43.3765 205.12L46.8044 207.512L52.7176 197.874L49.2896 195.482L43.3765 205.12Z" fill="#FF8B7B"/>
<path d="M47.6717 206.249L44.7617 202.332C44.7063 202.252 44.6216 202.197 44.5259 202.178C44.4301 202.16 44.3309 202.179 44.2496 202.233L40.3502 204.736C40.1556 204.879 40.0252 205.093 39.9871 205.331C39.949 205.57 40.0062 205.814 40.1465 206.01C41.3629 207.669 41.3861 207.681 42.9168 209.741C43.8654 211.004 45.7569 213.547 47.0606 215.299C48.3643 217.051 50.0696 215.724 49.6738 214.863C47.9278 211.027 47.9278 209.043 47.9627 207.157C47.9687 206.831 47.8663 206.511 47.6717 206.249V206.249Z" fill="#263238"/>
<path opacity="0.2" d="M52.7119 197.874L49.668 202.845L45.9956 200.843L49.2897 195.482L52.7119 197.874Z" fill="black"/>
<path d="M64.4043 209.159C61.4302 209.159 55.2377 209.159 55.133 204.783C55.0515 201.349 59.3001 199.923 62.9667 199.749C63.373 199.729 63.7791 199.79 64.1619 199.927C64.5447 200.064 64.8966 200.276 65.1977 200.549C65.4987 200.823 65.7429 201.153 65.9164 201.521C66.0898 201.889 66.189 202.287 66.2085 202.693V202.926C70.3639 202.728 73.0528 201.82 74.0363 200.272C76.2538 196.78 72.0052 187.765 67.9021 179.053C63.0715 168.804 57.6007 157.193 57.4959 146.071C57.4921 145.664 57.5684 145.261 57.7204 144.884C57.8725 144.506 58.0973 144.163 58.3822 143.873C58.667 143.583 59.0062 143.351 59.3804 143.192C59.7546 143.033 60.1564 142.949 60.563 142.945V142.945C61.3787 142.947 62.161 143.269 62.7405 143.844C63.32 144.418 63.6501 145.197 63.6593 146.012C63.7524 155.778 68.8973 166.737 73.4718 176.41C78.7098 187.573 83.2785 197.217 79.2336 203.59C76.8881 207.338 72.0285 209.159 64.4043 209.159Z" fill="#407BFF"/>
<path d="M90.7398 114.09C90.7398 114.09 80.8109 148.497 75.9629 160.976C66.5694 177.306 50.9834 202.298 50.9834 202.298L46.0073 199.388C46.0073 199.388 57.6473 170.52 65.4752 157.076C67.5762 143.108 75.5205 112.111 75.5205 112.111L90.7398 114.09Z" fill="#263238"/>
<path d="M48.568 209.06C48.7655 209.387 49.0697 209.636 49.4293 209.765C49.5346 209.79 49.6449 209.785 49.7477 209.751C49.8505 209.717 49.9418 209.655 50.0113 209.573C50.0597 209.528 50.0967 209.473 50.1189 209.411C50.1412 209.349 50.1483 209.283 50.1394 209.217C50.0695 208.519 48.2653 207.611 47.9045 207.437C47.8835 207.428 47.86 207.427 47.8386 207.435C47.8172 207.442 47.7992 207.457 47.7881 207.477C47.7741 207.499 47.7666 207.524 47.7666 207.55C47.7666 207.576 47.7741 207.601 47.7881 207.623C48.0018 208.126 48.2629 208.607 48.568 209.06V209.06ZM49.8076 209.06C49.8589 209.124 49.8929 209.201 49.9066 209.282C49.9094 209.304 49.9066 209.327 49.8985 209.348C49.8904 209.37 49.8772 209.389 49.86 209.404C49.8131 209.457 49.7528 209.497 49.6853 209.52C49.6178 209.542 49.5455 209.546 49.4759 209.532C49.0918 209.456 48.5854 208.833 48.0966 207.85C48.7304 208.145 49.3091 208.547 49.8076 209.037V209.06Z" fill="#407BFF"/>
<path d="M47.759 207.646L47.794 207.675C48.376 207.995 49.8892 208.257 50.2209 207.774C50.2766 207.686 50.3037 207.583 50.2985 207.479C50.2932 207.374 50.256 207.274 50.1918 207.192C49.6098 206.162 47.8638 207.373 47.7881 207.425C47.7708 207.439 47.757 207.457 47.7479 207.477C47.7388 207.497 47.7346 207.519 47.7358 207.541C47.7334 207.578 47.7415 207.614 47.759 207.646ZM49.9706 207.309C49.9876 207.329 50.0031 207.35 50.0172 207.373C50.0812 207.483 50.0929 207.565 50.0579 207.611C49.8659 207.891 48.7484 207.792 48.0966 207.536C48.5331 207.274 49.5516 206.744 49.9706 207.309Z" fill="#407BFF"/>
<path d="M96.0303 214.304C96.4118 214.339 96.7937 214.242 97.1129 214.03C97.1938 213.96 97.2535 213.868 97.2853 213.765C97.3172 213.662 97.3199 213.553 97.2933 213.448C97.2849 213.383 97.2618 213.32 97.2254 213.264C97.1891 213.209 97.1407 213.162 97.0837 213.128C96.5017 212.773 94.6801 213.675 94.3251 213.862C94.3051 213.873 94.2895 213.89 94.281 213.912C94.2725 213.933 94.2716 213.956 94.2785 213.978C94.2874 214.002 94.3021 214.024 94.3214 214.041C94.3407 214.059 94.3639 214.071 94.3891 214.077C94.927 214.208 95.4769 214.285 96.0303 214.304V214.304ZM96.752 213.297C96.8349 213.292 96.9176 213.31 96.9906 213.349C97.0197 213.349 97.0488 213.39 97.0605 213.46C97.0757 213.53 97.0718 213.602 97.0493 213.67C97.0268 213.737 96.9864 213.798 96.9324 213.844C96.6473 214.106 95.8441 214.141 94.7616 213.949C95.3732 213.621 96.0366 213.401 96.7229 213.297H96.752Z" fill="#407BFF"/>
<path d="M94.3887 214.106H94.4294C95.0114 213.838 96.1463 212.773 95.9601 212.22C95.9213 212.129 95.8564 212.051 95.7736 211.996C95.6909 211.941 95.5938 211.912 95.4945 211.912C94.3305 211.778 94.249 213.885 94.2432 213.972C94.2433 213.995 94.2493 214.018 94.2605 214.038C94.2716 214.059 94.2877 214.076 94.3072 214.089C94.3319 214.103 94.3604 214.109 94.3887 214.106V214.106ZM95.4363 212.127H95.5177C95.64 212.127 95.7156 212.18 95.7331 212.238C95.8437 212.558 95.0987 213.402 94.4992 213.768C94.5516 213.262 94.7379 212.127 95.4479 212.127H95.4363Z" fill="#407BFF"/>
<path d="M75.5205 112.14L95.3434 114.677C99.8132 99.6269 101.286 92.3577 101.681 88.8599C101.786 87.9808 101.581 87.0926 101.1 86.3488C100.62 85.605 99.8952 85.0522 99.0508 84.7859C97.8868 84.4134 96.3852 83.9711 94.8953 83.6219C94.389 83.4881 93.871 83.3658 93.3646 83.2494C90.397 82.6474 87.3901 82.2584 84.3669 82.0854C83.9188 82.0447 83.4765 82.0214 83.0283 81.9981C82.1495 81.9516 81.2823 81.9399 80.4908 81.9399C79.8967 81.9392 79.309 82.0623 78.7651 82.3012C78.2212 82.5402 77.733 82.8898 77.3317 83.3278C76.9304 83.7658 76.6247 84.2826 76.4341 84.8453C76.2435 85.408 76.1722 86.0042 76.2247 86.5959C76.3819 88.3419 76.5041 89.9657 76.5972 91.4556C76.8184 94.9476 76.8882 97.7412 76.8358 100.186C76.7169 104.199 76.277 108.197 75.5205 112.14V112.14Z" fill="#407BFF"/>
<g opacity="0.3">
<path opacity="0.3" d="M75.5205 112.14L95.3434 114.677C99.8132 99.6269 101.286 92.3577 101.681 88.8599C101.786 87.9808 101.581 87.0926 101.1 86.3488C100.62 85.605 99.8952 85.0522 99.0508 84.7859C97.8868 84.4134 96.3852 83.9711 94.8953 83.6219C94.389 83.4881 93.871 83.3658 93.3646 83.2494C90.397 82.6474 87.3901 82.2584 84.3669 82.0854C83.9188 82.0447 83.4765 82.0214 83.0283 81.9981C82.1495 81.9516 81.2823 81.9399 80.4908 81.9399C79.8967 81.9392 79.309 82.0623 78.7651 82.3012C78.2212 82.5402 77.733 82.8898 77.3317 83.3278C76.9304 83.7658 76.6247 84.2826 76.4341 84.8453C76.2435 85.408 76.1722 86.0042 76.2247 86.5959C76.3819 88.3419 76.5041 89.9657 76.5972 91.4556C76.8184 94.9476 76.8882 97.7412 76.8358 100.186C76.7169 104.199 76.277 108.197 75.5205 112.14V112.14Z" fill="white"/>
</g>
<path opacity="0.3" d="M76.8241 100.162C79.4431 96.7752 80.3917 92.8991 79.542 90.7632L76.5854 91.4267C76.8241 94.907 76.8881 97.7123 76.8241 100.162Z" fill="#407BFF"/>
<path d="M94.8954 83.587C94.3833 83.4531 93.8711 83.3309 93.3648 83.2145C90.3947 82.6152 87.3861 82.2262 84.3612 82.0505C83.9131 82.0156 83.4708 81.9923 83.0285 81.969L82.2544 81.9341L82.8364 82.9526C82.9179 83.0923 84.8967 86.3282 89.8204 89.8085L90.8738 90.5419L91.8865 89.7678C92.8617 89.0682 93.6586 88.1489 94.2127 87.0843C94.7667 86.0196 95.0624 84.8395 95.0759 83.6393L94.8954 83.587Z" fill="white"/>
<path d="M86.5492 76.0677C86.3629 78.5179 85.7867 81.0147 84.3608 82.0623C84.3608 82.0623 86.1767 85.0829 90.8792 88.3828C93.8242 86.1305 93.3644 83.2147 93.3644 83.2147C90.2332 82.0507 90.4544 79.8798 91.7755 76.4169L89.3311 75.1016C89.1202 74.8692 88.8457 74.7039 88.5416 74.6263C88.2375 74.5488 87.9173 74.5623 87.6209 74.6652C87.3244 74.7682 87.0647 74.956 86.8742 75.2054C86.6837 75.4547 86.5706 75.7546 86.5492 76.0677V76.0677Z" fill="#FF8B7B"/>
<path opacity="0.2" d="M89.3315 75.1011C89.1334 74.8823 88.8787 74.7226 88.5955 74.6395C88.3124 74.5564 88.0117 74.5532 87.7268 74.6303C87.442 74.7074 87.1839 74.8617 86.9813 75.0763C86.7787 75.2908 86.6393 75.5573 86.5786 75.8461C87.5071 77.7182 89.0046 79.2483 90.8563 80.2169C90.9226 78.9044 91.2325 77.6157 91.7701 76.4164L89.3315 75.1011Z" fill="black"/>
<path d="M82.743 68.3851C83.9594 73.1168 84.3726 75.1422 87.2651 77.1151C91.6127 80.1066 97.1591 77.5807 97.3745 72.5872C97.5782 68.0883 95.5586 61.1043 90.5069 60.1033C89.3917 59.8753 88.2367 59.9368 87.152 60.2819C86.0673 60.627 85.089 61.2441 84.3105 62.0746C83.532 62.905 82.9792 63.921 82.7048 65.0257C82.4304 66.1304 82.4436 67.287 82.743 68.3851V68.3851Z" fill="#FF8B7B"/>
<path d="M94.7849 61.0809C91.9351 63.6142 88.5545 65.4775 84.8909 66.5342C84.8909 66.5342 88.5051 74.2224 81.7422 72.2844C79.7809 65.7369 81.7422 62.338 83.4882 60.7375C88.8659 58.9915 92.6489 58.4095 94.7849 61.0809Z" fill="#263238"/>
<path d="M82.516 73.047C82.9125 73.9043 83.6323 74.5697 84.518 74.8978C85.6821 75.3168 86.3746 74.3158 86.1244 73.1518C85.8974 72.11 85.0127 70.6317 83.7964 70.7074C83.5333 70.7298 83.2798 70.8171 83.0586 70.9612C82.8374 71.1054 82.6553 71.3021 82.5285 71.5337C82.4018 71.7653 82.3343 72.0247 82.3321 72.2888C82.3299 72.5528 82.3931 72.8133 82.516 73.047V73.047Z" fill="#FF8B7B"/>
<path d="M75.375 110.941L74.2517 112.6C74.1644 112.728 74.3099 112.891 74.5369 112.92L95.3259 115.585C95.5064 115.585 95.6635 115.539 95.6926 115.428L96.1 113.682C96.1 113.56 95.9836 113.438 95.7915 113.409L75.7125 110.836C75.652 110.822 75.5889 110.824 75.5295 110.843C75.4702 110.861 75.4168 110.895 75.375 110.941V110.941Z" fill="#407BFF"/>
<path d="M77.7785 113.531L77.2431 113.461C77.1383 113.461 77.0627 113.379 77.0801 113.315L77.6272 111.04C77.648 111.002 77.6813 110.971 77.7215 110.954C77.7617 110.938 77.8064 110.935 77.8484 110.947L78.3896 111.017C78.4944 111.017 78.5701 111.092 78.5526 111.162L78.0055 113.432C77.9881 113.502 77.8891 113.542 77.7785 113.531Z" fill="#263238"/>
<path d="M93.7893 115.58L93.2538 115.516C93.1491 115.516 93.0734 115.434 93.0909 115.364L93.638 113.094C93.638 113.03 93.7544 112.984 93.8591 112.995L94.4004 113.065C94.5051 113.065 94.5808 113.147 94.5633 113.211L94.0163 115.486C93.9988 115.55 93.8999 115.597 93.7893 115.58Z" fill="#263238"/>
<path d="M85.7868 114.555L85.2514 114.485C85.1408 114.485 85.0651 114.41 85.0826 114.34L85.6297 112.07C85.6297 112 85.7461 111.96 85.8566 111.971L86.3921 112.041C86.4968 112.041 86.5725 112.123 86.5609 112.187L86.008 114.462C85.9963 114.526 85.8916 114.567 85.7868 114.555Z" fill="#263238"/>
<path d="M90.8502 68.1811C90.9201 68.5711 91.1878 68.8504 91.4322 68.7981C91.6767 68.7457 91.8338 68.3965 91.7581 68.0065C91.6825 67.6166 91.4148 67.3372 91.1761 67.3896C90.9375 67.442 90.792 67.7912 90.8502 68.1811Z" fill="#263238"/>
<path d="M95.2501 67.3377C95.3257 67.7276 95.5935 68.0011 95.8321 67.9546C96.0707 67.908 96.2337 67.5472 96.158 67.1572C96.0823 66.7673 95.8146 66.4938 95.576 66.5403C95.3374 66.5869 95.1802 66.9477 95.2501 67.3377Z" fill="#263238"/>
<path d="M95.4482 66.5868L96.3329 66.1328C96.3329 66.1328 96.0302 66.9593 95.4482 66.5868Z" fill="#263238"/>
<path d="M94.0864 68.2104C94.6065 69.0303 95.2349 69.7762 95.9546 70.4279C95.7841 70.6091 95.5758 70.7504 95.3444 70.842C95.1131 70.9335 94.8644 70.973 94.616 70.9575L94.0864 68.2104Z" fill="#FF5652"/>
<path d="M91.3393 72.5289C91.3218 72.5493 91.3118 72.575 91.3111 72.6019C91.3104 72.6287 91.319 72.655 91.3354 72.6763C91.3518 72.6975 91.3751 72.7124 91.4013 72.7184C91.4275 72.7245 91.4549 72.7212 91.479 72.7093C91.9188 72.485 92.4054 72.3681 92.8991 72.3681C93.3928 72.3681 93.8794 72.485 94.3192 72.7093C94.3455 72.7244 94.3767 72.7285 94.406 72.7209C94.4354 72.7133 94.4606 72.6945 94.4763 72.6686C94.4922 72.6421 94.4974 72.6105 94.4909 72.5803C94.4845 72.55 94.4668 72.5234 94.4414 72.5056C93.9668 72.2625 93.4411 72.1357 92.9078 72.1357C92.3745 72.1357 91.8489 72.2625 91.3743 72.5056C91.3743 72.5056 91.3743 72.5173 91.3393 72.5289Z" fill="#263238"/>
<path d="M89.3312 66.9824C89.3671 66.9603 89.3955 66.9278 89.4127 66.8893C89.534 66.624 89.7164 66.3913 89.9451 66.2102C90.1737 66.0291 90.442 65.9048 90.728 65.8475C90.7587 65.8439 90.7883 65.8342 90.8152 65.8191C90.8421 65.8039 90.8658 65.7836 90.8847 65.7592C90.9037 65.7348 90.9176 65.7069 90.9257 65.6771C90.9337 65.6473 90.9358 65.6162 90.9317 65.5856C90.9289 65.5552 90.9199 65.5256 90.9053 65.4988C90.8908 65.4719 90.871 65.4483 90.847 65.4292C90.8231 65.4102 90.7956 65.3962 90.7662 65.3881C90.7367 65.3799 90.7059 65.3778 90.6756 65.3819C90.3118 65.4498 89.9695 65.6036 89.677 65.8303C89.3845 66.057 89.1502 66.3502 88.9937 66.6856C88.9711 66.7315 88.9642 66.7836 88.9742 66.8337C88.9842 66.8839 89.0104 66.9294 89.0488 66.9632C89.0872 66.997 89.1357 67.0172 89.1868 67.0207C89.2378 67.0241 89.2886 67.0107 89.3312 66.9824V66.9824Z" fill="#263238"/>
<path d="M96.56 64.0315L96.5891 64.0024C96.6068 63.9773 96.6194 63.9488 96.6261 63.9188C96.6328 63.8887 96.6334 63.8576 96.628 63.8273C96.6226 63.797 96.6112 63.7681 96.5945 63.7422C96.5779 63.7163 96.5562 63.694 96.5309 63.6765C96.23 63.4602 95.8819 63.3189 95.5155 63.2642C95.1491 63.2096 94.7749 63.2432 94.424 63.3622C94.368 63.3866 94.3234 63.4317 94.2996 63.488C94.2758 63.5443 94.2745 63.6076 94.296 63.6649C94.3192 63.7219 94.3641 63.7674 94.4209 63.7914C94.4776 63.8154 94.5415 63.8159 94.5986 63.7929C94.8773 63.7016 95.1738 63.6782 95.4634 63.7248C95.7529 63.7714 96.0271 63.8865 96.2632 64.0606C96.3078 64.0924 96.3625 64.107 96.417 64.1017C96.4716 64.0963 96.5224 64.0714 96.56 64.0315V64.0315Z" fill="#263238"/>
<path d="M91.0654 67.4306L91.9501 66.9824C91.9501 66.9824 91.6067 67.803 91.0654 67.4306Z" fill="#263238"/>
<path d="M60.5921 149.137C59.776 149.137 58.9928 148.815 58.413 148.241C57.8332 147.666 57.5036 146.886 57.4959 146.07C57.4144 137.806 60.1673 130.828 65.4577 125.892C71.9702 119.816 82.1261 116.993 94.0688 117.936C102.444 118.6 107.816 116.563 114.031 114.194C115.056 113.81 116.086 113.414 117.145 113.03C117.917 112.749 118.769 112.786 119.513 113.133C120.257 113.48 120.833 114.109 121.114 114.881C121.395 115.653 121.358 116.504 121.011 117.249C120.664 117.993 120.035 118.569 119.264 118.85C118.233 119.223 117.232 119.607 116.237 119.985C109.899 122.394 103.352 124.88 93.5799 124.111C83.3949 123.302 74.9093 125.543 69.683 130.42C65.609 134.192 63.6244 139.435 63.6884 146.012C63.6922 146.419 63.6159 146.822 63.4639 147.199C63.3118 147.576 63.0869 147.92 62.8021 148.21C62.5173 148.5 62.1781 148.731 61.8039 148.891C61.4297 149.05 61.0278 149.134 60.6212 149.137H60.5921Z" fill="#407BFF"/>
<path d="M132.199 123.222L119.744 127.785C118.705 128.165 117.557 128.118 116.553 127.652C115.549 127.186 114.771 126.341 114.391 125.302L109.248 111.263C108.867 110.224 108.915 109.076 109.38 108.072C109.846 107.068 110.691 106.29 111.73 105.909L124.185 101.346L132.193 123.206L132.199 123.222Z" fill="#407BFF"/>
<path opacity="0.7" d="M132.199 123.222L119.744 127.785C118.705 128.165 117.557 128.118 116.553 127.652C115.549 127.186 114.771 126.341 114.391 125.302L109.248 111.263C108.867 110.224 108.915 109.076 109.38 108.072C109.846 107.068 110.691 106.29 111.73 105.909L124.185 101.346L132.193 123.206L132.199 123.222Z" fill="white"/>
<path opacity="0.2" d="M118.635 103.375L124.193 101.344L132.201 123.215L126.643 125.252C126.273 124.894 125.991 124.456 125.817 123.972L118.833 104.888C118.65 104.406 118.582 103.888 118.635 103.375V103.375Z" fill="#407BFF"/>
<path d="M136.675 106.791L136.128 106.992L137.462 110.631L138.008 110.431L136.675 106.791Z" fill="#407BFF"/>
<path d="M135.286 104.725L133.325 99.3589C132.988 98.449 132.381 97.6639 131.585 97.1093C130.789 96.5548 129.843 96.2572 128.872 96.2568C128.32 96.2552 127.773 96.3518 127.254 96.542L123.716 97.8399L123.512 97.2928L127.057 95.9949C127.638 95.7817 128.253 95.6733 128.872 95.6748C129.962 95.6774 131.026 96.0133 131.919 96.6375C132.813 97.2617 133.494 98.1443 133.872 99.1668L135.833 104.533L135.286 104.725Z" fill="#407BFF"/>
<path d="M132.295 124.789L137.492 122.909C139.19 122.295 140.069 120.421 139.455 118.723L132.4 99.2194C131.786 97.5213 129.912 96.6427 128.214 97.2569L123.016 99.1367C121.318 99.7509 120.44 101.625 121.054 103.323L128.108 122.827C128.723 124.525 130.597 125.403 132.295 124.789Z" fill="#407BFF"/>
<path d="M129.32 105.139C129.439 105.463 129.459 105.815 129.377 106.151C129.295 106.487 129.116 106.791 128.861 107.024C128.607 107.258 128.289 107.411 127.947 107.464C127.606 107.516 127.256 107.467 126.943 107.321C126.63 107.175 126.367 106.939 126.188 106.644C126.009 106.348 125.921 106.006 125.936 105.661C125.952 105.316 126.069 104.983 126.273 104.704C126.478 104.426 126.761 104.215 127.085 104.097C127.52 103.939 127.999 103.96 128.418 104.156C128.837 104.351 129.162 104.704 129.32 105.139Z" fill="#263238"/>
<path d="M133.668 117.005C133.786 117.329 133.806 117.682 133.724 118.017C133.642 118.352 133.463 118.656 133.208 118.889C132.954 119.123 132.636 119.276 132.295 119.328C131.954 119.381 131.605 119.332 131.292 119.186C130.979 119.041 130.716 118.806 130.536 118.511C130.357 118.216 130.269 117.874 130.283 117.529C130.298 117.184 130.414 116.852 130.618 116.573C130.822 116.294 131.103 116.082 131.428 115.963C131.643 115.884 131.872 115.849 132.101 115.858C132.331 115.868 132.556 115.923 132.764 116.02C132.972 116.116 133.159 116.253 133.314 116.422C133.469 116.591 133.59 116.789 133.668 117.005V117.005Z" fill="#263238"/>
<path d="M82.6439 115.603L82.5974 115.55C81.6894 114.642 80.7291 113.653 79.862 112.64C78.9948 111.628 78.1451 110.615 77.371 109.567C76.6121 108.545 75.9219 107.474 75.3049 106.361C74.8634 105.564 74.4878 104.733 74.1816 103.875C74.5308 102.711 74.9033 101.547 75.3457 100.43C75.852 99.0856 76.4224 97.7644 77.0451 96.4608C77.6678 95.1571 78.3313 93.8767 79.0472 92.6254C79.3964 91.9968 79.763 91.3741 80.1413 90.763L80.7233 89.8667C80.9037 89.5757 81.1191 89.2847 81.2704 89.0344L81.3344 88.9413C81.7481 88.3107 81.9009 87.5441 81.7604 86.8031C81.6199 86.062 81.1972 85.4045 80.5814 84.9691C79.9656 84.5336 79.2048 84.3543 78.4593 84.4688C77.7138 84.5834 77.042 84.9829 76.5853 85.5832C76.2943 85.9789 76.0731 86.2932 75.8403 86.6366C75.6075 86.98 75.398 87.3234 75.1769 87.6667C74.752 88.3535 74.3388 89.0461 73.943 89.7503C73.1557 91.1553 72.4427 92.6006 71.8071 94.0804C71.4812 94.8137 71.2251 95.5645 70.8933 96.3153C70.5616 97.066 70.3404 97.8285 70.1076 98.6083C69.6136 100.154 69.2075 101.726 68.8913 103.317V103.451C68.8009 103.875 68.8312 104.317 68.9786 104.725C69.5425 106.217 70.2914 107.633 71.2076 108.939C72.0705 110.178 73.032 111.346 74.0827 112.431C75.1063 113.476 76.1928 114.457 77.3361 115.37C78.4789 116.281 79.6783 117.119 80.927 117.878C81.2302 118.056 81.5877 118.116 81.9325 118.049C82.2772 117.982 82.5856 117.791 82.7997 117.512C83.0139 117.234 83.1192 116.887 83.0959 116.537C83.0725 116.186 82.9222 115.856 82.673 115.609L82.6439 115.603Z" fill="#FF8B7B"/>
<path d="M89.407 118.495L89.3314 118.344C89.0898 117.839 88.7342 117.398 88.2929 117.055C87.8515 116.711 87.3363 116.475 86.788 116.365L82.3706 115.469L80.2114 116.545C80.4442 118.967 83.9013 120.416 83.9013 120.416L84.8849 121.539C85.2165 121.916 85.6755 122.157 86.1739 122.216C86.6722 122.275 87.1749 122.148 87.5854 121.859L88.7494 121.027C89.1406 120.751 89.4213 120.345 89.5417 119.881C89.6621 119.418 89.6144 118.927 89.407 118.495V118.495Z" fill="#FF8B7B"/>
<path d="M78.6806 82.3124C76.2304 83.4357 73.623 87.3234 73.623 87.3234L78.861 97.1301C78.861 97.1301 84.8149 90.2683 84.3144 86.8345C83.907 83.9187 81.8001 80.8807 78.6806 82.3124Z" fill="#407BFF"/>
<g opacity="0.3">
<path opacity="0.3" d="M78.6806 82.3124C76.2304 83.4357 73.623 87.3234 73.623 87.3234L78.861 97.1301C78.861 97.1301 84.8149 90.2683 84.3144 86.8345C83.907 83.9187 81.8001 80.8807 78.6806 82.3124Z" fill="white"/>
</g>
<path d="M246.355 210.806C241.228 210.806 236.188 209.753 233.743 206.563C222.173 191.431 222.278 160.993 222.377 131.538C222.435 115.678 223.686 100.692 221.923 89.0518C220.887 82.1901 217.267 77.4817 213.612 75.0489C208.188 71.4638 200.738 73.3902 197.554 74.2108C197.158 74.3216 196.743 74.3522 196.335 74.3008C195.926 74.2494 195.532 74.117 195.175 73.9114C194.818 73.7058 194.506 73.4312 194.257 73.1035C194.008 72.7758 193.826 72.4017 193.723 72.003C193.62 71.6043 193.598 71.1891 193.657 70.7817C193.717 70.3743 193.857 69.9828 194.07 69.6302C194.282 69.2776 194.563 68.9709 194.895 68.7281C195.228 68.4853 195.606 68.3113 196.006 68.2162C199.981 67.1861 209.305 64.7824 217.022 69.8807C222.231 73.3204 226.736 79.4605 228.045 88.1265C229.879 100.232 228.627 115.44 228.569 131.538C228.47 159.957 228.371 189.342 238.661 202.78C239.493 203.863 242.735 204.835 248.119 204.556C248.596 204.556 249.061 204.503 249.521 204.462C249.313 204.041 249.205 203.577 249.207 203.106C249.207 202.285 249.533 201.498 250.114 200.917C250.694 200.336 251.482 200.01 252.303 200.01C259.072 200.01 262.634 200.592 263.32 203.688C263.518 204.579 263.623 206.814 260.352 208.344C257.908 209.491 252.076 210.806 246.355 210.806Z" fill="#407BFF"/>
<path d="M178.598 213.477L172.284 210.992L175.613 200.045L181.933 202.524L178.598 213.477Z" fill="#FFC3BD"/>
<path d="M172.133 210.323L179.256 213.117C179.346 213.153 179.422 213.219 179.47 213.303C179.519 213.388 179.538 213.486 179.524 213.582L178.826 218.017C178.807 218.124 178.765 218.226 178.703 218.315C178.64 218.404 178.558 218.477 178.463 218.53C178.368 218.583 178.263 218.614 178.154 218.621C178.046 218.628 177.937 218.611 177.836 218.57C176.049 217.831 173.25 216.609 170.986 215.718C169.595 215.171 166.947 214.298 165.021 213.541C163.094 212.785 163.595 210.783 164.439 210.922C168.274 211.539 169.741 210.882 171.271 210.311C171.549 210.205 171.857 210.209 172.133 210.323V210.323Z" fill="#263238"/>
<path opacity="0.2" d="M181.933 202.53L175.613 200.045L173.896 205.69L180.217 208.175L181.933 202.53Z" fill="black"/>
<path d="M189.831 117.791C189.831 117.791 184.116 146.041 181.933 159.974C179.477 175.589 172.988 204.113 172.988 204.113L181.386 207.413C181.386 207.413 193.381 178.208 195.051 164.066C200.086 152.571 210.096 118.745 210.096 118.745L189.831 117.791Z" fill="#407BFF"/>
<path d="M172.581 204.16L181.799 207.786L183.377 204.992L173.069 200.72L172.581 204.16Z" fill="#263238"/>
<path d="M170.322 210.445C170.001 210.345 169.722 210.14 169.531 209.863C169.478 209.761 169.45 209.647 169.45 209.531C169.45 209.416 169.478 209.302 169.531 209.2C169.555 209.136 169.595 209.081 169.649 209.04C169.702 208.999 169.766 208.973 169.834 208.967C170.445 208.903 171.58 210.393 171.69 210.567C171.703 210.586 171.709 210.609 171.709 210.631C171.709 210.654 171.703 210.676 171.69 210.695C171.678 210.715 171.66 210.73 171.64 210.739C171.619 210.748 171.596 210.751 171.574 210.748C171.147 210.693 170.727 210.591 170.322 210.445V210.445ZM170.014 209.229C169.967 209.206 169.915 209.196 169.863 209.2C169.828 209.2 169.787 209.2 169.746 209.299C169.708 209.368 169.687 209.446 169.687 209.526C169.687 209.605 169.708 209.683 169.746 209.753C169.915 210.061 170.497 210.335 171.341 210.474C170.987 209.974 170.535 209.551 170.014 209.229V209.229Z" fill="#407BFF"/>
<path d="M171.562 210.742C171.543 210.736 171.527 210.723 171.516 210.707C171.143 210.265 170.619 208.897 170.934 208.426C170.982 208.353 171.054 208.298 171.138 208.272C171.222 208.245 171.312 208.248 171.393 208.28C171.48 208.302 171.561 208.342 171.631 208.397C171.701 208.452 171.759 208.522 171.801 208.6C172.162 209.246 171.754 210.608 171.737 210.666C171.73 210.687 171.718 210.705 171.701 210.72C171.685 210.734 171.665 210.744 171.644 210.748C171.631 210.754 171.617 210.757 171.602 210.756C171.588 210.755 171.574 210.75 171.562 210.742V210.742ZM171.364 208.519H171.318C171.167 208.484 171.132 208.519 171.114 208.571C170.94 208.851 171.225 209.84 171.556 210.381C171.722 209.843 171.722 209.267 171.556 208.728C171.52 208.638 171.451 208.563 171.364 208.519V208.519Z" fill="#407BFF"/>
<path opacity="0.2" d="M202.152 134.896C198.986 138.819 197.735 148.817 197.746 157.152C199.882 151.268 202.332 143.795 204.486 137.009L202.152 134.896Z" fill="black"/>
<path d="M216.603 214.531H209.817L208.915 203.124H215.701L216.603 214.531Z" fill="#FFC3BD"/>
<path d="M209.433 213.96H217.086C217.184 213.96 217.279 213.993 217.356 214.054C217.432 214.116 217.485 214.202 217.505 214.298L218.477 218.675C218.5 218.782 218.498 218.892 218.472 218.998C218.446 219.104 218.397 219.203 218.328 219.288C218.258 219.372 218.171 219.44 218.072 219.486C217.973 219.532 217.865 219.555 217.755 219.553C215.823 219.519 212.779 219.402 210.347 219.402C208.845 219.402 206.063 219.559 203.997 219.559C201.931 219.559 201.669 217.516 202.501 217.33C206.302 216.498 207.431 215.357 208.641 214.263C208.859 214.069 209.141 213.962 209.433 213.96V213.96Z" fill="#263238"/>
<path opacity="0.2" d="M215.701 203.124H208.909L209.381 209.008H216.173L215.701 203.124Z" fill="black"/>
<path d="M198.049 118.146C198.049 118.146 201.809 149.626 202.6 160.958C203.7 176.73 207.954 207.867 207.954 207.867H216.975C216.975 207.867 217.942 176.067 216.312 161.918C218.559 149.574 217.848 119.095 217.848 119.095L198.049 118.146Z" fill="#407BFF"/>
<path d="M207.594 208.059H217.499L217.947 204.887L206.791 204.678L207.594 208.059Z" fill="#263238"/>
<path d="M207.774 214.735C207.439 214.76 207.105 214.672 206.825 214.484C206.739 214.408 206.671 214.313 206.629 214.206C206.586 214.098 206.57 213.982 206.581 213.868C206.581 213.799 206.6 213.732 206.636 213.673C206.672 213.614 206.723 213.567 206.785 213.536C207.332 213.256 208.921 214.234 209.113 214.345C209.133 214.356 209.149 214.373 209.16 214.394C209.17 214.415 209.174 214.438 209.171 214.461C209.166 214.485 209.154 214.506 209.138 214.523C209.121 214.541 209.101 214.553 209.078 214.56C208.651 214.667 208.214 214.726 207.774 214.735ZM207.041 213.716C206.989 213.713 206.937 213.723 206.889 213.745C206.86 213.745 206.825 213.792 206.82 213.879C206.807 213.958 206.816 214.038 206.843 214.112C206.871 214.186 206.917 214.252 206.977 214.304C207.244 214.531 207.891 214.56 208.723 214.391C208.216 214.061 207.651 213.832 207.058 213.716H207.041Z" fill="#407BFF"/>
<path d="M209.055 214.56H208.996C208.49 214.281 207.501 213.204 207.605 212.651C207.623 212.565 207.67 212.488 207.737 212.433C207.805 212.378 207.89 212.348 207.978 212.348C208.066 212.336 208.156 212.342 208.241 212.368C208.326 212.393 208.405 212.436 208.473 212.494C209.055 212.965 209.165 214.385 209.171 214.444C209.172 214.465 209.168 214.486 209.159 214.506C209.15 214.525 209.136 214.542 209.119 214.554C209.098 214.561 209.076 214.563 209.055 214.56V214.56ZM208.059 212.564H208.007C207.856 212.564 207.844 212.657 207.838 212.686C207.774 213.006 208.42 213.85 208.909 214.211C208.874 213.648 208.671 213.109 208.327 212.663C208.251 212.601 208.157 212.566 208.059 212.564V212.564Z" fill="#407BFF"/>
<path d="M201.162 74.7347L195.727 74.6649C193.899 74.6649 192.083 74.6067 190.285 74.5776C189.738 74.5776 189.202 74.5427 188.661 74.5194C188.696 74.5194 188.719 74.4554 188.748 74.4263C189.133 74.0189 189.517 73.5998 189.912 73.1982C190.11 72.9887 190.304 72.785 190.494 72.5871C190.675 72.3893 190.908 72.1681 191.03 72.0051L191.525 71.3766C191.914 70.8792 192.138 70.2716 192.163 69.6401C192.188 69.0085 192.014 68.3851 191.665 67.8582C191.316 67.3313 190.81 66.9277 190.218 66.7047C189.627 66.4817 188.98 66.4506 188.37 66.6158L187.293 66.9068C186.962 67.0058 186.63 67.1163 186.298 67.2269C185.646 67.4539 185.006 67.7042 184.372 67.9777C183.093 68.5422 181.858 69.1996 180.676 69.9449C179.452 70.7275 178.293 71.6092 177.213 72.5813C176.07 73.6209 175.034 74.7733 174.123 76.0209C173.893 76.3323 173.697 76.668 173.541 77.022C173 78.2607 172.974 79.6635 173.467 80.9218C173.96 82.1801 174.933 83.1911 176.171 83.7324L176.701 83.9652C177.897 84.4798 179.135 84.8887 180.403 85.1874C181.508 85.4726 182.556 85.6589 183.586 85.8335C184.616 86.0081 185.623 86.1477 186.624 86.27C187.625 86.3922 188.615 86.4853 189.604 86.5668C191.577 86.7414 193.532 86.8287 195.482 86.8869C197.432 86.9451 199.341 86.9451 201.366 86.852C202.945 86.7846 204.436 86.1032 205.52 84.9529C206.605 83.8027 207.197 82.2746 207.171 80.6941C207.145 79.1135 206.503 77.6055 205.382 76.4913C204.261 75.3771 202.749 74.7447 201.168 74.7289L201.162 74.7347Z" fill="#FFC3BD"/>
<path d="M204.329 85.3558C199.632 90.7102 188.33 88.7081 188.33 88.7081L188.952 75.3687C192.827 74.5161 196.777 74.0579 200.744 74.001C207.378 73.9894 208.088 81.0607 204.329 85.3558Z" fill="#263238"/>
<path d="M191.792 81.2531C191.513 83.4065 191.21 86.3048 191.03 90.2042C188.58 102.601 187.666 111.383 189.831 117.791C191.542 119.904 213.839 119.496 217.849 119.089C220.177 113.327 220.421 96.7867 220.695 82.8827C220.729 80.9667 220.075 79.1019 218.853 77.6263C217.63 76.1507 215.92 75.162 214.031 74.8394C209.013 73.95 203.895 73.7776 198.829 74.3273C197.051 74.5296 195.392 75.3216 194.116 76.5769C192.841 77.8322 192.023 79.4785 191.792 81.2531V81.2531Z" fill="#263238"/>
<path opacity="0.2" d="M213.425 89.7153C213.501 93.9523 216.574 100.721 220.031 104.155C220.241 100.575 220.374 96.6935 220.479 92.7767L213.425 89.7153Z" fill="black"/>
<path d="M232.853 97.9504L232.655 97.4848C231.841 95.5435 230.89 93.6627 229.809 91.8569C228.773 90.1109 227.655 88.4638 226.497 86.8749C225.339 85.2861 224.111 83.7671 222.854 82.2888C222.214 81.5555 221.579 80.8221 220.91 80.1121L219.903 79.0529L218.832 77.9703C217.71 76.8627 216.202 76.2354 214.625 76.2214C213.049 76.2074 211.529 76.8078 210.388 77.8953C209.246 78.9828 208.574 80.472 208.512 82.0472C208.45 83.6224 209.003 85.1599 210.056 86.3337L210.23 86.5257L213.647 90.3262C214.811 91.6182 215.922 92.9336 217.028 94.2431C217.563 94.9007 218.116 95.5584 218.617 96.2277C219.117 96.897 219.647 97.543 220.148 98.2065C220.869 99.2133 221.568 100.214 222.19 101.198C222.095 101.695 221.975 102.186 221.83 102.67C221.411 104.08 220.92 105.467 220.357 106.826C219.775 108.263 219.158 109.736 218.518 111.185C217.878 112.634 217.191 114.147 216.58 115.602L216.522 115.731C216.254 116.374 216.213 117.089 216.406 117.758C216.6 118.428 217.016 119.011 217.586 119.412C218.156 119.813 218.845 120.008 219.541 119.964C220.236 119.92 220.896 119.64 221.41 119.17C222.694 117.98 223.912 116.721 225.06 115.399C226.224 114.091 227.316 112.714 228.336 111.267C228.854 110.539 229.349 109.782 229.838 108.997C230.346 108.198 230.81 107.372 231.229 106.523C231.7 105.597 232.108 104.641 232.451 103.66C232.898 102.404 233.149 101.087 233.196 99.7546C233.211 99.1356 233.094 98.5206 232.853 97.9504V97.9504Z" fill="#FFC3BD"/>
<path d="M214.426 74.9149C222.277 76.2593 227.393 86.8867 227.393 86.8867L217.93 97.0658C217.93 97.0658 212.477 91.5136 209.2 86.3687C205.667 80.7698 208.804 73.9604 214.426 74.9149Z" fill="#263238"/>
<path d="M200.086 58.1592C198.771 55.9534 198.34 52.9212 200.749 49.8308C200.28 49.8896 199.804 49.811 199.378 49.6044C198.952 49.3977 198.596 49.072 198.352 48.6668C200.99 46.5082 204.307 45.3536 207.716 45.4076C214.758 45.4076 215.282 48.1255 215.043 49.9821C219.862 50.2906 223.378 62.821 211.161 65.0384C204.172 57.6761 200.086 58.1592 200.086 58.1592Z" fill="#263238"/>
<path d="M214.601 50.2088C214.601 50.2088 216.562 48.2068 214.124 45.7856C214.67 45.9356 215.169 46.2245 215.571 46.6243C215.972 47.0241 216.264 47.5212 216.417 48.0671C216.76 49.4755 215.811 50.6046 214.601 50.2088Z" fill="#263238"/>
<path d="M211.9 63.5078C211.714 67.3665 211.365 71.7548 212.011 74.8335C211.01 76.4108 208.449 78.2266 203.863 78.634C202.233 77.7086 200.08 75.4446 200.831 74.2806C202.78 73.0293 203.607 69.2405 203.048 66.4062L211.9 63.5078Z" fill="#FFC3BD"/>
<path opacity="0.2" d="M209.666 64.2354L203.037 66.4062C203.262 67.6133 203.272 68.8507 203.066 70.0612C205.045 69.9972 207.786 68.5072 208.816 67.1104C209.151 66.7177 209.401 66.2588 209.547 65.7634C209.693 65.268 209.734 64.7474 209.666 64.2354Z" fill="black"/>
<path d="M213.833 57.3968C212.605 62.1285 212.128 64.9629 209.229 66.9475C204.87 69.9331 199.388 66.5866 199.172 61.5872C198.986 57.0826 201.023 50.0986 206.086 49.1034C207.201 48.8798 208.355 48.9449 209.438 49.2927C210.52 49.6404 211.496 50.2592 212.272 51.0902C213.048 51.9212 213.599 52.9368 213.872 54.0406C214.145 55.1444 214.132 56.2998 213.833 57.3968V57.3968Z" fill="#FFC3BD"/>
<path d="M212.855 50.6221C210.777 52.1004 208.199 58.3627 213.437 60.8769C218.14 56.7447 216.923 50.6221 212.855 50.6221Z" fill="#263238"/>
<path d="M214.054 51.3732C214.944 47.2527 204.544 45.1225 201.25 49.9357C200.132 52.834 213.425 55.3948 214.054 51.3732Z" fill="#263238"/>
<path d="M206.296 62.4194C205.215 61.9308 204.057 61.6373 202.874 61.5522C202.857 61.5522 202.841 61.5556 202.826 61.5621C202.81 61.5686 202.797 61.5781 202.785 61.5901C202.774 61.6021 202.765 61.6162 202.759 61.6317C202.753 61.6472 202.751 61.6638 202.752 61.6803C202.758 61.7179 202.777 61.7522 202.806 61.7776C202.834 61.803 202.871 61.8179 202.909 61.82C204.043 61.9019 205.154 62.1816 206.191 62.6464C206.224 62.6607 206.261 62.6621 206.294 62.6502C206.328 62.6383 206.355 62.614 206.372 62.5824C206.378 62.5668 206.381 62.55 206.381 62.5331C206.38 62.5163 206.377 62.4996 206.37 62.4843C206.362 62.469 206.352 62.4554 206.34 62.4442C206.327 62.433 206.312 62.4246 206.296 62.4194V62.4194Z" fill="#263238"/>
<path d="M214.967 62.5705C214.124 63.4658 212.961 63.9909 211.732 64.0314C210.102 64.0663 209.689 62.5123 210.474 61.1854C211.184 60.0214 212.884 58.5315 214.362 59.1251C215.84 59.7187 215.992 61.4589 214.967 62.5705Z" fill="#FFC3BD"/>
<path d="M206.307 57.3154C206.232 57.7053 205.964 57.9847 205.725 57.9323C205.487 57.8799 205.33 57.5249 205.405 57.135C205.481 56.745 205.749 56.4715 205.987 56.553C206.226 56.6345 206.383 56.908 206.307 57.3154Z" fill="#263238"/>
<path d="M201.902 56.4599C201.826 56.8498 201.558 57.1234 201.32 57.0768C201.081 57.0303 200.918 56.6694 200.994 56.2795C201.069 55.8895 201.337 55.6102 201.576 55.6626C201.814 55.7149 201.954 56.07 201.902 56.4599Z" fill="#263238"/>
<path d="M203.264 56.9077C202.565 58.0092 201.72 59.0099 200.75 59.8817C201.332 60.6558 202.618 60.5045 202.618 60.5045L203.264 56.9077Z" fill="#ED847E"/>
<path d="M205.673 55.0512C205.715 55.0421 205.758 55.0437 205.799 55.056C205.839 55.0682 205.876 55.0906 205.906 55.121C206.093 55.3469 206.331 55.5253 206.6 55.6416C206.869 55.758 207.162 55.8089 207.454 55.7903C207.516 55.7819 207.578 55.7979 207.628 55.8349C207.678 55.8718 207.712 55.9269 207.722 55.9882C207.727 56.0185 207.725 56.0495 207.718 56.0793C207.711 56.109 207.697 56.137 207.679 56.1615C207.66 56.186 207.637 56.2064 207.61 56.2217C207.584 56.2369 207.554 56.2466 207.524 56.2501C207.154 56.2799 206.783 56.2209 206.441 56.0782C206.099 55.9354 205.796 55.713 205.557 55.4295C205.535 55.4083 205.518 55.383 205.506 55.355C205.494 55.327 205.488 55.2969 205.488 55.2665C205.488 55.2361 205.494 55.2061 205.506 55.1781C205.518 55.1501 205.535 55.1247 205.557 55.1036C205.591 55.0779 205.631 55.06 205.673 55.0512V55.0512Z" fill="#263238"/>
<path d="M200.54 53.7595C200.492 53.7495 200.448 53.7227 200.418 53.6838C200.398 53.6596 200.384 53.6316 200.375 53.6016C200.367 53.5717 200.364 53.5403 200.368 53.5093C200.372 53.4784 200.382 53.4485 200.397 53.4215C200.413 53.3945 200.434 53.3709 200.459 53.3521C200.744 53.1178 201.082 52.955 201.443 52.877C201.805 52.7991 202.179 52.8083 202.536 52.9039C202.595 52.9239 202.644 52.9661 202.672 53.0216C202.701 53.077 202.706 53.1413 202.688 53.2008C202.664 53.2569 202.621 53.3027 202.567 53.3295C202.512 53.3563 202.449 53.3622 202.391 53.3463V53.3463C202.106 53.2737 201.809 53.2697 201.522 53.3344C201.236 53.3991 200.969 53.5309 200.744 53.7187C200.717 53.7432 200.683 53.7599 200.647 53.767C200.612 53.7742 200.574 53.7716 200.54 53.7595V53.7595Z" fill="#263238"/>
<path d="M219.327 115.434L214.328 115.399L216.912 121.137C216.912 121.137 221.178 120.224 220.945 117.907L219.327 115.434Z" fill="#FFC3BD"/>
<path d="M211.784 119.339L212.605 120.957C212.825 121.388 213.199 121.721 213.652 121.891C214.105 122.061 214.605 122.056 215.055 121.877L216.912 121.137L214.328 115.399L212.343 116.912C211.98 117.187 211.724 117.58 211.622 118.024C211.52 118.468 211.577 118.933 211.784 119.339Z" fill="#FFC3BD"/>
<path d="M181.27 111.209C180.666 111.202 180.077 111.02 179.575 110.684C179.073 110.348 178.681 109.872 178.445 109.316C178.21 108.76 178.142 108.147 178.25 107.553C178.357 106.958 178.636 106.409 179.052 105.971C181.276 103.678 183.283 101.897 185.053 100.343C189.325 96.5771 190.797 95.1046 190.657 92.2819C190.448 90.5403 190.078 88.8219 189.552 87.1487C188.277 82.4636 186.834 77.1616 189.307 72.9072C190.634 70.6199 192.886 69.0543 196.006 68.2512C196.795 68.064 197.625 68.1936 198.32 68.6121C199.014 69.0306 199.516 69.7047 199.719 70.4895C199.922 71.2744 199.808 72.1074 199.404 72.8097C198.999 73.5121 198.335 74.0276 197.554 74.2458C195.36 74.8278 194.83 75.7182 194.644 76.0209C193.48 78.0288 194.603 82.1842 195.511 85.5191C196.169 87.6221 196.609 89.7867 196.827 91.9793C197.118 97.9448 193.597 101.053 189.133 104.987C187.451 106.477 185.536 108.165 183.476 110.283C183.188 110.577 182.845 110.81 182.466 110.969C182.087 111.128 181.681 111.209 181.27 111.209V111.209Z" fill="#407BFF"/>
<path d="M188.062 66.7436L192.904 65.5039L191.775 71.6964C191.775 71.6964 187.416 71.8302 187.09 69.5313L188.062 66.7436Z" fill="#FFC3BD"/>
<path d="M196.303 68.7864L195.93 70.4043C195.816 70.8986 195.521 71.3321 195.103 71.6197C194.685 71.9072 194.175 72.028 193.672 71.9583L191.775 71.6964L192.904 65.5039L195.127 66.4642C195.564 66.6524 195.921 66.9879 196.136 67.4122C196.351 67.8366 196.41 68.3229 196.303 68.7864Z" fill="#FFC3BD"/>
<path d="M179.539 101.025L179.407 100.893C178.818 100.305 177.864 100.305 177.275 100.894L160.113 118.062C159.524 118.651 159.525 119.605 160.113 120.194L160.245 120.325C160.834 120.914 161.788 120.914 162.377 120.325L179.539 103.157C180.128 102.568 180.127 101.614 179.539 101.025Z" fill="#263238"/>
<path d="M188.483 109.958L188.352 109.827C187.763 109.238 186.808 109.238 186.22 109.827L169.055 126.992C168.466 127.58 168.466 128.535 169.055 129.124L169.186 129.255C169.775 129.844 170.729 129.844 171.318 129.255L188.483 112.09C189.072 111.501 189.072 110.547 188.483 109.958Z" fill="#263238"/>
<path d="M165.528 107.416L177.623 95.3205C178.01 94.933 178.47 94.6256 178.977 94.4159C179.483 94.2062 180.026 94.0983 180.574 94.0983C181.122 94.0983 181.664 94.2062 182.171 94.4159C182.677 94.6256 183.137 94.933 183.524 95.3205L194.097 105.893C194.484 106.28 194.792 106.74 195.001 107.247C195.211 107.753 195.319 108.296 195.319 108.844C195.319 109.392 195.211 109.934 195.001 110.44C194.792 110.947 194.484 111.407 194.097 111.794L182.002 123.889L165.528 107.416Z" fill="#407BFF"/>
<path opacity="0.7" d="M165.528 107.416L177.623 95.3205C178.01 94.933 178.47 94.6256 178.977 94.4159C179.483 94.2062 180.026 94.0983 180.574 94.0983C181.122 94.0983 181.664 94.2062 182.171 94.4159C182.677 94.6256 183.137 94.933 183.524 95.3205L194.097 105.893C194.484 106.28 194.792 106.74 195.001 107.247C195.211 107.753 195.319 108.296 195.319 108.844C195.319 109.392 195.211 109.934 195.001 110.44C194.792 110.947 194.484 111.407 194.097 111.794L182.002 123.889L165.528 107.416Z" fill="white"/>
<path opacity="0.2" d="M169.7 103.212L165.509 107.396L181.986 123.873L186.17 119.683C186.004 119.195 185.727 118.753 185.361 118.39L170.992 104.05C170.632 103.674 170.19 103.387 169.7 103.212V103.212Z" fill="#407BFF"/>
<path d="M164.803 105.286L164.502 105.587C163.225 106.864 163.225 108.935 164.502 110.212L179.174 124.884C180.451 126.161 182.522 126.161 183.799 124.884L184.1 124.583C185.377 123.306 185.377 121.235 184.1 119.957L169.428 105.286C168.151 104.009 166.08 104.009 164.803 105.286Z" fill="#407BFF"/>
<path d="M210.405 0.430664H80.5953C77.8888 0.430664 75.6948 2.62467 75.6948 5.33111V29.0069C75.6948 31.7133 77.8888 33.9073 80.5953 33.9073H210.405C213.111 33.9073 215.305 31.7133 215.305 29.0069V5.33111C215.305 2.62467 213.111 0.430664 210.405 0.430664Z" fill="white"/>
<path d="M210.405 34.338H80.6187C79.2053 34.3365 77.8502 33.7743 76.8507 32.7748C75.8513 31.7754 75.2891 30.4203 75.2876 29.0069V5.33112C75.2891 3.91769 75.8513 2.5626 76.8507 1.56315C77.8502 0.563705 79.2053 0.00154052 80.6187 0H210.405C211.818 0.00154052 213.173 0.563705 214.173 1.56315C215.172 2.5626 215.734 3.91769 215.736 5.33112V29.0069C215.734 30.4203 215.172 31.7754 214.173 32.7748C213.173 33.7743 211.818 34.3365 210.405 34.338ZM80.6187 0.86136C79.4337 0.8629 78.2977 1.33431 77.4598 2.17222C76.6219 3.01013 76.1505 4.14614 76.149 5.33112V29.0069C76.1505 30.1919 76.6219 31.3279 77.4598 32.1658C78.2977 33.0037 79.4337 33.4751 80.6187 33.4766H210.405C211.59 33.4751 212.726 33.0037 213.564 32.1658C214.402 31.3279 214.873 30.1919 214.874 29.0069V5.33112C214.873 4.14614 214.402 3.01013 213.564 2.17222C212.726 1.33431 211.59 0.8629 210.405 0.86136H80.6187Z" fill="#263238"/>
<g opacity="0.4">
<path opacity="0.4" d="M87.1719 22.9887V10.3942H91.921C92.5633 10.3822 93.2055 10.4211 93.8416 10.5106C94.3954 10.5905 94.9255 10.7891 95.3955 11.0926C95.8314 11.4035 96.1785 11.8228 96.4024 12.309C96.7421 13.0306 96.8625 13.836 96.7486 14.6254C96.6348 15.4148 96.2918 16.1534 95.7622 16.7497C95.0832 17.4869 93.8532 17.8574 92.0723 17.8613H88.8364V22.9829L87.1719 22.9887ZM88.8364 16.383H92.0956C92.9047 16.4657 93.717 16.2596 94.3887 15.801C94.6198 15.5875 94.8007 15.3253 94.9185 15.0335C95.0362 14.7417 95.0878 14.4274 95.0696 14.1132C95.0832 13.63 94.9425 13.155 94.668 12.7572C94.4147 12.3934 94.042 12.1298 93.6146 12.0122C93.1019 11.921 92.5811 11.8839 92.0607 11.9016H88.8364V16.383Z" fill="#263238"/>
<path opacity="0.4" d="M104.667 21.8658C104.176 22.2975 103.617 22.6455 103.014 22.896C102.468 23.0965 101.89 23.1971 101.309 23.1928C100.468 23.2513 99.636 22.9893 98.9805 22.4595C98.7184 22.2243 98.5107 21.9348 98.372 21.6111C98.2333 21.2874 98.1669 20.9374 98.1773 20.5854C98.1717 20.157 98.2759 19.7342 98.48 19.3574C98.6805 19.0124 98.9572 18.7178 99.289 18.4961C99.6325 18.2695 100.01 18.0987 100.406 17.9897C100.859 17.8855 101.318 17.8078 101.78 17.7569C102.715 17.6718 103.639 17.4944 104.539 17.2273C104.539 17.0178 104.539 16.8781 104.539 16.8257C104.564 16.5853 104.539 16.3422 104.464 16.1124C104.388 15.8826 104.265 15.6714 104.102 15.4929C103.603 15.113 102.982 14.9269 102.356 14.9691C101.793 14.9283 101.23 15.0603 100.744 15.3474C100.343 15.7007 100.073 16.1782 99.9757 16.7035L98.4625 16.494C98.5668 15.9269 98.7998 15.3913 99.1435 14.9284C99.5038 14.4994 99.9779 14.1807 100.511 14.0088C101.178 13.7829 101.879 13.6746 102.583 13.6887C103.227 13.6667 103.869 13.7593 104.48 13.9623C104.879 14.0754 105.236 14.2997 105.512 14.609C105.787 14.9183 105.968 15.2996 106.034 15.7083C106.099 16.1807 106.124 16.6576 106.11 17.1342V19.1944C106.087 20.1055 106.12 21.017 106.209 21.924C106.279 22.3073 106.411 22.6768 106.599 23.0182H104.987C104.81 22.6572 104.701 22.2664 104.667 21.8658ZM104.539 18.4088C103.722 18.7014 102.875 18.8968 102.013 18.9908C101.552 19.0402 101.098 19.1458 100.662 19.305C100.413 19.4063 100.2 19.5808 100.051 19.8056C99.8799 20.0796 99.8115 20.4058 99.8584 20.7256C99.9053 21.0455 100.064 21.3383 100.307 21.5516C100.696 21.8543 101.184 22.0016 101.675 21.9648C102.23 21.9754 102.777 21.841 103.264 21.5748C103.709 21.3337 104.067 20.9592 104.288 20.5039C104.479 20.013 104.564 19.4876 104.539 18.9617V18.4088Z" fill="#263238"/>
<path opacity="0.4" d="M108.217 23.7338L109.718 23.955C109.732 24.1507 109.785 24.3415 109.875 24.5157C109.965 24.6899 110.09 24.8438 110.242 24.9677C110.705 25.2797 111.257 25.431 111.814 25.3984C112.398 25.4366 112.98 25.2856 113.472 24.9677C113.867 24.6721 114.147 24.2482 114.264 23.7688C114.368 23.1127 114.405 22.4477 114.374 21.7841C114.069 22.157 113.683 22.4555 113.245 22.6571C112.808 22.8588 112.33 22.9583 111.848 22.9481C111.29 22.9758 110.733 22.8667 110.226 22.6304C109.718 22.3941 109.277 22.0377 108.938 21.5921C108.238 20.6522 107.873 19.5046 107.902 18.3329C107.894 17.5054 108.056 16.685 108.38 15.9234C108.658 15.2328 109.134 14.6396 109.747 14.2181C110.377 13.8154 111.113 13.6125 111.86 13.6361C112.375 13.6293 112.884 13.7438 113.346 13.9703C113.808 14.1968 114.21 14.5289 114.52 14.9398V13.8398H115.946V21.7492C116.009 22.7749 115.862 23.8026 115.515 24.7698C115.216 25.3732 114.733 25.8662 114.136 26.1782C113.416 26.5443 112.615 26.7206 111.808 26.6904C110.871 26.7349 109.945 26.4779 109.165 25.9571C108.831 25.6982 108.568 25.358 108.402 24.9689C108.236 24.5797 108.172 24.1546 108.217 23.7338V23.7338ZM109.491 18.2514C109.412 19.1817 109.665 20.11 110.207 20.8704C110.423 21.1341 110.696 21.3454 111.006 21.4886C111.315 21.6317 111.653 21.7029 111.994 21.6968C112.334 21.7015 112.671 21.6303 112.98 21.4883C113.289 21.3464 113.563 21.1372 113.781 20.8762C114.324 20.1339 114.58 19.2202 114.502 18.3038C114.572 17.399 114.306 16.5003 113.757 15.7779C113.543 15.5109 113.271 15.2958 112.961 15.1487C112.652 15.0016 112.313 14.9262 111.971 14.9282C111.635 14.9271 111.304 15.002 111.002 15.1471C110.699 15.2922 110.434 15.5039 110.225 15.7663C109.686 16.4823 109.426 17.3695 109.491 18.263V18.2514Z" fill="#263238"/>
<path opacity="0.4" d="M124.548 20.0497L126.148 20.2475C125.939 21.11 125.445 21.8768 124.746 22.4242C123.983 22.9613 123.065 23.2314 122.133 23.1925C121.546 23.2278 120.959 23.1388 120.409 22.9312C119.859 22.7236 119.36 22.402 118.943 21.9877C118.116 21.0309 117.698 19.7872 117.779 18.5248C117.693 17.2282 118.11 15.9482 118.943 14.9513C119.335 14.533 119.813 14.2034 120.343 13.9846C120.873 13.7657 121.443 13.6628 122.016 13.6826C122.575 13.6632 123.132 13.7644 123.648 13.9793C124.164 14.1942 124.628 14.5178 125.008 14.9281C125.832 15.8984 126.249 17.1495 126.172 18.4201C126.172 18.5132 126.172 18.6529 126.172 18.8333H119.368C119.357 19.6871 119.66 20.5153 120.218 21.1613C120.462 21.4208 120.759 21.6259 121.087 21.7633C121.416 21.9007 121.77 21.9672 122.127 21.9586C122.646 21.9717 123.155 21.8143 123.576 21.5105C124.041 21.1336 124.38 20.624 124.548 20.0497V20.0497ZM119.473 17.5529H124.548C124.535 16.9255 124.332 16.3168 123.966 15.8069C123.737 15.5189 123.444 15.2881 123.111 15.1326C122.778 14.977 122.413 14.901 122.045 14.9106C121.715 14.9024 121.386 14.9617 121.078 15.0848C120.771 15.2079 120.492 15.3921 120.259 15.6265C119.75 16.1393 119.462 16.8306 119.455 17.5529H119.473Z" fill="#263238"/>
<path opacity="0.4" d="M132.958 22.9889V13.8398H134.349V15.1377C134.661 14.655 135.093 14.2624 135.604 13.9989C136.114 13.7355 136.685 13.6104 137.259 13.6361C137.78 13.6298 138.297 13.7308 138.778 13.9329C139.188 14.0907 139.546 14.3585 139.814 14.707C140.054 15.0571 140.219 15.4536 140.297 15.871C140.364 16.3686 140.391 16.8707 140.379 17.3726V22.983H138.836V17.4366C138.855 16.9584 138.794 16.4804 138.656 16.0223C138.53 15.7102 138.305 15.4483 138.016 15.2774C137.688 15.086 137.313 14.9893 136.933 14.998C136.306 14.9864 135.697 15.2107 135.228 15.6266C134.751 16.0456 134.512 16.8371 134.512 18.0069V22.9889H132.958Z" fill="#263238"/>
<path opacity="0.4" d="M142.171 18.4261C142.171 16.7383 142.64 15.487 143.579 14.6722C144.378 13.992 145.4 13.6312 146.448 13.6595C147.018 13.6385 147.586 13.7376 148.116 13.9501C148.645 14.1626 149.124 14.484 149.521 14.8933C149.941 15.3511 150.265 15.8881 150.473 16.4728C150.682 17.0575 150.772 17.6781 150.738 18.298C150.781 19.2502 150.599 20.1992 150.208 21.0683C149.863 21.7313 149.328 22.2764 148.672 22.6339C147.999 23.0147 147.239 23.2152 146.466 23.2159C145.889 23.2434 145.314 23.1482 144.777 22.9364C144.24 22.7247 143.755 22.4014 143.352 21.9879C142.931 21.5009 142.61 20.9357 142.407 20.3246C142.204 19.7134 142.124 19.0683 142.171 18.4261V18.4261ZM143.759 18.4261C143.689 19.3643 143.96 20.2964 144.522 21.0509C144.758 21.3307 145.053 21.5543 145.386 21.7054C145.72 21.8564 146.082 21.9311 146.448 21.9239C146.813 21.9311 147.175 21.8558 147.506 21.7037C147.838 21.5515 148.131 21.3263 148.363 21.0451C148.934 20.2768 149.207 19.3277 149.131 18.3737C149.199 17.4537 148.924 16.5412 148.357 15.8129C148.118 15.5397 147.823 15.3208 147.492 15.1708C147.162 15.0208 146.803 14.9432 146.44 14.9432C146.076 14.9432 145.718 15.0208 145.387 15.1708C145.056 15.3208 144.761 15.5397 144.522 15.8129C143.958 16.5623 143.685 17.4907 143.754 18.4261H143.759Z" fill="#263238"/>
<path opacity="0.4" d="M155.906 21.6038L156.133 22.9715C155.751 23.0581 155.361 23.1049 154.969 23.1112C154.519 23.1333 154.07 23.0412 153.665 22.8434C153.378 22.6862 153.147 22.4416 153.008 22.145C152.847 21.5499 152.784 20.9328 152.821 20.3176V15.0796H151.687V13.8399H152.821V11.605L154.358 10.6738V13.8399H155.912V15.0446H154.358V20.3816C154.341 20.6673 154.369 20.9539 154.439 21.2313C154.496 21.3556 154.589 21.4594 154.707 21.5281C154.87 21.6146 155.053 21.6549 155.237 21.6445C155.46 21.6459 155.684 21.6323 155.906 21.6038Z" fill="#263238"/>
<path opacity="0.4" d="M162.681 22.989V15.068H161.313V13.8399H162.681V12.8913C162.658 12.4256 162.713 11.9594 162.844 11.5119C162.991 11.1084 163.267 10.7646 163.629 10.5342C164.107 10.2585 164.656 10.129 165.207 10.1617C165.691 10.1678 166.174 10.2184 166.65 10.313L166.417 11.6633C166.116 11.6067 165.81 11.5775 165.503 11.576C165.145 11.5425 164.787 11.6511 164.508 11.8786C164.278 12.2053 164.175 12.6045 164.217 13.0019V13.8399H165.998V15.0447H164.217V22.989H162.681Z" fill="#263238"/>
<path opacity="0.4" d="M166.621 18.4261C166.621 16.7383 167.09 15.487 168.029 14.6722C168.83 13.9921 169.854 13.6315 170.904 13.6595C171.474 13.6385 172.042 13.7376 172.572 13.9501C173.101 14.1626 173.58 14.484 173.977 14.8933C174.395 15.352 174.716 15.8894 174.923 16.4741C175.13 17.0588 175.218 17.6789 175.182 18.298C175.227 19.2497 175.047 20.1987 174.658 21.0683C174.313 21.733 173.775 22.2785 173.116 22.6339C172.445 23.0147 171.687 23.2152 170.916 23.2159C170.34 23.2412 169.765 23.1449 169.228 22.9333C168.692 22.7218 168.206 22.3996 167.802 21.9879C167.381 21.5009 167.06 20.9357 166.857 20.3246C166.654 19.7134 166.574 19.0683 166.621 18.4261V18.4261ZM168.216 18.4261C168.142 19.3646 168.413 20.2978 168.978 21.0509C169.217 21.3259 169.512 21.5464 169.843 21.6976C170.174 21.8487 170.534 21.9269 170.899 21.9269C171.263 21.9269 171.623 21.8487 171.954 21.6976C172.285 21.5464 172.58 21.3259 172.819 21.0509C173.385 20.2806 173.656 19.3326 173.582 18.3795C173.648 17.4606 173.375 16.5491 172.813 15.8187C172.574 15.5455 172.279 15.3266 171.948 15.1766C171.618 15.0266 171.259 14.949 170.896 14.949C170.532 14.949 170.174 15.0266 169.843 15.1766C169.512 15.3266 169.217 15.5455 168.978 15.8187C168.409 16.5638 168.132 17.4909 168.198 18.4261H168.216Z" fill="#263238"/>
<path opacity="0.4" d="M182.963 22.9889V21.6503C182.653 22.1372 182.222 22.5354 181.712 22.8057C181.202 23.0761 180.63 23.2094 180.053 23.1926C179.535 23.199 179.02 23.0938 178.546 22.8841C178.138 22.7225 177.781 22.4554 177.51 22.1101C177.269 21.7607 177.107 21.3638 177.033 20.9461C176.957 20.4688 176.926 19.9857 176.94 19.5027V13.8398H178.488V18.9032C178.469 19.4481 178.5 19.9936 178.581 20.5328C178.664 20.9168 178.883 21.2579 179.198 21.4931C179.537 21.7332 179.946 21.8558 180.362 21.8423C180.821 21.8425 181.272 21.7178 181.665 21.4815C182.056 21.2647 182.362 20.9221 182.533 20.5096C182.726 19.9366 182.811 19.3327 182.783 18.7286V13.8398H184.331V22.9889H182.963Z" fill="#263238"/>
<path opacity="0.4" d="M186.77 22.9889V13.8398H188.161V15.1377C188.472 14.655 188.905 14.2624 189.415 13.9989C189.926 13.7355 190.497 13.6104 191.071 13.6361C191.592 13.6298 192.109 13.7308 192.59 13.9329C193 14.0907 193.358 14.3585 193.625 14.707C193.866 15.0571 194.03 15.4536 194.109 15.871C194.175 16.3686 194.202 16.8707 194.19 17.3726V22.983H192.642V17.4366C192.661 16.9584 192.6 16.4804 192.461 16.0223C192.336 15.7102 192.111 15.4483 191.821 15.2774C191.493 15.086 191.119 14.9893 190.739 14.998C190.112 14.9876 189.504 15.2117 189.034 15.6266C188.556 16.0456 188.318 16.8371 188.318 18.0069V22.9889H186.77Z" fill="#263238"/>
<path opacity="0.4" d="M202.478 22.989V21.825C202.213 22.2596 201.836 22.6149 201.386 22.8535C200.937 23.0921 200.431 23.2053 199.923 23.1811C199.212 23.1911 198.515 22.9884 197.921 22.5991C197.298 22.1837 196.806 21.6006 196.501 20.9171C196.155 20.1391 195.984 19.2948 196 18.4436C195.988 17.5954 196.142 16.7531 196.454 15.9643C196.718 15.2653 197.197 14.6682 197.822 14.259C198.428 13.8675 199.137 13.665 199.859 13.677C200.369 13.6681 200.874 13.7882 201.325 14.0262C201.74 14.2406 202.099 14.5496 202.373 14.9283V10.3945H203.909V22.989H202.478ZM197.589 18.4378C197.518 19.3706 197.78 20.2984 198.328 21.0568C198.535 21.3238 198.799 21.5406 199.102 21.6908C199.404 21.841 199.736 21.9207 200.074 21.924C200.409 21.9274 200.741 21.8542 201.043 21.71C201.346 21.5658 201.612 21.3543 201.82 21.0917C202.346 20.3595 202.596 19.4646 202.524 18.5658C202.604 17.5928 202.349 16.6217 201.803 15.8129C201.595 15.5396 201.326 15.3184 201.018 15.1669C200.71 15.0154 200.371 14.9377 200.028 14.9399C199.691 14.9331 199.358 15.0054 199.055 15.151C198.751 15.2966 198.487 15.5113 198.282 15.778C197.755 16.56 197.51 17.4982 197.589 18.4378V18.4378Z" fill="#263238"/>
</g>
<path d="M145.5 51.1055C151.46 51.1055 156.291 46.2745 156.291 40.3152C156.291 34.3559 151.46 29.5249 145.5 29.5249C139.541 29.5249 134.71 34.3559 134.71 40.3152C134.71 46.2745 139.541 51.1055 145.5 51.1055Z" fill="#263238"/>
<path d="M145.5 49.4993C150.572 49.4993 154.684 45.3875 154.684 40.3153C154.684 35.2431 150.572 31.1313 145.5 31.1313C140.428 31.1313 136.316 35.2431 136.316 40.3153C136.316 45.3875 140.428 49.4993 145.5 49.4993Z" fill="white"/>
<path d="M151.71 38.3364H147.403L151.017 27.645L139.29 42.294H143.597L139.983 52.9853L151.71 38.3364Z" fill="#407BFF"/>
<path d="M152.078 48.1736L153.362 46.8896L138.921 32.4488L137.638 33.7328L152.078 48.1736Z" fill="#263238"/>
</svg>
