<svg width="971" height="596" viewBox="0 0 971 596" fill="none" xmlns="http://www.w3.org/2000/svg">
<path fill-rule="evenodd" clip-rule="evenodd" d="M292.719 0.0927355C339.959 2.54016 365.177 55.9542 406.495 78.9949C456.725 107.006 530.659 99.1942 559.595 148.914C588.727 198.97 564.297 263.057 545.501 317.843C526.977 371.832 504.246 430.845 453.751 457.417C405.012 483.065 347.639 454.914 292.719 450.863C243.125 447.204 192.079 458.022 148.065 434.865C99.8879 409.518 63.1419 367.101 39.9072 317.853C14.2167 263.399 -16.8462 197.498 10.8582 144.042C38.6901 90.3407 116.196 94.2476 170.048 66.7448C212.532 45.048 245.085 -2.37517 292.719 0.0927355Z" fill="#176DE4"/>
<path opacity="0.9" fill-rule="evenodd" clip-rule="evenodd" d="M292.719 0.0927355C339.959 2.54016 365.177 55.9542 406.495 78.9949C456.725 107.006 530.659 99.1942 559.595 148.914C588.727 198.97 564.297 263.057 545.501 317.843C526.977 371.832 504.246 430.845 453.751 457.417C405.012 483.065 347.639 454.914 292.719 450.863C243.125 447.204 192.079 458.022 148.065 434.865C99.8879 409.518 63.1419 367.101 39.9072 317.853C14.2167 263.399 -16.8462 197.498 10.8582 144.042C38.6901 90.3407 116.196 94.2476 170.048 66.7448C212.532 45.048 245.085 -2.37517 292.719 0.0927355Z" fill="white"/>
<path d="M970.965 525.55H199.932V525.936H970.965V525.55Z" fill="#E6E6E6"/>
<path d="M375.512 537.918H322.465V538.303H375.512V537.918Z" fill="#E6E6E6"/>
<path d="M401.527 537.918H385.674V538.303H401.527V537.918Z" fill="#E6E6E6"/>
<path d="M479.74 530.346H449.886V530.732H479.74V530.346Z" fill="#E6E6E6"/>
<path d="M863.961 546.476H797.36V546.862H863.961V546.476Z" fill="#E6E6E6"/>
<path d="M887.462 546.476H877.701V546.862H887.462V546.476Z" fill="#E6E6E6"/>
<path d="M814.214 532.937H669.754V533.323H814.214V532.937Z" fill="#E6E6E6"/>
<path d="M565.402 456.774H267.645C265.312 456.77 263.076 455.841 261.428 454.19C259.78 452.539 258.855 450.302 258.855 447.969V29.4063C258.875 27.0871 259.81 24.8695 261.455 23.2353C263.101 21.6011 265.325 20.6822 267.645 20.6782H565.402C567.737 20.6782 569.977 21.6059 571.628 23.2572C573.28 24.9085 574.207 27.1481 574.207 29.4834V447.969C574.207 450.304 573.28 452.544 571.628 454.195C569.977 455.847 567.737 456.774 565.402 456.774V456.774ZM267.645 20.9866C265.414 20.9907 263.277 21.8796 261.701 23.4581C260.125 25.0367 259.24 27.1759 259.24 29.4063V447.969C259.24 450.2 260.125 452.339 261.701 453.917C263.277 455.496 265.414 456.385 267.645 456.389H565.402C567.634 456.385 569.773 455.496 571.351 453.918C572.929 452.34 573.818 450.201 573.822 447.969V29.4063C573.818 27.1745 572.929 25.0353 571.351 23.4572C569.773 21.8791 567.634 20.9907 565.402 20.9866H267.645Z" fill="#E6E6E6"/>
<path d="M898.966 456.774H601.193C598.859 456.77 596.622 455.841 594.972 454.191C593.321 452.541 592.392 450.303 592.388 447.969V29.4063C592.413 27.0857 593.35 24.8681 594.999 23.2343C596.647 21.6005 598.873 20.6822 601.193 20.6782H898.966C901.283 20.6862 903.503 21.6069 905.145 23.2407C906.788 24.8745 907.72 27.0897 907.741 29.4063V447.969C907.741 450.299 906.817 452.534 905.173 454.185C903.528 455.835 901.296 456.766 898.966 456.774V456.774ZM601.193 20.9866C598.962 20.9907 596.822 21.8791 595.244 23.4572C593.666 25.0353 592.778 27.1745 592.774 29.4063V447.969C592.778 450.201 593.666 452.34 595.244 453.918C596.822 455.496 598.962 456.385 601.193 456.389H898.966C901.198 456.385 903.337 455.496 904.915 453.918C906.493 452.34 907.382 450.201 907.386 447.969V29.4063C907.382 27.1745 906.493 25.0353 904.915 23.4572C903.337 21.8791 901.198 20.9907 898.966 20.9866H601.193Z" fill="#E6E6E6"/>
<path d="M846.089 315.382H738.036V525.55H846.089V315.382Z" fill="#F5F5F5"/>
<path d="M846.089 315.382H837.176V525.55H846.089V315.382Z" fill="#F0F0F0"/>
<path d="M497.582 366.779L746.364 366.779V321.381H497.582V366.779Z" fill="#E0E0E0"/>
<path d="M601.317 525.705H494.652C494.243 525.705 493.851 525.542 493.562 525.253C493.273 524.964 493.11 524.572 493.11 524.163C493.11 523.754 493.273 523.362 493.562 523.072C493.851 522.783 494.243 522.621 494.652 522.621H601.317C616.738 522.621 618.788 518.118 618.788 500.261V275.119C618.788 274.71 618.951 274.318 619.24 274.029C619.529 273.739 619.922 273.577 620.331 273.577C620.74 273.577 621.132 273.739 621.421 274.029C621.71 274.318 621.873 274.71 621.873 275.119V500.261C621.873 519.351 618.912 525.705 601.317 525.705Z" fill="#E0E0E0"/>
<path d="M507.143 331.959L843.652 331.959V316.2L507.143 316.2V331.959Z" fill="#F0F0F0"/>
<path d="M509.579 315.382H401.527V525.55H509.579V315.382Z" fill="#F5F5F5"/>
<path d="M509.564 315.382H500.651V525.55H509.564V315.382Z" fill="#F0F0F0"/>
<path d="M433.062 525.551V151.291H340.338V525.551H433.062Z" fill="#FAFAFA"/>
<path d="M427.973 244.771V162.224H345.426V244.771H427.973Z" fill="#F5F5F5"/>
<path d="M368.419 161.114H405.027C405.027 163.384 404.126 165.561 402.52 167.166C400.915 168.771 398.739 169.673 396.469 169.673H377.039C375.91 169.681 374.79 169.465 373.745 169.039C372.699 168.612 371.748 167.983 370.947 167.188C370.146 166.392 369.51 165.446 369.076 164.404C368.642 163.361 368.419 162.243 368.419 161.114V161.114Z" fill="#E0E0E0"/>
<path d="M427.958 334.72V252.173H345.411V334.72H427.958Z" fill="#F5F5F5"/>
<path d="M427.973 424.669V342.122H345.426V424.669H427.973Z" fill="#F5F5F5"/>
<path d="M427.973 514.633V432.086H345.426V514.633H427.973Z" fill="#F5F5F5"/>
<path d="M368.419 251.078H405.027C405.023 253.347 404.12 255.521 402.516 257.125C400.912 258.73 398.737 259.633 396.469 259.637H377.039C375.91 259.643 374.792 259.426 373.747 258.999C372.702 258.572 371.752 257.942 370.952 257.147C370.151 256.352 369.515 255.407 369.08 254.365C368.645 253.324 368.421 252.207 368.419 251.078Z" fill="#E0E0E0"/>
<path d="M368.419 341.027H405.027C405.027 343.297 404.126 345.474 402.52 347.079C400.915 348.684 398.739 349.585 396.469 349.585H377.039C375.91 349.593 374.79 349.378 373.745 348.952C372.699 348.525 371.748 347.896 370.947 347.101C370.146 346.305 369.51 345.359 369.076 344.316C368.642 343.274 368.419 342.156 368.419 341.027V341.027Z" fill="#E0E0E0"/>
<path d="M368.419 430.976H405.027C405.027 433.245 404.126 435.422 402.52 437.027C400.915 438.632 398.739 439.534 396.469 439.534H377.039C375.91 439.542 374.79 439.327 373.745 438.9C372.699 438.474 371.748 437.845 370.947 437.049C370.146 436.254 369.51 435.307 369.076 434.265C368.642 433.223 368.419 432.105 368.419 430.976V430.976Z" fill="#E0E0E0"/>
<path d="M340.338 525.551V151.291H294.029V525.551H340.338Z" fill="#F0F0F0"/>
<path d="M607.639 315.382H584.339L589.998 270.015H613.314L607.639 315.382Z" fill="#F0F0F0"/>
<path d="M612.805 315.382H589.489L595.164 270.015H618.465L612.805 315.382Z" fill="#F5F5F5"/>
<path d="M662.799 315.382H645.944L642.721 310.247H659.561L662.799 315.382Z" fill="#F0F0F0"/>
<path d="M753.102 315.382H651.095L647.872 310.247H739.347L753.102 315.382Z" fill="#FAFAFA"/>
<path d="M533.728 302.367H541.099C544.551 302.367 547.861 303.738 550.302 306.179C552.743 308.62 554.114 311.93 554.114 315.382H520.682C520.682 313.671 521.02 311.976 521.676 310.394C522.332 308.813 523.293 307.377 524.505 306.168C525.717 304.959 527.155 304.001 528.738 303.349C530.321 302.697 532.016 302.363 533.728 302.367V302.367Z" fill="#F0F0F0"/>
<path d="M615.627 292.699H592.327L595.164 270.015H618.465L615.627 292.699Z" fill="#F0F0F0"/>
<path d="M529.935 287.271H694.936C695.26 287.271 695.581 287.202 695.878 287.069C696.174 286.935 696.438 286.74 696.652 286.496C696.867 286.252 697.027 285.966 697.122 285.655C697.217 285.345 697.244 285.017 697.202 284.695L684.496 183.042C684.428 182.489 684.16 181.98 683.742 181.61C683.325 181.241 682.787 181.037 682.229 181.038H517.274C516.951 181.037 516.631 181.106 516.337 181.238C516.042 181.371 515.778 181.565 515.564 181.807C515.35 182.049 515.189 182.334 515.093 182.642C514.997 182.951 514.968 183.277 515.007 183.597L527.714 285.266C527.781 285.811 528.042 286.314 528.45 286.683C528.858 287.051 529.385 287.26 529.935 287.271V287.271Z" fill="#F0F0F0"/>
<path d="M532.433 287.271H697.326C697.651 287.271 697.972 287.202 698.268 287.069C698.564 286.935 698.828 286.74 699.042 286.496C699.257 286.252 699.417 285.966 699.512 285.655C699.607 285.345 699.634 285.017 699.593 284.695L686.886 183.042C686.815 182.49 686.546 181.983 686.129 181.614C685.712 181.245 685.176 181.041 684.619 181.038H519.726C519.403 181.037 519.083 181.106 518.788 181.238C518.494 181.371 518.23 181.565 518.016 181.807C517.802 182.049 517.641 182.334 517.545 182.642C517.449 182.951 517.42 183.277 517.459 183.597L530.166 285.266C530.234 285.819 530.502 286.329 530.919 286.698C531.337 287.067 531.875 287.271 532.433 287.271V287.271Z" fill="#F5F5F5"/>
<path d="M694.273 281.642L682.383 186.496C682.361 186.341 682.283 186.199 682.164 186.097C682.045 185.995 681.892 185.94 681.736 185.941H523.412C523.321 185.938 523.231 185.955 523.147 185.99C523.064 186.026 522.989 186.08 522.929 186.147C522.868 186.215 522.824 186.295 522.798 186.382C522.772 186.469 522.766 186.561 522.779 186.651L534.669 281.812C534.688 281.966 534.762 282.107 534.879 282.21C534.996 282.312 535.146 282.368 535.301 282.367H693.64C693.731 282.365 693.82 282.345 693.902 282.306C693.985 282.268 694.058 282.213 694.118 282.145C694.177 282.077 694.222 281.997 694.248 281.91C694.275 281.823 694.283 281.732 694.273 281.642Z" fill="#E0E0E0"/>
<path d="M634.009 315.382H596.043V314.904C596.043 313.902 596.441 312.941 597.149 312.233C597.858 311.524 598.819 311.126 599.821 311.126H630.23C631.232 311.126 632.193 311.524 632.902 312.233C633.61 312.941 634.009 313.902 634.009 314.904V315.382Z" fill="#FAFAFA"/>
<path d="M600.469 315.382H574.716V314.904C574.716 313.902 575.114 312.941 575.823 312.233C576.531 311.524 577.492 311.126 578.494 311.126H596.691C597.693 311.126 598.654 311.524 599.362 312.233C600.071 312.941 600.469 313.902 600.469 314.904V315.382Z" fill="#F0F0F0"/>
<path d="M379.521 109.023V108.946C379.876 107.759 380.215 106.556 380.508 105.353C381.03 106.184 381.741 106.881 382.582 107.388C383.423 107.894 384.371 108.195 385.35 108.268H385.767C388.342 108.021 390.809 105.523 392.367 101.59C392.397 101.52 392.413 101.444 392.413 101.367C392.413 101.29 392.397 101.214 392.367 101.143C392.292 101.002 392.165 100.897 392.012 100.85C390.164 100.382 388.237 100.308 386.359 100.635C384.48 100.962 382.691 101.682 381.11 102.747C381.341 101.606 381.542 100.449 381.711 99.3081C382.118 99.3866 382.531 99.4279 382.945 99.4315C387.139 99.4315 390.223 95.6843 390.378 95.4992C390.432 95.4313 390.47 95.3515 390.487 95.2663C390.505 95.1812 390.503 95.093 390.48 95.009C390.458 94.925 390.416 94.8474 390.358 94.7825C390.3 94.7177 390.227 94.6674 390.146 94.6357C389.172 94.1519 388.106 93.8799 387.019 93.8374C385.932 93.7948 384.848 93.9828 383.839 94.389C382.762 94.9368 381.891 95.8186 381.357 96.9025C380.571 94.4895 379.134 92.3401 377.205 90.6913C375.276 89.0424 372.929 87.958 370.423 87.5576C370.345 87.5392 370.264 87.5394 370.187 87.5582C370.109 87.5769 370.037 87.6137 369.976 87.6655C369.911 87.711 369.858 87.7709 369.821 87.8405C369.783 87.9101 369.763 87.9875 369.76 88.0665C369.544 91.8754 369.668 96.5478 372.52 98.7684C373.714 99.6484 375.172 100.095 376.653 100.033C377.98 100.001 379.297 99.7935 380.57 99.4161C380.163 102.172 379.57 104.897 378.797 107.574C376.006 103.771 372.047 100.987 367.524 99.6474C367.381 99.6141 367.231 99.6372 367.105 99.7119C366.978 99.7866 366.886 99.9071 366.846 100.048C365.982 103.333 366.429 106.001 368.126 107.759C368.988 108.534 369.998 109.127 371.095 109.503C372.192 109.879 373.353 110.031 374.51 109.948C375.753 109.941 376.993 109.811 378.211 109.563C377.501 111.814 376.669 114.019 375.882 116.117C374.171 114.575 369.128 110.75 363.638 112.354C363.491 112.403 363.369 112.508 363.299 112.647C363.269 112.718 363.253 112.794 363.253 112.871C363.253 112.947 363.269 113.024 363.299 113.094C364.841 116.733 366.491 118.754 368.619 119.448C369.186 119.635 369.78 119.728 370.377 119.725C372.007 119.656 373.595 119.19 375.003 118.368C373.831 121.159 372.582 123.765 371.395 126.078C369.985 124.641 368.215 123.61 366.269 123.095C364.323 122.579 362.274 122.598 360.338 123.148C360.206 123.175 360.089 123.249 360.009 123.358C359.929 123.466 359.892 123.601 359.906 123.734C360.043 124.901 360.484 126.011 361.185 126.952C361.886 127.894 362.822 128.635 363.9 129.101C364.714 129.451 365.59 129.629 366.476 129.625C367.704 129.61 368.91 129.298 369.992 128.715C368.789 130.951 367.678 132.817 366.815 134.236H356.329C354.663 131.383 352.736 127.836 350.854 123.858C351.731 124.119 352.639 124.26 353.553 124.274C354.678 124.288 355.79 124.043 356.805 123.558C357.819 123.072 358.708 122.36 359.403 121.476C360.098 120.592 360.58 119.559 360.812 118.459C361.043 117.358 361.019 116.219 360.739 115.13C360.703 115.003 360.622 114.894 360.511 114.823C360.401 114.752 360.268 114.724 360.138 114.744C357.996 114.953 355.937 115.674 354.133 116.847C352.329 118.02 350.834 119.61 349.775 121.483C348.541 118.707 347.339 115.762 346.29 112.724C347.625 113.484 349.12 113.917 350.654 113.989C351.263 113.996 351.868 113.896 352.443 113.696C355.527 112.678 357.3 108.961 358.812 105.106C358.846 105.037 358.863 104.96 358.863 104.883C358.863 104.805 358.846 104.729 358.812 104.659C358.776 104.588 358.726 104.526 358.665 104.475C358.604 104.425 358.533 104.388 358.457 104.366C352.289 102.639 347.215 108.576 345.642 110.704C344.82 108.136 344.135 105.526 343.591 102.886C344.887 103.139 346.203 103.274 347.524 103.287C348.836 103.383 350.153 103.208 351.395 102.772C352.637 102.337 353.775 101.652 354.74 100.758C356.606 98.7838 357.054 95.8231 356.051 92.2146C356.033 92.1439 356.002 92.0775 355.957 92.0194C355.913 91.9614 355.858 91.9129 355.794 91.8768C355.731 91.8408 355.661 91.818 355.588 91.8098C355.516 91.8016 355.443 91.8082 355.373 91.8291C350.452 93.3647 346.168 96.4679 343.175 100.665L342.944 99.2619C342.927 99.1405 342.873 99.0272 342.789 98.938C342.535 98.0256 342.092 97.1768 341.489 96.4463C340.886 95.7158 340.137 95.12 339.289 94.6974C338.177 94.2682 336.986 94.0792 335.795 94.143C334.604 94.2068 333.441 94.5219 332.381 95.0675C332.299 95.1027 332.226 95.1555 332.168 95.2222C332.109 95.2888 332.066 95.3677 332.041 95.453C332.022 95.5367 332.024 95.6238 332.045 95.7069C332.067 95.7901 332.108 95.8669 332.165 95.931C332.319 96.1315 335.711 100.141 340.276 100.141C340.768 100.135 341.258 100.083 341.741 99.9866C341.941 101.297 342.188 102.608 342.466 103.903C340.707 102.746 338.723 101.974 336.644 101.639C334.566 101.304 332.44 101.414 330.407 101.96C330.254 102.007 330.127 102.113 330.052 102.253C330.021 102.327 330.006 102.405 330.006 102.485C330.006 102.564 330.021 102.643 330.052 102.716C331.825 107.003 334.57 109.717 337.408 109.948H337.793C339.227 109.948 341.17 109.285 343.144 106.648C343.921 109.647 344.858 112.601 345.951 115.5C343.283 114.235 337.284 112.061 332.997 115.376C332.938 115.419 332.889 115.473 332.851 115.535C332.814 115.598 332.789 115.667 332.779 115.739C332.769 115.811 332.774 115.884 332.793 115.954C332.812 116.025 332.844 116.09 332.889 116.147C335.665 119.926 338.225 121.761 340.739 121.761C342.82 121.761 344.81 120.45 346.799 117.859C347.94 120.697 349.174 123.411 350.392 125.909C347.724 124.259 344.794 124.521 341.34 126.695C341.26 126.743 341.194 126.811 341.148 126.892C341.102 126.973 341.078 127.065 341.078 127.158C341.071 127.249 341.09 127.339 341.13 127.421C341.171 127.502 341.233 127.571 341.309 127.62C343.366 129.103 345.796 129.984 348.325 130.165C349.631 130.191 350.91 129.802 351.98 129.055C352.967 130.951 353.939 132.694 354.833 134.251H350.068V136.965H351.795L353.229 151.337H374.34L375.759 136.965H377.501V134.251H368.018C369.066 132.509 370.408 130.18 371.842 127.451C371.885 127.396 371.916 127.333 371.935 127.266C372.305 126.572 372.659 125.863 373.029 125.122C373.657 126.071 374.502 126.856 375.494 127.411C376.487 127.967 377.598 128.276 378.735 128.314C378.971 128.33 379.208 128.33 379.444 128.314C380.701 128.172 381.893 127.685 382.889 126.906C383.885 126.128 384.646 125.089 385.088 123.904C385.134 123.782 385.134 123.648 385.089 123.526C385.043 123.405 384.956 123.303 384.842 123.241C383.225 122.328 381.414 121.812 379.558 121.737C377.703 121.662 375.856 122.029 374.17 122.809C374.972 121.128 375.713 119.324 376.514 117.458C376.575 117.389 376.613 117.303 376.622 117.212C376.838 116.687 377.039 116.163 377.255 115.669C379.09 117.983 380.909 119.124 382.806 119.124C385.104 119.124 387.432 117.427 389.93 113.927C390.017 113.81 390.054 113.664 390.034 113.519C390.014 113.375 389.938 113.245 389.822 113.156C385.89 110.211 380.57 112.231 378.072 113.403C378.581 112.015 379.043 110.611 379.475 109.177L379.521 109.023Z" fill="#E0E0E0"/>
<path d="M820.568 102.516H741.706V189.103H820.568V102.516Z" fill="#E0E0E0"/>
<path d="M810.837 106.062C810.771 106.078 810.703 106.078 810.637 106.062C810.452 105.939 791.824 94.8669 785.964 94.8669C780.104 94.8669 762.293 105.939 762.108 106.047C762.066 106.075 762.019 106.094 761.969 106.102C761.919 106.111 761.868 106.11 761.819 106.098C761.77 106.087 761.724 106.065 761.683 106.035C761.643 106.005 761.609 105.967 761.584 105.923C761.532 105.837 761.516 105.734 761.539 105.636C761.562 105.538 761.622 105.453 761.707 105.399C762.447 104.937 779.826 94.0958 785.964 94.0958C792.101 94.0958 810.328 104.89 811.099 105.399C811.143 105.424 811.181 105.458 811.211 105.499C811.241 105.539 811.263 105.586 811.274 105.635C811.286 105.684 811.287 105.735 811.278 105.784C811.269 105.834 811.251 105.881 811.223 105.923C811.179 105.982 811.12 106.026 811.051 106.051C810.982 106.076 810.908 106.08 810.837 106.062Z" fill="#EBEBEB"/>
<path d="M829.095 102.516H747.643V189.103H829.095V102.516Z" fill="#F5F5F5"/>
<path d="M822.279 182.271V109.332H754.475V182.271H822.279Z" fill="white"/>
<path d="M801.509 158.942C808.766 151.685 808.766 139.92 801.509 132.663C794.253 125.406 782.487 125.406 775.231 132.663C767.974 139.92 767.974 151.685 775.231 158.942C782.487 166.198 794.253 166.198 801.509 158.942Z" fill="#E0E0E0"/>
<path d="M786.797 420.459H855.912C862.254 420.464 868.344 417.981 872.874 413.543C877.405 409.105 880.013 403.067 880.138 396.726L882.728 270.184C882.776 267.836 882.354 265.502 881.488 263.318C880.621 261.135 879.328 259.147 877.684 257.469C876.04 255.792 874.077 254.46 871.912 253.55C869.746 252.641 867.421 252.173 865.072 252.173H821.74C817.405 252.172 813.221 253.767 809.987 256.654C806.753 259.541 804.695 263.518 804.206 267.825L786.797 420.459Z" fill="#E6E6E6"/>
<path d="M824.515 420.459H750.866C749.95 420.459 749.072 420.095 748.424 419.447C747.776 418.799 747.412 417.921 747.412 417.004V416.681C747.412 414.169 748.41 411.761 750.185 409.985C751.961 408.21 754.369 407.212 756.88 407.212H824.515V420.459Z" fill="#E6E6E6"/>
<path d="M818.702 527.278C818.343 527.286 817.993 527.168 817.712 526.946C817.43 526.724 817.235 526.41 817.16 526.059L795.571 422.001H757.944L736.355 526.059C736.272 526.468 736.029 526.827 735.68 527.057C735.332 527.287 734.906 527.369 734.497 527.285C734.088 527.202 733.729 526.959 733.499 526.61C733.27 526.262 733.187 525.836 733.271 525.427L755.138 420.15C755.21 419.797 755.404 419.48 755.685 419.254C755.967 419.029 756.319 418.909 756.68 418.917H796.774C797.134 418.909 797.486 419.029 797.768 419.254C798.05 419.48 798.244 419.797 798.316 420.15L820.167 525.427C820.249 525.826 820.17 526.241 819.948 526.582C819.726 526.922 819.377 527.162 818.979 527.247C818.888 527.268 818.795 527.279 818.702 527.278V527.278Z" fill="#E6E6E6"/>
<path d="M795.247 527.278C795.145 527.293 795.041 527.293 794.939 527.278C794.74 527.237 794.552 527.158 794.384 527.045C794.216 526.931 794.072 526.786 793.96 526.617C793.849 526.448 793.771 526.259 793.733 526.06C793.694 525.861 793.695 525.656 793.736 525.458L815.602 420.181C815.674 419.828 815.868 419.51 816.15 419.285C816.432 419.06 816.784 418.94 817.144 418.947H857.238C857.599 418.94 857.951 419.06 858.232 419.285C858.514 419.51 858.708 419.828 858.78 420.181L880.631 525.458C880.673 525.66 880.674 525.869 880.635 526.072C880.596 526.275 880.517 526.468 880.403 526.641C880.289 526.813 880.143 526.962 879.971 527.078C879.8 527.194 879.608 527.275 879.405 527.316C879.203 527.358 878.994 527.359 878.791 527.32C878.588 527.281 878.395 527.202 878.222 527.088C878.05 526.974 877.901 526.827 877.785 526.656C877.67 526.485 877.589 526.293 877.547 526.09L855.958 422.032H818.301L796.712 526.09C796.634 526.422 796.447 526.719 796.182 526.934C795.917 527.149 795.588 527.27 795.247 527.278Z" fill="#E6E6E6"/>
<path d="M585.449 595.19C750.577 595.19 884.44 587.375 884.44 577.734C884.44 568.093 750.577 560.278 585.449 560.278C420.321 560.278 286.458 568.093 286.458 577.734C286.458 587.375 420.321 595.19 585.449 595.19Z" fill="#F5F5F5"/>
<path d="M611.834 563.485C611.351 563.484 610.883 563.316 610.509 563.01C610.135 562.704 609.879 562.278 609.783 561.804L580.484 417.529H529.457L500.157 561.804C500.018 562.318 499.688 562.76 499.234 563.04C498.781 563.319 498.238 563.416 497.716 563.31C497.194 563.204 496.732 562.903 496.424 562.469C496.115 562.035 495.984 561.499 496.055 560.972L525.694 415.015C525.793 414.543 526.05 414.119 526.423 413.813C526.796 413.507 527.262 413.338 527.745 413.334H582.18C582.663 413.335 583.131 413.503 583.505 413.809C583.878 414.116 584.135 414.542 584.231 415.015L613.885 560.972C613.994 561.516 613.883 562.081 613.577 562.543C613.271 563.005 612.793 563.328 612.25 563.439L611.834 563.485Z" fill="#176DE4"/>
<path d="M529.935 563.485C529.452 563.481 528.986 563.313 528.613 563.007C528.24 562.701 527.982 562.277 527.884 561.804L498.584 417.529H447.558L418.258 561.804C418.22 562.089 418.123 562.362 417.974 562.607C417.826 562.853 417.629 563.065 417.395 563.231C417.161 563.397 416.895 563.514 416.615 563.573C416.334 563.633 416.044 563.634 415.763 563.577C415.482 563.52 415.215 563.406 414.98 563.241C414.745 563.077 414.546 562.867 414.395 562.622C414.245 562.378 414.146 562.106 414.105 561.822C414.064 561.538 414.081 561.249 414.156 560.972L443.81 415.015C443.906 414.542 444.163 414.116 444.536 413.809C444.91 413.503 445.378 413.335 445.861 413.334H500.296C500.777 413.336 501.243 413.504 501.614 413.811C501.986 414.117 502.239 414.543 502.332 415.015L531.986 560.972C532.095 561.516 531.984 562.08 531.678 562.543C531.371 563.005 530.894 563.328 530.351 563.439L529.935 563.485Z" fill="#176DE4"/>
<path d="M541.392 415.447H447.635C439.029 415.449 430.765 412.076 424.618 406.053C418.472 400.03 414.931 391.837 414.758 383.233L411.273 240.746C411.207 237.562 411.777 234.396 412.951 231.434C414.124 228.472 415.876 225.774 418.105 223.498C420.333 221.222 422.994 219.413 425.93 218.178C428.867 216.943 432.02 216.306 435.206 216.305H493.989C499.872 216.308 505.548 218.476 509.936 222.395C514.324 226.313 517.117 231.709 517.783 237.554L541.392 415.447Z" fill="#176DE4"/>
<path d="M490.257 397.405H582.01C585.417 397.405 588.684 398.758 591.093 401.167C593.502 403.576 594.856 406.843 594.856 410.25V410.697C594.856 411.924 594.368 413.101 593.501 413.969C592.633 414.836 591.456 415.324 590.229 415.324H490.257V397.405Z" fill="#176DE4"/>
<g opacity="0.3">
<path opacity="0.3" d="M611.834 563.485C611.351 563.484 610.883 563.317 610.509 563.01C610.135 562.704 609.879 562.278 609.783 561.805L580.484 417.529H529.457L500.157 561.805C500.018 562.319 499.688 562.76 499.234 563.04C498.781 563.319 498.238 563.416 497.716 563.31C497.194 563.204 496.732 562.903 496.424 562.469C496.115 562.035 495.984 561.5 496.055 560.972L525.694 415.015C525.793 414.543 526.05 414.119 526.423 413.813C526.796 413.507 527.262 413.338 527.745 413.334H582.18C582.663 413.336 583.131 413.503 583.505 413.81C583.878 414.116 584.135 414.542 584.231 415.015L613.885 560.972C613.994 561.516 613.883 562.081 613.577 562.543C613.271 563.005 612.793 563.328 612.25 563.439L611.834 563.485Z" fill="black"/>
<path opacity="0.3" d="M529.935 563.485C529.452 563.482 528.986 563.313 528.613 563.007C528.24 562.701 527.982 562.277 527.884 561.805L498.584 417.529H447.558L418.258 561.805C418.22 562.089 418.123 562.362 417.974 562.608C417.826 562.853 417.629 563.065 417.395 563.231C417.161 563.398 416.895 563.514 416.615 563.573C416.334 563.633 416.044 563.634 415.763 563.577C415.482 563.52 415.215 563.406 414.98 563.242C414.745 563.077 414.546 562.867 414.395 562.623C414.245 562.378 414.146 562.106 414.105 561.822C414.064 561.538 414.081 561.249 414.156 560.972L443.81 415.015C443.906 414.542 444.163 414.116 444.536 413.81C444.91 413.503 445.378 413.336 445.861 413.334H500.296C500.777 413.336 501.243 413.505 501.614 413.811C501.986 414.117 502.239 414.543 502.332 415.015L531.986 560.972C532.095 561.516 531.984 562.081 531.678 562.543C531.371 563.005 530.894 563.328 530.351 563.439L529.935 563.485Z" fill="black"/>
<path opacity="0.3" d="M541.392 415.447H447.635C439.029 415.449 430.765 412.076 424.618 406.053C418.472 400.03 414.931 391.837 414.758 383.233L411.273 240.746C411.207 237.562 411.777 234.396 412.951 231.434C414.124 228.472 415.876 225.774 418.105 223.498C420.333 221.222 422.994 219.413 425.93 218.178C428.867 216.943 432.02 216.306 435.206 216.305H493.989C499.872 216.308 505.548 218.476 509.936 222.395C514.324 226.313 517.117 231.709 517.783 237.554L541.392 415.447Z" fill="black"/>
<path opacity="0.3" d="M490.257 397.405H582.01C585.417 397.405 588.684 398.758 591.093 401.167C593.502 403.576 594.856 406.843 594.856 410.25V410.697C594.856 411.924 594.368 413.101 593.501 413.969C592.633 414.836 591.456 415.324 590.229 415.324H490.257V397.405Z" fill="black"/>
</g>
<path d="M515.3 208.44C515.3 208.44 528.408 225.557 519.927 259.637C511.445 293.716 467.681 275.212 465.029 244.494C461.945 208.286 502.594 233.252 509.749 201.054L515.3 208.44Z" fill="#263238"/>
<path d="M505.786 198.278C500.096 202.287 497.844 208.116 504.136 213.822C510.427 219.528 519.402 219.342 522.116 216.999C524.83 214.655 524.291 202.75 524.291 202.75L505.786 198.278Z" fill="#176DE4"/>
<path opacity="0.8" d="M505.786 198.278C500.096 202.287 497.844 208.116 504.136 213.822C510.427 219.528 519.402 219.342 522.116 216.999C524.83 214.655 524.291 202.75 524.291 202.75L505.786 198.278Z" fill="white"/>
<path d="M577.646 274.132C577.8 274.826 578.062 275.905 578.309 276.815L579.049 279.714C579.574 281.657 580.144 283.6 580.746 285.543C581.887 289.46 583.151 293.362 584.477 297.263C585.804 301.164 587.161 304.973 588.641 308.921C589.366 310.849 590.091 312.792 590.862 314.719L591.756 317.032C591.935 317.428 592.168 317.797 592.45 318.127C594.645 320.347 597.319 322.035 600.268 323.062C603.87 324.511 607.583 325.666 611.371 326.516C615.288 327.426 619.313 328.181 623.384 328.814C627.455 329.446 631.634 329.955 635.643 330.356L635.782 338.652C626.985 339.562 618.117 339.562 609.32 338.652C604.722 338.178 600.176 337.296 595.735 336.015C593.329 335.289 590.987 334.366 588.734 333.255C586.139 331.994 583.764 330.322 581.702 328.305C580.505 327.113 579.468 325.77 578.618 324.311C578.386 323.941 578.186 323.524 577.97 323.139L577.569 322.306L576.86 320.764C575.904 318.806 574.947 316.847 574.068 314.858C572.28 310.88 570.537 306.87 568.98 302.784C567.422 298.697 565.896 294.58 564.6 290.447C563.968 288.319 563.351 286.206 562.781 284.032L561.932 280.778C561.686 279.606 561.454 278.635 561.208 277.247L577.646 274.132Z" fill="#E58A7B"/>
<path d="M572.403 256.614C579.019 258.295 583.629 285.497 583.629 285.497L565.418 297.834C565.418 297.834 547.946 270.385 553.081 263.122C558.339 255.658 562.75 254.209 572.403 256.614Z" fill="#176DE4"/>
<path opacity="0.5" d="M572.403 256.614C579.019 258.295 583.629 285.497 583.629 285.497L565.418 297.834C565.418 297.834 547.946 270.385 553.081 263.122C558.339 255.658 562.75 254.209 572.403 256.614Z" fill="white"/>
<path opacity="0.2" d="M570.028 263.461L554.191 276.013C557.275 283.639 561.027 290.977 565.402 297.942L578.032 289.352L570.028 263.461Z" fill="#176DE4"/>
<path d="M572.403 256.614C572.403 256.614 580.113 259.297 564.693 353.41H499.587C500.682 326.902 500.712 310.556 488.052 256.136C497.169 254.258 506.409 253.042 515.701 252.497C525.553 251.794 535.442 251.794 545.294 252.497C558 253.715 572.403 256.614 572.403 256.614Z" fill="#176DE4"/>
<path opacity="0.5" d="M572.403 256.614C572.403 256.614 580.113 259.297 564.693 353.41H499.587C500.682 326.902 500.712 310.556 488.052 256.136C497.169 254.258 506.409 253.042 515.701 252.497C525.553 251.794 535.442 251.794 545.294 252.497C558 253.715 572.403 256.614 572.403 256.614Z" fill="white"/>
<path d="M633.253 330.279L644.618 318.744L646.16 334.998C646.16 334.998 637.632 340.765 631.742 337.665L633.253 330.279Z" fill="#E58A7B"/>
<path d="M658.034 317.032L658.543 330.695L646.145 334.997L644.649 318.744L658.034 317.032Z" fill="#E58A7B"/>
<path d="M638.589 548.527H654.626L657.093 511.379H641.056L638.589 548.527Z" fill="#E58A7B"/>
<path d="M576.52 548.527H592.558L597.708 511.379H581.671L576.52 548.527Z" fill="#E58A7B"/>
<path d="M593.56 546.661H575.533C575.223 546.655 574.921 546.763 574.685 546.965C574.449 547.167 574.295 547.448 574.254 547.756L572.203 562.02C572.166 562.381 572.205 562.745 572.318 563.089C572.431 563.433 572.614 563.75 572.857 564.019C573.1 564.287 573.396 564.502 573.727 564.649C574.058 564.797 574.416 564.873 574.778 564.873C581.054 564.765 584.03 564.395 592.003 564.395C596.876 564.395 609.382 564.904 616.121 564.904C622.86 564.904 623.214 558.242 620.408 557.641C607.84 554.927 600.469 551.211 596.228 547.648C595.484 547.013 594.538 546.663 593.56 546.661Z" fill="#263238"/>
<path d="M655.875 546.661H637.879C637.57 546.658 637.269 546.767 637.034 546.969C636.798 547.17 636.644 547.45 636.599 547.756L634.548 562.02C634.512 562.381 634.551 562.745 634.664 563.089C634.776 563.433 634.96 563.75 635.203 564.018C635.445 564.287 635.742 564.502 636.073 564.649C636.403 564.797 636.761 564.873 637.124 564.873C643.4 564.765 646.376 564.395 654.348 564.395C659.237 564.395 669.307 564.904 676.045 564.904C682.784 564.904 683.139 558.242 680.332 557.641C667.764 554.927 662.814 551.21 658.589 547.648C657.83 547.007 656.868 546.657 655.875 546.661V546.661Z" fill="#263238"/>
<path d="M559.619 186.79C565.387 187.16 568.317 216.089 551.4 214.408C534.484 212.727 559.619 186.79 559.619 186.79Z" fill="#263238"/>
<path d="M657.093 511.379L655.813 530.531H639.776L641.04 511.379H657.093Z" fill="#CF6F64"/>
<path d="M581.671 511.379H597.724L595.056 530.531H579.003L581.671 511.379Z" fill="#CF6F64"/>
<path opacity="0.2" d="M494.56 286.392C496.102 294.287 497.197 301.103 498.029 307.24L501.838 277.771L494.56 286.392Z" fill="#176DE4"/>
<path d="M518.631 219.25C520.497 228.765 522.363 246.205 515.701 252.559C515.701 252.559 518.307 262.212 535.995 262.212C555.44 262.212 545.247 252.559 545.247 252.559C534.622 250.03 534.9 242.15 536.75 234.763L518.631 219.25Z" fill="#E58A7B"/>
<path d="M532.479 264.278L538.401 262.15L537.614 260.531L532.479 264.278Z" fill="#263238"/>
<path d="M543.967 263.045L538.401 262.15L539.603 260.346L543.967 263.045Z" fill="#263238"/>
<path d="M517.86 248.071L513.835 251.988C513.715 252.112 513.647 252.278 513.647 252.451C513.647 252.624 513.715 252.79 513.835 252.913L530.798 272.235C531.605 267.646 534.062 263.511 537.707 260.608C523.674 255.304 520.019 249.814 518.77 248.272C518.741 248.182 518.689 248.102 518.619 248.038C518.55 247.975 518.465 247.931 518.373 247.911C518.281 247.89 518.185 247.894 518.095 247.923C518.005 247.951 517.924 248.002 517.86 248.071V248.071Z" fill="#176DE4"/>
<path d="M542.102 251.032L547.098 252.389C547.247 252.43 547.383 252.511 547.491 252.622C547.6 252.733 547.677 252.871 547.715 253.021C549.126 259.359 548.86 265.955 546.944 272.158C546.234 269.537 543.859 263.26 539.603 260.346C544.23 257.154 542.364 253.037 541.701 251.479C541.679 251.421 541.674 251.358 541.685 251.298C541.697 251.237 541.725 251.18 541.766 251.134C541.807 251.088 541.86 251.054 541.919 251.036C541.979 251.018 542.042 251.017 542.102 251.032Z" fill="#176DE4"/>
<path d="M526.049 225.573L536.843 234.748C536.394 236.467 536.09 238.221 535.933 239.991C531.878 239.405 526.311 234.964 525.879 230.738C525.615 229.021 525.672 227.269 526.049 225.573V225.573Z" fill="#CF6F64"/>
<path d="M517.598 194.176C515.763 209.982 514.637 216.644 521.114 226.081C530.829 240.284 550.66 239.081 557.183 224.138C563.058 210.692 565.063 187.129 550.876 178.123C547.755 176.131 544.177 174.97 540.481 174.751C536.785 174.531 533.095 175.26 529.76 176.869C526.425 178.477 523.558 180.912 521.429 183.941C519.3 186.97 517.982 190.494 517.598 194.176V194.176Z" fill="#E58A7B"/>
<path d="M553.744 168.069C527.606 157.752 507.976 169.395 503.92 185.941C497.551 211.632 517.891 213.436 517.891 213.436L520.436 206.867C524.09 209.072 534.314 208.101 531.23 189.025C529.41 178.231 543.073 193.266 560.406 191.585C565.017 191.138 571.324 175.008 553.744 168.069Z" fill="#263238"/>
<path d="M562.642 174.422C559.203 169.133 552.171 164.599 537.599 162.456C537.599 162.456 545.17 164.167 547.622 169.703C550.074 175.239 566.79 180.791 562.642 174.422Z" fill="#263238"/>
<path d="M512.571 207.854C512.464 209.374 512.659 210.9 513.143 212.345C513.627 213.79 514.392 215.125 515.393 216.274C518.091 219.358 521.638 217.461 522.749 213.76C523.735 210.414 523.535 204.801 519.927 203.105C516.318 201.408 512.864 204.091 512.571 207.854Z" fill="#E58A7B"/>
<path d="M564.739 353.471C564.739 353.471 672.283 363.479 671.234 412.378C670.139 463.266 659.252 526.83 659.252 526.83H637.031C637.031 526.83 635.134 473.043 634.487 422.941C634.163 396.85 530.243 391.622 530.243 391.622L516.827 353.471H564.739Z" fill="#263238"/>
<path d="M547.53 353.471C547.53 353.471 617.03 376.525 618.788 405.053C622.011 457.576 598.927 526.877 598.927 526.877H577.045C577.045 526.877 578.294 480.923 580.9 433.335C584.2 373.534 478.692 432.502 499.587 353.518L547.53 353.471Z" fill="#263238"/>
<path d="M540.467 202.796C540.236 204.061 540.729 205.217 541.562 205.371C542.395 205.526 543.243 204.6 543.474 203.336C543.705 202.071 543.212 200.899 542.379 200.761C541.546 200.622 540.729 201.516 540.467 202.796Z" fill="#263238"/>
<path d="M554.854 205.371C554.623 206.636 555.117 207.792 555.949 207.947C556.782 208.101 557.646 207.176 557.877 205.911C558.108 204.647 557.615 203.475 556.782 203.336C555.949 203.197 555.086 204.091 554.854 205.371Z" fill="#263238"/>
<path d="M556.396 203.336L559.619 202.997C559.619 202.997 557.692 205.109 556.396 203.336Z" fill="#263238"/>
<path d="M550.66 206.867C551.277 209.975 552.315 212.984 553.744 215.811C553.018 216.142 552.229 216.313 551.431 216.313C550.633 216.313 549.844 216.142 549.118 215.811L550.66 206.867Z" fill="#DF5753"/>
<path d="M543.813 219.929C542.121 219.66 540.516 218.997 539.128 217.992C537.74 216.987 536.609 215.67 535.825 214.146C535.799 214.086 535.798 214.019 535.821 213.959C535.844 213.898 535.89 213.849 535.949 213.822C536.01 213.801 536.078 213.803 536.137 213.829C536.197 213.854 536.245 213.901 536.273 213.961C537.014 215.401 538.082 216.647 539.391 217.6C540.701 218.554 542.215 219.187 543.813 219.45C543.877 219.465 543.933 219.504 543.971 219.558C544.008 219.612 544.023 219.678 544.014 219.743C544.002 219.791 543.977 219.833 543.941 219.866C543.906 219.899 543.861 219.921 543.813 219.929V219.929Z" fill="#263238"/>
<path d="M537.09 197.106C537.023 197.108 536.956 197.096 536.895 197.069C536.834 197.042 536.779 197.002 536.735 196.952C536.688 196.908 536.651 196.856 536.626 196.798C536.6 196.739 536.587 196.676 536.587 196.612C536.587 196.549 536.6 196.486 536.626 196.427C536.651 196.369 536.688 196.317 536.735 196.273C537.566 195.462 538.579 194.861 539.69 194.523C540.801 194.185 541.977 194.119 543.119 194.33C543.24 194.366 543.342 194.447 543.405 194.556C543.468 194.665 543.487 194.794 543.459 194.916C543.444 194.978 543.417 195.037 543.38 195.089C543.342 195.14 543.295 195.184 543.24 195.217C543.186 195.25 543.125 195.272 543.062 195.281C542.999 195.29 542.934 195.287 542.873 195.271C541.887 195.097 540.875 195.161 539.92 195.459C538.964 195.757 538.095 196.279 537.383 196.983C537.3 197.053 537.198 197.096 537.09 197.106Z" fill="#263238"/>
<path d="M562.719 199.635C562.623 199.638 562.529 199.612 562.449 199.56C562.369 199.507 562.307 199.431 562.272 199.342C561.895 198.416 561.304 197.593 560.549 196.939C559.793 196.285 558.893 195.819 557.923 195.579C557.797 195.557 557.685 195.486 557.611 195.383C557.536 195.279 557.504 195.151 557.522 195.024C557.545 194.895 557.617 194.781 557.724 194.706C557.831 194.631 557.964 194.601 558.093 194.623C559.222 194.885 560.272 195.416 561.153 196.17C562.033 196.924 562.719 197.88 563.151 198.956C563.203 199.075 563.206 199.21 563.16 199.331C563.114 199.452 563.022 199.55 562.904 199.604L562.719 199.635Z" fill="#263238"/>
<path d="M497.783 279.406C496.379 284.032 494.868 288.658 493.526 293.408C492.185 298.158 490.766 302.784 489.548 307.487C488.33 312.19 487.173 316.847 486.31 321.366C485.893 323.648 485.508 325.915 485.292 328.043C485.168 329.107 485.107 330.109 485.091 331.034C485.091 331.25 485.091 331.034 484.937 330.68C484.749 330.262 484.488 329.881 484.166 329.554C483.38 328.875 483.087 328.999 483.441 329.107C484.087 329.264 484.751 329.331 485.415 329.307C487.491 329.236 489.556 328.973 491.583 328.521C496.177 327.509 500.703 326.216 505.138 324.65C514.252 321.566 523.504 317.803 532.51 313.964L536.488 321.227C527.944 326.828 519.014 331.816 509.764 336.154C504.975 338.413 500.033 340.335 494.976 341.906C492.16 342.763 489.268 343.347 486.34 343.648C484.512 343.836 482.667 343.789 480.851 343.51C479.645 343.329 478.468 342.992 477.35 342.507C475.905 341.882 474.595 340.981 473.495 339.855C471.357 337.601 470.131 334.634 470.056 331.528C469.979 329.986 469.964 328.444 470.056 327.056C470.164 324.203 470.426 321.504 470.781 318.867C471.521 313.594 472.477 308.505 473.649 303.447C474.821 298.389 476.07 293.5 477.443 288.597C478.815 283.693 480.296 278.882 482.069 273.978L497.783 279.406Z" fill="#E58A7B"/>
<path d="M599.05 549.36C597.629 549.325 596.217 549.128 594.84 548.774C594.789 548.764 594.741 548.739 594.704 548.702C594.667 548.665 594.642 548.618 594.632 548.566C594.622 548.515 594.628 548.462 594.648 548.414C594.669 548.365 594.704 548.324 594.748 548.296C595.287 547.941 600.099 544.826 601.934 545.644C602.126 545.731 602.291 545.869 602.411 546.042C602.53 546.216 602.6 546.42 602.612 546.631C602.689 546.973 602.675 547.329 602.572 547.664C602.47 548 602.281 548.302 602.026 548.543C601.161 549.157 600.107 549.447 599.05 549.36ZM595.58 548.404C598.557 549.021 600.793 548.944 601.656 548.142C601.844 547.959 601.982 547.732 602.058 547.481C602.133 547.23 602.144 546.964 602.088 546.708C602.082 546.586 602.043 546.469 601.975 546.368C601.907 546.268 601.813 546.188 601.702 546.137C600.53 545.613 597.277 547.355 595.58 548.404V548.404Z" fill="#176DE4"/>
<path d="M594.902 548.789H594.763C594.72 548.764 594.684 548.728 594.66 548.685C594.635 548.642 594.623 548.592 594.624 548.543C594.624 548.358 594.624 543.793 596.351 542.282C596.554 542.088 596.798 541.944 597.066 541.861C597.334 541.778 597.617 541.758 597.894 541.804C598.171 541.801 598.442 541.895 598.658 542.07C598.874 542.244 599.024 542.488 599.081 542.76C599.405 544.425 596.722 547.833 595.041 548.789H594.902ZM597.616 542.282C597.277 542.284 596.951 542.417 596.706 542.652C595.488 543.731 595.241 546.785 595.164 548.003C596.706 546.893 598.773 544.086 598.51 542.837C598.51 542.636 598.356 542.374 597.801 542.297L597.616 542.282Z" fill="#176DE4"/>
<path d="M661.905 549.36C660.21 549.322 658.522 549.131 656.862 548.789C656.808 548.776 656.758 548.746 656.72 548.705C656.682 548.664 656.656 548.613 656.646 548.558C656.638 548.501 656.649 548.443 656.676 548.393C656.704 548.343 656.748 548.304 656.8 548.281C657.51 547.91 663.848 544.672 665.775 545.721C665.943 545.813 666.084 545.947 666.186 546.108C666.289 546.27 666.349 546.455 666.361 546.646C666.405 546.967 666.368 547.294 666.255 547.598C666.142 547.902 665.956 548.174 665.713 548.388C664.592 549.138 663.248 549.481 661.905 549.36ZM657.756 548.404C659.823 548.759 663.925 549.267 665.343 548.003C665.52 547.837 665.656 547.632 665.739 547.405C665.822 547.177 665.85 546.933 665.821 546.692C665.82 546.588 665.791 546.485 665.737 546.396C665.682 546.306 665.605 546.233 665.513 546.183C664.249 545.505 659.992 547.309 657.756 548.404V548.404Z" fill="#176DE4"/>
<path d="M656.924 548.789C656.874 548.805 656.82 548.805 656.77 548.789C656.732 548.76 656.702 548.722 656.68 548.68C656.659 548.637 656.647 548.59 656.646 548.543C656.646 548.358 657.032 544.086 659.006 542.374C659.282 542.139 659.604 541.962 659.952 541.856C660.299 541.75 660.665 541.717 661.026 541.758C662.013 541.85 662.29 542.344 662.367 542.729C662.645 544.502 658.913 547.895 657.032 548.743L656.924 548.789ZM660.733 542.282C660.226 542.28 659.737 542.467 659.36 542.806C657.911 544.009 657.402 546.893 657.248 548.049C659.268 546.923 662.028 544.024 661.874 542.837C661.874 542.714 661.874 542.374 661.026 542.297L660.733 542.282Z" fill="#176DE4"/>
<path d="M532.14 314.21L547.345 310.355L540.097 324.959C540.097 324.959 529.811 325.406 526.419 319.669L532.14 314.21Z" fill="#E58A7B"/>
<path d="M559.635 315.891L552.911 327.796L540.097 324.959L547.345 310.355L559.635 315.891Z" fill="#E58A7B"/>
<path d="M541.994 200.761L545.216 200.421C545.216 200.421 543.227 202.534 541.994 200.761Z" fill="#263238"/>
<path d="M498.615 349.647L498.091 355.476C497.875 355.939 498.399 356.401 499.155 356.401H565.063C565.649 356.401 566.127 356.108 566.173 355.738L566.759 349.909C566.759 349.508 566.281 349.169 565.649 349.169H499.679C499.476 349.152 499.272 349.187 499.085 349.27C498.899 349.354 498.737 349.484 498.615 349.647V349.647Z" fill="#176DE4"/>
<path d="M507.482 357.034H505.709C505.354 357.034 505.092 356.849 505.107 356.633L505.94 349.046C505.94 348.83 506.279 348.645 506.634 348.645H508.346C508.7 348.645 508.963 348.83 508.947 349.046L508.114 356.633C508.13 356.849 507.821 357.034 507.482 357.034Z" fill="#263238"/>
<path d="M560.097 357.034H558.324C557.969 357.034 557.707 356.849 557.723 356.633L558.555 349.046C558.555 348.83 558.895 348.645 559.249 348.645H561.007C561.362 348.645 561.624 348.83 561.609 349.046L560.776 356.633C560.776 356.849 560.437 357.034 560.097 357.034Z" fill="#263238"/>
<path d="M533.79 357.034H532.016C531.662 357.034 531.4 356.849 531.415 356.633L532.248 349.046C532.248 348.83 532.587 348.645 532.942 348.645H534.7C535.054 348.645 535.316 348.83 535.301 349.046L534.468 356.633C534.437 356.849 534.144 357.034 533.79 357.034Z" fill="#263238"/>
<path d="M488.052 256.198C481.514 258.187 473.68 280.655 473.68 280.655L494.729 301.211C494.729 301.211 508.238 280.007 505.524 271.572C502.64 262.782 495.5 253.946 488.052 256.198Z" fill="#176DE4"/>
<path opacity="0.5" d="M488.052 256.198C481.514 258.187 473.68 280.655 473.68 280.655L494.729 301.211C494.729 301.211 508.238 280.007 505.524 271.572C502.64 262.782 495.5 253.946 488.052 256.198Z" fill="white"/>
<path d="M837.823 337.449H715.137V576.084H837.823V337.449Z" fill="#176DE4"/>
<path opacity="0.6" d="M837.823 337.449H715.137V576.084H837.823V337.449Z" fill="white"/>
<path d="M600.145 337.449H477.458V576.084H600.145V337.449Z" fill="#176DE4"/>
<path opacity="0.6" d="M600.145 337.449H477.458V576.084H600.145V337.449Z" fill="white"/>
<path d="M842.419 337.449H832.303V576.084H842.419V337.449Z" fill="#176DE4"/>
<path opacity="0.3" d="M842.419 337.449H832.303V576.084H842.419V337.449Z" fill="black"/>
<path d="M601.61 355.353L845.549 355.353V337.45H601.61V355.353Z" fill="#176DE4"/>
<path opacity="0.3" d="M601.61 355.353L845.549 355.353V337.45H601.61V355.353Z" fill="black"/>
<path d="M604.756 337.449H594.64V576.084H604.756V337.449Z" fill="#176DE4"/>
<path opacity="0.3" d="M604.756 337.449H594.64V576.084H604.756V337.449Z" fill="black"/>
<path d="M601.024 394.537L837.361 394.537V342.985H601.024V394.537Z" fill="#176DE4"/>
<path opacity="0.3" d="M601.024 394.537L837.361 394.537V342.985H601.024V394.537Z" fill="black"/>
<path d="M837.885 583.023H769.772C765.148 583.019 760.714 581.181 757.444 577.911C754.174 574.641 752.335 570.207 752.331 565.583V350.68C752.331 346.591 750.707 342.668 747.815 339.776C744.923 336.884 741 335.26 736.911 335.26H716.525V333.718H736.895C741.394 333.718 745.709 335.505 748.89 338.686C752.071 341.867 753.858 346.182 753.858 350.68V565.583C753.862 569.798 755.538 573.84 758.519 576.82C761.5 579.801 765.541 581.477 769.757 581.481H837.885C839.045 581.484 840.175 581.12 841.115 580.442C842.056 579.763 842.758 578.806 843.122 577.705C843.486 576.604 843.494 575.416 843.143 574.311C842.792 573.206 842.102 572.24 841.17 571.55L842.08 570.317C843.269 571.2 844.151 572.435 844.598 573.848C845.046 575.26 845.037 576.778 844.572 578.185C844.108 579.592 843.212 580.817 842.011 581.686C840.811 582.554 839.367 583.022 837.885 583.023Z" fill="#176DE4"/>
<path opacity="0.3" d="M837.885 583.023H769.772C765.148 583.019 760.714 581.181 757.444 577.911C754.174 574.641 752.335 570.207 752.331 565.583V350.68C752.331 346.591 750.707 342.668 747.815 339.776C744.923 336.884 741 335.26 736.911 335.26H716.525V333.718H736.895C741.394 333.718 745.709 335.505 748.89 338.686C752.071 341.867 753.858 346.182 753.858 350.68V565.583C753.862 569.798 755.538 573.84 758.519 576.82C761.5 579.801 765.541 581.477 769.757 581.481H837.885C839.045 581.484 840.175 581.12 841.115 580.442C842.056 579.763 842.758 578.806 843.122 577.705C843.486 576.604 843.494 575.416 843.143 574.311C842.792 573.206 842.102 572.24 841.17 571.55L842.08 570.317C843.269 571.2 844.151 572.435 844.598 573.848C845.046 575.26 845.037 576.778 844.572 578.185C844.108 579.592 843.212 580.817 842.011 581.686C840.811 582.554 839.367 583.022 837.885 583.023Z" fill="black"/>
<path d="M847.816 407.86H846.274V437.668H847.816V407.86Z" fill="#176DE4"/>
<path opacity="0.3" d="M847.816 407.86H846.274V437.668H847.816V407.86Z" fill="black"/>
<path d="M847.816 390.265H846.274V398.099H847.816V390.265Z" fill="#176DE4"/>
<path opacity="0.3" d="M847.816 390.265H846.274V398.099H847.816V390.265Z" fill="black"/>
<path d="M734.875 266.206H620.546L603.985 333.718H718.298L734.875 266.206Z" fill="#176DE4"/>
<path opacity="0.4" d="M734.875 266.206H620.546L603.985 333.718H718.298L734.875 266.206Z" fill="white"/>
<path d="M607.485 333.718L607.023 337.45H562.164L562.626 333.718H607.485Z" fill="#176DE4"/>
<path opacity="0.4" d="M607.485 333.718L607.023 337.45H562.164L562.626 333.718H607.485Z" fill="white"/>
<path d="M721.814 333.718L721.351 337.45H607.022L607.485 333.718H721.814Z" fill="#176DE4"/>
<path opacity="0.5" d="M721.814 333.718L721.351 337.45H607.022L607.485 333.718H721.814Z" fill="black"/>
<path d="M738.391 266.206H624.062L607.5 333.718H721.814L738.391 266.206Z" fill="#176DE4"/>
<path opacity="0.5" d="M738.391 266.206H624.062L607.5 333.718H721.814L738.391 266.206Z" fill="black"/>
<path d="M782.54 320.44C782.54 320.44 765.716 291.434 789.002 268.349C789.002 268.349 795.093 272.328 795 277.602C794.908 282.876 788.477 284.294 789.85 288.736C791.222 293.177 797.313 297.572 793.319 301.257C789.325 304.943 793.967 308.212 793.69 312.715C793.412 317.218 782.54 320.44 782.54 320.44Z" fill="#176DE4"/>
<path d="M783.82 323.093C783.82 323.093 790.636 290.262 761.214 275.721C761.214 275.721 756.68 281.411 758.453 286.515C760.227 291.619 766.75 290.802 766.842 295.474C766.935 300.147 762.555 306.192 767.505 308.428C772.455 310.664 769.047 315.244 770.759 319.438C772.471 323.633 783.82 323.093 783.82 323.093Z" fill="#176DE4"/>
<path opacity="0.5" d="M783.82 323.093C783.82 323.093 790.636 290.262 761.214 275.721C761.214 275.721 756.68 281.411 758.453 286.515C760.227 291.619 766.75 290.802 766.842 295.474C766.935 300.147 762.555 306.192 767.505 308.428C772.455 310.664 769.047 315.244 770.759 319.438C772.471 323.633 783.82 323.093 783.82 323.093Z" fill="black"/>
<path d="M758.037 315.814C758.037 315.814 758.608 337.403 780.058 337.403C801.508 337.403 802.063 315.814 802.063 315.814H758.037Z" fill="#176DE4"/>
<path opacity="0.5" d="M758.037 315.814C758.037 315.814 758.608 337.403 780.058 337.403C801.508 337.403 802.063 315.814 802.063 315.814H758.037Z" fill="black"/>
<path d="M642.737 174.36L624.417 150.69L606.097 174.36H614.717V205.001H634.116V174.36H642.737Z" fill="#176DE4"/>
<path d="M696.478 202.195C696.478 190.743 701.027 179.761 709.124 171.663C717.222 163.566 728.204 159.017 739.656 159.017V170.258C735.464 170.256 731.314 171.08 727.441 172.683C723.568 174.285 720.049 176.635 717.085 179.598C714.121 182.561 711.769 186.079 710.165 189.951C708.561 193.823 707.735 197.973 707.735 202.164L696.478 202.195Z" fill="#176DE4"/>
<path d="M696.478 202.195H707.735C707.735 210.661 711.098 218.78 717.084 224.766C723.07 230.752 731.19 234.115 739.656 234.115C745.257 234.126 750.76 232.646 755.6 229.829L761.244 239.651C754.68 243.441 747.234 245.436 739.655 245.436C732.076 245.436 724.63 243.441 718.066 239.651C711.502 235.861 706.051 230.41 702.262 223.846C698.472 217.282 696.477 209.836 696.478 202.256V202.195Z" fill="#176DE4"/>
<path opacity="0.5" d="M696.478 202.195H707.735C707.735 210.661 711.098 218.78 717.084 224.766C723.07 230.752 731.19 234.115 739.656 234.115C745.257 234.126 750.76 232.646 755.6 229.829L761.244 239.651C754.68 243.441 747.234 245.436 739.655 245.436C732.076 245.436 724.63 243.441 718.066 239.651C711.502 235.861 706.051 230.41 702.262 223.846C698.472 217.282 696.477 209.836 696.478 202.256V202.195Z" fill="white"/>
<path d="M739.656 170.258V158.986C749.191 158.949 758.47 162.07 766.045 167.862C773.62 173.653 779.065 181.789 781.53 191C783.996 200.212 783.342 209.98 779.673 218.781C776.003 227.582 769.523 234.92 761.244 239.651L755.616 229.89C761.747 226.4 766.548 220.975 769.269 214.466C771.989 207.957 772.475 200.729 770.651 193.914C768.827 187.099 764.796 181.081 759.187 176.801C753.579 172.52 746.71 170.22 739.656 170.258V170.258Z" fill="#176DE4"/>
<path opacity="0.7" d="M739.656 170.258V158.986C749.191 158.949 758.47 162.07 766.045 167.862C773.62 173.653 779.065 181.789 781.53 191C783.996 200.212 783.342 209.98 779.673 218.781C776.003 227.582 769.523 234.92 761.244 239.651L755.616 229.89C761.747 226.4 766.548 220.975 769.269 214.466C771.989 207.957 772.475 200.729 770.651 193.914C768.827 187.099 764.796 181.081 759.187 176.801C753.579 172.52 746.71 170.22 739.656 170.258V170.258Z" fill="black"/>
<path d="M699.115 96.2394H659.777C658.374 96.2394 657.028 96.7966 656.036 97.7886C655.044 98.7805 654.487 100.126 654.487 101.529V174.268C654.499 175.663 655.062 176.996 656.053 177.978C657.043 178.96 658.382 179.511 659.777 179.511H710.125C711.525 179.507 712.866 178.948 713.855 177.956C714.844 176.965 715.399 175.622 715.399 174.222V112.539L699.115 96.2394Z" fill="#263238"/>
<path d="M696.801 172.279H664.094C663.481 172.279 662.892 172.035 662.459 171.601C662.025 171.167 661.781 170.579 661.781 169.966C661.785 169.355 662.031 168.77 662.464 168.34C662.897 167.909 663.483 167.668 664.094 167.668H696.817C697.428 167.668 698.014 167.909 698.447 168.34C698.88 168.77 699.126 169.355 699.13 169.966V169.966C699.126 170.58 698.879 171.169 698.443 171.602C698.006 172.035 697.416 172.279 696.801 172.279V172.279Z" fill="#176DE4"/>
<path d="M681.381 108.159H664.094C663.483 108.16 662.897 107.918 662.464 107.487C662.031 107.057 661.785 106.473 661.781 105.862V105.862C661.781 105.248 662.025 104.66 662.459 104.226C662.892 103.792 663.481 103.549 664.094 103.549H681.396C682.01 103.549 682.598 103.792 683.032 104.226C683.466 104.66 683.709 105.248 683.709 105.862C683.707 106.166 683.645 106.466 683.527 106.746C683.409 107.026 683.237 107.28 683.021 107.493C682.805 107.706 682.549 107.875 682.267 107.989C681.986 108.104 681.685 108.162 681.381 108.159V108.159Z" fill="#176DE4"/>
<path d="M692.684 117.319H664.094C663.483 117.319 662.897 117.078 662.464 116.647C662.031 116.217 661.785 115.633 661.781 115.022V115.022C661.781 114.408 662.025 113.82 662.459 113.386C662.892 112.952 663.481 112.709 664.094 112.709H692.7C693.31 112.713 693.895 112.958 694.325 113.392C694.756 113.825 694.997 114.411 694.997 115.022V115.022C694.997 115.325 694.937 115.625 694.821 115.905C694.704 116.184 694.534 116.438 694.319 116.652C694.104 116.865 693.849 117.034 693.568 117.149C693.288 117.263 692.987 117.321 692.684 117.319Z" fill="#176DE4"/>
<path d="M705.823 126.479H664.094C663.483 126.479 662.897 126.238 662.464 125.807C662.031 125.377 661.785 124.792 661.781 124.182V124.182C661.781 123.568 662.025 122.98 662.459 122.546C662.892 122.112 663.481 121.868 664.094 121.868H705.838C706.451 121.868 707.04 122.112 707.474 122.546C707.907 122.98 708.151 123.568 708.151 124.182V124.182C708.149 124.485 708.087 124.786 707.969 125.066C707.851 125.345 707.679 125.599 707.463 125.813C707.246 126.026 706.99 126.195 706.709 126.309C706.427 126.423 706.126 126.481 705.823 126.479V126.479Z" fill="#176DE4"/>
<path d="M705.823 135.639H681.55C680.94 135.639 680.354 135.398 679.92 134.967C679.487 134.537 679.241 133.952 679.237 133.341C679.237 132.728 679.481 132.14 679.915 131.706C680.349 131.272 680.937 131.028 681.55 131.028H705.823C706.436 131.028 707.024 131.272 707.458 131.706C707.892 132.14 708.136 132.728 708.136 133.341V133.341C708.132 133.952 707.886 134.537 707.453 134.967C707.019 135.398 706.433 135.639 705.823 135.639V135.639Z" fill="#176DE4"/>
<path d="M670.417 135.639H664.094C663.483 135.639 662.897 135.398 662.464 134.967C662.031 134.537 661.785 133.952 661.781 133.341C661.781 132.728 662.025 132.14 662.459 131.706C662.892 131.272 663.481 131.028 664.094 131.028H670.432C671.046 131.028 671.634 131.272 672.068 131.706C672.502 132.14 672.745 132.728 672.745 133.341C672.743 133.645 672.681 133.946 672.563 134.225C672.445 134.505 672.273 134.759 672.057 134.973C671.841 135.186 671.584 135.355 671.303 135.469C671.022 135.583 670.72 135.641 670.417 135.639V135.639Z" fill="#176DE4"/>
<path d="M705.823 144.799H664.094C663.481 144.799 662.892 144.555 662.459 144.122C662.025 143.688 661.781 143.099 661.781 142.486C661.785 141.875 662.031 141.291 662.464 140.86C662.897 140.43 663.483 140.188 664.094 140.188H705.838C706.449 140.188 707.035 140.43 707.468 140.86C707.901 141.291 708.147 141.875 708.151 142.486V142.486C708.151 142.791 708.091 143.093 707.974 143.375C707.856 143.656 707.685 143.912 707.468 144.127C707.252 144.342 706.995 144.512 706.712 144.627C706.43 144.743 706.128 144.801 705.823 144.799V144.799Z" fill="#176DE4"/>
<path d="M689.708 153.959H664.094C663.481 153.959 662.892 153.715 662.459 153.281C662.025 152.848 661.781 152.259 661.781 151.646C661.785 151.035 662.031 150.451 662.464 150.02C662.897 149.59 663.483 149.348 664.094 149.348H689.723C690.334 149.348 690.92 149.59 691.354 150.02C691.787 150.451 692.032 151.035 692.036 151.646V151.646C692.036 151.951 691.976 152.253 691.859 152.535C691.742 152.816 691.57 153.072 691.354 153.287C691.137 153.502 690.88 153.672 690.598 153.787C690.315 153.903 690.013 153.961 689.708 153.959V153.959Z" fill="#176DE4"/>
<path d="M705.823 153.959H698.976C698.365 153.955 697.781 153.709 697.35 153.276C696.92 152.843 696.678 152.257 696.678 151.646C696.678 151.036 696.92 150.452 697.351 150.021C697.782 149.59 698.366 149.348 698.976 149.348H705.823C706.433 149.348 707.019 149.59 707.453 150.02C707.886 150.451 708.132 151.035 708.136 151.646V151.646C708.136 152.259 707.892 152.848 707.458 153.281C707.024 153.715 706.436 153.959 705.823 153.959V153.959Z" fill="#176DE4"/>
<path d="M705.823 163.119H664.094C663.481 163.119 662.892 162.875 662.459 162.441C662.025 162.007 661.781 161.419 661.781 160.806C661.785 160.195 662.031 159.61 662.464 159.18C662.897 158.749 663.483 158.508 664.094 158.508H705.838C706.449 158.508 707.035 158.749 707.468 159.18C707.901 159.61 708.147 160.195 708.151 160.806V160.806C708.151 161.111 708.091 161.413 707.974 161.694C707.856 161.976 707.685 162.232 707.468 162.447C707.252 162.662 706.995 162.832 706.712 162.947C706.43 163.062 706.128 163.121 705.823 163.119V163.119Z" fill="#176DE4"/>
<g opacity="0.5">
<path opacity="0.5" d="M696.801 172.279H664.094C663.481 172.279 662.892 172.035 662.459 171.601C662.025 171.167 661.781 170.579 661.781 169.966C661.785 169.355 662.031 168.77 662.464 168.34C662.897 167.909 663.483 167.668 664.094 167.668H696.817C697.428 167.668 698.014 167.909 698.447 168.34C698.88 168.77 699.126 169.355 699.13 169.966V169.966C699.126 170.58 698.879 171.169 698.443 171.602C698.006 172.035 697.416 172.279 696.801 172.279V172.279Z" fill="white"/>
</g>
<g opacity="0.5">
<path opacity="0.5" d="M681.381 108.159H664.094C663.483 108.16 662.897 107.918 662.464 107.487C662.031 107.057 661.785 106.473 661.781 105.862V105.862C661.781 105.248 662.025 104.66 662.459 104.226C662.892 103.792 663.481 103.549 664.094 103.549H681.396C682.01 103.549 682.598 103.792 683.032 104.226C683.466 104.66 683.709 105.248 683.709 105.862C683.707 106.166 683.645 106.466 683.527 106.746C683.409 107.026 683.237 107.28 683.021 107.493C682.805 107.706 682.549 107.875 682.267 107.989C681.986 108.104 681.685 108.162 681.381 108.159V108.159Z" fill="white"/>
</g>
<g opacity="0.5">
<path opacity="0.5" d="M692.684 117.319H664.094C663.483 117.319 662.897 117.078 662.464 116.647C662.031 116.217 661.785 115.633 661.781 115.022V115.022C661.781 114.408 662.025 113.82 662.459 113.386C662.892 112.952 663.481 112.709 664.094 112.709H692.7C693.31 112.713 693.895 112.958 694.325 113.392C694.756 113.825 694.997 114.411 694.997 115.022V115.022C694.997 115.325 694.937 115.625 694.821 115.905C694.704 116.184 694.534 116.438 694.319 116.652C694.104 116.865 693.849 117.034 693.568 117.149C693.288 117.263 692.987 117.321 692.684 117.319Z" fill="white"/>
</g>
<g opacity="0.5">
<path opacity="0.5" d="M705.823 126.479H664.094C663.483 126.479 662.897 126.238 662.464 125.807C662.031 125.377 661.785 124.792 661.781 124.182V124.182C661.781 123.568 662.025 122.98 662.459 122.546C662.892 122.112 663.481 121.868 664.094 121.868H705.838C706.451 121.868 707.04 122.112 707.474 122.546C707.907 122.98 708.151 123.568 708.151 124.182V124.182C708.149 124.485 708.087 124.786 707.969 125.066C707.851 125.345 707.679 125.599 707.463 125.813C707.246 126.026 706.99 126.195 706.709 126.309C706.427 126.423 706.126 126.481 705.823 126.479V126.479Z" fill="white"/>
</g>
<g opacity="0.5">
<path opacity="0.5" d="M705.823 135.639H681.55C680.94 135.639 680.354 135.398 679.92 134.967C679.487 134.537 679.241 133.952 679.237 133.341C679.237 132.728 679.481 132.14 679.915 131.706C680.349 131.272 680.937 131.028 681.55 131.028H705.823C706.436 131.028 707.024 131.272 707.458 131.706C707.892 132.14 708.136 132.728 708.136 133.341V133.341C708.132 133.952 707.886 134.537 707.453 134.967C707.019 135.398 706.433 135.639 705.823 135.639V135.639Z" fill="white"/>
</g>
<g opacity="0.5">
<path opacity="0.5" d="M670.417 135.639H664.094C663.483 135.639 662.897 135.398 662.464 134.967C662.031 134.537 661.785 133.952 661.781 133.341C661.781 132.728 662.025 132.14 662.459 131.706C662.892 131.272 663.481 131.028 664.094 131.028H670.432C671.046 131.028 671.634 131.272 672.068 131.706C672.502 132.14 672.745 132.728 672.745 133.341C672.743 133.645 672.681 133.946 672.563 134.225C672.445 134.505 672.273 134.759 672.057 134.973C671.841 135.186 671.584 135.355 671.303 135.469C671.022 135.583 670.72 135.641 670.417 135.639V135.639Z" fill="white"/>
</g>
<g opacity="0.5">
<path opacity="0.5" d="M705.823 144.799H664.094C663.481 144.799 662.892 144.555 662.459 144.122C662.025 143.688 661.781 143.099 661.781 142.486C661.785 141.875 662.031 141.291 662.464 140.86C662.897 140.43 663.483 140.188 664.094 140.188H705.838C706.449 140.188 707.035 140.43 707.468 140.86C707.901 141.291 708.147 141.875 708.151 142.486V142.486C708.151 142.791 708.091 143.093 707.974 143.375C707.856 143.656 707.685 143.912 707.468 144.127C707.252 144.342 706.995 144.512 706.712 144.627C706.43 144.743 706.128 144.801 705.823 144.799V144.799Z" fill="white"/>
</g>
<g opacity="0.5">
<path opacity="0.5" d="M689.708 153.959H664.094C663.481 153.959 662.892 153.715 662.459 153.281C662.025 152.848 661.781 152.259 661.781 151.646C661.785 151.035 662.031 150.451 662.464 150.02C662.897 149.59 663.483 149.348 664.094 149.348H689.723C690.334 149.348 690.92 149.59 691.354 150.02C691.787 150.451 692.032 151.035 692.036 151.646V151.646C692.036 151.951 691.976 152.253 691.859 152.535C691.742 152.816 691.57 153.072 691.354 153.287C691.137 153.502 690.88 153.672 690.598 153.787C690.315 153.903 690.013 153.961 689.708 153.959V153.959Z" fill="white"/>
</g>
<g opacity="0.5">
<path opacity="0.5" d="M705.823 153.959H698.976C698.365 153.955 697.781 153.709 697.35 153.276C696.92 152.843 696.678 152.257 696.678 151.646C696.678 151.036 696.92 150.452 697.351 150.021C697.782 149.59 698.366 149.348 698.976 149.348H705.823C706.433 149.348 707.019 149.59 707.453 150.02C707.886 150.451 708.132 151.035 708.136 151.646V151.646C708.136 152.259 707.892 152.848 707.458 153.281C707.024 153.715 706.436 153.959 705.823 153.959V153.959Z" fill="white"/>
</g>
<g opacity="0.5">
<path opacity="0.5" d="M705.823 163.119H664.094C663.481 163.119 662.892 162.875 662.459 162.441C662.025 162.007 661.781 161.419 661.781 160.806C661.785 160.195 662.031 159.61 662.464 159.18C662.897 158.749 663.483 158.508 664.094 158.508H705.838C706.449 158.508 707.035 158.749 707.468 159.18C707.901 159.61 708.147 160.195 708.151 160.806V160.806C708.151 161.111 708.091 161.413 707.974 161.694C707.856 161.976 707.685 162.232 707.468 162.447C707.252 162.662 706.995 162.832 706.712 162.947C706.43 163.062 706.128 163.121 705.823 163.119V163.119Z" fill="white"/>
</g>
<path d="M699.115 96.2394V107.25C699.112 107.945 699.248 108.634 699.513 109.276C699.778 109.919 700.168 110.503 700.659 110.994C701.151 111.486 701.735 111.875 702.377 112.141C703.02 112.406 703.709 112.541 704.404 112.539H715.399L699.115 96.2394Z" fill="#176DE4"/>
<path opacity="0.5" d="M699.115 96.2394V107.25C699.112 107.945 699.248 108.634 699.513 109.276C699.778 109.919 700.168 110.503 700.659 110.994C701.151 111.486 701.735 111.875 702.377 112.141C703.02 112.406 703.709 112.541 704.404 112.539H715.399L699.115 96.2394Z" fill="white"/>
</svg>
