<svg width="99" height="79" viewBox="0 0 99 79" fill="none" xmlns="http://www.w3.org/2000/svg">
<path d="M98.2344 69.4929H0.751953V69.5417H98.2344V69.4929Z" fill="#EBEBEB"/>
<path d="M88.4665 72.6299H82.0093V72.6786H88.4665V72.6299Z" fill="#EBEBEB"/>
<path d="M54.0204 72.0195H51.5073V72.0683H54.0204V72.0195Z" fill="#EBEBEB"/>
<path d="M68.9251 72.2263H63.6338V72.2751H68.9251V72.2263Z" fill="#EBEBEB"/>
<path d="M81.8145 70.8206H70.875V70.8693H81.8145V70.8206Z" fill="#EBEBEB"/>
<path d="M16.1524 73.0764H10.98V73.1252H16.1524V73.0764Z" fill="#EBEBEB"/>
<path d="M22.3714 73.0764H17.8872V73.1252H22.3714V73.0764Z" fill="#EBEBEB"/>
<path d="M38.1483 71.9963H26.2925V72.0451H38.1483V71.9963Z" fill="#EBEBEB"/>
<path d="M46.9587 60.7975H9.31296C9.01805 60.7969 8.73539 60.6794 8.52703 60.4707C8.31868 60.262 8.20166 59.9791 8.20166 59.6842V6.76488C8.20423 6.47166 8.32238 6.19129 8.53046 5.98467C8.73853 5.77806 9.01973 5.66188 9.31296 5.66138H46.9587C47.254 5.66138 47.5372 5.77867 47.7459 5.98744C47.9547 6.19622 48.072 6.47937 48.072 6.77463V59.6842C48.072 59.9795 47.9547 60.2626 47.7459 60.4714C47.5372 60.6802 47.254 60.7975 46.9587 60.7975V60.7975ZM9.31296 5.70037C9.03097 5.70089 8.76071 5.81327 8.5615 6.01285C8.36229 6.21242 8.2504 6.48289 8.2504 6.76488V59.6842C8.2504 59.9662 8.36229 60.2367 8.5615 60.4362C8.76071 60.6358 9.03097 60.7482 9.31296 60.7487H46.9587C47.2409 60.7482 47.5114 60.6359 47.7109 60.4364C47.9104 60.2368 48.0227 59.9664 48.0233 59.6842V6.76488C48.0227 6.48271 47.9104 6.21225 47.7109 6.01273C47.5114 5.8132 47.2409 5.70089 46.9587 5.70037H9.31296Z" fill="#EBEBEB"/>
<path d="M89.1316 60.7975H51.4839C51.1888 60.7969 50.9059 60.6795 50.6972 60.4708C50.4886 60.2622 50.3711 59.9793 50.3706 59.6842V6.76488C50.3737 6.47148 50.4923 6.19111 50.7007 5.98455C50.909 5.77799 51.1904 5.66187 51.4839 5.66138H89.1316C89.4245 5.66239 89.7052 5.77879 89.9128 5.98536C90.1205 6.19192 90.2384 6.47199 90.2409 6.76488V59.6842C90.2409 59.9788 90.1242 60.2614 89.9163 60.47C89.7083 60.6787 89.4262 60.7964 89.1316 60.7975V60.7975ZM51.4839 5.70037C51.2017 5.70089 50.9312 5.8132 50.7317 6.01273C50.5322 6.21225 50.4199 6.48271 50.4193 6.76488V59.6842C50.4199 59.9664 50.5322 60.2368 50.7317 60.4364C50.9312 60.6359 51.2017 60.7482 51.4839 60.7487H89.1316C89.4137 60.7482 89.6842 60.6359 89.8837 60.4364C90.0833 60.2368 90.1956 59.9664 90.1961 59.6842V6.76488C90.1956 6.48271 90.0833 6.21225 89.8837 6.01273C89.6842 5.8132 89.4137 5.70089 89.1316 5.70037H51.4839Z" fill="#EBEBEB"/>
<path d="M59.8029 47.7739C59.9238 47.7739 60.0466 47.7778 60.1714 47.7856C60.9454 47.8412 61.6975 48.0672 62.3739 48.4475C63.0503 48.8277 63.6342 49.3528 64.084 49.9851C64.5337 50.6174 64.8381 51.3413 64.9753 52.1051C65.1126 52.8688 65.0793 53.6534 64.8779 54.4027C64.3035 56.6383 64.0262 58.9399 64.0532 61.2479V67.9703C64.0534 68.0862 64.0308 68.201 63.9866 68.3082C63.9425 68.4153 63.8776 68.5127 63.7957 68.5947C63.7139 68.6768 63.6166 68.7419 63.5096 68.7863C63.4026 68.8307 63.2878 68.8535 63.1719 68.8535H41.833V47.7739H59.8029Z" fill="#F0F0F0"/>
<path d="M36.5789 53.0379C36.5712 52.2839 36.7256 51.5371 37.0316 50.848C37.3376 50.1588 37.7881 49.5435 38.3525 49.0435C38.917 48.5436 39.5823 48.1708 40.3033 47.9503C41.0244 47.7298 41.7844 47.6668 42.5319 47.7655C43.2795 47.8643 43.9971 48.1224 44.6361 48.5226C45.2752 48.9227 45.8209 49.4555 46.2362 50.0848C46.6515 50.7141 46.9268 51.4253 47.0434 52.1703C47.16 52.9152 47.1152 53.6765 46.912 54.4027C46.3392 56.6385 46.0626 58.94 46.0893 61.2479V67.9703C46.0893 68.2045 45.9962 68.4291 45.8306 68.5948C45.665 68.7604 45.4403 68.8535 45.2061 68.8535H38.4642C38.3483 68.8535 38.2336 68.8306 38.1265 68.7862C38.0195 68.7418 37.9222 68.6767 37.8404 68.5947C37.7585 68.5126 37.6936 68.4152 37.6495 68.3081C37.6053 68.201 37.5827 68.0862 37.583 67.9703V60.854C37.6025 58.6889 37.3283 56.5312 36.768 54.4397C36.6427 53.983 36.5791 53.5115 36.5789 53.0379V53.0379Z" fill="#F5F5F5"/>
<path d="M49.0742 68.8535H68.2275V56.058H49.0742V68.8535Z" fill="#F0F0F0"/>
<path d="M69.9508 39.866H87.6303C89.8275 39.866 91.3814 41.6479 91.1026 43.8433L89.0964 58.9511H63.4624L65.4686 43.8433C65.7474 41.6479 67.7536 39.866 69.9508 39.866Z" fill="#E0E0E0"/>
<path d="M63.166 39.866H81.2295C83.3215 39.866 84.8013 41.5622 84.5439 43.6522L82.5124 58.9511H56.8687L58.9002 43.6522C59.1653 41.5622 61.076 39.866 63.166 39.866Z" fill="#F5F5F5"/>
<path d="M66.9679 60.0996H49.3138C49.1623 60.0996 49.0122 60.0698 48.8721 60.0118C48.7321 59.9538 48.6049 59.8687 48.4977 59.7616C48.3905 59.6544 48.3055 59.5271 48.2475 59.3871C48.1895 59.2471 48.1596 59.097 48.1596 58.9454V56.0443C48.1596 55.7382 48.2812 55.4447 48.4977 55.2282C48.7141 55.0117 49.0077 54.8901 49.3138 54.8901H66.9679C67.0594 54.8901 67.1472 54.9265 67.2119 54.9912C67.2766 55.0559 67.313 55.1437 67.313 55.2352V59.7545C67.313 59.846 67.2766 59.9338 67.2119 59.9985C67.1472 60.0632 67.0594 60.0996 66.9679 60.0996Z" fill="#E0E0E0"/>
<path d="M85.9518 47.7739C86.074 47.7739 86.1969 47.7778 86.3203 47.7856C87.0938 47.842 87.8452 48.0686 88.5209 48.4492C89.1966 48.8298 89.7798 49.355 90.2289 49.9872C90.678 50.6194 90.9819 51.3431 91.1188 52.1064C91.2557 52.8697 91.2223 53.6538 91.0209 54.4027C90.4481 56.6386 90.1715 58.94 90.1982 61.2479V67.9703C90.1982 68.2046 90.1051 68.4292 89.9395 68.5949C89.7739 68.7605 89.5492 68.8535 89.315 68.8535H67.978V47.7739H85.9518Z" fill="#F0F0F0"/>
<path d="M62.7215 53.0379C62.7138 52.2839 62.8682 51.5371 63.1742 50.848C63.4802 50.1588 63.9306 49.5435 64.4951 49.0435C65.0596 48.5436 65.7249 48.1708 66.4459 47.9503C67.167 47.7298 67.927 47.6668 68.6745 47.7655C69.422 47.8643 70.1396 48.1224 70.7787 48.5226C71.4178 48.9227 71.9635 49.4555 72.3788 50.0848C72.7941 50.7141 73.0694 51.4253 73.186 52.1703C73.3026 52.9152 73.2578 53.6765 73.0546 54.4027C72.4802 56.6383 72.2029 58.9398 72.2299 61.2479V67.9703C72.2302 68.0862 72.2076 68.201 72.1634 68.3081C72.1192 68.4152 72.0543 68.5126 71.9725 68.5947C71.8906 68.6767 71.7934 68.7418 71.6863 68.7862C71.5793 68.8306 71.4646 68.8535 71.3487 68.8535H64.6087C64.3745 68.8535 64.1498 68.7604 63.9842 68.5948C63.8186 68.4291 63.7255 68.2045 63.7255 67.9703V60.854C63.7447 58.6891 63.4713 56.5314 62.9125 54.4397C62.7856 53.9832 62.7214 53.5117 62.7215 53.0379V53.0379Z" fill="#F5F5F5"/>
<path d="M42.2093 69.493H85.5714C85.741 69.493 85.9037 69.4256 86.0236 69.3057C86.1436 69.1858 86.2109 69.0231 86.2109 68.8535H41.564C41.564 68.938 41.5807 69.0216 41.6132 69.0996C41.6457 69.1776 41.6933 69.2483 41.7533 69.3078C41.8133 69.3672 41.8845 69.4142 41.9628 69.446C42.041 69.4778 42.1248 69.4938 42.2093 69.493V69.493Z" fill="#E0E0E0"/>
<path d="M17.8482 35.6958L78.96 35.6958V10.557L17.8482 10.557V35.6958Z" fill="#E6E6E6"/>
<path d="M17.0745 35.6958L78.5977 35.6958V10.557L17.0745 10.557V35.6958Z" fill="#F5F5F5"/>
<path d="M17.8482 36.6492L78.96 36.6492V35.6977L17.8482 35.6977V36.6492Z" fill="#E6E6E6"/>
<path d="M16.384 36.6492L76.2188 36.6492V35.6977L16.384 35.6977V36.6492Z" fill="#F5F5F5"/>
<path d="M77.5195 34.257V11.9998L18.1566 11.9998V34.257H77.5195Z" fill="#FAFAFA"/>
<path d="M18.3086 34.255V11.9978H18.1546V34.255H18.3086Z" fill="#E6E6E6"/>
<path d="M73.6842 34.255L69.6874 11.9978H64.4487L68.4455 34.255H73.6842Z" fill="white"/>
<path d="M52.3905 34.255L48.3937 11.9978H46.0269L50.0236 34.255H52.3905Z" fill="white"/>
<path d="M76.7456 33.1475V9.75564C76.7456 9.68996 76.6924 9.63672 76.6267 9.63672H76.6169C76.5512 9.63672 76.498 9.68996 76.498 9.75564V33.1475C76.498 33.2132 76.5512 33.2665 76.6169 33.2665H76.6267C76.6924 33.2665 76.7456 33.2132 76.7456 33.1475Z" fill="#EBEBEB"/>
<path opacity="0.5" d="M16.5071 26.3335L79.3774 26.3335V9.63865L16.5071 9.63865V26.3335Z" fill="#E6E6E6"/>
<path d="M16.5071 10.0813L79.3774 10.0813V9.63873L16.5071 9.63873V10.0813Z" fill="#E0E0E0"/>
<path d="M16.5517 9.83179L79.3343 9.83179C79.428 9.83179 79.5039 9.75585 79.5039 9.66217V9.61343C79.5039 9.51975 79.428 9.44381 79.3343 9.44381L16.5517 9.44381C16.458 9.44381 16.3821 9.51975 16.3821 9.61343V9.66217C16.3821 9.75585 16.458 9.83179 16.5517 9.83179Z" fill="#EBEBEB"/>
<path d="M16.4759 26.4252H79.4125C79.437 26.4247 79.4603 26.4146 79.4775 26.3971C79.4946 26.3796 79.5042 26.3561 79.5042 26.3316V26.3316C79.5042 26.3073 79.4945 26.284 79.4773 26.2668C79.4601 26.2496 79.4368 26.24 79.4125 26.24H16.4759C16.4514 26.24 16.4279 26.2496 16.4104 26.2667C16.3929 26.2838 16.3828 26.3071 16.3823 26.3316V26.3316C16.3828 26.3563 16.3928 26.3798 16.4103 26.3972C16.4277 26.4147 16.4512 26.4247 16.4759 26.4252V26.4252Z" fill="white"/>
<path d="M20.6383 49.9594C18.5054 46.9433 13.4246 45.8242 11.67 43.9155C9.36742 41.418 9.38106 37.6766 11.3405 36.3236C13.0445 35.1538 18.6867 43.0889 19.3223 43.976C21.5079 47.0252 22.1435 49.2907 22.5529 51.4841C22.5061 49.6182 22.4613 47.9065 22.4242 46.5865C22.3053 42.2778 22.1552 40.8916 22.0869 40.4666C21.853 40.258 21.5742 40.0143 21.4123 39.8817C20.0476 38.7801 17.0276 37.9321 15.5147 36.3314C13.3038 33.9918 13.7385 30.3109 14.9298 29.6382C16.6299 28.679 20.1119 30.9738 21.2096 33.7325C22.046 35.8342 22.3482 38.0861 22.5081 40.837C22.5334 41.2601 22.6894 42.8296 22.7752 45.0151C23.2372 42.6619 24.1555 41.0866 25.8595 39.6165C27.9554 37.8092 29.7588 35.61 31.492 35.8927C33.2253 36.1754 32.2894 39.0901 30.9227 41.1334C29.7062 42.9543 23.709 44.7695 22.82 46.2337C22.9253 49.1971 23.015 52.9541 23.0832 56.4498C23.557 54.6444 23.2314 54.5002 25.1713 51.7278C26.3235 50.0823 31.0495 48.0566 31.6051 49.1932C32.1608 50.3299 31.3107 52.4569 29.5268 53.9523C28.0879 55.1592 24.8944 55.1572 24.1555 55.902C23.9839 56.0774 23.4146 56.7462 23.089 57.1302C23.1651 61.4 23.2002 65.1687 23.1612 66.4535L22.8512 66.4671C22.8668 66.1357 22.8297 63.9638 22.7693 61.09C21.9894 59.5595 16.7722 58.6666 15.1657 57.0776C13.4792 55.4126 12.2665 53.4708 12.9899 52.1703C13.5943 51.0863 18.3494 52.5603 20.2816 54.3578C21.5664 55.553 22.3521 56.832 22.7186 58.5476C22.6738 56.5882 22.625 54.4865 22.5763 52.5037C22.1786 52.0046 21.2856 50.8641 20.6383 49.9594Z" fill="#E6E6E6"/>
<path d="M27.6434 69.493H17.6242C17.3763 69.5061 17.131 69.4366 16.9268 69.2955C16.7226 69.1544 16.5708 68.9496 16.4953 68.7132L15.7837 65.7107H29.4819L28.7703 68.7093C28.6959 68.9463 28.5448 69.1519 28.3408 69.2938C28.1369 69.4356 27.8915 69.5057 27.6434 69.493V69.493Z" fill="#F0F0F0"/>
<path d="M29.7686 66.8668H15.4972C15.3435 66.8762 15.1915 66.8299 15.0691 66.7365C14.9467 66.6431 14.862 66.5087 14.8304 66.358L14.538 64.151C14.4931 63.8098 14.8051 63.5115 15.2067 63.5115H30.0611C30.451 63.5115 30.7727 63.8098 30.7279 64.151L30.4354 66.3677C30.4019 66.5166 30.3163 66.6487 30.1941 66.7402C30.0718 66.8317 29.921 66.8766 29.7686 66.8668V66.8668Z" fill="#F0F0F0"/>
<path d="M49.4932 78.2975C70.3705 78.2975 87.2949 77.3094 87.2949 76.0905C87.2949 74.8716 70.3705 73.8835 49.4932 73.8835C28.6158 73.8835 11.6914 74.8716 11.6914 76.0905C11.6914 77.3094 28.6158 78.2975 49.4932 78.2975Z" fill="#F5F5F5"/>
<path d="M42.8134 21.4379C42.8738 21.3716 43.4938 20.738 43.2637 20.3539C43.0688 20.7575 42.6944 21.3697 41.548 21.471C41.6758 21.1232 41.7417 20.7557 41.743 20.3851C41.5566 20.8076 41.275 21.1813 40.9203 21.4769C40.2095 21.4239 39.5077 21.2851 38.8302 21.0636C35.9408 21.3287 35.8707 19.0535 35.8473 18.5466C35.7724 18.8857 35.739 19.2327 35.7478 19.5799C35.1239 18.5895 35.2234 17.0863 36.0461 16.8055C36.1963 13.6081 38.5066 13.3235 39.0876 13.1967C40.1365 12.9667 41.9672 12.0874 42.8738 13.9766C44.1469 14.6609 44.6285 16.2694 44.0845 18.722C45.1763 20.4787 42.9284 21.3931 42.8134 21.4379Z" fill="#263238"/>
<path d="M38.6513 76.0887C40.1603 76.0887 40.3591 76.0653 41.2072 76.0361C41.9325 76.0107 42.106 76.1004 42.6909 76.0887C43.1783 76.077 43.1588 75.611 43.0087 75.0749C42.9346 74.8058 42.8138 74.2346 42.7143 73.7998L40.4215 74.0396C40.2409 74.3621 39.9844 74.6358 39.6743 74.8369C39.3641 75.038 39.0096 75.1605 38.6415 75.1938C37.8285 75.303 38.0508 76.0887 38.6513 76.0887Z" fill="#263238"/>
<path d="M37.415 70.6276C38.3079 69.4441 38.5341 68.9899 39.0156 68.3075C39.427 67.7226 39.507 67.8688 39.9456 67.2917C40.2342 66.9018 39.9671 66.3676 39.5557 66.2487C39.1699 66.171 38.792 66.0581 38.4269 65.9114L36.9217 67.0207C37.1966 67.7323 37.2278 69.3603 36.6098 70.3059C36.1633 70.9844 37.0543 71.1013 37.415 70.6276Z" fill="#263238"/>
<path d="M31.7337 34.4519C31.7337 34.4519 27.3977 46.8478 26.8362 51.3846C26.2883 55.822 37.0348 67.36 37.0348 67.36C37.2941 67.555 38.3703 66.2175 38.4307 65.8666C38.4307 65.8666 34.1649 56.4693 31.1936 51.5269C37.6275 41.9951 38.7446 35.5632 38.7446 35.5632L31.7337 34.4519Z" fill="#407BFF"/>
<path d="M33.8354 34.7854C33.8354 34.7854 36.2589 47.2632 37.183 53.2759C38.1578 59.5849 40.6651 69.9142 40.4214 74.0396C40.7743 74.2463 42.0727 73.8973 42.7609 73.679C42.7609 73.679 44.5449 60.1464 41.4683 53.8998C43.4589 39.3008 39.7702 35.7271 39.7702 35.7271L33.8354 34.7854Z" fill="#407BFF"/>
<path d="M40.2478 72.2362C40.2478 72.6066 40.2225 73.252 40.1679 73.7452C40.1484 73.9226 40.2166 74.0884 40.3161 74.1176C41.1544 74.3555 42.369 74.0084 42.7551 73.8856C42.8292 73.8622 42.8837 73.7589 42.8954 73.6263L43.0202 72.2147C43.0378 72.0198 42.9539 71.8463 42.8428 71.8502L40.4213 71.934C40.3297 71.9379 40.2517 72.0685 40.2478 72.2362Z" fill="#263238"/>
<path d="M35.7109 66.0342C35.9448 66.352 36.3582 66.9174 36.6565 67.3444C36.7559 67.4847 36.9021 67.5588 36.9918 67.5179C37.6644 67.2059 38.4657 66.3481 38.725 66.0712C38.7757 66.0147 38.764 65.8997 38.6958 65.7866L37.9588 64.5681C37.8594 64.4023 37.68 64.3048 37.5884 64.3731L35.6719 65.6988C35.5939 65.7495 35.6095 65.9055 35.7109 66.0342Z" fill="#263238"/>
<path d="M34.4904 25.1813C34.4222 25.0818 34.3832 25.0194 34.3345 24.9415L34.1999 24.7192C34.1142 24.573 34.0342 24.4248 33.9562 24.2766C33.8003 23.9803 33.6547 23.6807 33.5195 23.3778C33.2492 22.7693 33.0218 22.1426 32.8391 21.5023C32.6525 20.8591 32.5143 20.2028 32.4258 19.539C32.377 19.2056 32.3497 18.8702 32.3302 18.533C32.3302 18.3633 32.3146 18.1957 32.3166 18.026V17.7726C32.3166 17.6634 32.3166 17.5445 32.3341 17.445C32.372 17.078 32.4432 16.7152 32.5466 16.361C32.6383 16.0296 32.7416 15.7177 32.8547 15.4116C33.0789 14.7994 33.3323 14.2164 33.5975 13.6432C34.1315 12.5043 34.7317 11.3976 35.3951 10.3288C35.4756 10.2017 35.6 10.1085 35.7447 10.067C35.8894 10.0255 36.0443 10.0386 36.1799 10.1038C36.3156 10.169 36.4226 10.2817 36.4806 10.4206C36.5387 10.5595 36.5437 10.7149 36.4947 10.8572V10.8689C36.0872 12.0114 35.6856 13.1695 35.3151 14.31C35.1319 14.8832 34.9584 15.4545 34.816 16.016C34.7439 16.2948 34.6776 16.5736 34.6211 16.8426C34.5744 17.0845 34.5463 17.3295 34.5372 17.5757C34.5372 17.6283 34.5372 17.6634 34.5372 17.7083L34.5548 17.9169C34.5645 18.0533 34.584 18.1918 34.5977 18.3302C34.6386 18.6051 34.6776 18.88 34.7341 19.1529C34.8441 19.7027 34.988 20.2451 35.165 20.777C35.3427 21.3128 35.549 21.8386 35.7831 22.3523C35.8981 22.6116 36.0209 22.8651 36.1496 23.1127L36.3446 23.4773L36.444 23.6547L36.5337 23.8048L36.5668 23.8594C36.723 24.1355 36.7669 24.4611 36.6894 24.7687C36.6118 25.0763 36.4188 25.3422 36.1504 25.5113C35.882 25.6804 35.5588 25.7396 35.2479 25.6767C34.937 25.6138 34.6623 25.4336 34.4807 25.1735L34.4904 25.1813Z" fill="#B55B52"/>
<path d="M37.5788 9.78884C37.5517 10.0745 37.4206 10.3403 37.2103 10.5356L36.2452 11.3681C36.1795 11.4261 36.0974 11.4626 36.0102 11.4723C35.9229 11.4821 35.8348 11.4647 35.7578 11.4226L35.2295 11.1497C35.2019 10.395 35.3705 9.64595 35.7188 8.97584L35.9567 8.05755C35.9609 8.02346 35.9731 7.99083 35.9923 7.96234C36.0115 7.93384 36.0371 7.91028 36.0672 7.89356C36.0972 7.87684 36.1307 7.86744 36.165 7.86613C36.1994 7.86481 36.2335 7.87161 36.2647 7.88598L37.5262 8.54302C37.5865 8.5808 37.6344 8.63552 37.6639 8.70036C37.6934 8.76519 37.7031 8.83727 37.6919 8.9076L37.5788 9.78884Z" fill="#B55B52"/>
<path d="M35.1649 26.6943C38.3584 25.6123 36.8357 23.2805 35.972 21.0832C35.1337 20.4476 32.6576 23.0621 32.6576 23.0621C32.6576 23.0621 32.0279 26.4526 35.1649 26.6943Z" fill="#263238"/>
<path d="M32.7769 24.9103C32.5376 26.1301 32.3606 27.3613 32.2466 28.5991C32.0517 30.2075 31.9172 31.7965 31.7339 34.448L39.7781 35.7231C39.9731 33.4303 40.6477 30.8899 42.8976 26.0197C43.0247 25.7665 43.0937 25.4882 43.0994 25.2049C43.1051 24.9217 43.0475 24.6408 42.9307 24.3827C42.8139 24.1246 42.6409 23.8959 42.4243 23.7133C42.2078 23.5307 41.9531 23.3988 41.679 23.3272C41.3652 23.2453 41.0318 23.1654 40.6867 23.0932C39.4849 22.8119 38.2646 22.6164 37.035 22.5084C36.6314 22.483 36.2122 22.4674 35.8106 22.4596C35.0992 22.4528 34.4075 22.6936 33.8541 23.1407C33.3006 23.5877 32.9198 24.2134 32.7769 24.9103Z" fill="#263238"/>
<path d="M41.084 18.9443C40.579 20.0693 39.8479 22.1593 40.4874 23.0659C40.4874 23.0659 39.4014 22.7208 36.8065 23.8087C36.2762 22.7189 36.8357 22.4868 36.8357 22.4868C38.218 22.3855 38.411 21.4184 38.3954 20.4807L41.084 18.9443Z" fill="#B55B52"/>
<path d="M37.3486 23.5981C38.1109 23.8321 38.1675 25.0467 38.1675 25.0467C38.1675 25.0467 40.2478 24.0193 40.9867 23.1809C40.7727 23.011 40.5678 22.8301 40.3725 22.6389C40.3725 22.6389 37.875 23.2082 37.3486 23.5981Z" fill="white"/>
<path d="M36.6255 23.3507C36.6255 23.3507 35.9236 23.4267 35.5317 24.3255C35.6253 22.5825 36.4715 22.4187 36.4715 22.4187C36.703 22.3295 36.9594 22.3295 37.1909 22.4187C37.0017 22.4822 36.8411 22.6106 36.7376 22.7812C36.6341 22.9518 36.5944 23.1536 36.6255 23.3507V23.3507Z" fill="white"/>
<path opacity="0.2" d="M39.9864 19.5703L38.3954 20.4788C38.4028 20.6992 38.3904 20.9197 38.3584 21.1378C38.8751 21.1378 39.692 20.7109 39.8674 20.202C39.9452 20.0004 39.9855 19.7864 39.9864 19.5703V19.5703Z" fill="black"/>
<path d="M42.4606 16.7433C41.8035 18.5857 41.5637 19.3753 40.3374 20.1142C38.4911 21.2255 36.3679 20.1473 36.4615 18.1782C36.5434 16.4079 37.604 13.694 39.6589 13.3762C41.6943 13.0701 43.1176 14.9028 42.4606 16.7433Z" fill="#B55B52"/>
<path d="M41.9498 14.16C40.9555 14.7566 40.9886 17.9657 42.6419 17.7318C44.1743 15.8757 43.0163 13.5927 41.9498 14.16Z" fill="#263238"/>
<path d="M42.8761 13.9592C41.7277 15.7626 37.3878 14.2009 36.3643 13.3411C37.1012 13.5614 38.3432 13.3684 39.24 13.1462C40.1368 12.9239 42.6226 11.7541 42.8761 13.9592Z" fill="#263238"/>
<path d="M37.1011 12.9882C38.338 13.3015 39.6375 13.2671 40.8561 12.8888L42.1682 12.7816C41.2109 12.1499 38.614 12.9629 37.1011 12.9882Z" fill="#263238"/>
<path d="M39.9864 16.677C39.9376 16.8329 39.8168 16.9402 39.7154 16.9168C39.614 16.8934 39.5692 16.7471 39.6179 16.5892C39.6666 16.4313 39.7895 16.3241 39.8908 16.3494C39.9922 16.3748 40.0351 16.519 39.9864 16.677Z" fill="#263238"/>
<path d="M38.0234 16.1505C37.9746 16.3084 37.8518 16.4157 37.7504 16.3923C37.649 16.3689 37.6061 16.2207 37.6549 16.0647C37.7036 15.9088 37.8245 15.7996 37.9259 15.823C38.0273 15.8464 38.0702 15.9946 38.0234 16.1505Z" fill="#263238"/>
<path d="M37.9686 15.8424L37.6294 15.6475C37.6294 15.6475 37.7288 15.9945 37.9686 15.8424Z" fill="#263238"/>
<path d="M38.5204 16.6379C38.2701 16.9634 37.9799 17.2561 37.6567 17.5094C37.7952 17.7492 38.1851 17.7492 38.1851 17.7492L38.5204 16.6379Z" fill="#A02724"/>
<path d="M38.8927 18.5291C38.8027 18.5248 38.7133 18.5124 38.6256 18.4921C38.6195 18.4905 38.6139 18.4878 38.609 18.4839C38.6041 18.4801 38.6 18.4752 38.5971 18.4697C38.5941 18.4642 38.5924 18.4582 38.5919 18.4519C38.5915 18.4457 38.5923 18.4395 38.5944 18.4336C38.598 18.4215 38.606 18.4112 38.6168 18.4047C38.6277 18.3982 38.6405 18.396 38.6529 18.3985C38.8517 18.446 39.0586 18.4482 39.2584 18.405C39.4581 18.3618 39.6457 18.2743 39.8071 18.1489C39.8162 18.14 39.8284 18.135 39.8412 18.135C39.8539 18.135 39.8662 18.14 39.8753 18.1489C39.8797 18.1533 39.8831 18.1585 39.8855 18.1641C39.8879 18.1698 39.8891 18.1759 39.8891 18.1821C39.8891 18.1882 39.8879 18.1943 39.8855 18.2C39.8831 18.2057 39.8797 18.2109 39.8753 18.2152C39.5976 18.4372 39.2477 18.549 38.8927 18.5291V18.5291Z" fill="#263238"/>
<path d="M42.5992 18.5291C42.4702 18.6893 42.3108 18.8225 42.1301 18.9208C41.9494 19.0192 41.751 19.0809 41.5464 19.1023C41.0161 19.1471 40.8835 18.6109 41.1389 18.1274C41.3709 17.6946 41.9188 17.1526 42.4023 17.3281C42.8858 17.5035 42.9307 18.1138 42.5992 18.5291Z" fill="#B55B52"/>
<path d="M40.7389 15.5246C40.7266 15.523 40.7148 15.5187 40.7043 15.512C40.6938 15.5052 40.685 15.4962 40.6785 15.4856C40.6169 15.3855 40.531 15.3026 40.4287 15.2446C40.3264 15.1867 40.2111 15.1556 40.0936 15.1542C40.0814 15.1545 40.0693 15.1523 40.0579 15.1478C40.0466 15.1433 40.0362 15.1366 40.0275 15.1281C40.0188 15.1195 40.0119 15.1093 40.0072 15.0981C40.0024 15.0868 40 15.0748 40 15.0626C40.0014 15.0369 40.0124 15.0126 40.0308 14.9946C40.0492 14.9765 40.0737 14.966 40.0994 14.9651C40.2467 14.966 40.3914 15.0041 40.5199 15.0761C40.6485 15.148 40.7567 15.2514 40.8344 15.3765C40.8469 15.3986 40.8504 15.4247 40.8443 15.4493C40.8381 15.474 40.8227 15.4954 40.8013 15.509C40.7828 15.5209 40.7609 15.5263 40.7389 15.5246V15.5246Z" fill="#263238"/>
<path d="M37.6277 15.1172C37.6159 15.1173 37.6043 15.1149 37.5936 15.1102C37.5828 15.1055 37.5732 15.0986 37.5653 15.0899C37.5476 15.072 37.5376 15.0479 37.5376 15.0227C37.5376 14.9975 37.5476 14.9733 37.5653 14.9554C37.6742 14.846 37.8068 14.7631 37.9528 14.7131C38.0989 14.6631 38.2544 14.6472 38.4075 14.6669C38.4195 14.6693 38.4307 14.6742 38.4406 14.6813C38.4506 14.6883 38.4589 14.6974 38.4651 14.7078C38.4714 14.7183 38.4754 14.7299 38.4769 14.742C38.4784 14.7541 38.4773 14.7663 38.4738 14.778C38.467 14.8026 38.4512 14.8238 38.4296 14.8375C38.408 14.8512 38.3821 14.8564 38.3568 14.8521C38.2354 14.8382 38.1124 14.8523 37.9971 14.8931C37.8819 14.934 37.7776 15.0007 37.692 15.088C37.6745 15.1047 37.6518 15.115 37.6277 15.1172V15.1172Z" fill="#263238"/>
<path d="M39.9398 16.3688L39.6006 16.1738C39.6006 16.1738 39.6942 16.5111 39.9398 16.3688Z" fill="#263238"/>
<path d="M37.6218 35.3135L38.0234 34.8593C38.0982 34.7747 38.192 34.7092 38.2971 34.6682C38.4022 34.6272 38.5156 34.6118 38.6278 34.6234L39.6904 34.7364C39.8996 34.7578 40.1005 34.8292 40.2763 34.9445C40.4521 35.0599 40.5975 35.2159 40.7003 35.3993L40.8309 35.6294C40.2148 36.4307 38.9593 36.8421 38.9593 36.8421L38.6142 37C38.5448 37.033 38.4696 37.0521 38.3928 37.0561C38.3161 37.0601 38.2393 37.0489 38.1669 37.0232C38.0944 36.9975 38.0278 36.9577 37.9707 36.9063C37.9137 36.8548 37.8673 36.7925 37.8343 36.7231L37.5126 36.0447C37.4587 35.9252 37.4403 35.7927 37.4596 35.663C37.479 35.5334 37.5353 35.412 37.6218 35.3135Z" fill="#B55B52"/>
<path d="M43.6442 25.8501C43.7105 26.0061 43.7612 26.1328 43.8158 26.2712C43.8704 26.4097 43.9152 26.5442 43.964 26.6807C44.0595 26.9536 44.1589 27.2266 44.235 27.5015C44.4007 28.0513 44.545 28.6108 44.662 29.1782C44.7824 29.7512 44.8709 30.3305 44.9271 30.9133C44.9845 31.512 44.9989 32.1141 44.97 32.7148V32.7772C44.9669 32.8352 44.9578 32.8927 44.9427 32.9488C44.8421 33.3089 44.6623 33.642 44.4163 33.9236C44.2235 34.1471 44.0064 34.3485 43.769 34.5241C43.3599 34.8218 42.9184 35.0723 42.453 35.2708C42.022 35.4589 41.5792 35.6185 41.1272 35.7485C40.6793 35.8801 40.2235 35.983 39.7625 36.0565C39.6181 36.0807 39.4699 36.0528 39.3442 35.9776C39.2186 35.9025 39.1239 35.7851 39.0769 35.6464C39.03 35.5078 39.034 35.3569 39.0882 35.2209C39.1423 35.085 39.2432 34.9727 39.3726 34.9043L39.3999 34.8887C39.7605 34.6937 40.1466 34.4988 40.5073 34.2882C40.8679 34.0776 41.2247 33.8671 41.5542 33.6409C41.8664 33.4351 42.1588 33.2008 42.4277 32.941C42.5317 32.8405 42.6234 32.7279 42.7006 32.6056C42.7591 32.5062 42.7747 32.436 42.763 32.4282L42.7338 32.6622C42.7095 32.1717 42.6587 31.683 42.5817 31.198C42.4959 30.7028 42.3867 30.2076 42.2697 29.7104C42.1528 29.2133 42.0026 28.718 41.8486 28.2248C41.7726 27.9791 41.6926 27.7335 41.6069 27.4898L41.4782 27.1291L41.3554 26.7879L41.3378 26.7411C41.2197 26.4352 41.2278 26.095 41.3606 25.7952C41.4933 25.4953 41.7397 25.2605 42.0455 25.1424C42.3514 25.0242 42.6916 25.0324 42.9915 25.1651C43.2913 25.2979 43.5261 25.5443 43.6442 25.8501Z" fill="#B55B52"/>
<path d="M41.5347 23.2939C42.8566 23.524 43.3849 24.2688 44.4182 26.9495C43.9074 27.9341 41.5873 28.8407 41.5873 28.8407C41.5873 28.8407 40.4039 25.0467 41.5347 23.2939Z" fill="#263238"/>
<path d="M70.7228 72.6319L72.5847 72.1211L71.567 67.7539L69.7051 68.2647L70.7228 72.6319Z" fill="#FF8B7B"/>
<path d="M72.3292 71.3449L70.2859 71.8694C70.2492 71.8785 70.2169 71.9004 70.1947 71.9311C70.1726 71.9618 70.1621 71.9993 70.165 72.0371L70.3054 73.7762C70.3091 73.8192 70.3222 73.8609 70.3437 73.8983C70.3652 73.9358 70.3946 73.9681 70.4299 73.9929C70.4652 74.0178 70.5055 74.0347 70.5479 74.0424C70.5904 74.0501 70.6341 74.0484 70.6758 74.0374C71.4089 73.8424 72.4617 73.5188 73.3878 73.2809C74.4718 73.0021 74.3743 73.0723 75.6436 72.7467C76.4117 72.5518 76.3864 71.7271 76.0432 71.7407C74.4835 71.7992 74.3275 71.8207 72.8244 71.3742C72.6649 71.32 72.4938 71.3099 72.3292 71.3449Z" fill="#263238"/>
<path opacity="0.2" d="M71.567 67.7539L72.0914 70.0057L70.2295 70.5166L69.7051 68.2647L71.567 67.7539Z" fill="black"/>
<path d="M72.6938 71.4327C72.6853 71.4322 72.6772 71.4292 72.6706 71.4239C72.664 71.4187 72.6591 71.4116 72.6567 71.4034C72.6534 71.3946 72.6529 71.385 72.6554 71.3759C72.6578 71.3668 72.6631 71.3587 72.6704 71.3528C72.7464 71.2865 73.421 70.7055 73.6744 70.7679C73.6984 70.7743 73.7201 70.7872 73.7372 70.805C73.7544 70.8229 73.7664 70.8451 73.7719 70.8692V70.8692C73.7847 70.9094 73.7879 70.9519 73.7815 70.9935C73.7751 71.0351 73.7591 71.0746 73.7349 71.1091C73.5653 71.345 73.0135 71.4093 72.6996 71.4249L72.6938 71.4327ZM73.6296 70.8614C73.4795 70.8497 73.1032 71.111 72.8341 71.3313C73.2631 71.2943 73.5672 71.1968 73.6608 71.0642C73.6769 71.0416 73.6876 71.0156 73.692 70.9882C73.6964 70.9608 73.6944 70.9328 73.6861 70.9063C73.684 70.8966 73.6792 70.8876 73.6724 70.8804C73.6655 70.8732 73.6568 70.868 73.6471 70.8653L73.6296 70.8614Z" fill="#407BFF"/>
<path d="M72.694 71.4328C72.6872 71.429 72.6814 71.4237 72.677 71.4173C72.6726 71.4108 72.6698 71.4035 72.6687 71.3958C72.6687 71.3743 72.6121 70.8499 72.809 70.5906C72.8643 70.5158 72.9471 70.466 73.0391 70.4522V70.4522C73.1639 70.4327 73.2126 70.4853 73.2341 70.534C73.312 70.729 72.9494 71.2652 72.7427 71.425C72.7373 71.4325 72.7291 71.4375 72.72 71.439C72.7108 71.4404 72.7015 71.4382 72.694 71.4328ZM73.0839 70.5379H73.0371C72.9689 70.5492 72.9079 70.5871 72.8675 70.6432C72.7626 70.8418 72.7185 71.067 72.7408 71.2905C72.9358 71.0955 73.1814 70.69 73.1307 70.5672C73.1366 70.5613 73.1307 70.5418 73.0839 70.5379V70.5379Z" fill="#407BFF"/>
<path d="M64.3669 50.7197C60.1595 41.4881 57.1434 37.7155 57.0752 32.74L63.7781 31.5137C63.7781 31.5137 68.9914 44.1688 69.5412 49.9593C70.1125 55.9798 72.3741 68.6057 72.3741 68.6057L69.317 69.1906C69.317 69.1906 64.517 57.5376 64.3669 50.7197Z" fill="#263238"/>
<path opacity="0.2" d="M57.709 36.5322C58.4791 39.0102 59.9082 41.6305 61.7623 45.3056C61.4348 40.995 60.0447 35.9688 57.709 36.5322Z" fill="black"/>
<path d="M72.6453 67.7109L72.7194 69.0659L69.4128 69.9569L68.9741 68.7676L72.6453 67.7109Z" fill="#263238"/>
<path d="M54.57 69.9899L54.418 74.4741L56.5626 74.4429L56.7147 69.9587L54.57 69.9899Z" fill="#FF8B7B"/>
<path d="M56.5118 73.8582L54.4042 73.8913C54.3673 73.8916 54.3318 73.9055 54.3045 73.9303C54.2771 73.9551 54.2599 73.9891 54.2561 74.0258L54.0728 75.7513C54.0693 75.7948 54.0749 75.8385 54.0892 75.8797C54.1035 75.9209 54.1262 75.9586 54.1559 75.9905C54.1857 76.0225 54.2217 76.0478 54.2618 76.065C54.3018 76.0823 54.345 76.0909 54.3886 76.0905C55.149 76.0652 55.3869 76.0028 56.3383 75.9891C57.4554 75.9716 56.9407 76.0164 58.2509 75.9891C59.0425 75.9755 59.1692 75.1742 58.8358 75.1021C57.7615 74.8778 57.471 74.4509 56.9973 73.9947C56.8585 73.8896 56.6851 73.8408 56.5118 73.8582V73.8582Z" fill="#263238"/>
<path opacity="0.2" d="M54.5697 69.9899L54.4897 72.3022L56.6363 72.271L56.7143 69.9607L54.5697 69.9899Z" fill="black"/>
<path d="M56.1217 74.0043C56.1134 74.0048 56.105 74.0028 56.0978 73.9987C56.0905 73.9945 56.0846 73.9883 56.0808 73.9809C56.0753 73.9732 56.0723 73.964 56.0723 73.9545C56.0723 73.9451 56.0753 73.9359 56.0808 73.9282C56.1471 73.8541 56.73 73.2088 56.9971 73.2478C57.0221 73.2508 57.0459 73.2603 57.0661 73.2754C57.0862 73.2904 57.1021 73.3105 57.1122 73.3336V73.3336C57.1315 73.3702 57.1415 73.4111 57.1415 73.4525C57.1415 73.4939 57.1315 73.5348 57.1122 73.5714C56.9815 73.8229 56.4356 73.9516 56.1237 74.0043H56.1217ZM56.9718 73.3375C56.8178 73.3375 56.4824 73.6436 56.2485 73.8892C56.6715 73.8015 56.962 73.6709 57.0283 73.5305C57.0413 73.5062 57.0481 73.4791 57.0481 73.4515C57.0481 73.424 57.0413 73.3969 57.0283 73.3726C57.0248 73.3632 57.0188 73.3549 57.0108 73.3487C57.0029 73.3425 56.9935 73.3386 56.9835 73.3375H56.9718Z" fill="#407BFF"/>
<path d="M56.1217 74.0043C56.1138 74.0022 56.1065 73.998 56.1007 73.9922C56.0949 73.9863 56.0907 73.9791 56.0886 73.9711C56.0886 73.9497 55.9443 73.4447 56.1022 73.1698C56.1235 73.1292 56.1531 73.0935 56.189 73.0649C56.225 73.0364 56.2665 73.0157 56.3108 73.0041C56.4337 72.971 56.4902 73.0178 56.5156 73.0626C56.6267 73.2576 56.3459 73.8093 56.1646 73.9906C56.1598 73.9971 56.153 74.0018 56.1453 74.0043C56.1377 74.0067 56.1294 74.0067 56.1217 74.0043V74.0043ZM56.3693 73.086C56.3538 73.0838 56.3381 73.0838 56.3225 73.086V73.086C56.29 73.0941 56.2596 73.109 56.2334 73.1299C56.2071 73.1508 56.1857 73.177 56.1705 73.2069C56.0955 73.4149 56.0866 73.6409 56.1451 73.8542C56.3167 73.6358 56.4922 73.2166 56.4239 73.1016C56.4278 73.1016 56.4181 73.084 56.3771 73.086H56.3693Z" fill="#407BFF"/>
<path d="M54.597 52.2386C53.9887 45.3251 52.2984 38.5501 52.8618 33.4537L59.8806 32.2839C59.8806 32.2839 60.8905 46.5729 60.1204 52.4628C59.321 58.5866 57.2407 70.8889 57.2407 70.8889L54.1213 70.9318C54.1213 70.9318 53.7704 59.0039 54.597 52.2386Z" fill="#263238"/>
<path d="M57.6854 70.189L57.4827 71.5225L53.9869 71.5849L53.79 70.3235L57.6854 70.189Z" fill="#263238"/>
<path d="M59.0776 14.0448C59.6625 14.2242 60.3 14.4133 60.9141 14.5887C61.5283 14.7642 62.1522 14.9299 62.7663 15.0859C63.3805 15.2419 63.9965 15.3745 64.5951 15.4758C64.8934 15.5285 65.1897 15.5655 65.4744 15.5987C65.7332 15.6284 65.9938 15.6401 66.2542 15.6338L65.642 15.856C65.5924 15.8937 65.5551 15.9452 65.5348 16.0042C65.5348 16.0315 65.5504 16.0042 65.566 15.9476C65.5994 15.7397 65.5994 15.5278 65.566 15.3199C65.4817 14.7358 65.3433 14.1607 65.1527 13.6022C64.9577 13.0056 64.7335 12.4032 64.4937 11.8027C64.2539 11.2022 63.9887 10.592 63.7353 10.0051L63.7255 9.98367C63.6563 9.82104 63.6483 9.63881 63.703 9.47074C63.7578 9.30266 63.8716 9.16011 64.0233 9.06948C64.1751 8.97884 64.3546 8.94627 64.5285 8.97777C64.7025 9.00928 64.8591 9.10274 64.9694 9.24086C65.3964 9.78689 65.7953 10.3543 66.1646 10.941C66.5406 11.5321 66.8842 12.1432 67.194 12.7717C67.3499 13.0914 67.4942 13.4229 67.6307 13.7679C67.7741 14.1258 67.8901 14.494 67.9777 14.8695C68.0894 15.3153 68.1321 15.7755 68.1045 16.2342C68.0814 16.5469 68.0035 16.8532 67.8744 17.1389C67.7088 17.4999 67.4513 17.8112 67.1277 18.0416C66.9612 18.1593 66.7684 18.2343 66.5662 18.2599H66.5135C65.7465 18.3419 64.9726 18.3354 64.2071 18.2404C63.4916 18.1644 62.7995 18.0455 62.119 17.907C61.4386 17.7686 60.7718 17.6049 60.1089 17.4255C59.4461 17.2461 58.8046 17.0492 58.132 16.8113C57.8047 16.6606 57.5444 16.3945 57.4008 16.0641C57.2572 15.7336 57.2403 15.3618 57.3534 15.0196C57.4664 14.6775 57.7016 14.3889 58.0139 14.2091C58.3261 14.0293 58.6937 13.9708 59.0464 14.0448H59.0776Z" fill="#FF8B7B"/>
<path d="M64.0744 10.473L62.5283 9.13753L64.5501 7.94824C64.5501 7.94824 65.9617 9.313 65.2286 10.1708L64.0744 10.473Z" fill="#FF8B7B"/>
<path d="M62.2166 7.65771L63.1095 7.09621C63.2192 7.02637 63.3497 6.99674 63.4788 7.01238C63.6078 7.02803 63.7275 7.08798 63.8173 7.182L64.5503 7.94821L62.5285 9.1375L62.0548 8.45512C62.0117 8.39257 61.9817 8.32199 61.9665 8.24758C61.9513 8.17318 61.9513 8.09648 61.9664 8.02206C61.9815 7.94764 62.0114 7.87702 62.0544 7.81442C62.0974 7.75182 62.1526 7.69853 62.2166 7.65771V7.65771Z" fill="#FF8B7B"/>
<path d="M57.8158 13.4308C59.707 13.1461 62.7894 14.9067 62.7894 14.9067L62.1148 19.1004C62.1148 19.1004 60.6818 18.9912 58.8004 18.0417C58.2292 17.7493 55.5796 13.77 57.8158 13.4308Z" fill="#407BFF"/>
<path d="M58.0343 13.4093C55.9482 13.6043 52.7547 14.3451 50.651 15.1952C50.1047 15.4133 49.6421 15.7998 49.3304 16.2987C49.0187 16.7976 48.8742 17.3829 48.9178 17.9695C49.1322 20.7653 50.7192 25.2281 52.7391 33.5882C53.788 33.8046 56.7709 33.4673 59.1261 33.0442C59.3815 32.9994 59.9489 32.3267 59.9489 32.3267C59.9489 32.3267 60.5708 32.7596 60.8945 32.6855C62.4542 32.3306 63.6688 31.9251 63.9262 31.5859C63.1307 29.6869 62.46 24.1129 61.8342 20.777C61.6821 19.4532 61.2824 17.0239 60.6274 15.6806C60.0074 14.4095 59.4361 13.265 58.0343 13.4093Z" fill="#407BFF"/>
<path d="M52.9107 10.7986C53.1602 12.2277 53.3845 13.9044 52.6631 14.9903C53.324 15.8228 54.7551 16.4038 56.1491 16.6378C56.9387 15.5265 56.7495 14.5439 56.3109 14.0019C55.4667 13.4988 55.5193 12.6254 55.5018 12.023L52.9107 10.7986Z" fill="#FF8B7B"/>
<path d="M56.1489 16.638C56.3072 16.3847 56.3997 16.0958 56.418 15.7977C56.418 15.3629 57.1978 15.5891 57.1978 15.5891C56.9437 16.0227 56.5825 16.3838 56.1489 16.638V16.638Z" fill="#263238"/>
<path d="M56.149 16.6379C56.0935 16.4863 55.993 16.3552 55.8609 16.2622C55.7289 16.1691 55.5716 16.1186 55.4101 16.1174C55.0291 16.0977 54.6486 16.1644 54.2969 16.3123C54.2969 16.3123 55.4062 16.7179 56.149 16.6379Z" fill="#263238"/>
<path opacity="0.2" d="M53.5287 11.3386C53.5112 11.2489 53.4975 11.1573 53.4839 11.0676L55.5018 12.0249C55.4821 12.4434 55.5376 12.862 55.6655 13.261C54.7278 12.9861 53.6984 12.2004 53.5287 11.3386Z" fill="black"/>
<path d="M55.3125 5.33567C56.4823 5.1407 57.2992 6.50546 56.2873 8.43756C55.5932 8.10612 55.0181 6.99287 55.0181 6.99287L55.3125 5.33567Z" fill="#E0E0E0"/>
<path d="M51.7682 8.97577C52.5714 10.7149 52.9535 11.7755 54.2091 12.3311C56.0983 13.1675 57.9758 11.4713 57.7068 9.52167C57.4631 7.76698 56.19 5.21684 54.1721 5.20514C53.7252 5.202 53.2849 5.31234 52.8923 5.52583C52.4997 5.73933 52.1678 6.04898 51.9276 6.42578C51.6873 6.80259 51.5467 7.23421 51.5188 7.68021C51.4909 8.1262 51.5767 8.57198 51.7682 8.97577Z" fill="#FF8B7B"/>
<path d="M57.0479 9.88623C57.0479 9.88623 56.4494 9.88623 54.8799 10.245C55.2016 10.6797 55.6597 10.9897 56.4591 10.7967C56.5612 10.783 56.6591 10.7473 56.7461 10.6921C56.8331 10.6369 56.9071 10.5635 56.9631 10.477C57.019 10.3905 57.0556 10.2929 57.0702 10.1909C57.0849 10.0889 57.0772 9.98499 57.0479 9.88623V9.88623Z" fill="#263238"/>
<path d="M55.9777 10.5081C56.2876 10.419 56.6176 10.4292 56.9213 10.5373C56.801 10.6725 56.6391 10.7637 56.4612 10.7966C56.1521 10.8868 55.8224 10.8766 55.5195 10.7674C55.6386 10.6317 55.8001 10.5403 55.9777 10.5081Z" fill="#FF5652"/>
<path d="M56.972 9.88818C56.9744 9.94896 56.9588 10.0091 56.9273 10.0611C56.8957 10.1131 56.8496 10.1547 56.7946 10.1806C56.326 10.2868 55.8492 10.352 55.3694 10.3756C55.2921 10.3862 55.2134 10.378 55.1401 10.3515C55.0667 10.325 55.0009 10.2811 54.9482 10.2235C55.613 10.0591 56.2897 9.94702 56.972 9.88818V9.88818Z" fill="white"/>
<path opacity="0.2" d="M54.7568 9.98169C54.7568 9.98169 54.3123 10.0421 54.4722 10.3716C54.4858 10.2098 54.7568 9.98169 54.7568 9.98169Z" fill="black"/>
<path d="M52.7723 10.1455L53.5658 9.99928C53.5658 9.99928 53.0179 8.46296 52.359 8.04963C52.7489 7.67335 53.3338 6.90909 53.5171 6.37878C53.6783 5.94344 53.7063 5.46998 53.5977 5.01864C53.489 4.5673 53.2485 4.15849 52.9068 3.84424C52.8307 4.2459 52.6666 4.62571 52.4262 4.9564C52.1859 5.28709 51.8753 5.56045 51.5167 5.75684C50.7505 6.17212 49.9336 7.21323 50.8967 7.62461C49.8595 8.24655 50.384 9.56061 52.7723 10.1455Z" fill="#E0E0E0"/>
<path d="M53.2635 6.8097C54.8232 6.84869 55.9013 5.24998 54.5502 3.32178C54.3767 4.41358 52.8696 5.07646 52.8696 5.07646L53.2635 6.8097Z" fill="#E0E0E0"/>
<path d="M54.6438 6.18183C55.6479 6.42359 56.4394 5.285 55.6868 3.55176C55.5075 4.40765 54.4976 4.72155 54.4976 4.72155L54.6438 6.18183Z" fill="#E0E0E0"/>
<path opacity="0.2" d="M54.1138 8.58594C53.8399 8.54123 53.5594 8.60715 53.334 8.76921C53.6033 8.75888 53.8681 8.69665 54.1138 8.58594V8.58594Z" fill="black"/>
<path opacity="0.2" d="M54.1448 8.76514C54.0199 8.77141 53.8977 8.80483 53.787 8.86308C53.6762 8.92132 53.5794 9.003 53.5034 9.10243C53.7388 9.03695 53.9575 8.92196 54.1448 8.76514V8.76514Z" fill="black"/>
<path opacity="0.2" d="M56.6035 7.61105C56.6035 7.61105 56.7478 7.342 56.9135 7.37514C56.8347 7.48168 56.7272 7.56352 56.6035 7.61105V7.61105Z" fill="black"/>
<path opacity="0.2" d="M56.6387 7.73763C56.6387 7.73763 56.7927 7.54267 56.9389 7.66355C56.8525 7.72674 56.7446 7.75335 56.6387 7.73763Z" fill="black"/>
<path d="M51.6026 10.5588C51.7358 10.755 51.9066 10.9228 52.105 11.0527C52.3034 11.1825 52.5256 11.2718 52.7587 11.3153C53.3865 11.4303 53.6497 10.8551 53.4314 10.2917C53.2364 9.78478 52.671 9.1219 52.0666 9.25447C51.4622 9.38705 51.277 10.0675 51.6026 10.5588Z" fill="#FF8B7B"/>
<path d="M54.4042 8.58581C54.4607 8.73008 54.5835 8.81782 54.6791 8.78078C54.7746 8.74373 54.8039 8.58581 54.7473 8.44934C54.6908 8.31286 54.5679 8.21733 54.4724 8.25437C54.3769 8.29141 54.3476 8.43764 54.4042 8.58581Z" fill="#263238"/>
<path d="M56.2113 7.86438C56.2679 8.00865 56.3907 8.09638 56.4862 8.05934C56.5818 8.0223 56.611 7.86438 56.5545 7.7279C56.4979 7.59142 56.3751 7.49589 56.2815 7.53294C56.1879 7.56998 56.1548 7.71815 56.2113 7.86438Z" fill="#263238"/>
<path d="M55.6147 8.10815C55.6147 8.10815 56.2971 8.78858 56.8255 9.02839C56.6773 9.37543 56.2016 9.45926 56.2016 9.45926L55.6147 8.10815Z" fill="#FF5652"/>
<path d="M53.6791 7.86824C53.6639 7.87316 53.6475 7.87316 53.6323 7.86824C53.6207 7.86511 53.6098 7.85966 53.6003 7.85222C53.5908 7.84479 53.5829 7.83551 53.5771 7.82496C53.5713 7.8144 53.5676 7.80278 53.5664 7.79079C53.5652 7.7788 53.5664 7.76668 53.5699 7.75516C53.6058 7.61379 53.6749 7.48304 53.7715 7.37383C53.8682 7.26462 53.9896 7.18012 54.1256 7.12737C54.1368 7.12374 54.1487 7.12238 54.1605 7.12335C54.1723 7.12433 54.1838 7.12764 54.1943 7.13307C54.2048 7.13851 54.2141 7.14597 54.2217 7.15503C54.2294 7.16409 54.2351 7.17457 54.2386 7.18586C54.246 7.20887 54.244 7.23387 54.2331 7.25542C54.2221 7.27696 54.2031 7.29331 54.1802 7.30089V7.30089C54.0732 7.34513 53.9781 7.41387 53.9026 7.50158C53.8271 7.58929 53.7732 7.69351 53.7454 7.80585C53.7404 7.82094 53.7317 7.83455 53.7201 7.84545C53.7086 7.85634 53.6945 7.86418 53.6791 7.86824V7.86824Z" fill="#263238"/>
<path d="M56.4846 6.76479C56.471 6.7715 56.456 6.77499 56.4408 6.77499C56.4256 6.77499 56.4105 6.7715 56.3969 6.76479C56.2978 6.70663 56.1862 6.67325 56.0715 6.66748C55.9567 6.6617 55.8423 6.68372 55.7379 6.73164C55.7167 6.74277 55.6919 6.74513 55.6689 6.7382C55.646 6.73128 55.6266 6.71562 55.6151 6.6946C55.6039 6.67306 55.6014 6.648 55.6084 6.62472C55.6153 6.60143 55.631 6.58175 55.6521 6.56982C55.7833 6.50791 55.9275 6.47859 56.0724 6.48436C56.2174 6.49013 56.3588 6.53082 56.4846 6.60297C56.4952 6.6085 56.5046 6.61609 56.5122 6.6253C56.5199 6.6345 56.5256 6.64514 56.529 6.65658C56.5325 6.66803 56.5336 6.68004 56.5323 6.69193C56.5311 6.70382 56.5274 6.71533 56.5217 6.72579C56.5125 6.74145 56.4998 6.75479 56.4846 6.76479V6.76479Z" fill="#263238"/>
<path d="M51.5577 18.2287C51.3471 18.839 51.1132 19.4551 50.8948 20.0692L50.2202 21.9077L49.5476 23.7423C49.3312 24.3545 49.1089 24.9628 48.9003 25.5692L48.8906 24.7893C49.094 25.4446 49.3489 26.0828 49.6529 26.698C49.9648 27.357 50.3002 28.0238 50.6511 28.6866C51.002 29.3495 51.3588 30.0144 51.7195 30.6792L52.8074 32.6795C52.8949 32.8373 52.9209 33.0219 52.8802 33.1976C52.8395 33.3734 52.7352 33.5278 52.5873 33.6311C52.4394 33.7344 52.2584 33.7792 52.0794 33.7568C51.9004 33.7345 51.7361 33.6466 51.6181 33.5101C51.1015 32.9252 50.6199 32.3227 50.1442 31.7106C49.6685 31.0984 49.2103 30.4725 48.7638 29.835C48.3174 29.1975 47.8865 28.5404 47.4829 27.8522C47.0426 27.1377 46.6712 26.3831 46.3736 25.5984C46.2949 25.3813 46.2833 25.1456 46.3404 24.9219L46.3658 24.8244C46.5315 24.1674 46.7031 23.5181 46.8941 22.8747C47.0852 22.2314 47.284 21.5938 47.479 20.9602C47.674 20.3266 47.8962 19.6949 48.1185 19.069C48.3408 18.4432 48.565 17.8193 48.8165 17.1954C48.9519 16.8314 49.2265 16.5361 49.5797 16.3745C49.9329 16.2129 50.3358 16.1982 50.6998 16.3337C51.0639 16.4691 51.3592 16.7437 51.5208 17.0969C51.6824 17.4501 51.6971 17.853 51.5616 18.217L51.5577 18.2287Z" fill="#FF8B7B"/>
<path d="M50.5382 15.2459C48.4423 15.9945 47.2959 20.0888 47.2959 20.0888L50.6356 23.064C50.6356 23.064 52.0121 22.0774 52.2928 19.9874C52.5073 18.3751 52.6672 14.4777 50.5382 15.2459Z" fill="#407BFF"/>
<path d="M52.1662 31.7593L53.8858 32.6893L52.2383 34.3582C52.2383 34.3582 50.7819 33.3268 51.205 32.465L52.1662 31.7593Z" fill="#FF8B7B"/>
<path d="M54.4823 34.6313L53.8058 35.1187C53.6752 35.2127 53.5156 35.2572 53.3552 35.2444C53.1949 35.2315 53.0443 35.1621 52.9304 35.0485L52.2383 34.3584L53.8857 32.6895L54.6286 33.674C54.6826 33.7462 54.7218 33.8284 54.7437 33.9158C54.7656 34.0033 54.7699 34.0942 54.7563 34.1833C54.7427 34.2725 54.7115 34.358 54.6644 34.4349C54.6174 34.5118 54.5555 34.5786 54.4823 34.6313Z" fill="#FF8B7B"/>
<path d="M52.9613 14.1482C53.051 14.583 53.4487 16.0355 55.4101 16.1173C54.7336 16.3376 54.5737 17.6264 54.5737 17.6264C54.5737 17.6264 52.5558 16.3552 52.3589 14.7643C52.4174 14.3451 52.9613 14.1482 52.9613 14.1482Z" fill="white"/>
<path d="M55.7632 13.3878C55.8509 13.8128 56.5118 14.5244 56.4183 15.7975C57.0987 15.5889 57.9585 16.1641 57.9585 16.1641C57.7578 15.1864 57.2847 14.2854 56.5937 13.5652C56.3331 13.4461 56.0497 13.3856 55.7632 13.3878V13.3878Z" fill="white"/>
</svg>
