<svg width="673" height="501" viewBox="0 0 673 501" fill="none" xmlns="http://www.w3.org/2000/svg">
<path d="M604.781 462.597H560.266V462.933H604.781V462.597Z" fill="#EBEBEB"/>
<path d="M445.27 466.253H433.591V466.589H445.27V466.253Z" fill="#EBEBEB"/>
<path d="M558.922 450.124H533.13V450.46H558.922V450.124Z" fill="#EBEBEB"/>
<path d="M128.656 452.382H70.6074V452.718H128.656V452.382Z" fill="#EBEBEB"/>
<path d="M149.14 452.382H140.632V452.718H149.14V452.382Z" fill="#EBEBEB"/>
<path d="M302.709 458.054H176.8V458.39H302.709V458.054Z" fill="#EBEBEB"/>
<path d="M318.636 381.027H59.1161C57.083 381.024 55.1344 380.214 53.6981 378.775C52.2618 377.336 51.4551 375.386 51.4551 373.353V8.5418C51.4728 6.52041 52.2873 4.58763 53.7217 3.16327C55.1561 1.73892 57.0946 0.938033 59.1161 0.93457H318.636C320.671 0.93457 322.623 1.74312 324.062 3.18236C325.502 4.6216 326.31 6.57362 326.31 8.609V373.353C326.31 375.388 325.502 377.34 324.062 378.78C322.623 380.219 320.671 381.027 318.636 381.027V381.027ZM59.1161 1.20338C57.1721 1.20694 55.309 1.98166 53.9357 3.3575C52.5624 4.73333 51.7911 6.59786 51.7911 8.5418V373.353C51.7911 375.297 52.5624 377.161 53.9357 378.537C55.309 379.913 57.1721 380.688 59.1161 380.691H318.636C320.581 380.688 322.445 379.914 323.821 378.538C325.196 377.163 325.971 375.298 325.974 373.353V8.5418C325.971 6.59662 325.196 4.73213 323.821 3.35668C322.445 1.98122 320.581 1.20693 318.636 1.20338H59.1161Z" fill="#EBEBEB"/>
<path d="M609.364 381.027H349.831C347.796 381.024 345.846 380.214 344.408 378.776C342.97 377.337 342.16 375.387 342.156 373.353V8.5418C342.177 6.51918 342.995 4.58641 344.432 3.16243C345.868 1.73845 347.808 0.937995 349.831 0.93457H609.364C611.383 0.941565 613.318 1.74401 614.749 3.16799C616.181 4.59197 616.994 6.52273 617.011 8.5418V373.353C617.011 375.384 616.206 377.332 614.773 378.77C613.34 380.209 611.394 381.02 609.364 381.027V381.027ZM349.831 1.20338C347.885 1.20693 346.021 1.98122 344.646 3.35668C343.27 4.73213 342.496 6.59662 342.492 8.5418V373.353C342.496 375.298 343.27 377.163 344.646 378.538C346.021 379.914 347.885 380.688 349.831 380.691H609.364C611.309 380.688 613.173 379.914 614.549 378.538C615.924 377.163 616.699 375.298 616.702 373.353V8.5418C616.699 6.59662 615.924 4.73213 614.549 3.35668C613.173 1.98122 611.309 1.20693 609.364 1.20338H349.831Z" fill="#EBEBEB"/>
<path d="M672.117 440.971H0.0996094V441.307H672.117V440.971Z" fill="#EBEBEB"/>
<path d="M407.785 178.871H365.274C363.507 178.871 362.075 180.303 362.075 182.07V211.652C362.075 213.419 363.507 214.851 365.274 214.851H407.785C409.552 214.851 410.984 213.419 410.984 211.652V182.07C410.984 180.303 409.552 178.871 407.785 178.871Z" fill="#E0E0E0"/>
<path d="M387.665 181.976H365.664V194.18H387.665V181.976Z" fill="#EBEBEB"/>
<path d="M369.83 197.876H365.664V200.174H369.83V197.876Z" fill="#EBEBEB"/>
<path d="M369.83 201.733H365.664V204.032H369.83V201.733Z" fill="#EBEBEB"/>
<path d="M369.83 205.591H365.664V207.889H369.83V205.591Z" fill="#EBEBEB"/>
<path d="M369.83 209.448H365.664V211.746H369.83V209.448Z" fill="#EBEBEB"/>
<path d="M375.784 197.876H371.618V200.174H375.784V197.876Z" fill="#EBEBEB"/>
<path d="M375.784 201.733H371.618V204.032H375.784V201.733Z" fill="#EBEBEB"/>
<path d="M375.784 205.591H371.618V207.889H375.784V205.591Z" fill="#EBEBEB"/>
<path d="M375.784 209.448H371.618V211.746H375.784V209.448Z" fill="#EBEBEB"/>
<path d="M381.725 197.876H377.558V200.174H381.725V197.876Z" fill="#EBEBEB"/>
<path d="M381.725 201.733H377.558V204.032H381.725V201.733Z" fill="#EBEBEB"/>
<path d="M381.725 205.591H377.558V207.889H381.725V205.591Z" fill="#EBEBEB"/>
<path d="M381.725 209.448H377.558V211.746H381.725V209.448Z" fill="#EBEBEB"/>
<path d="M387.665 197.876H383.499V200.174H387.665V197.876Z" fill="#EBEBEB"/>
<path d="M387.665 201.733H383.499V204.032H387.665V201.733Z" fill="#EBEBEB"/>
<path d="M387.665 205.591H383.499V207.889H387.665V205.591Z" fill="#EBEBEB"/>
<path d="M387.665 209.448H383.499V211.746H387.665V209.448Z" fill="#EBEBEB"/>
<path d="M407.543 178.871H395.555V211.746H407.543V178.871Z" fill="#F0F0F0"/>
<path d="M407.543 188.078H395.555V201.747H407.543V188.078Z" fill="#E6E6E6"/>
<path d="M395.555 201.733L397.84 194.18H405.877L407.543 201.733H395.555Z" fill="#E0E0E0"/>
<path d="M596.703 35.2612V441.778H510.281L510.443 441.106H583.84V46.7527H431.279V441.106H478.495L510.281 441.778H419.788V35.2612H596.703Z" fill="#EBEBEB"/>
<path d="M583.841 46.7527V441.106H510.443L510.282 441.778L478.495 441.106H431.279V46.7527H583.841Z" fill="#F0F0F0"/>
<path d="M583.841 46.7527H431.279V441.119H583.841V46.7527Z" fill="#F5F5F5"/>
<path d="M583.841 46.7527V153.2L510.443 441.106L510.282 441.778L478.495 441.106L580.346 46.7527H583.841Z" fill="white"/>
<path d="M449.168 202.298H431.279V261.18H449.168V202.298Z" fill="white"/>
<path d="M533.13 46.7527L431.279 441.119L463.052 441.778L563.761 46.7527H533.13Z" fill="white"/>
<path d="M351.175 388.863C351.124 388.865 351.074 388.856 351.026 388.838C350.979 388.82 350.936 388.793 350.9 388.758C350.863 388.723 350.834 388.68 350.815 388.634C350.795 388.587 350.785 388.537 350.785 388.487C349.602 353.461 360.274 340.101 360.381 339.967C360.447 339.887 360.542 339.836 360.646 339.826C360.749 339.816 360.852 339.847 360.932 339.913C361.013 339.979 361.063 340.074 361.073 340.178C361.083 340.281 361.052 340.384 360.986 340.464C360.879 340.585 350.395 353.77 351.578 388.46C351.582 388.511 351.575 388.563 351.557 388.612C351.54 388.661 351.513 388.706 351.478 388.743C351.442 388.781 351.4 388.811 351.352 388.832C351.304 388.853 351.253 388.863 351.202 388.863H351.175Z" fill="#E0E0E0"/>
<path d="M356.161 388.863C356.11 388.858 356.06 388.843 356.015 388.819C355.969 388.794 355.929 388.761 355.897 388.721C355.864 388.681 355.84 388.635 355.826 388.586C355.811 388.536 355.806 388.484 355.812 388.433C356.753 378.192 360.422 370.369 366.739 365.181C376.577 357.117 389.587 358.34 389.708 358.354C389.76 358.359 389.809 358.374 389.855 358.398C389.9 358.423 389.94 358.456 389.973 358.496C390.005 358.536 390.03 358.582 390.044 358.631C390.059 358.681 390.063 358.733 390.058 358.784C390.053 358.835 390.038 358.885 390.013 358.93C389.989 358.976 389.956 359.016 389.916 359.048C389.876 359.081 389.83 359.105 389.78 359.12C389.731 359.134 389.679 359.139 389.628 359.133C389.507 359.133 376.819 357.91 367.223 365.786C361.08 370.84 357.505 378.487 356.591 388.514C356.588 388.566 356.574 388.617 356.55 388.663C356.527 388.709 356.493 388.75 356.453 388.783C356.413 388.816 356.366 388.84 356.316 388.854C356.265 388.868 356.213 388.871 356.161 388.863V388.863Z" fill="#E0E0E0"/>
<path d="M381.537 358.569C379.641 354.752 363.916 352.144 372.921 343.865C381.926 335.586 381.886 353.34 385.891 353.273C391.496 353.179 390.407 329.43 399.654 335.559C408.901 341.688 390.528 351.378 393.472 355.719C396.16 359.751 412.49 346.714 412.853 354.684C413.215 362.655 395.474 356.754 394.332 361.552C393.458 365.302 410.944 368.703 403.189 374.133C395.434 379.563 392.947 363.098 388.673 364.16C385.434 364.966 389.762 378.487 383.23 376.377C376.698 374.267 383.539 362.587 381.537 358.569Z" fill="#F0F0F0"/>
<path d="M345.221 393.231C345.123 393.229 345.029 393.19 344.957 393.123C344.885 393.057 344.841 392.966 344.831 392.868C341.713 362.48 328.044 343.798 327.869 343.663C327.799 343.589 327.76 343.49 327.76 343.388C327.76 343.286 327.799 343.187 327.869 343.112C327.91 343.081 327.957 343.058 328.008 343.045C328.058 343.032 328.11 343.029 328.162 343.037C328.213 343.044 328.262 343.062 328.307 343.089C328.351 343.116 328.39 343.151 328.42 343.193C328.568 343.381 342.398 362.157 345.543 392.842C345.549 392.893 345.544 392.945 345.529 392.994C345.515 393.043 345.491 393.09 345.458 393.13C345.426 393.17 345.386 393.203 345.34 393.227C345.295 393.251 345.245 393.267 345.194 393.272L345.221 393.231Z" fill="#E0E0E0"/>
<path d="M331.552 355.168C326.807 359.12 328.38 382.13 313.716 372.224C299.053 362.318 324.012 356.432 322.668 350.814C320.665 342.938 287.588 352.4 293.099 337.373C298.609 322.347 318.42 344.967 323.622 339.349C328.393 334.201 304.59 315.56 315.692 312.388C326.794 309.216 324.401 336.177 331.552 336.177C337.116 336.177 336.081 310.412 346.336 319.524C356.591 328.637 334.24 337.629 337.129 343.287C339.361 347.588 356.954 336.97 356.161 346.889C355.368 356.808 336.538 351.029 331.552 355.168Z" fill="#E6E6E6"/>
<path d="M368.607 423.136L371.819 385.328H326.028L329.254 423.163C329.671 428.094 331.925 432.688 335.569 436.036C339.213 439.384 343.982 441.241 348.93 441.24C353.883 441.24 358.655 439.379 362.3 436.026C365.944 432.672 368.196 428.072 368.607 423.136V423.136Z" fill="#F5F5F5"/>
<path d="M357.519 351.996C362.263 355.948 360.691 378.958 375.354 369.052C390.018 359.147 365.005 353.26 366.443 347.642C368.446 339.766 401.522 349.228 396.012 334.201C390.501 319.175 370.69 341.795 365.489 336.177C360.704 331.029 384.52 312.388 373.419 309.216C362.317 306.044 364.709 333.005 357.559 333.005C351.995 333.005 353.03 307.24 342.775 316.353C332.52 325.465 354.871 334.457 351.981 340.115C349.75 344.416 332.157 333.798 332.95 343.717C333.743 353.636 352.532 347.857 357.519 351.996Z" fill="#F5F5F5"/>
<path d="M237.389 254.957H52.3823V439.963H237.389V254.957Z" fill="#EBEBEB"/>
<path d="M224.674 269.11H66.5352V439.627H224.674V269.11Z" fill="#FAFAFA"/>
<path d="M81.4137 339.994H76.0645V359.375H81.4137V339.994Z" fill="#E6E6E6"/>
<path d="M78.7389 330.989H73.3896V369.065H78.7389V330.989Z" fill="white"/>
<path d="M81.4001 330.989H73.3896V336.768H81.4001V330.989Z" fill="white"/>
<path d="M81.4001 363.273H73.3896V369.052H81.4001V363.273Z" fill="white"/>
<path d="M336.108 500.929C480.03 500.929 596.703 494.117 596.703 485.714C596.703 477.312 480.03 470.5 336.108 470.5C192.185 470.5 75.5132 477.312 75.5132 485.714C75.5132 494.117 192.185 500.929 336.108 500.929Z" fill="#F5F5F5"/>
<path d="M554.5 157.367C553.801 159.451 552.597 161.329 550.995 162.835C549.393 164.341 547.444 165.426 545.321 165.995H545.253C543.399 166.459 541.519 166.809 539.622 167.044L538.694 167.165C532.27 167.917 525.684 167.77 519.246 168.697L518.279 168.845C515.082 169.492 511.844 169.914 508.588 170.108C507.861 170.122 507.134 170.095 506.411 170.028C503.532 169.884 500.776 168.819 498.548 166.99C495.712 164.463 494.516 160.7 493.777 156.91C495.712 156.318 497.858 155.642 500.215 154.88C517.311 149.262 498.656 139.854 504.704 124.828C513.158 103.807 547.713 105.285 547.122 119.626C557.941 122.328 559.487 143.039 554.5 157.367Z" fill="#263238"/>
<path d="M506.895 132.179C506.102 135.459 505.846 138.9 504.663 142.045C503.481 145.19 501.102 148.2 497.795 148.872C502.768 151.077 508.924 148.644 512.284 144.37C515.644 140.096 516.719 134.411 516.827 128.954C516.827 127.69 517.055 126.172 516.168 125.285C509.811 118.968 507.674 128.9 506.895 132.179Z" fill="#263238"/>
<path d="M502.11 188.306L500.766 189.516L499.704 190.457C498.925 191.156 498.158 191.801 497.365 192.419C495.793 193.669 494.207 194.919 492.581 196.075C492.245 196.303 491.909 196.545 491.586 196.747C491.266 196.988 490.934 197.212 490.592 197.419L489.799 197.957C487.352 199.569 484.879 201.075 482.339 202.499C480.493 203.512 478.625 204.453 476.735 205.322C474.96 206.155 473.146 206.921 471.358 207.62L468.482 208.655C467.501 208.991 466.52 209.26 465.566 209.583L464.087 210.026L462.488 210.429C461.439 210.671 460.378 210.913 459.356 211.074C451.37 212.23 443.265 212.311 435.258 211.316C431.36 210.9 427.489 210.322 423.672 209.663C420.984 209.193 418.296 208.642 415.608 207.983C414.492 207.728 413.363 207.432 412.234 207.123L413.404 201.102L416.629 201.384C419.317 201.599 421.938 201.801 424.573 201.922C428.296 202.096 432.019 202.298 435.728 202.298C442.911 202.45 450.09 201.823 457.139 200.43C457.958 200.241 458.765 200.013 459.558 199.785L460.714 199.408L461.95 198.938C462.757 198.615 463.563 198.373 464.423 197.983L466.802 196.908C470.019 195.419 473.159 193.768 476.21 191.962C478.321 190.712 480.404 189.368 482.447 187.93L483.67 187.07C483.912 186.909 484.167 186.734 484.409 186.546L485.189 185.995L485.43 185.82C486.774 184.839 488.119 183.791 489.463 182.742L491.505 181.049L493.401 179.409L499.771 185.968L502.11 188.306Z" fill="#FFC3BD"/>
<path d="M418 201.8L405.998 198.077L408.189 210.012C408.189 210.012 414.613 210.012 417.678 206.263L418 201.8Z" fill="#FFC3BD"/>
<path d="M397.625 200.524L399.909 208.292L408.216 210.012L406.025 198.077L397.625 200.524Z" fill="#FFC3BD"/>
<path d="M407.073 201.438C405.796 199.336 405.096 196.934 405.043 194.476C405.164 191.277 406.979 191.505 406.979 191.505C406.979 191.505 406.643 195.309 411.616 201.72L411.737 201.895L407.073 201.438Z" fill="#FFC3BD"/>
<path d="M510.832 185.067C509.797 188.185 505.913 191.102 501.841 193.4C498.726 195.133 495.492 196.642 492.164 197.916L491.075 198.319L490.591 197.486L484.476 186.667L483.468 184.879L484.355 183.979C488.466 179.857 492.967 176.143 497.795 172.89C500.322 171.358 502.661 170.431 504.26 170.807C511.585 172.406 512.902 178.939 510.832 185.067Z" fill="#407BFF"/>
<path opacity="0.3" d="M510.832 185.067C509.797 188.185 505.913 191.102 501.841 193.4C498.726 195.133 495.492 196.642 492.164 197.916L491.075 198.319L490.591 197.486L484.476 186.667L483.468 184.879L484.355 183.979C488.466 179.857 492.967 176.143 497.795 172.89C500.322 171.358 502.661 170.431 504.26 170.807C511.585 172.406 512.902 178.939 510.832 185.067Z" fill="black"/>
<path d="M492.204 197.849C492.274 198.085 492.259 198.339 492.16 198.565C492.062 198.791 491.887 198.976 491.666 199.085C491.428 199.21 491.152 199.242 490.891 199.175C490.631 199.108 490.404 198.947 490.255 198.723L489.839 197.957L483.777 187.124L482.702 185.202C482.633 185.078 482.589 184.942 482.572 184.802C482.556 184.661 482.567 184.519 482.606 184.383C482.645 184.247 482.71 184.119 482.798 184.009C482.886 183.898 482.995 183.805 483.118 183.737V183.737C483.203 183.689 483.293 183.653 483.387 183.629C483.563 183.591 483.746 183.597 483.92 183.646C484.093 183.696 484.252 183.787 484.382 183.911C484.455 183.983 484.518 184.065 484.57 184.153L485.524 185.874L491.613 196.747L492.123 197.661C492.144 197.726 492.171 197.789 492.204 197.849V197.849Z" fill="#407BFF"/>
<path d="M557.874 169.382C562.161 171.358 562.685 172.487 562.013 175.592C560.669 181.6 559.621 186.922 558.734 191.72C558.519 192.876 558.317 194.005 558.116 195.094C558.116 195.295 558.048 195.497 558.008 195.712C558.008 195.927 557.927 196.115 557.887 196.317C557.847 196.518 557.78 196.962 557.712 197.271C553.479 207.029 551.745 218.897 552.834 236.383C552.928 237.727 552.941 239.071 553.008 240.415H548.627H534.246H532.055L515.254 240.522H513.077H508.306C508.185 239.77 508.064 239.057 507.943 238.331C506.706 231.02 505.685 224.474 504.825 218.668C504.341 215.348 503.897 212.257 503.481 209.394C503.481 209.394 496.304 200.537 498.924 195.107C500.47 191.922 501.182 172.433 501.451 171.587C501.72 170.74 501.948 170.753 501.948 170.753C503.292 170.471 504.636 170.189 505.913 169.947C509.829 169.149 513.762 168.486 517.714 167.958C519.058 167.77 520.469 167.595 521.854 167.447C527.29 167.019 532.746 166.893 538.197 167.071C538.546 167.071 538.869 167.071 539.218 167.071C540.563 167.071 541.907 167.178 543.251 167.259C544.837 167.34 546.423 167.474 547.995 167.608C550.106 167.719 552.21 167.939 554.299 168.267L557.874 169.382Z" fill="#407BFF"/>
<path d="M535.791 143.59C534.662 150.512 533.748 163.159 538.721 167.581C538.721 167.581 536.168 182.5 523.587 184.758C517.512 183.226 517.351 168.321 517.351 168.321C524.905 166.21 522.378 158.657 522.915 151.009L535.791 143.59Z" fill="#FFC3BD"/>
<path opacity="0.2" d="M521.437 143.59C522.781 149.074 524.125 158.267 522.19 164.141C526.222 163.294 532.189 160.109 533.023 156.547C533.267 154.14 533.316 151.717 533.17 149.302L521.437 143.59Z" fill="black"/>
<path d="M544.904 134.545C543.385 145.956 542.995 150.821 536.84 156.291C527.512 164.53 513.83 160.176 511.894 148.563C510.147 138.08 512.902 121.185 524.448 117.409C526.988 116.571 529.699 116.394 532.326 116.897C534.953 117.399 537.409 118.562 539.461 120.278C541.512 121.993 543.093 124.204 544.052 126.7C545.012 129.197 545.319 131.897 544.944 134.545H544.904Z" fill="#FFC3BD"/>
<path d="M542.162 120.876C535.133 128.578 512.808 130.016 509.421 127.892C516.276 118.336 526.894 112.933 532.875 114.183C536.699 115.174 540.012 117.562 542.162 120.876V120.876Z" fill="#263238"/>
<path d="M546.947 119.613H546.853L546.665 119.868L546.947 119.613Z" fill="#263238"/>
<path d="M547.122 119.438L546.92 119.613C546.966 119.604 547.009 119.583 547.044 119.552C547.079 119.521 547.106 119.482 547.122 119.438Z" fill="#263238"/>
<path d="M546.853 119.613V119.532L546.665 119.613C546.665 119.613 546.812 119.613 546.853 119.613Z" fill="#263238"/>
<path d="M547.619 112.059C548.184 113.254 548.416 114.578 548.29 115.894C548.165 117.209 547.687 118.466 546.906 119.532C547.627 119.245 548.254 118.764 548.719 118.143C549.184 117.522 549.469 116.785 549.543 116.013C549.616 115.241 549.476 114.463 549.136 113.766C548.797 113.068 548.272 112.478 547.619 112.059V112.059Z" fill="#263238"/>
<path d="M548.25 145.795C547.636 146.72 546.845 147.515 545.922 148.133C545 148.751 543.964 149.181 542.874 149.397C539.971 149.948 538.761 147.313 539.769 144.706C540.67 142.341 543.277 139.33 546.073 139.827C547.05 140.063 547.894 140.676 548.42 141.533C548.947 142.389 549.113 143.419 548.882 144.397C548.767 144.9 548.552 145.376 548.25 145.795V145.795Z" fill="#FFC3BD"/>
<path d="M537.955 121.763C536.235 123.793 536.41 126.696 536.45 129.357C536.557 137.152 537.485 146.937 531.531 150.351C538.574 148.388 544.205 145.069 547.794 138.698C550.629 133.658 550.482 130.634 548.331 125.258C546.718 121.199 541.866 117.193 537.955 121.763Z" fill="#263238"/>
<path opacity="0.1" d="M548.143 177.178C548.143 177.178 547.659 198.131 549.487 207.419C551.315 216.706 552.753 214.394 552.753 214.394C552.753 214.394 553.653 199.973 555.441 195.954C557.229 191.935 548.143 177.178 548.143 177.178Z" fill="black"/>
<path d="M568.532 194.583C568.411 196.008 568.33 197.741 568.249 199.341C568.169 200.94 568.128 202.62 568.128 204.26C568.128 207.553 568.128 210.859 568.384 214.125C568.769 220.595 569.773 227.013 571.381 233.291C571.811 234.783 572.255 236.356 572.725 237.794C573.195 239.232 573.841 240.724 574.472 242.216C575.816 245.199 577.254 248.237 578.787 251.247C581.865 257.282 585.131 263.344 588.37 269.392L583.209 273.021C578.557 267.682 574.239 262.063 570.279 256.193C568.276 253.263 566.368 250.253 564.594 247.027C563.707 245.414 562.846 243.775 562.067 241.974C561.287 240.173 560.723 238.452 560.051 236.678C557.767 229.664 556.314 222.406 555.723 215.053C555.374 211.425 555.212 207.783 555.239 204.139C555.239 202.311 555.239 200.524 555.374 198.696C555.508 196.868 555.575 195.121 555.804 193.104L568.532 194.583Z" fill="#FFC3BD"/>
<path d="M586.717 268.088L595.453 274.204L584.754 281.031C584.754 281.031 580.01 274.58 582.133 268.021L586.717 268.088Z" fill="#FFC3BD"/>
<path d="M598.423 284.27L589.257 289.109L584.795 281.045L595.453 274.204L598.423 284.27Z" fill="#FFC3BD"/>
<path d="M570.602 179.059C572.618 194.207 568.075 196.666 568.075 196.666L553.896 198.01C553.896 198.01 546.92 176.895 551.033 171.734C555.32 166.358 569.621 171.708 570.602 179.059Z" fill="#407BFF"/>
<path opacity="0.3" d="M570.602 179.059C572.618 194.207 568.075 196.666 568.075 196.666L553.896 198.01C553.896 198.01 546.92 176.895 551.033 171.734C555.32 166.358 569.621 171.708 570.602 179.059Z" fill="black"/>
<path d="M569.419 196.451C569.446 196.743 569.356 197.034 569.17 197.26C568.984 197.486 568.716 197.63 568.425 197.661V197.661L554.017 199.005C553.726 199.031 553.437 198.941 553.213 198.755C552.989 198.568 552.848 198.301 552.82 198.01V198.01C552.79 197.723 552.875 197.436 553.057 197.212C553.238 196.988 553.501 196.845 553.788 196.814V196.814L568.196 195.47C568.488 195.44 568.78 195.526 569.009 195.709C569.238 195.893 569.385 196.16 569.419 196.451V196.451Z" fill="#407BFF"/>
<path d="M507.903 238.412L505.94 242.699C505.779 243.035 506.142 243.371 506.72 243.331L552.968 241.234C553.398 241.234 553.748 240.993 553.761 240.737L554.043 236.517C554.043 236.221 553.68 235.979 553.21 235.993L508.669 237.995C508.516 237.993 508.365 238.03 508.231 238.103C508.097 238.176 507.984 238.282 507.903 238.412V238.412Z" fill="#263238"/>
<path d="M514.515 243.492H513.252C512.996 243.492 512.795 243.385 512.808 243.237L513.211 237.74C513.211 237.592 513.44 237.444 513.695 237.431H514.972C515.214 237.431 515.429 237.552 515.402 237.7L515.012 243.197C514.972 243.293 514.903 243.374 514.813 243.427C514.723 243.48 514.619 243.503 514.515 243.492V243.492Z" fill="#407BFF"/>
<path d="M549.675 242.216H548.412C548.156 242.216 547.955 242.108 547.955 241.947L548.358 236.45C548.358 236.302 548.586 236.141 548.842 236.141H550.186C550.233 236.124 550.284 236.119 550.335 236.125C550.385 236.131 550.433 236.148 550.475 236.175C550.518 236.202 550.554 236.238 550.581 236.281C550.607 236.324 550.624 236.373 550.629 236.423L550.239 241.92C550.159 242.068 549.93 242.202 549.675 242.216Z" fill="#407BFF"/>
<path d="M533.547 242.861H532.27C532.223 242.877 532.173 242.883 532.123 242.877C532.074 242.871 532.026 242.854 531.985 242.826C531.943 242.799 531.908 242.763 531.883 242.719C531.858 242.676 531.843 242.628 531.84 242.578L532.23 237.095C532.23 236.947 532.472 236.799 532.727 236.786H533.99C534.246 236.786 534.447 236.907 534.434 237.068L534.031 242.565C534.017 242.726 533.762 242.861 533.547 242.861Z" fill="#407BFF"/>
<path d="M527.297 136.534C527.23 137.462 526.665 138.16 526.074 138.134C525.482 138.107 525.012 137.314 525.079 136.373C525.146 135.432 525.697 134.747 526.302 134.773C526.907 134.8 527.351 135.607 527.297 136.534Z" fill="#263238"/>
<path d="M516.746 135.795C516.666 136.722 516.128 137.435 515.523 137.408C514.918 137.381 514.461 136.574 514.542 135.634C514.623 134.693 515.147 133.994 515.752 134.021C516.356 134.048 516.854 134.841 516.746 135.795Z" fill="#263238"/>
<path d="M516.021 134.088L513.843 133.349C513.843 133.349 514.865 135.069 516.021 134.088Z" fill="#263238"/>
<path d="M519.421 137.596C518.438 139.663 517.181 141.589 515.685 143.322C516.135 143.69 516.661 143.957 517.225 144.103C517.789 144.249 518.377 144.271 518.951 144.168L519.421 137.596Z" fill="#ED847E"/>
<path d="M523.708 147.985C523.136 148.039 522.56 148.039 521.988 147.985C521.958 147.984 521.928 147.976 521.901 147.963C521.874 147.95 521.85 147.931 521.83 147.909C521.81 147.886 521.795 147.86 521.785 147.832C521.775 147.803 521.771 147.773 521.773 147.743C521.78 147.684 521.808 147.629 521.853 147.589C521.897 147.55 521.955 147.528 522.015 147.528C523.183 147.64 524.361 147.473 525.452 147.04C526.543 146.608 527.516 145.923 528.291 145.042C528.304 145.016 528.322 144.993 528.344 144.974C528.366 144.955 528.392 144.941 528.419 144.932C528.447 144.923 528.476 144.92 528.505 144.923C528.534 144.925 528.562 144.934 528.587 144.948C528.613 144.956 528.638 144.97 528.658 144.989C528.678 145.008 528.694 145.031 528.704 145.057C528.714 145.083 528.719 145.11 528.717 145.138C528.715 145.165 528.708 145.192 528.695 145.217C528.695 145.217 528.695 145.217 528.695 145.217C527.462 146.76 525.67 147.755 523.708 147.985V147.985Z" fill="#263238"/>
<path d="M531.638 130.217C531.56 130.223 531.481 130.21 531.409 130.18C531.337 130.15 531.272 130.102 531.222 130.043C530.804 129.472 530.255 129.012 529.621 128.7C528.986 128.389 528.286 128.236 527.579 128.255C527.457 128.262 527.336 128.222 527.243 128.141C527.15 128.061 527.092 127.947 527.082 127.825C527.076 127.766 527.083 127.706 527.101 127.649C527.119 127.592 527.149 127.54 527.188 127.494C527.226 127.449 527.274 127.412 527.327 127.386C527.381 127.36 527.439 127.344 527.499 127.341V127.341C528.356 127.309 529.208 127.487 529.981 127.86C530.754 128.232 531.425 128.788 531.934 129.478C531.972 129.524 532 129.576 532.017 129.633C532.034 129.69 532.04 129.749 532.034 129.808C532.027 129.867 532.009 129.924 531.981 129.976C531.952 130.028 531.913 130.073 531.867 130.11C531.801 130.164 531.722 130.201 531.638 130.217V130.217Z" fill="#263238"/>
<path d="M512.956 129.169C512.879 129.189 512.798 129.189 512.721 129.171C512.644 129.152 512.572 129.114 512.513 129.061C512.427 128.976 512.379 128.86 512.379 128.739C512.379 128.618 512.427 128.502 512.513 128.416C513.089 127.781 513.81 127.294 514.616 126.999C515.421 126.704 516.286 126.609 517.136 126.723C517.252 126.739 517.356 126.801 517.426 126.894C517.497 126.987 517.528 127.104 517.513 127.22C517.503 127.278 517.482 127.334 517.45 127.384C517.418 127.433 517.376 127.476 517.327 127.509C517.277 127.542 517.222 127.564 517.164 127.574C517.106 127.585 517.046 127.583 516.988 127.569V127.569C516.288 127.492 515.579 127.582 514.92 127.832C514.261 128.082 513.671 128.485 513.198 129.007C513.135 129.084 513.051 129.14 512.956 129.169V129.169Z" fill="#263238"/>
<path d="M486.64 476.333C486.317 476.239 485.363 475.983 484.274 475.755C482.514 475.405 480.377 475.137 479.731 475.755C479.629 475.848 479.557 475.969 479.523 476.103C479.49 476.237 479.497 476.378 479.543 476.508C479.591 476.754 479.694 476.987 479.845 477.187C479.997 477.388 480.192 477.551 480.417 477.663C481.295 478.021 482.263 478.097 483.186 477.878C484.186 477.682 485.167 477.394 486.116 477.018C486.297 476.933 486.472 476.834 486.64 476.723C486.683 476.708 486.721 476.678 486.745 476.639C486.769 476.6 486.78 476.553 486.774 476.508C486.77 476.469 486.755 476.432 486.731 476.402C486.707 476.371 486.676 476.347 486.64 476.333ZM480.618 477.22C480.449 477.142 480.301 477.024 480.186 476.876C480.072 476.729 479.994 476.557 479.96 476.373C479.941 476.317 479.939 476.257 479.953 476.2C479.967 476.143 479.998 476.091 480.041 476.051C480.186 475.932 480.364 475.861 480.551 475.849C482.368 475.78 484.184 476.007 485.927 476.521C484.516 477.085 481.882 477.878 480.632 477.22H480.618Z" fill="#407BFF"/>
<path d="M501.357 479.344L490.242 479.975L487.89 452.1L498.991 451.455L501.357 479.344Z" fill="#FFC3BD"/>
<path d="M577.712 460.352L566.933 464.505L557.672 439.157L568.452 435.017L577.712 460.352Z" fill="#FFC3BD"/>
<path d="M566.556 463.524L576.704 455.379C576.873 455.231 577.09 455.149 577.315 455.149C577.54 455.149 577.757 455.231 577.927 455.379L586.609 463.242C586.956 463.59 587.151 464.061 587.151 464.552C587.151 465.044 586.956 465.515 586.609 465.863C586.562 465.919 586.508 465.968 586.448 466.011C582.873 468.793 580.991 469.949 576.569 473.551C573.881 475.809 567.161 482.274 563.304 485.311C559.446 488.349 555.172 483.967 556.583 482.408C562.457 475.177 564.782 469.183 565.562 465.271C565.687 464.594 566.037 463.978 566.556 463.524V463.524Z" fill="#263238"/>
<path d="M488.804 474.612L502.365 472.368C502.618 472.327 502.878 472.371 503.104 472.493C503.33 472.614 503.509 472.806 503.615 473.04L508.346 483.295C508.536 483.707 508.556 484.178 508.403 484.605C508.249 485.032 507.935 485.382 507.526 485.58C507.373 485.651 507.21 485.696 507.042 485.714C502.271 486.548 500 486.857 494.032 487.878C490.349 488.483 479.799 491.991 474.691 491.413C469.584 490.835 469.221 485.687 471.345 485.472C480.834 484.451 484.651 478.833 487.043 475.688C487.471 475.118 488.101 474.733 488.804 474.612V474.612Z" fill="#263238"/>
<path opacity="0.2" d="M487.876 452.113L489.099 466.481L500.309 466.978L498.992 451.468L487.876 452.113Z" fill="black"/>
<path opacity="0.2" d="M569.567 438.015L558.788 442.154L563.572 455.218L574.338 451.079L569.567 438.015Z" fill="black"/>
<path d="M507.352 242.74C507.352 242.74 480.068 303.517 478.898 354.12C478.119 388.016 483.952 458.296 483.952 458.296L503.535 462.422C503.535 462.422 504.583 390.409 507.083 362.601C511.37 315.008 541.866 241.517 541.866 241.517L507.352 242.74Z" fill="#407BFF"/>
<path opacity="0.4" d="M507.352 242.74C507.352 242.74 480.068 303.517 478.898 354.12C478.119 388.016 483.952 458.296 483.952 458.296L503.535 462.422C503.535 462.422 504.583 390.409 507.083 362.601C511.37 315.008 541.866 241.517 541.866 241.517L507.352 242.74Z" fill="white"/>
<path opacity="0.2" d="M524.071 265.226L527.727 279.15C521.694 296.461 516.531 314.063 512.257 331.89C508.01 305.412 518.991 277.107 524.071 265.226Z" fill="black"/>
<path d="M480.296 461.454L505.161 463.363L505.51 453.901L479.369 452.826L480.296 461.454Z" fill="#407BFF"/>
<path d="M517.647 242.484C517.647 242.484 512.082 311.595 522.297 355.827C530.549 391.551 560.105 449.788 560.105 449.788L573.545 441.2C573.545 441.2 563.008 395.731 556.274 371.7C539.756 312.75 569.513 279.176 554.392 241.006L517.647 242.484Z" fill="#407BFF"/>
<path opacity="0.4" d="M517.647 242.484C517.647 242.484 512.082 311.595 522.297 355.827C530.549 391.551 560.105 449.788 560.105 449.788L573.545 441.2C573.545 441.2 563.008 395.731 556.274 371.7C539.756 312.75 569.513 279.176 554.392 241.006L517.647 242.484Z" fill="white"/>
<path d="M557.511 452.127L576.368 445.339L574.714 437.463L553.774 445.716L557.511 452.127Z" fill="#407BFF"/>
<path d="M486.922 476.481C486.871 476.348 486.813 476.218 486.747 476.091C486.196 474.935 484.476 471.683 482.272 472.355C481.627 472.543 481.465 472.906 481.479 473.175C481.479 473.941 482.823 474.976 484.167 475.742C484.722 476.051 485.297 476.325 485.887 476.562L486.25 476.682L486.573 476.777H486.68L486.841 476.696C486.87 476.668 486.892 476.635 486.906 476.597C486.92 476.56 486.925 476.52 486.922 476.481ZM481.949 473.161C481.949 473.161 481.949 472.933 482.379 472.812H482.581C484.288 472.556 485.739 475.217 486.264 476.279C484.516 475.634 481.976 474.035 481.949 473.161V473.161Z" fill="#407BFF"/>
<path d="M526.571 134.827L524.38 134.075C524.38 134.075 525.402 135.862 526.571 134.827Z" fill="#263238"/>
<path d="M97.6901 48.2312L98.5772 58.3787H74.9491L77.0189 82.0068H66.8714L63.9146 48.2312H97.6901Z" fill="#407BFF"/>
<path d="M128.348 406.631L127.461 396.484H103.833L101.763 372.842H91.6152L94.5721 406.631H128.348Z" fill="#407BFF"/>
<path d="M333.837 406.631L332.95 396.484H356.578L354.508 372.856H364.655L367.612 406.631H333.837Z" fill="#407BFF"/>
<path d="M301.822 49.051L302.709 59.1985H326.351L328.421 82.84H338.555L335.611 49.051H301.822Z" fill="#407BFF"/>
<path d="M255.937 81.5766L259.27 82.1815L256.515 80.0579C255.789 79.4934 255.036 78.9289 254.297 78.3913L254.122 78.2569H253.907C236.878 74.8565 216.153 68.9024 192.297 60.3409L192.095 60.2603H191.88C191.087 60.3678 190.294 60.5022 189.514 60.65L186.531 61.228L189.514 62.3166C215.508 71.7786 237.859 78.23 255.937 81.5766Z" fill="#407BFF"/>
<path d="M268.208 92.4231L270.896 93.0548L268.906 90.985C268.396 90.4474 267.872 89.9367 267.334 89.4125L267.146 89.2377H266.89C243.128 83.5928 213.048 75.3136 177.526 64.6554L177.203 64.5613L176.921 64.6822L175.375 65.4215L173.453 66.3757L175.63 67.0343C212.753 78.1495 243.894 86.711 268.208 92.4231Z" fill="#407BFF"/>
<path d="M279.498 105.339L282.186 106.28L280.452 104.035C280.197 103.699 279.928 103.377 279.672 103.054L279.323 102.624V102.288L278.732 102.073C258.181 94.8154 222.013 83.5927 166.357 71.2948L165.981 71.2141L165.685 71.4292C165.282 71.7248 164.878 72.0071 164.475 72.3297L163.037 73.4586L164.932 73.8753C221.865 86.442 258.692 97.9201 279.498 105.339Z" fill="#407BFF"/>
<path d="M289.9 120.312L292.588 121.656L290.962 119.102L289.793 117.261L289.645 117.032L289.403 116.925C264.659 104.452 221.556 87.8399 156.706 79.4531H156.303L156.034 79.7219L154.986 80.7703L153.803 82.0202L155.618 82.2487C221.677 90.6489 265.103 107.584 289.9 120.312Z" fill="#407BFF"/>
<path d="M272.428 121.091C281.629 125.619 290.515 130.761 299.026 136.481L301.714 138.255L300.303 135.446C300.021 134.881 299.725 134.344 299.443 133.792L299.308 133.551V133.268L298.919 133.013C290.808 127.674 282.374 122.845 273.664 118.551C248.128 105.89 205.629 90.4608 148.32 88.7808H147.903L147.661 89.0899L146.774 90.2054L145.618 91.5495H147.513C204.635 93.122 246.972 108.457 272.428 121.091Z" fill="#407BFF"/>
<path d="M153.185 115.352L154.045 115.433V112.557L153.172 112.476C146.188 111.923 139.161 112.564 132.393 114.371L132.043 114.465L131.896 114.801C131.681 115.258 131.479 115.715 131.277 116.145L130.538 117.906L132.393 117.368C139.148 115.462 146.19 114.779 153.185 115.352Z" fill="#407BFF"/>
<path d="M273.382 130.526C285.141 137.056 296.311 144.593 306.768 153.052L309.227 155.095L308.031 152.152C307.736 151.413 307.413 150.687 307.09 149.974L306.996 149.759L306.808 149.598C259.842 112.265 200.45 94.1633 140.645 98.9549H140.242L140.04 99.2775C139.785 99.6673 139.543 100.07 139.301 100.474L140.027 101.011L139.274 100.527L138.36 102.033L140.175 101.885C186.438 97.9652 232.819 107.938 273.382 130.526Z" fill="#407BFF"/>
<path d="M183.802 109.801C214.621 113.202 261.756 125.311 311.096 163.684L313.394 165.471L312.399 162.783C312.225 162.299 312.036 161.815 311.848 161.318L311.687 160.901V160.606L311.351 160.35C261.837 122.355 214.688 110.325 183.842 106.925C167.954 105.135 151.911 105.19 136.035 107.086H135.632L133.992 110.245L135.753 110.016C151.705 108.052 167.833 107.98 183.802 109.801V109.801Z" fill="#407BFF"/>
<path d="M127.702 221.262L125.014 220.133L124.732 220.913C120.673 234.045 117.949 247.554 116.601 261.234V261.368V261.502C116.856 262.712 117.138 263.922 117.434 265.131L118.697 270.373L119.141 265.145C120.331 250.516 123.12 236.062 127.46 222.042L127.702 221.262Z" fill="#407BFF"/>
<path d="M123.186 172.5V171.627L120.283 171.452V172.326C120.78 190.457 118.711 212.472 113.563 243.721V243.976C113.724 245.32 113.912 246.664 114.114 247.928L114.934 253.398L115.821 248.022C121.426 214.77 123.751 191.465 123.186 172.5Z" fill="#407BFF"/>
<path d="M131.076 212.109L134.799 200.443L132.016 199.368L128.32 211.034L131.076 212.109Z" fill="#407BFF"/>
<path d="M123.643 164.907C124.422 159.355 126.918 154.186 130.78 150.122L131.412 149.544L129.315 147.434L128.724 147.985C124.389 152.446 121.6 158.179 120.767 164.342L120.673 165.176L123.549 165.78L123.643 164.907Z" fill="#407BFF"/>
<path d="M124.786 188.642L127.689 188.992V188.132C127.958 180.296 135.753 169.315 136.143 168.885L136.627 168.213L134.248 166.412L133.75 167.071C133.428 167.595 125.095 178.831 124.813 187.755L124.786 188.642Z" fill="#407BFF"/>
<path d="M141.707 174.826L142.325 174.234L140.121 172.111L139.543 172.729C138.508 173.845 129.288 184.167 124.396 205.308L124.208 206.128L127.043 207.002L127.232 206.182C132.178 184.799 141.626 174.92 141.707 174.826Z" fill="#407BFF"/>
<path d="M143.374 185.78L140.874 184.113L134.557 194.395L137.07 196.062L143.374 185.78Z" fill="#407BFF"/>
<path d="M144.987 150.378L145.78 150.136L144.704 147.367L143.898 147.623C143.28 147.824 128.818 152.555 124.813 167.501L124.598 168.321L127.393 169.275L127.608 168.469C131.264 154.867 144.422 150.566 144.987 150.378Z" fill="#407BFF"/>
<path d="M149.287 131.481L150.147 131.36L149.462 128.51L148.629 128.631C134.933 130.62 127.124 135.553 123.011 139.383L122.729 139.666V139.908L121.062 145.848L123.616 143.08C126.707 139.679 134.221 133.671 149.287 131.481Z" fill="#407BFF"/>
<path d="M187.874 120.554C218.613 121.75 265.654 132.233 315.275 175.404L317.601 177.42L316.633 174.557C316.404 173.898 316.189 173.213 315.947 172.595V172.312L315.638 172.057C265.775 129.25 218.532 118.86 187.686 117.677C156.061 116.454 133.549 124.263 127.406 126.682L127.097 126.803L126.976 127.113C126.815 127.516 126.667 127.932 126.533 128.336L125.74 130.567L127.635 129.787C131.815 127.946 154.663 119.21 187.874 120.554Z" fill="#407BFF"/>
<path d="M191.53 128.268C156.411 129.612 132.756 143.832 131.748 144.397L131.022 144.827L132.729 147.3L133.441 146.87C134.409 146.278 157.553 132.368 191.934 131.091C222.43 129.935 269.242 138.711 319.025 187.07L321.31 189.287L320.437 186.29C320.222 185.565 319.993 184.839 319.765 184.126L319.697 183.884L319.509 183.71C269.417 135.808 222.268 127.126 191.53 128.268Z" fill="#407BFF"/>
<path d="M256.555 147.596C237.231 139.547 216.172 136.567 195.374 138.94C160.564 143.066 137.796 161.533 137.581 161.721L136.962 162.246L138.898 164.517L139.53 163.993C156.128 151.874 175.57 144.236 195.979 141.816C226.139 138.228 272.589 145.257 322.318 198.978L324.616 201.451L323.77 198.266C323.555 197.486 323.353 196.72 323.138 195.954V195.725L322.977 195.564C301.741 172.971 279.39 156.843 256.555 147.596Z" fill="#407BFF"/>
<path d="M228.585 147.972C178.856 143.456 143.911 178.589 143.535 178.885L142.943 179.476L145.121 181.559L145.699 180.981C146.035 180.632 180.2 146.372 228.572 150.781C261.958 153.818 294.524 174.006 325.342 210.779L327.681 213.561L326.834 210.12C326.646 209.34 326.458 208.588 326.283 207.808V207.566L326.095 207.338C295.034 171.049 262.186 151.05 228.585 147.972Z" fill="#407BFF"/>
<path d="M145.255 202.123C169.233 167.729 217.578 145.163 271.594 172.286C299.671 186.384 311.418 203.131 325.02 222.512C326.31 224.349 327.627 226.213 328.971 228.103L331.175 231.195L330.517 227.566C330.356 226.692 330.208 225.832 330.046 225.052V224.797L329.899 224.595C329.038 223.386 328.192 222.19 327.358 220.98C313.488 201.249 301.513 184.207 272.737 169.732C217.215 141.83 167.512 165.001 142.876 200.336C120.377 232.592 121.976 269.755 124.947 289.042V289.23C125.646 291.071 126.291 292.913 127.07 294.714L128.724 294.364C122.071 260.333 128.105 226.732 145.255 202.123Z" fill="#407BFF"/>
<path d="M263.046 294.512C257.953 281.394 255.533 280.01 253.638 280.467C248.934 281.596 253.289 298.705 253.329 298.88C255.748 308.14 294.026 329.39 310.37 338.086L311.109 338.489L312.453 336.043L311.62 335.599C285.895 321.876 257.858 304.888 256.111 298.383C254.203 291.071 254.149 285.332 254.552 283.598C255.291 284.418 257.092 287.066 260.291 295.305C267.912 314.941 297.292 326.366 314.133 331.419L314.792 331.621L315.101 331.043L315.652 329.954L316.109 329.013L315.047 328.691C298.69 323.731 270.089 312.656 263.046 294.512Z" fill="#407BFF"/>
<path d="M266.958 289.902C261.797 277.994 257.738 272.766 253.813 273.021C249.888 273.276 247.093 279.042 245.157 291.945C242.469 309.256 291.379 336.661 306.432 344.658L307.104 345.021L307.507 344.429C307.736 344.107 307.937 343.771 308.139 343.448L308.623 342.669L307.749 342.198C277.656 326.191 246.165 304.686 248.02 292.59C250.318 277.644 253.114 275.911 254.27 275.857C255.103 275.857 258.302 276.932 264.31 290.789C270.318 304.646 287.884 316.904 316.472 326.688L317.198 326.944L317.48 326.285C317.56 326.11 317.641 325.949 317.708 325.788C317.776 325.626 317.883 325.438 317.964 325.25L318.353 324.363L317.372 324.04C289.967 314.699 272.535 302.885 266.958 289.902Z" fill="#407BFF"/>
<path d="M270.869 285.265C264.35 271.61 258.343 264.943 252.429 264.889C246.515 264.836 241.515 271.61 237.013 285.359C228.841 310.331 284.739 341.943 302.064 351.029L302.723 351.378L304.389 349.093L303.435 348.596C291.473 342.279 232.201 309.619 239.768 286.461C243.8 274.231 248.235 267.766 252.724 267.766C257.214 267.766 262.496 274.244 268.262 286.327C274.659 299.767 291.11 311.366 318.542 321.93L319.254 322.213L319.577 321.567C319.753 321.209 319.91 320.841 320.047 320.465L320.37 319.632L319.483 319.296C292.777 309.014 276.877 297.872 270.869 285.265Z" fill="#407BFF"/>
<path d="M274.766 280.655C266.38 264.728 258.141 256.462 250.278 256.301C242.415 256.14 235.306 263.693 228.854 278.894C222.403 294.095 232.712 312.643 258.557 332.656C270.782 341.884 283.742 350.096 297.306 357.211L297.938 357.534L298.341 357.037L299.08 356.149L299.725 355.33L298.731 354.819C285.223 347.763 218.519 311.044 231.529 280.238C237.496 266.113 243.854 259.043 250.439 259.218C257.025 259.392 264.431 267.053 272.226 281.838C281.097 298.679 304.013 310.062 320.49 317.119L321.297 317.468L321.727 316.353C321.808 316.111 321.902 315.882 321.982 315.64L322.265 314.861L321.445 314.511C305.424 307.589 283.167 296.622 274.766 280.655Z" fill="#407BFF"/>
<path d="M278.664 276.031C267.697 257.094 257.509 247.807 247.509 247.43C237.832 247.148 228.841 255.575 220.629 272.483C216.597 280.924 216.341 290.077 220.037 299.66C231.959 330.64 282.132 357.95 292.064 363.111L292.656 363.407L293.072 362.977L293.865 362.117L294.604 361.297L293.543 360.746C283.745 355.679 234.298 328.879 222.725 298.826C219.338 290.036 219.513 281.65 223.263 273.908C230.83 258.25 238.908 250.32 247.294 250.32H247.63C256.461 250.589 265.788 259.406 276.151 277.295C285.236 292.993 305.545 304.176 322.224 312.159L323.058 312.549L323.367 311.742C323.501 311.393 323.622 311.03 323.743 310.667L323.998 309.915L323.232 309.552C307.023 301.756 287.266 290.91 278.664 276.031Z" fill="#407BFF"/>
<path d="M282.562 271.408C272.939 256.301 259.861 238.829 244.351 238.398H243.881C232.698 238.398 222.134 247.713 212.484 266.099C206.866 276.851 206.248 288.262 210.643 300.117C223.438 334.685 276.003 363.38 286.406 368.783L286.957 369.065L287.374 368.689C287.669 368.42 287.965 368.152 288.247 367.869L289.108 367.049L287.965 366.458C277.697 361.136 225.898 333.113 213.344 299.31C209.312 288.262 209.836 277.59 215.092 267.591C224.379 249.863 234.284 240.966 244.553 241.261C258.558 241.597 270.936 258.277 280.156 272.779C289.565 287.563 307.534 298.396 323.918 307.092L324.805 307.562L325.101 306.675C325.222 306.299 325.329 305.923 325.437 305.56L325.612 304.874L324.953 304.511C308.986 296.017 291.473 285.426 282.562 271.408Z" fill="#407BFF"/>
<path d="M286.446 266.758L286.218 266.435C276.581 252.605 260.453 229.447 240.87 229.219H240.601C227.712 229.219 215.495 239.474 204.312 259.701C200.755 265.855 198.617 272.724 198.052 279.809C197.487 286.893 198.51 294.015 201.046 300.654C214.191 337.293 264.901 366.176 280.129 374.159L280.64 374.428L281.151 374.025C281.446 373.797 281.742 373.568 282.024 373.326L282.979 372.506L281.782 371.888C271.03 366.31 216.946 336.661 203.748 299.902C201.366 293.638 200.409 286.922 200.949 280.243C201.488 273.563 203.51 267.088 206.866 261.287C217.618 241.799 229.177 231.974 241.098 232.135C259.108 232.35 274.632 254.661 283.892 267.981L284.121 268.303C293.879 282.322 311.324 293.652 325.423 301.904L326.364 302.469L327.144 299.7L326.512 299.337C312.789 291.246 295.787 280.238 286.446 266.758Z" fill="#407BFF"/>
<path d="M290.411 262.161C289.927 261.529 289.416 260.817 288.892 260.132L287.615 258.452C276.863 244.111 259.001 220.106 237.402 220.052C222.819 220.052 208.962 231.248 196.181 253.331C187.283 268.733 185.711 284.875 191.503 301.313C205.266 340.411 257.522 370.759 273.207 379.132L273.678 379.374L276.366 377.614L275.022 376.915C259.485 368.716 207.82 338.973 194.259 300.587C188.762 284.969 190.227 269.674 198.748 254.89C211.019 233.654 224.123 222.902 237.725 222.902C257.711 222.902 275.022 246.14 285.371 259.997C286.365 261.341 287.306 262.591 288.18 263.734C298.408 277.174 314.227 288.303 326.861 296.501L327.856 297.146L328.138 296.071L328.42 294.915L328.541 294.31L327.99 293.948C315.638 286.004 300.263 275.118 290.411 262.161Z" fill="#407BFF"/>
<path d="M299.376 259.285C273.691 220.872 250.762 212.66 236.031 212.539C218.559 212.472 203.344 223.292 193.022 243.318C180.926 266.919 179.286 290.09 188.291 312.173C203.869 350.343 247.093 374.993 264.901 383.81L265.291 383.998L265.654 383.837C266.097 383.635 266.527 383.406 266.998 383.178L268.436 382.412L266.863 381.632C253.047 374.912 206.745 349.927 190.979 311.286C182.297 290.036 183.869 267.658 195.63 244.796C205.374 225.859 219.688 215.429 235.951 215.429H236.246C250.224 215.537 272.092 223.493 297.01 260.736C304.644 272.161 318.3 282.496 328.407 289.149L329.455 289.835L329.71 288.571C329.791 288.209 329.858 287.846 329.926 287.496L330.033 286.918L329.509 286.569C319.792 280.131 306.66 270.158 299.376 259.285Z" fill="#407BFF"/>
<path d="M302.884 253.129C292.32 237.485 282.078 226.41 270.627 218.278C255.224 207.324 239.432 202.956 224.93 205.618C209.178 208.534 195.361 219.743 185.845 237.175C164.892 275.722 175.711 307.993 188.533 328.261C208.304 359.94 244.539 379.495 259.203 386.43L259.566 386.592L259.902 386.457C260.385 386.269 260.842 386.081 261.246 385.866L262.926 385.113L261.152 384.293C246.569 377.573 210.522 358.354 190.872 326.903C178.534 307.307 168.023 276.099 188.399 238.708C197.498 221.961 210.737 211.222 225.682 208.453C239.338 205.927 254.337 210.12 269.041 220.55C280.129 228.426 290.115 239.232 300.465 254.554C306.432 263.398 316.176 272.873 329.428 282.779L330.517 283.585L330.759 282.335C330.853 281.918 330.92 281.502 330.974 281.072L331.055 280.534L330.598 280.198C317.924 270.669 308.569 261.57 302.884 253.129Z" fill="#407BFF"/>
<path d="M306.392 246.987C294.631 229.716 284.027 218.762 270.963 210.174C254.068 199.139 236.798 194.946 220.992 198.078C203.936 201.424 188.923 213.131 178.708 231.02C161.236 261.57 161.585 296.689 179.528 327.387C199.407 361.378 237.322 381.579 252.63 388.688L252.939 388.823L253.235 388.742C253.746 388.608 254.243 388.447 254.74 388.285L256.931 387.573L254.848 386.632C239.526 379.683 201.759 359.872 182.015 326.151C171.787 308.678 158.091 273.249 181.262 232.646C191.1 215.416 205.455 204.153 221.785 200.94C236.838 197.97 253.343 202.002 269.525 212.58C282.226 220.886 292.548 231.625 304.04 248.492C309.846 257.027 318.716 266.247 330.41 275.924L331.579 276.892L331.78 275.467C331.848 275.023 331.901 274.58 331.942 274.123V273.653L331.552 273.33C320.437 264.002 311.916 255.145 306.392 246.987Z" fill="#407BFF"/>
<path d="M309.9 240.831C300.558 227.23 289.403 213.117 271.285 202.069C224.701 173.656 188.439 196.599 171.545 224.918C153.024 255.911 152.728 293.894 170.55 326.54C189.447 361.055 225.212 381.404 244.848 390.476L245.104 390.597H245.372C246.018 390.489 246.716 390.382 247.308 390.247L249.875 389.75L247.375 388.621C227.698 379.737 191.866 359.724 173.063 325.452C155.672 293.732 156.048 256.798 174.058 226.665C190.307 199.448 225.131 177.339 269.941 204.636C287.508 215.389 298.408 229.151 307.574 242.457C314.405 251.96 322.286 260.662 331.068 268.397L332.345 269.567L332.493 267.94C332.493 267.47 332.56 267 332.587 266.596L331.727 266.448L332.587 266.569V266.139L332.251 265.83C323.9 258.348 316.404 249.964 309.9 240.831Z" fill="#407BFF"/>
<path d="M313.407 234.676C301.849 218.023 290.33 204.731 271.621 193.992C250.117 181.586 228.061 178.186 207.995 184.153C190.522 189.382 174.999 201.626 164.354 218.749C144.489 250.589 143.454 290.547 161.558 325.626C179.824 361.015 215.32 381.915 234.943 391.229L235.131 391.309H235.306C236.166 391.309 237.013 391.309 237.873 391.309L241.233 391.121L238.061 389.67C218.29 380.557 182.391 360.007 164.139 324.551C146.519 290.399 147.54 251.49 166.827 220.469C184.488 192.124 222.201 168.845 270.318 196.505C288.502 206.962 299.752 219.945 311.028 236.221C317.111 244.853 323.924 252.947 331.391 260.414L332.735 261.852V259.944C332.735 259.419 332.735 258.909 332.735 258.384V258.008L332.466 257.739C325.491 250.588 319.116 242.874 313.407 234.676V234.676Z" fill="#407BFF"/>
<path d="M316.915 228.533C306.58 213.749 294.591 198.252 271.971 185.901C248.867 173.28 225.239 170.081 203.653 176.667C185.039 182.339 168.534 195.107 157.177 212.607C132.218 251.086 138.441 295.775 152.58 324.766C168.709 357.682 198.627 378.38 220.965 389.952L221.18 390.059H221.314C222.457 390.274 223.639 390.449 224.835 390.597L229.714 391.215L225.198 388.971C202.215 377.587 171.437 357.01 155.174 323.691C141.371 295.466 135.296 251.839 159.65 214.327C180.308 182.473 222.672 162.111 270.748 188.387C292.79 200.483 304.483 215.563 314.577 230.052C319.751 237.459 325.352 244.558 331.35 251.315L332.909 253.075L332.842 250.602C332.842 250.092 332.842 249.581 332.842 249.03V248.721L332.627 248.479C327.031 242.121 321.786 235.463 316.915 228.533Z" fill="#407BFF"/>
<path d="M331.982 238.304V238.049L331.821 237.834C327.466 232.27 323.636 226.894 320.45 222.378C309.053 206.249 296.795 190.591 272.334 177.823C219.701 150.297 172.983 172.379 150.027 206.478C123.428 245.992 129.947 294.431 143.629 323.892C153.266 344.779 169.314 363.179 191.221 378.501L191.463 378.675C194.659 380.588 197.967 382.307 201.369 383.823L202.068 382.318C175.805 366.189 157.016 346.217 146.237 322.884C132.877 294.109 126.493 246.812 152.473 208.225C174.757 175.108 220.105 153.644 271.178 180.336C294.967 192.782 306.97 208.037 318.139 223.883C321.378 228.506 325.746 234.635 330.692 240.858L332.453 243.103L332.211 240.414C332.121 239.698 332.045 238.994 331.982 238.304Z" fill="#407BFF"/>
<path d="M214.54 60.435C212.692 60.2567 210.829 60.2928 208.989 60.5425C220.113 64.4659 231.431 67.8125 242.899 70.569C237.375 66.5503 221.341 61.0129 214.54 60.435Z" fill="#407BFF"/>
</svg>
