<svg width="280" height="280" viewBox="0 0 280 280" fill="none" xmlns="http://www.w3.org/2000/svg">
<g opacity="0.9">
<path opacity="0.9" d="M34.3169 137.407C15.0193 87.5673 77.7449 58.7441 113.926 64.2545C128.296 66.4441 134.086 70.9745 148.282 65.6209C158.603 61.7009 163.856 49.6329 175.258 46.9673C200.256 41.1209 226.638 64.2769 232.641 85.4673C238.874 107.453 232.837 130.2 213.248 138.186C198.912 144.027 184.29 136.534 175.907 140.14C158.67 147.549 159.432 159.286 149.251 171.791C111.877 217.683 51.8449 182.683 34.3169 137.407Z" fill="#176DE4"/>
</g>
<g opacity="0.9">
<path opacity="0.9" d="M34.3169 137.407C15.0193 87.5673 77.7449 58.7441 113.926 64.2545C128.296 66.4441 134.086 70.9745 148.282 65.6209C158.603 61.7009 163.856 49.6329 175.258 46.9673C200.256 41.1209 226.638 64.2769 232.641 85.4673C238.874 107.453 232.837 130.2 213.248 138.186C198.912 144.027 184.29 136.534 175.907 140.14C158.67 147.549 159.432 159.286 149.251 171.791C111.877 217.683 51.8449 182.683 34.3169 137.407Z" fill="white"/>
</g>
<path d="M140 239.434C199.966 239.434 248.579 236.595 248.579 233.094C248.579 229.593 199.966 226.755 140 226.755C80.0341 226.755 31.4219 229.593 31.4219 233.094C31.4219 236.595 80.0341 239.434 140 239.434Z" fill="#F5F5F5"/>
<path d="M217.179 147.963H61.9024C61.4083 147.962 60.9348 147.765 60.5854 147.415C60.236 147.066 60.0391 146.592 60.0376 146.098C60.0391 145.604 60.236 145.131 60.5854 144.781C60.9348 144.432 61.4083 144.235 61.9024 144.234H217.179C217.673 144.235 218.147 144.432 218.496 144.781C218.846 145.131 219.043 145.604 219.044 146.098C219.043 146.592 218.846 147.066 218.496 147.415C218.147 147.765 217.673 147.962 217.179 147.963Z" fill="#176DE4"/>
<path opacity="0.3" d="M217.179 147.963H180.829C180.335 147.962 179.862 147.765 179.512 147.415C179.163 147.066 178.966 146.592 178.964 146.098C178.966 145.604 179.163 145.131 179.512 144.781C179.862 144.432 180.335 144.235 180.829 144.234H217.179C217.673 144.235 218.146 144.432 218.496 144.781C218.845 145.131 219.042 145.604 219.044 146.098C219.042 146.592 218.845 147.066 218.496 147.415C218.146 147.765 217.673 147.962 217.179 147.963Z" fill="#263238"/>
<path d="M213.236 152.639H93.8164V165.637H213.236V152.639Z" fill="#263238"/>
<path opacity="0.1" d="M213.236 152.639H93.8164V165.637H213.236V152.639Z" fill="white"/>
<path d="M211.501 230.507H215.074L214.928 147.963H209.978L211.501 230.507Z" fill="#263238"/>
<path opacity="0.1" d="M211.501 230.507H215.074L214.928 147.963H209.978L211.501 230.507Z" fill="white"/>
<path d="M178.573 230.507H174.994L183.081 147.963H188.031L178.573 230.507Z" fill="#263238"/>
<path opacity="0.2" d="M178.573 230.507H174.994L183.081 147.963H188.031L178.573 230.507Z" fill="white"/>
<path d="M92.573 230.507H96.1458L96.0002 147.963H91.0498L92.573 230.507Z" fill="#263238"/>
<path opacity="0.1" d="M92.573 230.507H96.1458L96.0002 147.963H91.0498L92.573 230.507Z" fill="white"/>
<path d="M59.6453 230.507H56.0669L64.1533 147.963H69.1037L59.6453 230.507Z" fill="#263238"/>
<path opacity="0.2" d="M59.6453 230.507H56.0669L64.1533 147.963H69.1037L59.6453 230.507Z" fill="white"/>
<path d="M160.221 144.233H151.978L148.68 128.117H156.923L160.221 144.233Z" fill="#263238"/>
<path d="M171.158 140.913H135.396C135.118 140.916 134.842 140.861 134.586 140.752C134.331 140.643 134.1 140.482 133.91 140.28C133.719 140.077 133.573 139.837 133.48 139.575C133.387 139.313 133.349 139.034 133.369 138.757L134.735 116.116C134.777 115.536 135.035 114.993 135.458 114.593C135.881 114.194 136.439 113.968 137.02 113.96H172.787C173.065 113.958 173.341 114.013 173.596 114.122C173.852 114.231 174.082 114.392 174.272 114.595C174.463 114.797 174.609 115.037 174.702 115.299C174.796 115.56 174.834 115.839 174.815 116.116L173.448 138.757C173.405 139.337 173.146 139.881 172.722 140.28C172.298 140.679 171.74 140.905 171.158 140.913Z" fill="#263238"/>
<path d="M170.598 140.913H134.836C134.558 140.916 134.282 140.861 134.026 140.752C133.771 140.643 133.54 140.482 133.349 140.28C133.159 140.077 133.013 139.837 132.919 139.575C132.826 139.313 132.789 139.034 132.809 138.757L134.175 116.116C134.217 115.536 134.475 114.993 134.898 114.593C135.321 114.194 135.879 113.968 136.46 113.96H172.227C172.505 113.958 172.781 114.013 173.036 114.122C173.292 114.231 173.522 114.392 173.712 114.595C173.903 114.797 174.049 115.037 174.142 115.299C174.236 115.56 174.274 115.839 174.255 116.116L172.888 138.757C172.845 139.337 172.586 139.881 172.162 140.28C171.738 140.679 171.18 140.905 170.598 140.913Z" fill="#176DE4"/>
<path d="M134.831 139.793C134.707 139.793 134.584 139.769 134.469 139.721C134.355 139.673 134.251 139.602 134.165 139.513C134.08 139.42 134.016 139.311 133.974 139.193C133.933 139.074 133.916 138.949 133.924 138.824L135.29 116.183C135.311 115.884 135.442 115.604 135.659 115.397C135.875 115.19 136.161 115.071 136.461 115.063H172.228C172.353 115.061 172.477 115.085 172.592 115.134C172.707 115.183 172.811 115.255 172.896 115.346C172.981 115.438 173.047 115.546 173.088 115.664C173.129 115.782 173.145 115.907 173.135 116.032L171.769 138.673C171.749 138.972 171.618 139.253 171.401 139.46C171.185 139.668 170.898 139.786 170.598 139.793H134.831Z" fill="white"/>
<path opacity="0.2" d="M150.539 113.96L152.863 121.918L159.762 113.96H150.539Z" fill="black"/>
<path d="M94.9482 94.64C95.0042 95.0712 95.273 95.396 95.5586 95.3736C95.8442 95.3512 96.0234 94.9816 95.9674 94.5504C95.9114 94.1192 95.6426 93.7944 95.3626 93.8168C95.0826 93.8392 94.8978 94.22 94.9482 94.64Z" fill="#263238"/>
<path d="M95.4185 95.2841C95.9227 96.4019 96.5744 97.4472 97.356 98.392C96.7401 99.0136 95.6145 98.7616 95.6145 98.7616L95.4185 95.2841Z" fill="#A02724"/>
<path d="M93.5204 92.9993C93.4778 93.0072 93.4342 93.0072 93.3916 92.9993C93.3295 92.9722 93.2802 92.922 93.2541 92.8594C93.228 92.7968 93.2271 92.7266 93.2516 92.6633C93.3971 92.2903 93.6312 91.9583 93.9336 91.6959C94.2361 91.4334 94.5978 91.2485 94.9876 91.1569C95.0203 91.1513 95.0538 91.1522 95.0862 91.1596C95.1186 91.167 95.1492 91.1807 95.1763 91.2C95.2033 91.2192 95.2263 91.2437 95.2439 91.2718C95.2615 91.3 95.2733 91.3314 95.2788 91.3641C95.2902 91.4309 95.2749 91.4995 95.2361 91.5551C95.1973 91.6106 95.1382 91.6487 95.0716 91.6609C94.7663 91.7348 94.4839 91.8827 94.2495 92.0918C94.015 92.3008 93.8358 92.5645 93.7276 92.8593C93.707 92.8977 93.6773 92.9305 93.6412 92.9549C93.6052 92.9793 93.5637 92.9945 93.5204 92.9993Z" fill="#263238"/>
<path d="M82.2585 101.399L85.6186 103.975L90.205 107.486C89.9535 108.014 89.8016 108.584 89.757 109.166C89.5946 110.454 89.4322 111.406 92.2938 112.196C92.5977 112.269 92.8744 112.427 93.0908 112.652C93.3073 112.878 93.4544 113.161 93.5146 113.467C93.6266 114.229 93.1618 115.147 90.5186 115.601C87.9584 115.983 85.343 115.538 83.0537 114.33C81.9337 113.77 81.9337 113.098 82.4041 111.961C83.8153 108.73 83.1322 104.608 82.2585 101.399Z" fill="#B55B52"/>
<path d="M78.3999 112.98C79.0451 111.738 79.5774 110.442 79.9903 109.105C79.9903 109.105 88.5023 108.64 91.3135 109.48C94.1247 110.32 95.8719 113.96 95.8719 113.96L78.3999 112.98Z" fill="#176DE4"/>
<path d="M81.9615 119.314C81.7543 119.941 81.5247 120.708 81.3063 121.414L80.6735 123.598C80.2815 125.054 79.9007 126.515 79.6039 127.971C79.288 129.395 79.0468 130.834 78.8816 132.283C78.7089 133.614 78.6676 134.959 78.7583 136.298C78.7914 136.865 78.8776 137.428 79.016 137.978C79.0496 138.09 79.0775 138.214 79.1167 138.32L79.2287 138.622C79.2022 138.568 79.1723 138.516 79.1392 138.466C79.082 138.384 79.0203 138.305 78.9544 138.23C78.8822 138.144 78.7994 138.067 78.708 138.001C78.596 137.922 78.5792 137.934 78.6016 137.962C78.7656 138.08 78.9421 138.179 79.128 138.258C79.38 138.37 79.688 138.482 79.996 138.589C80.6288 138.802 81.3288 138.998 82.0512 139.188C84.9407 139.916 88.0935 140.482 91.1679 141.137L91.0671 145.018C89.4249 145.237 87.7727 145.373 86.1167 145.426C84.4364 145.487 82.7541 145.459 81.0767 145.342C80.1885 145.283 79.3042 145.175 78.428 145.018C77.9688 144.934 77.4927 144.838 76.9887 144.698C76.4091 144.549 75.8462 144.341 75.3087 144.077C74.9109 143.885 74.5353 143.65 74.1888 143.377C73.9434 143.182 73.7166 142.964 73.5112 142.727C73.3828 142.575 73.2631 142.417 73.1528 142.251C73.0968 142.156 73.0352 142.061 72.9848 141.966L72.912 141.831L72.5256 141.042C72.408 140.778 72.3128 140.521 72.212 140.258C71.8586 139.277 71.6035 138.264 71.4504 137.234C70.8904 133.342 71.3328 129.87 71.9152 126.493C72.2288 124.813 72.5984 123.133 73.0352 121.537C73.2592 120.725 73.4944 119.913 73.7464 119.112C73.9984 118.311 74.2672 117.538 74.592 116.659L81.9615 119.314Z" fill="#B55B52"/>
<path d="M76.7817 112.286C82.0737 110.886 85.2153 115.22 83.4233 122.366C81.6313 129.511 81.0321 129.78 81.0321 129.78L70.1177 127.96C71.4617 120.96 71.3553 113.714 76.7817 112.286Z" fill="#176DE4"/>
<path d="M93.8784 139.586L93.0552 139.513C90.7144 139.513 90.3112 140.151 88.872 141.49L88.312 144.435C92.092 146.367 94.1192 144.245 94.1248 144.245H97.6248L96.3928 141.445C96.1778 140.939 95.8313 140.499 95.3891 140.172C94.947 139.846 94.4253 139.643 93.8784 139.586Z" fill="#B55B52"/>
<path d="M80.8136 95.8271C81.7656 100.929 82.0624 103.964 84.9856 106.243C89.376 109.665 95.424 106.411 96.0176 101.102C96.5496 96.3255 94.8976 88.7823 89.6224 87.4439C88.4459 87.1534 87.2152 87.1639 86.0439 87.4746C84.8725 87.7852 83.7984 88.386 82.9205 89.2214C82.0427 90.0569 81.3895 91.1 81.0213 92.2545C80.653 93.409 80.5816 94.6377 80.8136 95.8271Z" fill="#B55B52"/>
<path d="M90.9218 97.608C94.5618 97.3168 93.4978 93.4808 92.3722 92.68C94.0802 92.0304 95.2562 89.32 93.6154 87.4608C94.5786 84.9464 91.8234 81.9168 86.9906 82.3704C83.4626 82.6952 83.0706 84.56 83.0706 84.56C83.0706 84.56 78.8426 84.1176 77.0842 87.6064C75.5834 90.5968 77.4034 92.1928 77.4034 92.1928C77.4034 92.1928 74.245 93.1112 75.1186 97.2328C76.0482 101.679 79.4642 100.649 79.4642 100.649C79.4642 100.649 78.697 104.726 83.317 104.782C87.3098 104.832 87.3602 101.842 87.3602 101.842C87.3602 101.842 92.5346 101.36 90.9218 97.608Z" fill="#263238"/>
<path d="M88.2112 97.9049C88.6193 98.9993 89.4169 99.9045 90.4512 100.447C91.784 101.13 92.8032 99.7137 92.568 98.2577C92.3552 96.9529 91.2184 95.2785 89.8128 95.2001C88.4072 95.1217 87.7128 96.5497 88.2112 97.9049Z" fill="#B55B52"/>
<path d="M142.503 224.095L147.482 222.074L143.965 210.118L138.986 212.134L142.503 224.095Z" fill="#B55B52"/>
<path opacity="0.2" d="M140.694 217.935L145.723 216.087L143.965 210.118L138.986 212.134L140.694 217.935Z" fill="black"/>
<path d="M147.05 220.08L141.355 222.057C141.307 222.072 141.263 222.096 141.224 222.128C141.186 222.159 141.154 222.199 141.131 222.243C141.107 222.287 141.093 222.335 141.088 222.385C141.083 222.435 141.089 222.485 141.103 222.533L142.391 227.136C142.474 227.373 142.647 227.568 142.872 227.679C143.097 227.79 143.357 227.808 143.595 227.73C145.561 227.002 146.356 226.61 148.787 225.557C151.179 224.556 153.519 223.435 155.798 222.197C157.696 221.077 156.554 219.167 155.63 219.481C153.44 220.22 149.851 220.702 148.03 220.075C147.712 219.967 147.367 219.969 147.05 220.08Z" fill="#263238"/>
<path d="M102.519 155.12C102.519 155.12 140.145 158.48 141.12 169.305C143.08 191.33 146.087 212.565 146.087 212.565L138.432 215.365C138.432 215.365 129.063 191.173 129.186 173.925C118.333 170.862 89.7958 175.358 85.131 166.986C81.0094 159.594 84.627 154.286 84.627 154.286L102.519 155.12Z" fill="#263238"/>
<path d="M137.861 217.106L147.392 213.886L146.978 209.546L136.231 213.007L137.861 217.106Z" fill="#176DE4"/>
<path d="M149.15 220.31C148.692 220.457 148.219 220.553 147.739 220.595C147.715 220.599 147.69 220.594 147.668 220.583C147.646 220.572 147.628 220.555 147.616 220.534C147.604 220.514 147.597 220.49 147.597 220.467C147.597 220.443 147.604 220.42 147.616 220.399C147.739 220.231 148.837 218.753 149.537 218.775C149.617 218.78 149.695 218.805 149.763 218.847C149.831 218.889 149.888 218.947 149.929 219.016C150.002 219.115 150.047 219.231 150.06 219.353C150.073 219.476 150.053 219.599 150.002 219.711C149.801 220.008 149.498 220.222 149.15 220.31ZM148.03 220.31C148.999 220.175 149.66 219.918 149.811 219.599C149.843 219.525 149.854 219.445 149.843 219.366C149.832 219.287 149.8 219.213 149.75 219.151C149.732 219.115 149.705 219.084 149.672 219.062C149.638 219.041 149.599 219.029 149.559 219.027C149.156 219.011 148.462 219.733 148.002 220.31H148.03Z" fill="#176DE4"/>
<path d="M147.767 220.59C147.747 220.595 147.725 220.595 147.705 220.59C147.685 220.586 147.665 220.578 147.649 220.565C147.632 220.552 147.619 220.536 147.61 220.517C147.61 220.455 146.966 219.038 147.302 218.366C147.345 218.28 147.408 218.206 147.485 218.147C147.561 218.089 147.65 218.049 147.745 218.03C147.848 217.996 147.959 217.998 148.061 218.035C148.163 218.073 148.249 218.144 148.305 218.238C148.613 218.753 148.226 220.069 147.829 220.545C147.813 220.566 147.792 220.581 147.767 220.59ZM147.767 218.294C147.719 218.31 147.675 218.336 147.638 218.369C147.6 218.403 147.57 218.444 147.549 218.49C147.347 218.887 147.593 219.738 147.778 220.214C148.086 219.688 148.31 218.708 148.109 218.372C148.069 218.31 148.002 218.238 147.823 218.277L147.767 218.294Z" fill="#176DE4"/>
<path d="M115.864 227.651L121.184 227.399L122.052 214.838L116.732 215.09L115.864 227.651Z" fill="#B55B52"/>
<path d="M121.308 226.492L115.282 226.302C115.232 226.298 115.182 226.304 115.134 226.32C115.086 226.335 115.042 226.36 115.004 226.393C114.966 226.426 114.935 226.466 114.913 226.511C114.89 226.556 114.877 226.604 114.873 226.654L114.431 231.409C114.426 231.535 114.447 231.661 114.491 231.779C114.536 231.898 114.603 232.006 114.689 232.098C114.776 232.19 114.879 232.264 114.995 232.316C115.11 232.368 115.234 232.396 115.36 232.4C117.46 232.428 118.463 232.338 121.112 232.4C122.741 232.45 125.95 232.691 128.184 232.4C130.419 232.109 130.077 229.919 129.103 229.835C126.801 229.65 123.716 228.06 122.243 226.822C121.978 226.608 121.648 226.492 121.308 226.492Z" fill="#263238"/>
<path d="M123.2 227.483C122.719 227.455 122.242 227.377 121.778 227.248C121.754 227.243 121.732 227.23 121.716 227.213C121.699 227.195 121.688 227.173 121.683 227.149C121.679 227.125 121.682 227.1 121.692 227.078C121.702 227.056 121.718 227.037 121.739 227.024C121.912 226.906 123.463 225.904 124.113 226.195C124.187 226.227 124.251 226.278 124.3 226.341C124.349 226.405 124.381 226.48 124.393 226.559C124.425 226.677 124.426 226.801 124.394 226.919C124.363 227.038 124.301 227.145 124.214 227.231C123.921 227.442 123.558 227.532 123.2 227.483ZM122.125 227.074C123.077 227.298 123.805 227.293 124.046 227.074C124.101 227.015 124.139 226.943 124.157 226.864C124.175 226.785 124.171 226.703 124.147 226.626C124.141 226.587 124.126 226.551 124.103 226.519C124.079 226.488 124.048 226.463 124.012 226.447C123.643 226.279 122.735 226.699 122.08 227.074H122.125Z" fill="#176DE4"/>
<path d="M121.784 227.254C121.763 227.259 121.742 227.259 121.722 227.254C121.704 227.242 121.689 227.226 121.678 227.208C121.668 227.189 121.661 227.169 121.66 227.147C121.66 227.086 121.588 225.54 122.142 225.036C122.215 224.965 122.304 224.913 122.402 224.886C122.5 224.859 122.603 224.856 122.702 224.879C122.809 224.885 122.911 224.927 122.991 224.998C123.072 225.069 123.126 225.166 123.144 225.271C123.245 225.859 122.411 226.951 121.868 227.254C121.841 227.265 121.811 227.265 121.784 227.254ZM122.584 225.12C122.534 225.117 122.484 225.124 122.436 225.141C122.389 225.159 122.346 225.186 122.31 225.221C121.98 225.518 121.907 226.402 121.907 226.901C122.383 226.52 122.943 225.686 122.876 225.299C122.876 225.226 122.82 225.142 122.64 225.114L122.584 225.12Z" fill="#176DE4"/>
<path opacity="0.2" d="M116.732 215.09L122.058 214.838L121.554 222.023L116.25 222.017L116.732 215.09Z" fill="black"/>
<path d="M90.0204 154.521C90.0204 154.521 130.564 160.72 129.92 170.055C128.761 186.855 123.128 219.688 123.128 219.688L115.142 219.8C115.142 219.8 113.255 186.122 116.262 173.846C106.288 173.846 78.154 173.499 74.318 168.375C70.0732 162.714 74.4356 153.815 74.4356 153.815L90.0204 154.521Z" fill="#263238"/>
<path d="M114.201 220.427L123.866 220.276L124.342 215.169L113.736 215.583L114.201 220.427Z" fill="#176DE4"/>
<path d="M97.1604 111.72C93.8956 111.082 79.1732 111.267 79.1732 111.267C77.7015 111.226 76.2683 111.74 75.1568 112.705C74.0453 113.67 73.3363 115.017 73.17 116.48C72.6548 121.022 75.5388 131.169 75.6396 136.343C75.7628 142.699 74.5476 145.275 74.4244 153.832L102.52 155.12C102.52 137.911 101.769 123.665 101.092 116.833C100.851 114.431 100.425 112.353 97.1604 111.72Z" fill="#176DE4"/>
<path opacity="0.3" d="M97.1604 111.72C93.8956 111.082 79.1732 111.267 79.1732 111.267C77.7015 111.226 76.2683 111.74 75.1568 112.705C74.0453 113.67 73.3363 115.017 73.17 116.48C72.6548 121.022 75.5388 131.169 75.6396 136.343C75.7628 142.699 74.5476 145.275 74.4244 153.832L102.52 155.12C102.52 137.911 101.769 123.665 101.092 116.833C100.851 114.431 100.425 112.353 97.1604 111.72Z" fill="white"/>
<path d="M101.007 117.141C101.886 120.165 102.771 123.273 103.684 126.308C104.597 129.343 105.532 132.395 106.585 135.268C106.842 136.002 107.145 136.685 107.391 137.39L107.822 138.382L107.878 138.505V138.566V138.6V138.561C107.782 138.388 107.661 138.23 107.52 138.09C107.33 137.906 107.257 137.889 107.24 137.889C107.365 138.002 107.509 138.091 107.666 138.152C107.94 138.284 108.222 138.398 108.511 138.494C109.144 138.712 109.855 138.908 110.578 139.104C113.506 139.849 116.704 140.42 119.818 141.086L119.717 144.967C118.045 145.193 116.363 145.329 114.677 145.376C112.97 145.442 111.261 145.41 109.558 145.281C108.653 145.216 107.752 145.1 106.859 144.934C106.389 144.844 105.902 144.732 105.375 144.581C104.751 144.406 104.149 144.158 103.583 143.842C103.132 143.583 102.718 143.264 102.351 142.895C102.071 142.607 101.83 142.283 101.634 141.932L101.444 141.579L100.811 140.381C100.442 139.597 100.038 138.807 99.6913 138.029C99.0025 136.455 98.3977 134.898 97.7929 133.336C97.1881 131.774 96.6729 130.211 96.1521 128.643C95.1161 125.49 94.1809 122.371 93.3521 119.123L101.007 117.141Z" fill="#B55B52"/>
<path d="M93.0271 114.022C96.8687 110.102 101.78 112.241 103.891 119.319C106.002 126.398 105.621 126.913 105.621 126.913L95.3007 130.917C92.8647 124.174 89.0959 118.014 93.0271 114.022Z" fill="#176DE4"/>
<path d="M122.561 139.586L121.738 139.513C119.397 139.513 119 140.151 117.56 141.49L117 144.435C120.78 146.367 122.808 144.245 122.808 144.245H126.313L125.076 141.445C124.862 140.938 124.515 140.498 124.073 140.171C123.631 139.844 123.109 139.642 122.561 139.586Z" fill="#B55B52"/>
<path d="M75.656 175.896H111.541C112.329 175.896 112.969 175.257 112.969 174.468V172.161C112.969 171.372 112.329 170.733 111.541 170.733H75.656C74.8673 170.733 74.228 171.372 74.228 172.161V174.468C74.228 175.257 74.8673 175.896 75.656 175.896Z" fill="#176DE4"/>
<path d="M75.8189 233.38H74.2285L76.0597 175.89H78.2605L75.8189 233.38Z" fill="#176DE4"/>
<path opacity="0.4" d="M75.8189 233.38H74.2285L76.0597 175.89H78.2605L75.8189 233.38Z" fill="white"/>
<path d="M90.4453 233.38H92.0357L90.2101 175.89H88.0093L90.4453 233.38Z" fill="#176DE4"/>
<path opacity="0.4" d="M90.4453 233.38H92.0357L90.2101 175.89H88.0093L90.4453 233.38Z" fill="white"/>
<path d="M96.751 233.38H95.1606L96.9918 175.89H99.1926L96.751 233.38Z" fill="#176DE4"/>
<path opacity="0.4" d="M96.751 233.38H95.1606L96.9918 175.89H99.1926L96.751 233.38Z" fill="white"/>
<path d="M111.378 233.38H112.969L111.143 175.89H108.942L111.378 233.38Z" fill="#176DE4"/>
<path opacity="0.4" d="M111.378 233.38H112.969L111.143 175.89H108.942L111.378 233.38Z" fill="white"/>
<g opacity="0.3">
<path opacity="0.3" d="M76.0594 175.89H78.2602L78.1538 178.332H75.981L76.0594 175.89Z" fill="#176DE4"/>
<path opacity="0.3" d="M90.2834 178.332H88.1106L88.0098 175.89H90.205L90.2834 178.332Z" fill="#176DE4"/>
<path opacity="0.3" d="M99.1877 175.89L99.0869 178.332H96.9141L96.9925 175.89H99.1877Z" fill="#176DE4"/>
<path opacity="0.3" d="M111.222 178.332H109.044L108.943 175.89H111.144L111.222 178.332Z" fill="#176DE4"/>
</g>
<path d="M217.84 105.622H128.145C127.448 105.629 126.757 105.491 126.116 105.218C125.475 104.945 124.897 104.541 124.42 104.034C123.942 103.526 123.576 102.924 123.343 102.268C123.109 101.611 123.015 100.913 123.065 100.218L126.487 43.4504C126.595 41.996 127.243 40.6346 128.304 39.6344C129.366 38.6341 130.763 38.0676 132.221 38.0464H221.894C222.591 38.0392 223.282 38.1766 223.923 38.4499C224.564 38.7232 225.142 39.1265 225.619 39.6344C226.096 40.1423 226.463 40.7436 226.696 41.4004C226.929 42.0572 227.024 42.7553 226.973 43.4504L223.546 100.24C223.435 101.686 222.789 103.039 221.733 104.034C220.678 105.029 219.29 105.595 217.84 105.622Z" fill="#176DE4"/>
<path d="M140.146 93.6207L148.417 121.918L172.956 93.6207H140.146Z" fill="#176DE4"/>
<path opacity="0.1" d="M213.466 82.7791H163.201C162.81 82.7831 162.423 82.7062 162.063 82.553C161.703 82.3998 161.379 82.1737 161.112 81.8891C160.844 81.6044 160.638 81.2673 160.507 80.899C160.376 80.5308 160.323 80.1393 160.35 79.7495L162.271 47.9303C162.331 47.1149 162.695 46.3516 163.29 45.7908C163.885 45.23 164.668 44.9125 165.486 44.9007H215.751C216.143 44.8923 216.533 44.9663 216.894 45.1181C217.256 45.2698 217.582 45.4957 217.85 45.7814C218.119 46.067 218.325 46.4058 218.454 46.776C218.584 47.1462 218.634 47.5394 218.602 47.9303L216.681 79.7495C216.621 80.5648 216.257 81.3281 215.662 81.8889C215.067 82.4497 214.284 82.7673 213.466 82.7791Z" fill="white"/>
<path opacity="0.1" d="M186.575 96.5045H136.304C135.913 96.5078 135.526 96.4303 135.168 96.2768C134.809 96.1232 134.485 95.8971 134.218 95.6125C133.951 95.3279 133.745 94.991 133.615 94.6232C133.484 94.2553 133.431 93.8643 133.459 93.4749L135.38 61.6557C135.44 60.8413 135.802 60.0788 136.396 59.5181C136.99 58.9575 137.772 58.6393 138.588 58.6261H188.86C189.251 58.6185 189.64 58.6932 190.001 58.8453C190.362 58.9973 190.687 59.2234 190.955 59.5089C191.223 59.7945 191.428 60.1331 191.558 60.5028C191.687 60.8726 191.737 61.2654 191.704 61.6557L189.784 93.4749C189.724 94.2894 189.361 95.0519 188.767 95.6125C188.173 96.1732 187.391 96.4914 186.575 96.5045Z" fill="white"/>
<g opacity="0.5">
<path opacity="0.5" d="M135.637 42.9855C135.627 43.4155 135.457 43.8262 135.159 44.137C134.862 44.4478 134.459 44.6363 134.03 44.6655C133.826 44.6554 133.626 44.6025 133.444 44.5103C133.262 44.418 133.101 44.2885 132.972 44.13C132.844 43.9716 132.749 43.7878 132.696 43.5906C132.643 43.3935 132.632 43.1873 132.664 42.9855C132.676 42.5563 132.848 42.147 133.144 41.8368C133.441 41.5265 133.843 41.3372 134.271 41.3055C134.475 41.3156 134.674 41.3685 134.857 41.4608C135.039 41.5531 135.2 41.6826 135.328 41.8411C135.457 41.9995 135.551 42.1833 135.605 42.3804C135.658 42.5776 135.669 42.7838 135.637 42.9855Z" fill="white"/>
<path opacity="0.5" d="M141.119 42.9855C141.108 43.4152 140.937 43.8251 140.64 44.1357C140.343 44.4462 139.941 44.6351 139.512 44.6655C139.308 44.6562 139.107 44.6039 138.925 44.5119C138.742 44.42 138.58 44.2906 138.451 44.132C138.321 43.9735 138.227 43.7895 138.173 43.5919C138.12 43.3944 138.108 43.1877 138.14 42.9855C138.153 42.5563 138.324 42.147 138.621 41.8368C138.918 41.5265 139.319 41.3372 139.747 41.3055C139.951 41.3157 140.151 41.3686 140.334 41.4608C140.516 41.553 140.677 41.6825 140.806 41.8408C140.936 41.9991 141.03 42.1828 141.084 42.38C141.138 42.5772 141.15 42.7835 141.119 42.9855Z" fill="white"/>
<path opacity="0.5" d="M146.642 42.9855C146.631 43.4155 146.461 43.8262 146.164 44.137C145.866 44.4478 145.464 44.6363 145.034 44.6655C144.83 44.6554 144.631 44.6025 144.449 44.5103C144.266 44.418 144.106 44.2885 143.977 44.13C143.848 43.9716 143.754 43.7878 143.701 43.5906C143.647 43.3935 143.636 43.1873 143.668 42.9855C143.681 42.5563 143.852 42.147 144.149 41.8368C144.446 41.5265 144.847 41.3372 145.275 41.3055C145.479 41.3156 145.679 41.3685 145.861 41.4608C146.043 41.5531 146.204 41.6826 146.333 41.8411C146.462 41.9995 146.556 42.1833 146.609 42.3804C146.662 42.5776 146.673 42.7838 146.642 42.9855Z" fill="white"/>
</g>
<path opacity="0.3" d="M217.146 105.095H127.473C126.757 105.101 126.048 104.958 125.39 104.677C124.731 104.395 124.139 103.98 123.649 103.459C123.158 102.937 122.781 102.319 122.541 101.645C122.301 100.971 122.203 100.254 122.254 99.5399L125.681 42.7727C125.788 41.2826 126.451 39.8871 127.538 38.8617C128.624 37.8363 130.056 37.2556 131.55 37.2343H221.2C221.916 37.2287 222.625 37.3711 223.283 37.6528C223.941 37.9344 224.534 38.3491 225.024 38.8708C225.514 39.3925 225.891 40.0099 226.131 40.6843C226.371 41.3587 226.469 42.0754 226.419 42.7895L222.997 99.5567C222.889 101.043 222.228 102.436 221.145 103.461C220.063 104.485 218.636 105.068 217.146 105.095ZM131.55 37.5199C130.125 37.5373 128.759 38.0891 127.721 39.0661C126.684 40.0431 126.052 41.3739 125.95 42.7951L122.522 99.5623C122.473 100.239 122.564 100.918 122.79 101.557C123.017 102.196 123.373 102.781 123.838 103.276C124.302 103.77 124.864 104.162 125.487 104.428C126.111 104.694 126.783 104.828 127.462 104.821H217.146C218.57 104.802 219.935 104.25 220.972 103.273C222.009 102.296 222.642 100.966 222.745 99.5455L226.167 42.7783C226.215 42.1 226.122 41.4191 225.893 40.7787C225.665 40.1384 225.305 39.5525 224.838 39.0581C224.371 38.5638 223.807 38.1718 223.181 37.9071C222.554 37.6423 221.88 37.5104 221.2 37.5199H131.55Z" fill="#263238"/>
<path d="M168.588 71.9096C168.207 72.716 167.86 73.4048 167.468 74.1496C167.076 74.8944 166.684 75.5664 166.281 76.2664C165.458 77.6608 164.601 79.0664 163.683 80.3768C163.22 81.0488 162.746 81.7152 162.26 82.376C161.751 83.0256 161.269 83.6864 160.726 84.3192C159.666 85.6307 158.523 86.8727 157.304 88.0376C156.996 88.34 156.66 88.5976 156.335 88.9168C156.013 89.219 155.673 89.5014 155.316 89.7624L154.241 90.5744L153.911 90.804C153.764 90.8966 153.613 90.9808 153.457 91.056C153.149 91.2036 152.826 91.3163 152.494 91.392C151.836 91.5455 151.153 91.5508 150.494 91.4075C149.834 91.2641 149.214 90.9757 148.68 90.5632C148.415 90.3541 148.173 90.1176 147.958 89.8576L147.807 89.656L147.734 89.5552L147.706 89.5104L147.605 89.3312L147.202 88.6032C147.079 88.368 146.995 88.144 146.894 87.9144C146.541 87.0694 146.253 86.1989 146.031 85.3104C145.642 83.6912 145.368 82.0462 145.214 80.388C145.05 78.7731 144.979 77.1502 145.001 75.5272C145.013 75.0667 145.189 74.6256 145.497 74.2834C145.806 73.9413 146.226 73.7206 146.683 73.6611C147.14 73.6017 147.603 73.7074 147.988 73.9591C148.374 74.2109 148.657 74.5923 148.787 75.0344V75.1016C149.529 77.9557 150.447 80.7611 151.536 83.5016C151.785 84.0814 152.075 84.6428 152.404 85.1816C152.477 85.2936 152.55 85.428 152.623 85.5232L152.835 85.7808L152.886 85.848L152.858 85.8032L152.796 85.7192C152.708 85.6044 152.607 85.5009 152.494 85.4112C152.27 85.2309 152.011 85.101 151.732 85.0304C151.453 84.9714 151.165 84.9714 150.887 85.0304C150.742 85.0609 150.601 85.1079 150.467 85.1704C150.394 85.1704 150.332 85.2432 150.265 85.2768C150.198 85.3104 150.097 85.3944 150.17 85.3328L150.87 84.6496C151.105 84.4368 151.335 84.1792 151.564 83.9328C151.794 83.6864 152.029 83.4456 152.253 83.1824C154.099 80.9681 155.78 78.6209 157.282 76.16C158.049 74.9112 158.805 73.64 159.522 72.352L160.603 70.4144L161.627 68.5216L161.683 68.4208C162.169 67.5508 162.973 66.9022 163.926 66.6105C164.879 66.3188 165.907 66.4066 166.797 66.8554C167.687 67.3043 168.369 68.0795 168.7 69.0192C169.032 69.9589 168.988 70.9905 168.577 71.8984L168.588 71.9096Z" fill="#263238"/>
<path d="M145.527 75.2807L142.8 73.7183L145.734 70.7223C146.594 71.3595 147.391 72.0777 148.114 72.8671C148.284 73.0477 148.41 73.2657 148.481 73.5035C148.552 73.7414 148.566 73.9926 148.523 74.237C148.479 74.4813 148.379 74.7121 148.23 74.9109C148.082 75.1096 147.888 75.2708 147.666 75.3815C147.328 75.5384 146.957 75.6111 146.584 75.5936C146.212 75.576 145.849 75.4687 145.527 75.2807Z" fill="#FFC3BD"/>
<path d="M142.178 70.5096L143.662 69.4512C143.855 69.3109 144.095 69.2523 144.331 69.2879C144.567 69.3235 144.779 69.4506 144.922 69.6416L145.734 70.7224L142.8 73.7184L141.876 71.6128C141.792 71.4221 141.776 71.2084 141.831 71.0075C141.886 70.8066 142.009 70.6308 142.178 70.5096Z" fill="#FFC3BD"/>
<path d="M162.713 69.4008C162.936 68.6691 163.356 68.0127 163.927 67.5039C164.498 66.9952 165.198 66.6536 165.95 66.5168C167.037 66.2766 168.139 66.1082 169.249 66.0128C172.589 65.8825 175.934 65.9423 179.267 66.192C181.014 66.3096 182.801 66.556 184.223 66.7912H184.273C185.027 66.9162 185.7 67.3348 186.145 67.9552C186.59 68.5756 186.771 69.3472 186.648 70.1008C185.948 74.144 183.893 81.1776 183.669 87.8136C183.372 96.5272 183.506 101.545 183.355 103.645L160.927 103.214C159.365 81.9168 161.308 74.2224 162.713 69.4008Z" fill="white"/>
<path d="M184.873 66.4608H184.8C183.3 66.2144 181.44 65.9512 179.576 65.828L178.579 65.772C177.599 69.8264 171.758 76.6472 169.988 86.9848C169.305 78.344 168.779 69.3112 169.781 65.7888C168.196 65.837 166.615 65.9697 165.044 66.1864C164.213 66.3743 163.446 66.7791 162.823 67.3595C162.199 67.9398 161.74 68.6751 161.493 69.4904C160.116 73.5448 157.484 82.628 159.102 104.961H184.028C184.19 102.721 183.608 98.0168 184.509 90.776C185.377 83.7648 186.626 74.2224 187.36 69.9608C187.491 69.1673 187.303 68.354 186.838 67.6984C186.372 67.0427 185.666 66.5978 184.873 66.4608Z" fill="#263238"/>
<path opacity="0.2" d="M169.456 103.796C169.419 103.797 169.382 103.784 169.353 103.759C169.325 103.734 169.308 103.699 169.305 103.661C168.779 97.3615 169.764 88.3175 169.775 88.2223C169.777 88.2031 169.783 88.1845 169.793 88.1677C169.802 88.1508 169.815 88.1359 169.83 88.1239C169.845 88.112 169.862 88.1031 169.881 88.0979C169.899 88.0926 169.919 88.0911 169.938 88.0935C169.977 88.0977 170.013 88.1171 170.038 88.1474C170.063 88.1777 170.075 88.2166 170.072 88.2559C170.072 88.3455 169.075 97.3671 169.602 103.633C169.604 103.653 169.602 103.673 169.597 103.692C169.591 103.711 169.582 103.728 169.569 103.743C169.557 103.759 169.541 103.771 169.524 103.78C169.506 103.789 169.487 103.795 169.467 103.796H169.456Z" fill="white"/>
<path opacity="0.3" d="M183.993 75.3255C183.069 79.5143 183.562 85.3159 184.553 90.6079C185.287 84.6663 186.289 76.9551 187.023 72.1839C185.998 71.5007 184.727 71.9823 183.993 75.3255Z" fill="black"/>
<path d="M169.724 65.9845C172.631 65.3461 173.135 63.5541 172.928 61.5717C172.876 61.0765 172.796 60.5847 172.687 60.0989L176.316 57.1309L178.987 54.9581C178.259 58.1725 177.458 64.0357 179.653 66.2253C179.653 66.2253 177.861 69.1653 172.877 68.8069C168.666 68.5045 169.724 65.9845 169.724 65.9845Z" fill="#FFC3BD"/>
<path d="M174.143 68.0679L173.337 68.8295L175.913 69.7983L175.577 68.8183L174.143 68.0679Z" fill="#E0E0E0"/>
<path d="M176.115 71.1646C176.115 71.1646 175.101 68.6054 174.144 68.0622C176.027 67.6131 177.752 66.6585 179.133 65.3014L180.662 65.9118C180.662 65.9118 181.144 68.8798 176.115 71.1646Z" fill="#F5F5F5"/>
<path d="M172.732 67.8663L173.337 68.8295L170.626 69.0647L171.17 68.2079L172.732 67.8663Z" fill="#E0E0E0"/>
<path d="M169.266 70.4423C170.259 69.3844 171.433 68.5121 172.732 67.8663C171.259 67.4295 171.17 65.4023 171.17 65.4023L169.742 65.6767C169.742 65.6767 167.121 68.2247 169.266 70.4423Z" fill="#F5F5F5"/>
<path opacity="0.2" d="M172.687 60.0935C172.796 60.5812 172.876 61.0749 172.928 61.5719C174.283 61.3255 176.097 59.8919 176.288 58.5199C176.352 58.0598 176.365 57.5941 176.327 57.1311L172.687 60.0935Z" fill="black"/>
<path d="M168.28 45.4382C166.98 47.0342 167.104 52.8078 169.853 52.875C172.603 52.9422 170.643 42.5262 168.28 45.4382Z" fill="#263238"/>
<path d="M180.124 49.6382C179.849 54.0118 179.905 56.5822 177.699 58.8446C174.384 62.2438 169.008 60.2894 167.972 55.9382C167.048 52.0182 167.653 45.5278 171.925 43.7526C172.858 43.3533 173.879 43.2016 174.888 43.3122C175.896 43.4227 176.86 43.7918 177.684 44.3837C178.509 44.9755 179.166 45.7702 179.594 46.6907C180.021 47.6112 180.204 48.6265 180.124 49.6382Z" fill="#FFC3BD"/>
<path d="M177.974 45.9984C175.224 48.7256 178.797 50.7248 177.414 52.192C180.006 53.5472 179.054 54.544 179.054 54.544C178.786 55.2896 178.786 56.1055 179.054 56.8512C181.978 56.1008 187.404 46.3904 181.479 44.9008C177.934 46.48 177.974 45.9984 177.974 45.9984Z" fill="#263238"/>
<path d="M179.1 47.9582C176.496 48.3614 173.22 47.1182 171.187 46.0654C169.154 45.0126 168.857 47.0006 169.607 47.6054C168.303 47.6502 166.651 46.6198 167.059 44.3182C167.435 42.2182 170.184 40.2302 174.099 42.0054C176.871 43.2598 180.287 41.6078 181.62 43.0582C182.952 44.5086 180.836 47.6838 179.1 47.9582Z" fill="#263238"/>
<path d="M180.88 45.1079C182.627 44.8783 182.7 43.7751 182.213 41.8431C184.1 44.5255 183.333 45.3487 182.213 45.9983C180.964 45.5783 180.88 45.1079 180.88 45.1079Z" fill="#263238"/>
<path d="M181.3 52.9926C180.913 53.8481 180.237 54.54 179.39 54.947C178.31 55.4342 177.761 54.4374 178.052 53.267C178.315 52.2086 179.172 50.6854 180.292 50.6966C181.412 50.7078 181.787 51.9118 181.3 52.9926Z" fill="#FFC3BD"/>
<path d="M173.298 50.9598C173.298 51.3126 173.107 51.6038 172.878 51.6094C172.648 51.615 172.48 51.3238 172.48 50.9598C172.48 50.5958 172.67 50.3158 172.9 50.3158C173.13 50.3158 173.298 50.6014 173.298 50.9598Z" fill="#263238"/>
<path d="M169.288 50.9936C169.288 51.352 169.097 51.6376 168.862 51.6432C168.627 51.6488 168.442 51.3576 168.448 50.9992C168.453 50.6408 168.633 50.3552 168.868 50.3552C169.103 50.3552 169.288 50.6408 169.288 50.9936Z" fill="#263238"/>
<path d="M170.8 51.1167C170.381 52.2074 169.816 53.236 169.12 54.1743C169.361 54.3438 169.636 54.459 169.926 54.5122C170.216 54.5654 170.514 54.5552 170.8 54.4823V51.1167Z" fill="#ED847E"/>
<path d="M172.211 55.4397C172.618 55.3942 173.01 55.2647 173.364 55.0593C173.718 54.854 174.025 54.5773 174.266 54.2469C174.281 54.2239 174.286 54.1959 174.281 54.1692C174.275 54.1424 174.259 54.119 174.236 54.1041C174.213 54.0893 174.185 54.0842 174.158 54.09C174.131 54.0957 174.108 54.1119 174.093 54.1349C173.823 54.487 173.475 54.7716 173.077 54.966C172.678 55.1604 172.24 55.2593 171.797 55.2549C171.783 55.2549 171.769 55.2577 171.757 55.2631C171.744 55.2685 171.733 55.2765 171.723 55.2864C171.714 55.2964 171.707 55.3082 171.702 55.321C171.697 55.3339 171.695 55.3476 171.696 55.3613C171.696 55.3751 171.699 55.3887 171.704 55.4013C171.71 55.4139 171.717 55.4252 171.727 55.4347C171.737 55.4441 171.749 55.4514 171.762 55.4561C171.775 55.4609 171.789 55.4629 171.802 55.4621C171.948 55.4397 172.082 55.4397 172.211 55.4397Z" fill="#263238"/>
<path d="M175.241 49.5432C175.276 49.5412 175.31 49.5274 175.336 49.504C175.359 49.488 175.377 49.4676 175.392 49.444C175.406 49.4204 175.415 49.3942 175.419 49.3669C175.422 49.3396 175.42 49.3118 175.413 49.2853C175.406 49.2588 175.393 49.2342 175.375 49.2128C175.183 48.9476 174.93 48.7321 174.638 48.5841C174.346 48.436 174.023 48.3598 173.695 48.3616C173.668 48.3637 173.642 48.3712 173.618 48.3837C173.594 48.3962 173.573 48.4134 173.555 48.4343C173.538 48.4552 173.525 48.4794 173.518 48.5054C173.51 48.5314 173.508 48.5587 173.511 48.5856C173.516 48.6415 173.543 48.6931 173.586 48.7297C173.629 48.7662 173.684 48.7848 173.74 48.7816C174 48.7792 174.257 48.8401 174.488 48.9591C174.719 49.0782 174.918 49.2517 175.067 49.4648C175.088 49.4908 175.114 49.5115 175.145 49.5251C175.175 49.5388 175.208 49.545 175.241 49.5432Z" fill="#263238"/>
<path d="M167.664 49.7166C167.697 49.712 167.729 49.6995 167.756 49.6799C167.783 49.6604 167.805 49.6346 167.821 49.6046C167.928 49.3623 168.09 49.1487 168.296 48.9813C168.501 48.8139 168.743 48.6974 169.002 48.6414C169.03 48.6388 169.056 48.6305 169.08 48.6169C169.104 48.6034 169.125 48.5849 169.142 48.5627C169.158 48.5405 169.169 48.515 169.175 48.4881C169.181 48.4611 169.181 48.4332 169.176 48.4062C169.166 48.3523 169.137 48.3039 169.093 48.2708C169.05 48.2376 168.995 48.2219 168.941 48.227C168.614 48.2914 168.308 48.4327 168.047 48.6392C167.786 48.8456 167.578 49.1113 167.44 49.4142C167.416 49.4641 167.413 49.5212 167.431 49.5735C167.449 49.6257 167.486 49.669 167.535 49.6942C167.575 49.7129 167.62 49.7206 167.664 49.7166Z" fill="#263238"/>
<path d="M188.025 68.992C188.709 70.4312 189.28 71.792 189.84 73.192C190.4 74.592 190.898 76.02 191.397 77.448C192.375 80.3584 193.164 83.3289 193.76 86.3408C193.889 87.1192 194.034 87.8808 194.129 88.6816L194.202 89.2752L194.241 89.572V89.7232V89.9304C194.297 90.5096 194.297 91.0928 194.241 91.672C194.112 92.9393 193.676 94.156 192.97 95.2168C192.309 96.1884 191.441 97.0012 190.428 97.5968C189.584 98.0925 188.676 98.4694 187.729 98.7168C186.886 98.9476 186.023 99.1013 185.153 99.176C183.51 99.3313 181.855 99.2654 180.23 98.98C179.79 98.9061 179.388 98.6812 179.095 98.344C178.802 98.0068 178.635 97.5782 178.623 97.1315C178.611 96.6848 178.755 96.2479 179.03 95.8956C179.305 95.5432 179.693 95.2973 180.129 95.2L180.331 95.1552C180.891 95.0264 181.625 94.8696 182.252 94.7016C182.879 94.5336 183.517 94.3376 184.111 94.1416C185.147 93.8097 186.108 93.2769 186.939 92.5736C187.159 92.37 187.326 92.1164 187.426 91.8344C187.466 91.6366 187.466 91.433 187.426 91.2352C187.407 91.0843 187.379 90.9347 187.342 90.7872L187.141 89.8744C187.012 89.236 186.827 88.5752 186.659 87.9256C186.312 86.6096 185.92 85.2936 185.472 83.972C185.024 82.6504 184.565 81.3344 184.077 80.0184C183.59 78.7024 183.075 77.3864 182.554 76.0984C182.033 74.8104 181.485 73.4552 180.964 72.2288V72.1728C180.545 71.2386 180.514 70.1763 180.879 69.2196C181.243 68.2628 181.973 67.49 182.907 67.0712C183.841 66.6524 184.904 66.6218 185.86 66.9862C186.817 67.3506 187.59 68.0802 188.009 69.0144L188.025 68.992Z" fill="#263238"/>
<path d="M178.461 96.8128L175.991 98L180.258 99.5176C180.258 99.5176 183.103 98.6104 181.726 97.0312L180.958 96.7904C179.726 96.3872 179.122 96.432 178.461 96.8128Z" fill="#FFC3BD"/>
<path d="M176.322 101.013L178.198 101.371C178.466 101.42 178.743 101.385 178.99 101.269C179.237 101.154 179.441 100.964 179.575 100.727L180.259 99.5007L175.991 97.9999L175.431 99.1703C175.344 99.3473 175.299 99.5417 175.298 99.7389C175.298 99.9361 175.342 100.131 175.428 100.308C175.514 100.486 175.639 100.642 175.794 100.764C175.948 100.886 176.129 100.971 176.322 101.013Z" fill="#FFC3BD"/>
</svg>
