<svg width="280" height="280" viewBox="0 0 280 280" fill="none" xmlns="http://www.w3.org/2000/svg">
<path d="M58.5536 56.9071C74.1832 23.6207 129.702 28.3135 151.127 51.7271C172.553 75.1407 179.519 90.1431 198.845 81.4071C218.17 72.6711 242.816 75.0007 244.205 102.782C245.594 130.564 222.998 163.397 187.04 173.113C151.082 182.829 151.11 217.218 103.544 210.28C77.6104 206.494 77.0224 178.438 80.6848 155.232C84.3472 132.025 40.4208 95.5191 58.5536 56.9071Z" fill="#176DE4"/>
<path opacity="0.9" d="M58.5536 56.9071C74.1832 23.6207 129.702 28.3135 151.127 51.7271C172.553 75.1407 179.519 90.1431 198.845 81.4071C218.17 72.6711 242.816 75.0007 244.205 102.782C245.594 130.564 222.998 163.397 187.04 173.113C151.082 182.829 151.11 217.218 103.544 210.28C77.6104 206.494 77.0224 178.438 80.6848 155.232C84.3472 132.025 40.4208 95.5191 58.5536 56.9071Z" fill="white"/>
<path d="M140 239.434C199.966 239.434 248.578 236.595 248.578 233.094C248.578 229.593 199.966 226.755 140 226.755C80.0338 226.755 31.4216 229.593 31.4216 233.094C31.4216 236.595 80.0338 239.434 140 239.434Z" fill="#F5F5F5"/>
<path d="M62.1041 74.5024L60.1889 92.8984H50.6017L48.6865 74.5024H62.1041Z" fill="#263238"/>
<path opacity="0.3" d="M62.1041 74.5024L60.1889 92.8984H50.6017L48.6865 74.5024H62.1041Z" fill="white"/>
<path d="M57.1817 88.9448H53.6145V221.609H57.1817V88.9448Z" fill="#263238"/>
<path opacity="0.3" d="M57.1817 88.9448H53.6145V221.609H57.1817V88.9448Z" fill="white"/>
<path d="M59.1809 91.7784H51.6097L49.9297 75.6224H60.8609L59.1809 91.7784Z" fill="#176DE4"/>
<path opacity="0.4" d="M59.1809 91.7784H51.6097L49.9297 75.6224H60.8609L59.1809 91.7784Z" fill="white"/>
<path d="M54.3984 92.0304H53.8832L53.3232 75.0624H53.8384L54.3984 92.0304Z" fill="#263238"/>
<path opacity="0.3" d="M54.3984 92.0304H53.8832L53.3232 75.0624H53.8384L54.3984 92.0304Z" fill="white"/>
<path opacity="0.2" d="M62.1041 74.5024L60.1889 92.8984H54.1633L53.4409 74.5024H62.1041Z" fill="white"/>
<path d="M55.3953 68.5889C55.3953 68.5889 49.7113 74.1889 45.3545 74.1889L46.7041 75.0793H64.0641L65.4137 74.1889C61.0793 74.2001 55.3953 68.5889 55.3953 68.5889Z" fill="#263238"/>
<path opacity="0.4" d="M65.4356 74.1991L64.086 75.0839H46.726L45.3596 74.1991C49.7164 74.1991 55.4004 68.5991 55.4004 68.5991C55.4004 68.5991 61.0788 74.1991 65.4356 74.1991Z" fill="white"/>
<path opacity="0.2" d="M65.436 74.2001L64.0864 75.0849H52.7968C52.4552 74.5249 52.2368 74.1273 52.2368 74.1273C55.2664 72.7217 55.4176 68.5889 55.4176 68.5889C55.4176 68.5889 61.0792 74.2001 65.436 74.2001Z" fill="white"/>
<path d="M205.447 221.609H208.185L202.585 190.002H199.847L205.447 221.609Z" fill="#263238"/>
<path d="M120.327 221.609H123.065L117.465 190.002H114.727L120.327 221.609Z" fill="#263238"/>
<path opacity="0.3" d="M205.447 221.609H208.185L202.585 190.002H199.847L205.447 221.609Z" fill="white"/>
<path opacity="0.3" d="M120.327 221.609H123.065L117.465 190.002H114.727L120.327 221.609Z" fill="white"/>
<path d="M96.499 208.578H204.019V205.806H96.499V208.578Z" fill="#263238"/>
<path opacity="0.5" d="M96.499 208.578H204.019V205.806H96.499V208.578Z" fill="white"/>
<path d="M180.185 221.609H177.447L183.047 190.002H185.785L180.185 221.609Z" fill="#263238"/>
<path d="M95.0655 221.609H92.3271L97.9271 190.002H100.666L95.0655 221.609Z" fill="#263238"/>
<path opacity="0.3" d="M180.185 221.609H177.447L183.047 190.002H185.785L180.185 221.609Z" fill="white"/>
<path opacity="0.3" d="M95.0655 221.609H92.3271L97.9271 190.002H100.666L95.0655 221.609Z" fill="white"/>
<path d="M119.907 188.77H122.634L127.193 163.408H124.471L119.907 188.77Z" fill="#263238"/>
<path opacity="0.3" d="M119.907 188.77H122.634L127.193 163.408H124.471L119.907 188.77Z" fill="white"/>
<path d="M198.94 188.77H201.667L206.231 163.408H203.504L198.94 188.77Z" fill="#263238"/>
<path d="M159.426 188.77H162.148L166.712 163.408H163.985L159.426 188.77Z" fill="#263238"/>
<path opacity="0.3" d="M198.94 188.77H201.667L206.231 163.408H203.504L198.94 188.77Z" fill="white"/>
<path opacity="0.3" d="M159.426 188.77H162.148L166.712 163.408H163.985L159.426 188.77Z" fill="white"/>
<path d="M115.198 165.138H211.691L212.542 160.39H116.054L115.198 165.138Z" fill="#263238"/>
<path d="M113.652 173.729H210.145L211.002 168.98H114.509L113.652 173.729Z" fill="#263238"/>
<path d="M112.106 182.314H208.6L209.457 177.565H112.963L112.106 182.314Z" fill="#263238"/>
<path d="M91.7503 191.307L207.889 191.307V188.026H91.7503V191.307Z" fill="#263238"/>
<path opacity="0.5" d="M115.198 165.138H211.691L212.542 160.39H116.054L115.198 165.138Z" fill="white"/>
<path opacity="0.5" d="M113.652 173.729H210.145L211.002 168.98H114.509L113.652 173.729Z" fill="white"/>
<path opacity="0.5" d="M112.106 182.314H208.6L209.457 177.565H112.963L112.106 182.314Z" fill="white"/>
<path opacity="0.5" d="M91.7503 191.307L207.889 191.307V188.026H91.7503V191.307Z" fill="white"/>
<path opacity="0.2" d="M91.7504 191.307H185.489V188.026H91.7504V191.307Z" fill="white"/>
<path d="M171.864 212.649C170.991 212.633 170.136 212.398 169.377 211.966L169.641 211.473C170.245 211.846 170.935 212.057 171.644 212.085C172.353 212.114 173.058 211.959 173.689 211.635C181.899 207.531 186.39 177.475 189.369 157.601C191.29 144.771 192.001 140.622 193.065 140.582C196.201 140.459 200.373 141.994 200.553 142.061L200.357 142.582C200.317 142.582 196.106 141.014 193.077 141.142C192.326 141.551 191.156 149.386 189.913 157.685C186.922 177.682 182.403 207.9 173.936 212.139C173.294 212.468 172.585 212.642 171.864 212.649Z" fill="#263238"/>
<path d="M207.256 112.134C207.256 112.134 204.355 123.575 203.896 124.774C203.437 125.972 195.776 138.387 195.776 138.387L197.843 140.034C197.843 140.034 206.763 128.682 207.262 127.641C207.76 126.599 211.451 115.013 211.451 115.013L207.256 112.134Z" fill="#B97964"/>
<path d="M209.905 104.95C206.287 105.991 204.411 118.597 204.411 118.597L210.213 121.878C210.213 121.878 216.093 103.163 209.905 104.95Z" fill="#176DE4"/>
<path opacity="0.6" d="M212.722 109.625C212.565 112.941 211.529 117.18 210.84 119.705C210.476 121.021 210.213 121.873 210.213 121.873L204.4 118.597C204.4 118.597 206.27 105.997 209.899 104.949C212.24 104.272 212.867 106.545 212.722 109.625Z" fill="white"/>
<path opacity="0.2" d="M212.721 109.626C212.565 112.941 211.529 117.18 210.84 119.706C207.62 114.201 211.926 108.506 211.926 108.506C212.247 108.836 212.516 109.214 212.721 109.626Z" fill="black"/>
<path d="M232.484 101.83C232.484 101.83 224.162 98.336 209.905 104.95C209.905 104.95 213.388 123.15 213.08 132.171L234.842 130.827C234.842 130.827 235.883 111.121 232.484 101.83Z" fill="#176DE4"/>
<path opacity="0.6" d="M234.842 130.827L213.08 132.16C213.388 123.144 209.91 104.944 209.91 104.944C224.162 98.3304 232.484 101.825 232.484 101.825C233.409 104.625 234.02 107.519 234.304 110.454C234.763 114.665 234.991 118.897 234.987 123.133C235.01 127.596 234.842 130.827 234.842 130.827Z" fill="white"/>
<path d="M237.703 219.117L234.965 222.286L228.245 216.261L230.989 213.086L237.703 219.117Z" fill="#B97964"/>
<path opacity="0.2" d="M230.989 213.086L228.245 216.261L231.711 219.369L234.455 216.194L230.989 213.086Z" fill="black"/>
<path d="M212.537 143.198L213.287 131.438L234.455 132.261C234.455 132.261 236.074 141.977 233.895 151.592L228.155 150.64C224.65 160.384 216.166 185.024 218.137 190.159C220.601 196.599 233.604 213.45 233.604 213.45L228.245 218.798C228.245 218.798 205.285 198.442 203.874 185.17C202.804 175.185 209.373 151.76 212.537 143.198Z" fill="#176DE4"/>
<path d="M233.727 221.609L237.306 218.249C237.365 218.194 237.441 218.162 237.522 218.157C237.602 218.151 237.682 218.174 237.748 218.221L240.8 220.304C240.93 220.395 241.018 220.535 241.046 220.691C241.073 220.847 241.037 221.008 240.946 221.138C240.922 221.174 240.894 221.206 240.862 221.234C239.686 222.303 238.773 223.02 237.317 224.386C236.421 225.221 233.806 227.847 232.562 229.006C231.319 230.166 230.02 229.096 230.423 228.508C232.232 225.887 233.302 223.597 233.414 222.264C233.431 222.014 233.543 221.779 233.727 221.609Z" fill="#263238"/>
<path d="M233.234 223.042C233.048 223.244 232.8 223.378 232.529 223.423C232.432 223.43 232.335 223.411 232.248 223.369C232.16 223.326 232.086 223.262 232.03 223.182C231.991 223.143 231.964 223.092 231.954 223.038C231.943 222.983 231.948 222.926 231.969 222.874C232.137 222.404 233.649 222.096 233.806 222.062C233.824 222.059 233.842 222.061 233.859 222.068C233.876 222.075 233.89 222.087 233.901 222.102C233.911 222.117 233.917 222.136 233.917 222.155C233.917 222.174 233.911 222.192 233.901 222.208C233.709 222.509 233.485 222.788 233.234 223.042ZM232.221 222.841C232.187 222.869 232.162 222.906 232.148 222.947C232.148 222.947 232.148 223.009 232.182 223.07C232.219 223.122 232.269 223.164 232.327 223.193C232.384 223.221 232.448 223.235 232.512 223.233C232.991 223.079 233.392 222.746 233.632 222.303C233.131 222.389 232.652 222.572 232.221 222.841Z" fill="#176DE4"/>
<path d="M233.89 222.23L233.856 222.264C233.397 222.382 232.176 222.264 231.969 221.917C231.931 221.855 231.915 221.782 231.925 221.711C231.936 221.639 231.971 221.573 232.025 221.525C232.07 221.467 232.128 221.42 232.194 221.387C232.26 221.354 232.332 221.336 232.406 221.334C233.005 221.295 233.867 222.074 233.912 222.113C233.923 222.126 233.932 222.141 233.937 222.157C233.941 222.174 233.943 222.191 233.94 222.208C233.926 222.22 233.908 222.228 233.89 222.23ZM232.176 221.592L232.142 221.62C232.053 221.704 232.092 221.766 232.109 221.788C232.249 222.012 233.083 222.152 233.604 222.096C233.267 221.781 232.844 221.574 232.389 221.502C232.309 221.503 232.233 221.536 232.176 221.592Z" fill="#176DE4"/>
<path d="M229.348 220.881L234.993 213.769L233.089 212.139L227.108 219.419L229.348 220.881Z" fill="#176DE4"/>
<path opacity="0.6" d="M229.348 220.881L234.993 213.769L233.089 212.139L227.108 219.419L229.348 220.881Z" fill="white"/>
<path d="M224.862 230.182H220.819L220.489 220.825H224.532L224.862 230.182Z" fill="#B97964"/>
<path d="M220.259 229.718H225.17C225.25 229.718 225.327 229.746 225.389 229.795C225.451 229.845 225.494 229.914 225.512 229.992L226.313 233.593C226.344 233.748 226.313 233.909 226.226 234.041C226.139 234.174 226.003 234.266 225.848 234.298C225.805 234.304 225.762 234.304 225.719 234.298C224.129 234.298 222.975 234.175 220.981 234.175C219.749 234.175 216.048 234.304 214.351 234.304C212.654 234.304 212.436 232.624 213.13 232.478C216.244 231.795 218.585 230.854 219.581 229.964C219.768 229.799 220.01 229.711 220.259 229.718Z" fill="#263238"/>
<path d="M218.926 230.429C218.651 230.448 218.377 230.375 218.148 230.222C218.072 230.16 218.014 230.081 217.979 229.991C217.944 229.9 217.932 229.802 217.946 229.706C217.946 229.65 217.962 229.595 217.991 229.548C218.021 229.5 218.064 229.462 218.114 229.438C218.562 229.208 219.867 229.998 220.007 230.104C220.024 230.112 220.037 230.125 220.046 230.141C220.055 230.157 220.059 230.175 220.057 230.194C220.055 230.213 220.047 230.232 220.034 230.246C220.021 230.261 220.004 230.272 219.985 230.278C219.638 230.367 219.284 230.418 218.926 230.429ZM218.321 229.589C218.281 229.576 218.238 229.576 218.198 229.589C218.198 229.589 218.142 229.622 218.137 229.701C218.129 229.764 218.136 229.828 218.159 229.887C218.181 229.947 218.218 230 218.265 230.042C218.718 230.251 219.233 230.277 219.705 230.115C219.28 229.858 218.811 229.684 218.321 229.6V229.589Z" fill="#176DE4"/>
<path d="M219.957 230.283H219.912C219.498 230.054 218.691 229.163 218.792 228.743C218.805 228.672 218.844 228.607 218.9 228.561C218.956 228.515 219.027 228.49 219.1 228.491C219.173 228.48 219.248 228.485 219.318 228.507C219.389 228.528 219.454 228.565 219.509 228.614C219.974 228.995 220.069 230.154 220.069 230.21C220.069 230.228 220.064 230.246 220.055 230.262C220.046 230.277 220.034 230.291 220.018 230.3L219.957 230.283ZM219.145 228.642H219.1C218.977 228.642 218.966 228.715 218.96 228.743C218.91 229.001 219.425 229.678 219.839 229.992C219.815 229.531 219.649 229.089 219.363 228.726C219.303 228.672 219.226 228.642 219.145 228.642Z" fill="#176DE4"/>
<path opacity="0.2" d="M224.532 220.83H220.489L220.662 225.658H224.706L224.532 220.83Z" fill="black"/>
<path d="M217.594 103.729C218.029 103.427 218.38 103.018 218.612 102.541C218.843 102.065 218.948 101.536 218.915 101.007C218.845 100.326 218.639 99.665 218.31 99.064C218.142 98.7254 217.955 98.3963 217.75 98.0784L221.57 91.7168C221.962 94.7128 223.132 100.027 225.719 101.237C222.449 105.672 217.594 103.729 217.594 103.729Z" fill="#B97964"/>
<path opacity="0.2" d="M221.363 94.8416C222.483 98.2352 220.17 100.268 218.915 101.002C218.845 100.32 218.639 99.6594 218.311 99.0584L221.363 94.8416Z" fill="black"/>
<path d="M208.813 86.4472C208.813 86.4472 208.925 92.0472 212.201 93.688C215.477 95.3288 213.718 85.0808 213.718 85.0808L208.813 86.4472Z" fill="#263238"/>
<path d="M221.407 96.5889C220.954 97.5995 220.181 98.4329 219.208 98.9602C218.234 99.4876 217.114 99.6796 216.02 99.5065C214.604 99.3095 213.315 98.5831 212.414 97.4737C212.287 97.3203 212.169 97.1595 212.061 96.9921C210.045 93.8841 208.583 88.0993 211.747 85.2881C212.444 84.6629 213.29 84.2266 214.204 84.0206C215.117 83.8146 216.068 83.8459 216.967 84.1114C217.865 84.3769 218.68 84.8678 219.335 85.5374C219.989 86.207 220.462 87.0331 220.707 87.9369C221.805 91.7785 222.639 93.9905 221.407 96.5889Z" fill="#B97964"/>
<path d="M215.342 91.0168C215.409 91.1301 215.429 91.2649 215.397 91.3925C215.366 91.5202 215.286 91.6305 215.174 91.7C214.967 91.7728 214.721 91.5768 214.614 91.2688C214.508 90.9608 214.586 90.6584 214.782 90.5856C214.978 90.5128 215.23 90.72 215.342 91.0168Z" fill="#263238"/>
<path d="M211.865 92.2432C211.931 92.3565 211.951 92.4913 211.92 92.619C211.888 92.7466 211.808 92.8569 211.697 92.9264C211.501 92.9936 211.249 92.8032 211.137 92.4952C211.025 92.1872 211.137 91.8848 211.305 91.812C211.473 91.7392 211.764 91.952 211.865 92.2432Z" fill="#263238"/>
<path d="M213.024 92.0024C212.984 93.0724 212.795 94.1316 212.464 95.1497C212.728 95.2269 213.006 95.2449 213.278 95.2023C213.55 95.1597 213.809 95.0576 214.037 94.9032L213.024 92.0024Z" fill="#A24E3F"/>
<path d="M216.02 89.5105C215.989 89.5282 215.955 89.5375 215.919 89.5375C215.884 89.5375 215.849 89.5282 215.819 89.5105C215.621 89.3749 215.395 89.2867 215.158 89.2528C214.921 89.2188 214.68 89.2399 214.452 89.3145C214.429 89.3248 214.405 89.3305 214.38 89.3313C214.355 89.3321 214.33 89.3279 214.306 89.3191C214.283 89.3103 214.262 89.2969 214.243 89.2798C214.225 89.2626 214.21 89.2421 214.2 89.2193C214.181 89.1724 214.181 89.12 214.2 89.073C214.219 89.026 214.255 88.9882 214.301 88.9673C214.586 88.864 214.892 88.8304 215.193 88.8694C215.494 88.9084 215.782 89.0187 216.031 89.1913C216.072 89.2197 216.101 89.2624 216.113 89.311C216.124 89.3596 216.117 89.4108 216.093 89.4545C216.072 89.4776 216.048 89.4966 216.02 89.5105Z" fill="#263238"/>
<path d="M215.118 96.32C215.582 96.2317 216.018 96.033 216.388 95.7405C216.758 95.448 217.053 95.0705 217.246 94.64C217.255 94.614 217.254 94.5854 217.243 94.5603C217.231 94.5353 217.21 94.5156 217.185 94.5056C217.16 94.4977 217.133 94.499 217.11 94.5093C217.086 94.5196 217.067 94.5382 217.056 94.5616C216.869 94.9569 216.593 95.3031 216.249 95.5725C215.905 95.8419 215.502 96.0269 215.074 96.1128C215.061 96.1148 215.049 96.1193 215.038 96.1261C215.027 96.1329 215.018 96.1417 215.011 96.1522C215.003 96.1626 214.998 96.1745 214.996 96.1869C214.993 96.1994 214.993 96.2123 214.995 96.2248C215.001 96.2495 215.015 96.2714 215.036 96.2859C215.057 96.3004 215.082 96.3066 215.107 96.3032L215.118 96.32Z" fill="#263238"/>
<path d="M209.95 91.5713C209.937 91.5852 209.921 91.5963 209.904 91.604C209.886 91.6117 209.868 91.6158 209.849 91.6161C209.824 91.614 209.799 91.6069 209.777 91.5953C209.755 91.5838 209.735 91.5679 209.719 91.5486C209.703 91.5294 209.69 91.5071 209.683 91.4831C209.675 91.4591 209.673 91.4339 209.675 91.4089C209.703 91.1062 209.804 90.8147 209.967 90.5585C210.131 90.3024 210.353 90.089 210.616 89.9361C210.662 89.9146 210.715 89.912 210.763 89.9287C210.811 89.9454 210.851 89.9802 210.874 90.0257C210.894 90.0706 210.896 90.1214 210.881 90.1681C210.865 90.2148 210.833 90.2539 210.79 90.2777C210.585 90.4049 210.413 90.5778 210.287 90.7829C210.16 90.9879 210.083 91.2194 210.062 91.4593C210.052 91.4849 210.037 91.5081 210.018 91.5275C209.998 91.5468 209.975 91.5617 209.95 91.5713Z" fill="#263238"/>
<path d="M216.261 84.2072L216.563 85.96C216.892 86.0074 217.19 86.1776 217.398 86.4365C217.606 86.6953 217.708 87.0234 217.683 87.3544C217.566 88.9392 219.033 90.8992 220.388 91.4536C220.388 91.4536 220.237 90.8264 220.802 90.8152C221.368 90.804 222.186 94.052 221.631 95.8888C221.631 95.8888 222.751 94.0464 222.6 90.4176C222.466 87.0576 221.788 84.4424 220.786 83.4288L216.261 84.2072Z" fill="#263238"/>
<path d="M223.44 90.4456C223.322 91.447 222.813 92.3612 222.023 92.988C220.97 93.8112 219.94 92.988 219.783 91.7336C219.671 90.6136 220.069 88.8048 221.334 88.4856C221.613 88.4061 221.907 88.3999 222.188 88.4675C222.469 88.5351 222.729 88.6742 222.94 88.8713C223.152 89.0685 223.309 89.317 223.397 89.5928C223.484 89.8686 223.499 90.1624 223.44 90.4456Z" fill="#B97964"/>
<path d="M216.563 85.96C216.563 85.96 215.118 87.5896 214.323 87.2816C213.528 86.9736 214.004 86.0944 214.004 86.0944C214.004 86.0944 211.966 88.2168 210.812 88.3736C209.658 88.5304 210.213 86.7496 210.213 86.7496C210.213 86.7496 209.227 89.5944 208.258 89.1128C207.788 88.8776 206.836 86.0216 210.039 83.4288C213.242 80.836 217.246 80.9424 218.585 81.9616C219.283 81.8931 219.984 82.0621 220.574 82.4411C221.165 82.8201 221.61 83.387 221.838 84.0504C222.958 87.1472 216.563 85.96 216.563 85.96Z" fill="#263238"/>
<path d="M234.455 130.659C238.403 151.262 225.053 179.788 226.156 223.95H218.764C218.764 223.95 212.761 193.2 217.414 140.935L213.287 131.415L234.455 130.659Z" fill="#176DE4"/>
<path opacity="0.2" d="M234.455 130.659C238.403 151.262 225.053 179.788 226.156 223.95H218.764C218.764 223.95 212.761 193.2 217.414 140.935L213.287 131.415L234.455 130.659Z" fill="white"/>
<path d="M217.919 224.879H226.632V222.275L217.588 222.107L217.919 224.879Z" fill="#176DE4"/>
<path opacity="0.6" d="M217.919 224.879H226.632V222.275L217.588 222.107L217.919 224.879Z" fill="white"/>
<path d="M217.986 135.862C217.963 135.861 217.94 135.856 217.919 135.845C217.899 135.834 217.881 135.819 217.868 135.8C217.335 134.802 217.02 133.703 216.944 132.574C216.568 133.632 216.117 134.661 215.594 135.654C215.576 135.686 215.546 135.709 215.51 135.72C215.475 135.73 215.437 135.727 215.404 135.71C215.372 135.692 215.349 135.661 215.34 135.626C215.33 135.59 215.335 135.552 215.354 135.52C215.76 134.753 216.119 133.962 216.429 133.151C216.02 133.711 215.482 134.187 214.934 134.103C214.658 134.065 214.403 133.933 214.213 133.729C214.024 133.525 213.91 133.261 213.892 132.983C213.926 132.53 214.379 131.768 217.034 131.768C219.638 131.768 220.438 132.328 220.646 132.838C220.713 133.005 220.727 133.189 220.687 133.365C220.647 133.541 220.555 133.701 220.422 133.823C220.262 134.001 220.056 134.133 219.827 134.203C219.598 134.273 219.355 134.279 219.122 134.221C218.328 133.828 217.664 133.216 217.207 132.457C217.276 133.577 217.58 134.67 218.098 135.666C218.108 135.681 218.115 135.697 218.119 135.715C218.122 135.733 218.122 135.751 218.119 135.769C218.115 135.787 218.108 135.804 218.098 135.819C218.087 135.834 218.074 135.846 218.058 135.856C218.035 135.865 218.01 135.867 217.986 135.862ZM217.28 132.031C217.577 132.502 218.355 133.627 219.223 133.935C219.404 133.978 219.592 133.97 219.769 133.914C219.945 133.858 220.103 133.755 220.226 133.616C220.317 133.53 220.381 133.421 220.412 133.3C220.443 133.179 220.438 133.051 220.399 132.933C220.282 132.67 219.75 132.07 217.28 132.031ZM216.804 132.031C214.43 132.076 214.189 132.77 214.172 132.989C214.144 133.381 214.586 133.767 214.978 133.829C215.645 133.924 216.446 132.72 216.804 132.031Z" fill="white"/>
<path opacity="0.2" d="M234.987 123.138C229.141 119.218 230.916 110.645 230.916 110.645L234.276 110.46C234.744 114.67 234.981 118.902 234.987 123.138Z" fill="black"/>
<path d="M233.206 113.859C233.206 113.859 238.655 124.32 239.12 125.53C239.585 126.739 242.116 141.12 242.116 141.12L244.753 140.969C244.753 140.969 243.852 126.56 243.527 125.44C243.202 124.32 238.246 113.232 238.246 113.232L233.206 113.859Z" fill="#B97964"/>
<path d="M232.484 101.83C235.631 100.794 240.738 114.47 240.738 114.47L233.089 117.639C233.089 117.639 227.36 103.527 232.484 101.83Z" fill="#176DE4"/>
<path opacity="0.6" d="M232.484 101.83C235.631 100.794 240.738 114.47 240.738 114.47L233.089 117.639C233.089 117.639 227.36 103.527 232.484 101.83Z" fill="white"/>
<path d="M242.48 139.311L241.242 142.408L242.48 147.683L247.442 145.818C247.442 145.818 247.246 140.963 242.48 139.311Z" fill="#B97964"/>
<path d="M197.327 137.346C197.327 137.346 195.261 137.967 194.846 137.861C194.432 137.754 192.046 143.03 192.046 143.03C192.046 143.03 196.594 144.474 197.316 144.374C198.038 144.273 200.43 139.826 197.327 137.346Z" fill="#B97964"/>
<path d="M186.094 213.254C190.221 213.254 193.211 212.055 193.211 209.059C193.211 209.059 196.09 213.276 191.442 214.715L192.601 215.477C192.601 215.477 187.561 217.336 185.125 215.197C182.689 213.058 186.094 213.254 186.094 213.254Z" fill="#176DE4"/>
<path opacity="0.3" d="M186.094 213.254C190.221 213.254 193.211 212.055 193.211 209.059C193.211 209.059 196.09 213.276 191.442 214.715L192.601 215.477C192.601 215.477 187.561 217.336 185.125 215.197C182.689 213.058 186.094 213.254 186.094 213.254Z" fill="white"/>
<path d="M172.777 222.107C173.051 221.178 166.186 217.913 166.186 217.913C166.242 218.411 168.986 226.05 170.229 227.433C171.086 228.413 170.929 231.431 170.755 233.128C170.145 233.223 168.823 233.514 169.137 234.315H171.668C171.668 234.315 172.547 228.48 172.788 227.769C173.029 227.058 172.48 223.037 172.777 222.107Z" fill="#176DE4"/>
<path d="M187.342 223.339L180.622 220.231C180.622 220.231 180.622 225.775 180.986 227.36C181.244 228.48 180.37 231.521 179.838 233.184C179.183 233.318 178.265 233.632 178.534 234.304H181.059C181.075 234.198 181.075 234.091 181.059 233.985C181.53 232.921 183.053 229.477 183.411 228.861C183.842 228.144 187.342 223.339 187.342 223.339Z" fill="#176DE4"/>
<g opacity="0.3">
<path opacity="0.3" d="M172.777 222.107C173.051 221.178 166.186 217.913 166.186 217.913C166.242 218.411 168.986 226.05 170.229 227.433C171.086 228.413 170.929 231.431 170.755 233.128C170.145 233.223 168.823 233.514 169.137 234.315H171.668C171.668 234.315 172.547 228.48 172.788 227.769C173.029 227.058 172.48 223.037 172.777 222.107Z" fill="white"/>
<path opacity="0.3" d="M187.342 223.339L180.622 220.231C180.622 220.231 180.622 225.775 180.986 227.36C181.244 228.48 180.37 231.521 179.838 233.184C179.183 233.318 178.265 233.632 178.533 234.304H181.059C181.075 234.198 181.075 234.091 181.059 233.985C181.529 232.921 183.053 229.477 183.411 228.861C183.842 228.144 187.342 223.339 187.342 223.339Z" fill="white"/>
</g>
<path d="M192.158 234.293C192.165 234.195 192.155 234.097 192.13 234.002C192.03 232.775 191.626 228.334 191.33 227.842C190.378 226.201 189.594 221.822 189.554 220.847C189.515 219.873 188.994 213.186 180.594 213.186C177.956 213.192 175.33 212.815 172.799 212.066C170.374 211.198 168.756 211.103 168.879 209.334C169.002 207.564 167.843 204.534 167.401 204.462C166.958 204.389 163.531 202.916 162.305 203.342C161.644 203.577 160.944 205.072 160.272 205.302C159.6 205.531 157.506 204.82 157.506 204.82C157.506 204.82 157.578 207.922 158.206 209.25C158.766 210.448 161.946 209.978 164.136 213.282L164.819 217.42V223.149L161.157 226.122L159.869 227.293C159.309 227.416 158.189 227.853 158.189 228.295C158.189 228.855 158.116 229.662 159.555 229.219C160.339 228.978 160.63 228.547 160.63 228.138C162.203 227.372 163.817 226.692 165.463 226.1C168.51 225.182 168.459 223.149 168.459 223.149L182.314 223.418C183.876 225.658 187.617 227.814 188.227 228.458C188.664 228.939 189.756 231.778 190.322 233.307C189.818 233.486 189.375 233.789 189.571 234.287H192.102L192.158 234.293Z" fill="#176DE4"/>
<path opacity="0.6" d="M192.158 234.293C192.165 234.195 192.155 234.097 192.13 234.002C192.03 232.775 191.626 228.334 191.33 227.842C190.378 226.201 189.594 221.822 189.554 220.847C189.515 219.873 188.994 213.186 180.594 213.186C177.956 213.192 175.33 212.815 172.799 212.066C170.374 211.198 168.756 211.103 168.879 209.334C169.002 207.564 167.843 204.534 167.401 204.462C166.958 204.389 163.531 202.916 162.305 203.342C161.644 203.577 160.944 205.072 160.272 205.302C159.6 205.531 157.506 204.82 157.506 204.82C157.506 204.82 157.578 207.922 158.206 209.25C158.766 210.448 161.946 209.978 164.136 213.282L164.819 217.42V223.149L161.157 226.122L159.869 227.293C159.309 227.416 158.189 227.853 158.189 228.295C158.189 228.855 158.116 229.662 159.555 229.219C160.339 228.978 160.63 228.547 160.63 228.138C162.203 227.372 163.817 226.692 165.463 226.1C168.51 225.182 168.459 223.149 168.459 223.149L182.314 223.418C183.876 225.658 187.617 227.814 188.227 228.458C188.664 228.939 189.756 231.778 190.322 233.307C189.818 233.486 189.375 233.789 189.571 234.287H192.102L192.158 234.293Z" fill="white"/>
<path d="M164.55 203.442C164.987 203.14 166.79 203.179 167.53 203.918C168.269 204.658 170.486 207.575 169.708 208.398C168.929 209.222 165.648 211.019 165.39 209.518C165.133 208.018 164.55 203.442 164.55 203.442Z" fill="#176DE4"/>
<path d="M162.097 205.52C162.142 205.738 162.053 205.946 161.896 205.974C161.739 206.002 161.582 205.85 161.537 205.626C161.507 205.539 161.512 205.444 161.549 205.36C161.586 205.276 161.654 205.209 161.739 205.173C161.896 205.134 162.058 205.29 162.097 205.52Z" fill="#263238"/>
<path d="M158.15 205.022C158.15 205.022 157.819 204.658 157.545 204.658C157.27 204.658 157.27 205.307 157.601 205.878C157.601 205.878 158.39 205.234 158.15 205.022Z" fill="#263238"/>
<path opacity="0.3" d="M164.55 203.442C164.987 203.14 166.79 203.179 167.53 203.918C168.269 204.658 170.486 207.575 169.708 208.398C168.929 209.222 165.648 211.019 165.39 209.518C165.133 208.018 164.55 203.442 164.55 203.442Z" fill="white"/>
<path d="M164.08 214.284C164.08 214.284 168.347 212.856 169.512 210.089L169.926 211.041C169.926 211.041 168.067 214.715 164.466 215.062L164.08 214.284Z" fill="#263238"/>
<path d="M164.64 215.488C164.64 215.897 164.427 216.227 164.158 216.227C163.89 216.227 163.677 215.897 163.677 215.488C163.677 215.079 163.89 214.749 164.158 214.749C164.427 214.749 164.64 215.079 164.64 215.488Z" fill="#176DE4"/>
<path d="M200.138 144.446C200.005 144.446 199.872 144.435 199.741 144.413C198.285 144.178 192.931 141.747 192.702 141.646L192.937 141.137C192.987 141.137 198.447 143.64 199.83 143.858C200.497 143.965 200.95 143.718 201.04 143.427C201.13 143.136 200.855 142.811 200.334 142.576L200.564 142.066C201.516 142.498 201.712 143.136 201.572 143.59C201.459 143.869 201.258 144.104 200.999 144.259C200.74 144.413 200.438 144.479 200.138 144.446Z" fill="#263238"/>
<path d="M107.005 163.962L106.557 162.49C106.668 162.334 106.746 162.157 106.785 161.97C106.823 161.783 106.822 161.59 106.781 161.403C106.624 160.843 105.694 158.525 105.694 158.525C105.694 158.525 103.746 159.488 103.684 159.936C103.622 160.384 104.77 162.042 104.77 162.042L105.33 162.49L105.666 164.304L107.005 163.962Z" fill="#EBB376"/>
<path d="M139.933 188.832L141.786 189.151C141.786 189.151 142.486 188.955 142.806 188.832C143.125 188.709 146.261 189.532 146.261 189.532C146.261 189.532 145.298 191.772 144.581 191.705C143.772 191.543 142.979 191.308 142.212 191.005L142.022 190.49L139.916 190.26L139.933 188.832Z" fill="#EBB376"/>
<path d="M127.12 181.67C127.12 181.67 135.8 187.488 141.366 188.832L141.047 190.512C141.047 190.512 134.714 190.45 126.599 186.105L127.12 181.67Z" fill="#176DE4"/>
<path opacity="0.6" d="M127.12 181.67C127.12 181.67 135.8 187.488 141.366 188.832L141.047 190.512C141.047 190.512 134.714 190.45 126.599 186.105L127.12 181.67Z" fill="white"/>
<path d="M115.041 176.036C115.041 176.036 110.18 171.22 109.67 170.184C109.161 169.148 107.083 162.826 107.083 162.826L105.358 163.15C105.358 163.15 106.988 169.338 107.083 170.29C107.178 171.242 113.411 179.25 113.411 179.25L115.041 176.036Z" fill="#176DE4"/>
<path opacity="0.6" d="M115.041 176.036C115.041 176.036 110.18 171.22 109.67 170.184C109.161 169.148 107.083 162.826 107.083 162.826L105.358 163.15C105.358 163.15 106.988 169.338 107.083 170.29C107.178 171.242 113.411 179.25 113.411 179.25L115.041 176.036Z" fill="white"/>
<path d="M116.334 208.006C114.24 223.003 107.442 232.529 107.442 232.529L104.451 231.616C108.924 223.948 111.101 215.156 110.723 206.287L116.334 208.006Z" fill="#EBB376"/>
<path d="M124.219 204.333C133.387 216.384 135.358 227.92 135.358 227.92L132.603 229.393C130.311 220.817 125.605 213.079 119.045 207.099L124.219 204.333Z" fill="#EBB376"/>
<path d="M134.921 226.615L132.121 228.172C132.097 228.183 132.076 228.199 132.058 228.219C132.04 228.239 132.027 228.262 132.019 228.287C132.01 228.312 132.007 228.339 132.009 228.365C132.011 228.392 132.019 228.417 132.031 228.441L133.151 230.709C133.216 230.824 133.323 230.908 133.45 230.945C133.577 230.982 133.713 230.967 133.829 230.905C134.786 230.345 135.218 230.031 136.433 229.337C137.54 228.77 138.607 228.126 139.625 227.41C140.56 226.671 139.804 225.769 139.345 225.999C138.104 226.503 136.754 226.68 135.425 226.514C135.25 226.488 135.072 226.524 134.921 226.615Z" fill="#263238"/>
<path d="M136.03 226.542C135.805 226.661 135.569 226.755 135.324 226.822C135.313 226.829 135.301 226.833 135.288 226.833C135.275 226.833 135.262 226.829 135.251 226.822C135.246 226.811 135.243 226.799 135.243 226.786C135.243 226.773 135.246 226.761 135.251 226.75C135.296 226.649 135.727 225.781 136.097 225.725C136.139 225.719 136.182 225.724 136.221 225.74C136.26 225.755 136.295 225.781 136.321 225.814C136.372 225.858 136.409 225.916 136.429 225.98C136.449 226.045 136.45 226.113 136.433 226.178C136.348 226.345 136.204 226.475 136.03 226.542ZM136.119 225.854C135.918 225.882 135.626 226.318 135.442 226.66C135.929 226.498 136.248 226.302 136.298 226.1C136.307 226.06 136.305 226.018 136.292 225.978C136.279 225.939 136.256 225.904 136.226 225.876C136.214 225.86 136.197 225.847 136.179 225.839C136.16 225.831 136.139 225.828 136.119 225.831V225.854Z" fill="#176DE4"/>
<path d="M135.335 226.8C135.324 226.8 135.314 226.798 135.304 226.793C135.294 226.788 135.286 226.781 135.279 226.772C135.279 226.772 134.803 226.066 134.915 225.686C134.931 225.637 134.957 225.592 134.992 225.554C135.027 225.516 135.069 225.487 135.117 225.467C135.167 225.439 135.225 225.43 135.281 225.44C135.337 225.45 135.388 225.48 135.425 225.523C135.511 225.72 135.552 225.934 135.546 226.149C135.541 226.363 135.488 226.574 135.391 226.766L135.335 226.8ZM135.122 225.63C135.077 225.655 135.043 225.697 135.027 225.747C135.027 226.061 135.125 226.366 135.307 226.621C135.429 226.303 135.429 225.952 135.307 225.635C135.307 225.607 135.24 225.579 135.15 225.635L135.122 225.63Z" fill="#176DE4"/>
<path d="M107.621 231.689L104.445 231.487C104.393 231.482 104.34 231.499 104.3 231.532C104.259 231.566 104.233 231.614 104.227 231.666L103.913 234.17C103.906 234.301 103.95 234.431 104.037 234.531C104.124 234.63 104.247 234.691 104.378 234.702C105.498 234.752 106.019 234.702 107.413 234.797C108.652 234.925 109.899 234.965 111.143 234.914C112.325 234.802 112.179 233.632 111.669 233.576C110.354 233.333 109.123 232.755 108.097 231.896C107.964 231.778 107.797 231.705 107.621 231.689Z" fill="#263238"/>
<path d="M108.595 232.232C108.34 232.21 108.089 232.159 107.845 232.081C107.833 232.078 107.822 232.072 107.814 232.063C107.806 232.054 107.801 232.042 107.8 232.03C107.797 232.018 107.798 232.004 107.803 231.992C107.808 231.98 107.817 231.97 107.828 231.963C107.923 231.907 108.758 231.403 109.099 231.566C109.137 231.584 109.17 231.611 109.194 231.646C109.219 231.68 109.234 231.72 109.239 231.762C109.258 231.826 109.258 231.895 109.239 231.959C109.22 232.024 109.183 232.081 109.133 232.126C108.973 232.227 108.781 232.265 108.595 232.232ZM109.043 231.7C108.858 231.616 108.377 231.823 108.035 232.008C108.534 232.142 108.909 232.148 109.049 232.008C109.079 231.979 109.1 231.942 109.111 231.901C109.122 231.861 109.122 231.819 109.11 231.778C109.108 231.758 109.101 231.739 109.089 231.722C109.077 231.706 109.061 231.692 109.043 231.683V231.7Z" fill="#176DE4"/>
<path d="M107.862 232.086H107.834C107.824 232.082 107.816 232.075 107.81 232.066C107.804 232.057 107.801 232.047 107.8 232.036C107.8 232.008 107.8 231.179 108.086 230.916C108.126 230.884 108.173 230.861 108.223 230.848C108.274 230.836 108.326 230.834 108.377 230.843C108.432 230.85 108.484 230.874 108.524 230.912C108.565 230.951 108.592 231.001 108.601 231.056C108.646 231.37 108.186 231.935 107.895 232.081L107.862 232.086ZM108.321 230.966C108.268 230.965 108.216 230.983 108.175 231.017C107.99 231.174 107.946 231.638 107.934 231.902C108.218 231.705 108.417 231.409 108.494 231.073C108.494 231.039 108.494 230.989 108.371 230.972L108.321 230.966Z" fill="#176DE4"/>
<path d="M123.592 195.009C125.3 197.249 124.875 199.886 128.884 210.179C128.884 210.179 124.449 213.662 116.514 213.662C112.863 213.715 109.222 213.262 105.695 212.318C106.579 207.278 106.619 196.375 108.265 192.545L123.592 195.009Z" fill="#176DE4"/>
<path d="M123.592 195.009C123.962 191.8 125.395 184.526 126.857 182.022C126.857 182.022 125.737 180.102 120.859 178.534C118.804 177.863 116.847 176.921 115.041 175.734C115.041 175.734 110.096 184.346 108.265 192.562L123.592 195.009Z" fill="#176DE4"/>
<path d="M116.396 176.551L109.183 190.809L107.005 189.918L113.904 174.894L116.396 176.551Z" fill="#176DE4"/>
<path d="M124.466 179.687L125.048 194.135H127.092V181.67L124.466 179.687Z" fill="#176DE4"/>
<g opacity="0.6">
<path opacity="0.6" d="M116.396 176.551L109.183 190.809L107.005 189.918L113.904 174.894L116.396 176.551Z" fill="white"/>
<path opacity="0.6" d="M124.466 179.687L125.048 194.135H127.092V181.67L124.466 179.687Z" fill="white"/>
</g>
<path d="M115.36 178.494C115.36 178.494 114.274 174.748 115.018 174.317C115.763 173.886 125.014 177.856 126.101 179.026C127.187 180.197 124.421 182.566 124.421 182.566C124.421 182.566 125.278 180.522 120.815 178.534C116.351 176.546 115.36 178.494 115.36 178.494Z" fill="#176DE4"/>
<path opacity="0.4" d="M115.36 178.494C115.36 178.494 114.274 174.748 115.018 174.317C115.763 173.886 125.014 177.856 126.101 179.026C127.187 180.197 124.421 182.566 124.421 182.566C124.421 182.566 125.278 180.522 120.815 178.534C116.351 176.546 115.36 178.494 115.36 178.494Z" fill="white"/>
<path d="M126.414 163.47C126.414 163.47 120.254 161.353 115.332 168.062C110.41 174.77 125.927 179.95 128.279 179.122C130.631 178.293 134.07 165.693 126.414 163.47Z" fill="#263238"/>
<path d="M122.959 180.387L120.512 180.494L117.578 178.814C117.831 178.694 118.065 178.537 118.272 178.349C119.627 177.111 118.726 175.129 118.726 175.129L120.523 175.224L124.443 175.426C121.906 177.828 122.959 180.387 122.959 180.387Z" fill="#EBB376"/>
<path opacity="0.2" d="M123.446 176.501C123.446 176.501 120.708 179.11 118.272 178.36C119.627 177.122 118.726 175.14 118.726 175.14L120.523 175.235L123.446 176.501Z" fill="black"/>
<path d="M122.427 163.52C122.427 163.52 117.348 164.702 119.767 169.898C122.5 175.762 122.427 163.52 122.427 163.52Z" fill="#263238"/>
<path d="M128.733 172.754C127.154 175.437 124.057 177.744 121.542 177.016C116.928 175.683 115.679 174.048 116.766 170.677C117.734 167.63 120.954 163.66 124.863 164.567C128.772 165.474 130.923 169.03 128.733 172.754Z" fill="#EBB376"/>
<path d="M121.083 165.155C122.515 165.771 123.992 166.274 125.502 166.662C125.502 166.662 127.484 170.145 126.174 171.87C124.863 173.594 125.698 174.11 124.533 176.702C124.533 176.702 127.333 177.688 130.474 172.357C132.77 168.476 130.043 165.178 126.414 163.47C123.374 162.042 120.176 163.156 121.083 165.155Z" fill="#263238"/>
<path d="M121.979 170.408C121.795 170.75 121.453 170.934 121.223 170.811C120.994 170.688 120.971 170.302 121.162 169.954C121.352 169.607 121.688 169.428 121.912 169.551C122.136 169.674 122.17 170.061 121.979 170.408Z" fill="#263238"/>
<path d="M119.28 168.756C119.101 169.086 118.776 169.266 118.558 169.142C118.339 169.019 118.317 168.655 118.496 168.325C118.675 167.994 119 167.821 119.219 167.938C119.437 168.056 119.459 168.426 119.28 168.756Z" fill="#263238"/>
<path d="M121.934 168.118C121.923 168.083 121.923 168.046 121.934 168.011C121.949 167.966 121.98 167.928 122.022 167.906C122.064 167.884 122.113 167.879 122.158 167.894C122.429 167.973 122.676 168.116 122.88 168.311C123.083 168.506 123.237 168.747 123.329 169.014C123.339 169.059 123.332 169.108 123.308 169.148C123.284 169.189 123.245 169.219 123.2 169.232C123.154 169.24 123.107 169.231 123.067 169.208C123.027 169.184 122.997 169.147 122.982 169.103C122.906 168.891 122.781 168.7 122.616 168.547C122.452 168.394 122.252 168.283 122.035 168.224C122.012 168.215 121.99 168.2 121.973 168.182C121.956 168.163 121.942 168.142 121.934 168.118Z" fill="#263238"/>
<path d="M119.162 166.79C119.134 166.767 119.113 166.736 119.101 166.701C119.093 166.654 119.103 166.606 119.131 166.567C119.158 166.528 119.2 166.502 119.246 166.494C119.522 166.433 119.809 166.441 120.081 166.516C120.353 166.591 120.603 166.731 120.809 166.925C120.826 166.941 120.84 166.961 120.849 166.982C120.858 167.004 120.863 167.027 120.863 167.051C120.863 167.074 120.858 167.098 120.849 167.119C120.84 167.141 120.826 167.161 120.809 167.177C120.793 167.193 120.773 167.206 120.752 167.215C120.731 167.224 120.708 167.228 120.686 167.228C120.663 167.228 120.64 167.224 120.619 167.215C120.598 167.206 120.579 167.193 120.562 167.177C120.389 167.026 120.182 166.921 119.958 166.869C119.735 166.817 119.502 166.821 119.28 166.88C119.255 166.874 119.232 166.863 119.212 166.847C119.192 166.832 119.175 166.812 119.162 166.79Z" fill="#263238"/>
<path d="M119.605 169.456L119.162 171.136C118.747 171.028 118.375 170.798 118.093 170.475C118.655 170.23 119.167 169.885 119.605 169.456Z" fill="#D58745"/>
<path d="M124.762 172.889C124.762 172.889 126.37 171.567 126.969 172.553C127.568 173.538 125.927 176.282 124.628 175.61C123.329 174.938 123.698 173.494 124.762 172.889Z" fill="#EBB376"/>
<path d="M118.474 172.295C118.557 172.765 118.606 173.24 118.619 173.718L118.871 173.751C119.991 173.891 120.551 173.583 120.87 173.191C121.007 172.998 121.097 172.775 121.134 172.542C121.152 172.41 121.152 172.276 121.134 172.144C120.394 172.369 119.615 172.432 118.849 172.329C118.625 172.318 118.474 172.295 118.474 172.295Z" fill="#263238"/>
<path d="M118.866 172.334L118.916 172.754C119.986 172.883 120.759 172.827 121.156 172.547C121.174 172.415 121.174 172.281 121.156 172.15C120.415 172.375 119.634 172.438 118.866 172.334Z" fill="white"/>
<path d="M118.871 173.751C119.991 173.891 120.551 173.583 120.871 173.191C120.437 173.144 119.999 173.174 119.577 173.281C119.298 173.36 119.051 173.524 118.871 173.751Z" fill="#DE5753"/>
<path d="M124.516 164.5C124.516 164.5 122.59 168.638 124.432 171.422C126.275 174.205 125.776 177.436 124.701 178.046C123.626 178.657 127.899 179.682 129.293 179.077C130.687 178.472 130.575 174.815 130.575 174.815C130.575 174.815 133.241 169.417 131.231 166.415C129.22 163.414 124.516 164.5 124.516 164.5Z" fill="#263238"/>
<path d="M123.726 166.97C123.726 166.97 121.565 164.73 118.261 166.684C118.261 166.684 116.956 167.244 118.686 164.791C120.417 162.338 125.541 161.241 128.699 164.59C131.858 167.938 123.726 166.97 123.726 166.97Z" fill="#263238"/>
<path opacity="0.4" d="M123.592 195.009C125.3 197.249 124.875 199.886 128.884 210.179C128.884 210.179 124.449 213.662 116.514 213.662C112.863 213.715 109.222 213.262 105.695 212.318C106.579 207.278 106.619 196.375 108.265 192.545L123.592 195.009Z" fill="white"/>
<path d="M54.5215 136.08C54.5215 136.08 61.6783 127.226 71.6463 120.865L71.9935 122.511C71.9935 122.511 62.3839 129.752 56.3135 136.976L54.5215 136.08Z" fill="#176DE4"/>
<path opacity="0.3" d="M54.5215 136.08C54.5215 136.08 61.6783 127.226 71.6463 120.865L71.9935 122.511C71.9935 122.511 62.3839 129.752 56.3135 136.976L54.5215 136.08Z" fill="white"/>
<path d="M101.298 153.44L103.219 155.501C103.773 155.578 104.318 155.705 104.849 155.882C105.235 156.078 106.333 159.096 106.383 159.337C106.434 159.578 103.41 160.966 103.124 160.63C102.838 160.294 102.402 158.138 102.306 157.707C102.27 157.29 102.302 156.87 102.402 156.464L100.162 154.347L101.298 153.44Z" fill="#EBB376"/>
<path d="M83.7199 105.84C80.0575 106.462 79.3127 111.524 78.1535 116.81C76.9943 122.097 73.7295 125.255 76.6079 130.25C79.4863 135.246 88.3399 136.769 93.6487 132.838C98.9575 128.906 94.9255 124.583 95.2111 119.459C95.4967 114.335 98.6551 109.939 93.2567 106.372C86.6935 102.054 83.7199 105.84 83.7199 105.84Z" fill="#263238"/>
<path d="M102.766 154.56L101.231 156.475C101.231 156.475 92.0527 146.787 90.8879 144.682C90.3783 143.752 89.7231 141.087 89.1519 138.393C88.5919 135.8 88.1383 133.179 87.9367 132.048C87.8695 131.679 87.8359 131.488 87.8359 131.488L91.6047 128.195C93.5815 130.945 93.2847 142.375 94.4663 143.73C95.6479 145.085 102.766 154.56 102.766 154.56Z" fill="#176DE4"/>
<path opacity="0.2" d="M89.152 138.387C88.592 135.795 88.1384 133.174 87.9368 132.043L89.4656 131.359C89.4656 131.359 91.0952 136.691 89.152 138.387Z" fill="black"/>
<path d="M85.3105 229.483L82.0569 229.914L82.4601 225.288L82.8353 221.043L86.8225 219.879L86.0217 224.963L85.3105 229.483Z" fill="#EBB376"/>
<path opacity="0.2" d="M85.9994 225.07L82.4434 225.378L82.8242 221.088L86.817 219.901L85.9994 225.07Z" fill="black"/>
<path d="M52.4439 225.311L49.2183 224.711L51.0383 220.439L52.7071 216.519L56.8623 216.653L54.5215 221.239L52.4439 225.311Z" fill="#EBB376"/>
<path d="M80.4944 229.415C80.4944 229.051 84.9464 229.337 84.9464 229.337C84.9464 229.337 87.6792 232.137 90.3336 232.742C92.988 233.346 91.504 234.982 88.536 234.982H81.2C79.0944 234.959 80.4104 233.162 80.4944 229.415Z" fill="#263238"/>
<path d="M85.4448 229.908H85.4056V229.88C85.4056 229.88 85.4056 229.852 85.4056 229.841C85.4029 229.824 85.4029 229.807 85.4056 229.791C85.4056 229.74 85.7976 228.71 86.3968 228.463C86.485 228.425 86.5804 228.404 86.6768 228.404C86.7732 228.404 86.8686 228.425 86.9568 228.463C87.1584 228.559 87.2536 228.682 87.248 228.833C87.2424 228.984 86.9176 229.303 86.5536 229.494C86.8899 229.439 87.2347 229.478 87.5504 229.606C87.6087 229.636 87.6601 229.678 87.7015 229.729C87.7429 229.78 87.7735 229.839 87.7912 229.903C87.8237 229.984 87.8304 230.073 87.8104 230.158C87.7904 230.243 87.7445 230.32 87.6792 230.379C87.564 230.457 87.4261 230.494 87.2872 230.485C86.644 230.402 86.0203 230.207 85.4448 229.908ZM85.848 229.835C86.5032 230.115 87.3208 230.356 87.528 230.188C87.528 230.188 87.6008 230.127 87.528 229.953C87.5196 229.919 87.5037 229.887 87.4814 229.86C87.4591 229.833 87.431 229.811 87.3992 229.796C87.2363 229.721 87.0572 229.689 86.8784 229.701C86.5314 229.712 86.1863 229.757 85.848 229.835ZM86.464 228.648C86.1062 228.872 85.831 229.206 85.68 229.6C86.3408 229.348 86.9736 229.007 86.9848 228.805C86.9848 228.743 86.8896 228.687 86.828 228.654C86.7624 228.626 86.6921 228.611 86.6208 228.609C86.5669 228.614 86.5141 228.628 86.464 228.648Z" fill="#176DE4"/>
<path d="M48.5632 223.194C48.72 222.88 52.64 224.941 52.64 224.941C52.64 224.941 53.9952 228.598 56.1624 230.255C58.3296 231.913 56.3192 232.753 53.6144 231.543L46.8944 228.536C45.0128 227.674 46.9504 226.576 48.5632 223.194Z" fill="#263238"/>
<path d="M52.8752 225.68C52.8717 225.667 52.8717 225.654 52.8752 225.641C52.8725 225.628 52.8725 225.615 52.8752 225.602C52.8725 225.589 52.8725 225.575 52.8752 225.563C52.8813 225.547 52.8909 225.534 52.9032 225.523C52.9368 225.484 53.6984 224.694 54.348 224.717C54.4474 224.719 54.5452 224.742 54.635 224.784C54.7248 224.827 54.8045 224.888 54.8688 224.963C55.0144 225.137 55.0536 225.288 54.9808 225.423C54.908 225.557 54.488 225.714 54.0792 225.742C54.4085 225.828 54.7071 226.005 54.9416 226.251C54.9831 226.302 55.013 226.362 55.0295 226.426C55.0459 226.49 55.0484 226.556 55.0368 226.621C55.0329 226.708 55.003 226.792 54.9511 226.861C54.8993 226.931 54.8277 226.984 54.7456 227.013C54.6075 227.035 54.466 227.011 54.3424 226.946C53.7828 226.613 53.2861 226.185 52.8752 225.68ZM53.2728 225.781C53.76 226.302 54.3928 226.856 54.6616 226.783C54.6616 226.783 54.7512 226.783 54.7848 226.582C54.7903 226.548 54.7887 226.514 54.78 226.481C54.7713 226.448 54.7558 226.418 54.7344 226.391C54.6143 226.254 54.4624 226.148 54.292 226.083C53.9644 225.943 53.6227 225.838 53.2728 225.77V225.781ZM54.32 224.935C53.9075 225.001 53.5268 225.198 53.2336 225.495C53.9392 225.54 54.656 225.495 54.7512 225.305C54.7512 225.249 54.712 225.154 54.6672 225.103C54.6207 225.049 54.5635 225.005 54.4992 224.974C54.4421 224.952 54.3815 224.938 54.32 224.935Z" fill="#176DE4"/>
<path d="M79.3577 146.261L79.5705 154.459C79.5705 154.459 86.8505 171.886 89.2473 179.928C91.6441 187.97 87.4329 222.37 87.4329 222.37L81.3177 223.093C81.3177 223.093 78.5177 196.896 77.9969 192.13C77.4761 187.365 72.3409 174.854 72.3409 174.854C72.3409 174.854 71.2209 186.883 70.6609 190.798C70.1009 194.712 57.4785 218.635 57.4785 218.635L51.5369 216.188C51.5369 216.188 59.7689 189.868 59.8361 188.681C59.9033 187.494 52.9593 168.806 63.4705 143.842L79.3577 146.261Z" fill="#263238"/>
<path d="M64.204 142.24L63.4368 144.452L78.9488 148.551L79.856 145.936L64.204 142.24Z" fill="black"/>
<path d="M69.5222 143.045L68.7588 142.823L67.6251 146.709L68.3885 146.932L69.5222 143.045Z" fill="#263238"/>
<path d="M76.0943 145.23L72.6885 144.376L72.0405 146.962L75.4463 147.815L76.0943 145.23Z" fill="white"/>
<path d="M79.0895 145.251L78.3262 145.028L77.1912 148.914L77.9545 149.137L79.0895 145.251Z" fill="#263238"/>
<path d="M91.6047 128.173C90.9327 129.047 90.311 129.853 89.7286 130.659C87.4886 133.683 85.859 135.828 84.6271 137.559C83.2423 139.428 82.042 141.427 81.0431 143.528C80.6399 144.379 80.2423 145.309 79.7999 146.401L64.2039 142.24C67.1439 131.343 69.6583 125.619 70.9239 122.769C70.9403 122.741 70.9534 122.711 70.9631 122.679C71.3429 121.82 72.0189 121.125 72.8679 120.722C73.717 120.319 74.6825 120.235 75.5887 120.484C76.7087 120.787 78.0191 121.167 79.2343 121.604C81.4974 122.439 83.6982 123.435 85.8199 124.583C87.8312 125.64 89.7644 126.84 91.6047 128.173Z" fill="#176DE4"/>
<path opacity="0.6" d="M91.6103 128.173C90.9327 129.046 90.3111 129.853 89.7343 130.659C87.4943 133.655 85.8871 135.794 84.6607 137.508L84.6271 137.558C83.2434 139.432 82.0414 141.432 81.0375 143.534L80.9367 143.746C80.5727 144.536 80.2087 145.426 79.8167 146.401L64.2039 142.24C67.1383 131.342 69.6583 125.625 70.9239 122.774L70.9687 122.679C71.3484 121.821 72.0235 121.127 72.8713 120.724C73.7191 120.321 74.6833 120.236 75.5887 120.484C76.7087 120.786 78.0191 121.167 79.2399 121.604C81.5008 122.441 83.6996 123.436 85.8199 124.583C87.8334 125.64 89.7686 126.839 91.6103 128.173Z" fill="white"/>
<path d="M75.5999 120.484C73.5503 119.924 76.5687 127.165 81.2335 128.571C85.8983 129.976 88.7095 128.251 88.7095 126.891C88.7095 125.53 81.7599 122.114 75.5999 120.484Z" fill="#EBB376"/>
<path d="M81.5361 127.613C78.9153 124.628 79.1393 122.573 79.1393 122.573C82.5777 122.455 83.7201 118.009 83.7201 118.009L86.6937 121.811C86.1743 122.233 85.6875 122.693 85.2377 123.189C83.3057 125.328 84.2633 126.207 84.2633 126.207C83.8545 127.943 81.5361 127.613 81.5361 127.613Z" fill="#EBB376"/>
<path opacity="0.2" d="M86.6936 121.822C86.1742 122.244 85.6874 122.705 85.2376 123.2C83.8712 121.29 83.72 118.02 83.72 118.02L86.6936 121.822Z" fill="black"/>
<path d="M89.936 107.789C93.9512 108.769 94.7184 111.233 94.0072 115.444C93.1168 120.702 91.0728 124.096 86.324 121.772C79.8672 118.608 83.2664 106.165 89.936 107.789Z" fill="#EBB376"/>
<path d="M91.4647 114.587C91.6409 115.265 91.8966 115.919 92.2263 116.536C92.0697 116.674 91.8777 116.765 91.6719 116.8C91.466 116.835 91.2547 116.811 91.0615 116.732L91.4647 114.587Z" fill="#D58745"/>
<path d="M89.0904 113.68C89.0176 114.01 88.7768 114.24 88.5304 114.195C88.284 114.15 88.1888 113.837 88.2616 113.507C88.3344 113.176 88.5696 112.947 88.8216 112.991C89.0736 113.036 89.1632 113.327 89.0904 113.68Z" fill="#263238"/>
<path d="M88.7266 112.969L89.505 112.84C89.505 112.84 89.0402 113.372 88.7266 112.969Z" fill="#263238"/>
<path d="M93.2287 114.492C93.1559 114.823 92.9152 115.052 92.6968 115.007C92.4784 114.963 92.3552 114.649 92.428 114.319C92.5008 113.988 92.736 113.759 92.96 113.803C93.184 113.848 93.3015 114.162 93.2287 114.492Z" fill="#263238"/>
<path d="M92.8647 113.798L93.6487 113.674C93.6487 113.674 93.1559 114.201 92.8647 113.798Z" fill="#263238"/>
<path d="M87.8361 111.261C87.8049 111.261 87.774 111.254 87.7459 111.24C87.7178 111.227 87.6931 111.207 87.6737 111.182C87.6419 111.139 87.6282 111.085 87.6355 111.032C87.6428 110.978 87.6705 110.93 87.7129 110.897C88.0194 110.701 88.3677 110.58 88.7297 110.544C89.0917 110.508 89.457 110.558 89.7961 110.69C89.8211 110.698 89.844 110.712 89.8636 110.73C89.8831 110.748 89.8989 110.769 89.9099 110.793C89.9209 110.817 89.9269 110.843 89.9275 110.87C89.9282 110.896 89.9235 110.923 89.9137 110.947C89.9044 110.972 89.8901 110.996 89.8718 111.015C89.8534 111.035 89.8313 111.05 89.8068 111.061C89.7823 111.072 89.7558 111.078 89.729 111.079C89.7021 111.08 89.6755 111.075 89.6505 111.065C89.3765 110.964 89.0834 110.925 88.7927 110.953C88.502 110.98 88.221 111.072 87.9705 111.222C87.9314 111.25 87.884 111.263 87.8361 111.261Z" fill="#263238"/>
<path d="M94.2031 112.342C94.1746 112.341 94.1465 112.335 94.1205 112.324C94.0944 112.312 94.0711 112.296 94.0519 112.275C93.8922 112.071 93.6882 111.906 93.4554 111.792C93.2225 111.679 92.9669 111.619 92.7079 111.619C92.6544 111.626 92.6005 111.611 92.5579 111.578C92.5154 111.545 92.4877 111.496 92.4811 111.443C92.4744 111.389 92.4892 111.336 92.5223 111.293C92.5554 111.25 92.604 111.223 92.6575 111.216C92.9784 111.212 93.2962 111.28 93.5871 111.416C93.8779 111.552 94.1344 111.751 94.3375 112C94.3741 112.039 94.3945 112.09 94.3945 112.143C94.3945 112.196 94.3741 112.247 94.3375 112.286C94.3015 112.321 94.2534 112.341 94.2031 112.342Z" fill="#263238"/>
<path d="M83.8993 113.49C83.8993 113.49 86.5817 110.645 86.9177 108.03C86.9177 108.03 95.6649 106.719 94.0913 114.89C94.0913 114.89 96.6169 107.907 89.7513 106.07C82.8857 104.233 80.4609 114.33 83.2889 118.211C83.2889 118.211 82.2361 115.271 83.8993 113.49Z" fill="#263238"/>
<path d="M84.3472 114.498C84.3848 114.263 84.3757 114.023 84.3206 113.792C84.2655 113.561 84.1654 113.343 84.026 113.151C83.8867 112.958 83.7108 112.795 83.5084 112.671C83.306 112.547 83.081 112.463 82.8464 112.426C81.5696 112.258 80.3544 114.666 83.3 116.038C83.72 116.234 84.0784 115.859 84.3472 114.498Z" fill="#EBB376"/>
<path d="M90.7593 118.552C90.4032 118.872 90.0719 119.218 89.7681 119.588L89.5497 119.459C88.5641 118.899 88.3065 118.272 88.3121 117.779C88.3211 117.543 88.3885 117.312 88.5081 117.107C88.5696 116.989 88.6468 116.88 88.7377 116.782C89.18 117.415 89.7529 117.946 90.4177 118.339C90.6249 118.479 90.7593 118.552 90.7593 118.552Z" fill="#263238"/>
<path d="M90.4289 118.345L90.1265 118.642C89.2025 118.082 88.6257 117.572 88.5081 117.113C88.5696 116.995 88.6468 116.885 88.7377 116.788C89.1832 117.422 89.76 117.953 90.4289 118.345Z" fill="white"/>
<path d="M89.5497 119.459C88.5641 118.899 88.3065 118.272 88.3121 117.779C88.6821 118.011 89.0082 118.307 89.2753 118.653C89.4497 118.886 89.5457 119.168 89.5497 119.459Z" fill="#DE5753"/>
<path d="M92.0751 129.091C86.8391 134.758 80.9199 145.398 80.9199 145.398C78.0471 142.918 77.9071 136.758 77.9071 136.758C73.0687 141.456 64.2039 140.498 64.2039 140.498C64.2039 140.498 66.1023 134.092 68.0511 128.514C68.5047 127.204 68.9695 125.933 69.4063 124.802C70.3247 122.444 71.1479 120.702 71.6463 120.456C73.3991 119.594 78.1479 120.607 78.1479 120.607L79.1335 132.927L89.4655 126C92.7359 128.414 92.0751 129.091 92.0751 129.091Z" fill="#176DE4"/>
<path d="M79.3688 133.7C79.3688 133.764 79.3498 133.827 79.3141 133.88C79.2784 133.934 79.2277 133.976 79.1683 134C79.109 134.025 79.0437 134.031 78.9807 134.019C78.9177 134.006 78.8598 133.975 78.8144 133.93C78.7689 133.884 78.738 133.826 78.7255 133.763C78.7129 133.7 78.7194 133.635 78.744 133.576C78.7685 133.516 78.8102 133.466 78.8636 133.43C78.917 133.394 78.9798 133.375 79.044 133.375C79.1302 133.375 79.2128 133.409 79.2737 133.47C79.3346 133.531 79.3688 133.614 79.3688 133.7Z" fill="#263238"/>
<path d="M78.8032 135.761C78.8032 135.825 78.7841 135.888 78.7484 135.941C78.7127 135.995 78.662 136.036 78.6027 136.061C78.5433 136.086 78.478 136.092 78.415 136.08C78.352 136.067 78.2941 136.036 78.2487 135.991C78.2033 135.945 78.1723 135.887 78.1598 135.824C78.1473 135.761 78.1537 135.696 78.1783 135.637C78.2029 135.577 78.2445 135.527 78.2979 135.491C78.3513 135.455 78.4141 135.436 78.4784 135.436C78.521 135.436 78.5633 135.445 78.6027 135.461C78.6421 135.477 78.6779 135.501 78.708 135.531C78.7382 135.561 78.7621 135.597 78.7784 135.637C78.7948 135.676 78.8032 135.718 78.8032 135.761Z" fill="#263238"/>
<path d="M57.0807 132.574L68.5663 140.246C68.5663 140.246 66.9311 151.726 65.0943 152.74C63.2575 153.754 49.4143 144.861 48.4623 142.313C47.5103 139.765 57.0807 132.574 57.0807 132.574Z" fill="#176DE4"/>
<path opacity="0.4" d="M57.0807 132.574L68.5663 140.246C68.5663 140.246 66.9311 151.726 65.0943 152.74C63.2575 153.754 49.4143 144.861 48.4623 142.313C47.5103 139.765 57.0807 132.574 57.0807 132.574Z" fill="white"/>
<path d="M65.0049 141.12C65.0049 141.12 76.1489 123.928 74.9225 120.092H76.0033C76.0033 120.092 78.1705 124.18 66.8249 142.307L65.0049 141.12Z" fill="#176DE4"/>
<path opacity="0.3" d="M65.0049 141.12C65.0049 141.12 76.1489 123.928 74.9225 120.092H76.0033C76.0033 120.092 78.1705 124.18 66.8249 142.307L65.0049 141.12Z" fill="white"/>
<path d="M65.0047 133.375L66.6007 135.055C66.6007 135.055 68.2471 134.932 68.8407 134.865C69.4343 134.798 70.7839 136.08 70.7783 136.399C70.7727 136.718 68.5943 139.44 68.5943 139.44L66.4215 138.382L65.5647 136.08L64.2039 134.484L65.0047 133.375Z" fill="#EBB376"/>
<path opacity="0.2" d="M70.7673 125.283C70.7673 125.283 69.4457 127.523 68.0513 128.515C68.5049 127.204 68.9697 125.933 69.4065 124.802L70.7673 125.283Z" fill="black"/>
<path d="M73.0577 120.109C71.7025 119.896 62.9777 122.831 60.0433 124.807C57.4841 126.543 60.3401 131.527 64.6241 135.447L65.9345 133.823C65.9345 133.823 62.1153 128.554 62.6305 127.036C65.9457 126.762 70.7673 125.295 70.7673 125.295L73.0577 120.109Z" fill="#176DE4"/>
</svg>
